<?xml version="1.0" standalone="no"?>
<!DOCTYPE svg PUBLIC "-//W3C//DTD SVG 1.1//EN" "http://www.w3.org/Graphics/SVG/1.1/DTD/svg11.dtd" >
<svg xmlns="http://www.w3.org/2000/svg" xmlns:xlink="http://www.w3.org/1999/xlink" version="1.1">
<metadata>
Created by FontForge 20201107 at Thu Jun 10 13:14:59 2021
 By Jimmy Wärting
Copyright \(c\) 2015 by Fontfabric LLC. All rights reserved.
</metadata>
<defs>
<font id="Muller-Trial-ExtraBold" horiz-adv-x="314" >
  <font-face 
    font-family="Muller-Trial ExtraBold"
    font-weight="800"
    font-stretch="normal"
    units-per-em="1000"
    panose-1="0 0 0 0 0 0 0 0 0 0"
    ascent="767"
    descent="-233"
    x-height="480"
    cap-height="700"
    bbox="-55 -235 1110 916"
    underline-thickness="50"
    underline-position="-125"
    stemh="130"
    stemv="170"
    unicode-range="U+0020-F8FF"
  />
<missing-glyph horiz-adv-x="305" 
d="M205 -115c0 25 -17 44 -41 49v-23c13 -3 21 -13 21 -26c0 -17 -15 -30 -32 -30c-18 0 -32 13 -32 30c0 13 7 23 19 26v22c-24 -4 -40 -24 -40 -48c0 -30 23 -53 53 -53s52 23 52 53zM100 -3c0 -30 23 -53 53 -53s52 23 52 53c0 31 -22 54 -52 54s-53 -23 -53 -54z
M100 398c0 -29 23 -52 53 -52s52 23 52 52c0 26 -17 45 -41 50v-23c13 -3 21 -13 21 -27c0 -17 -15 -30 -32 -30c-18 0 -32 13 -32 30c0 13 7 23 19 27v23c-24 -5 -40 -25 -40 -50zM100 714c0 -23 11 -37 31 -37c22 0 26 19 30 34c2 10 4 19 12 19s12 -7 12 -16
c0 -8 -4 -16 -15 -16v-23c22 0 35 16 35 39c0 22 -11 39 -33 39c-21 0 -27 -19 -31 -35c-2 -11 -4 -20 -12 -20c-6 0 -9 8 -9 16c0 7 4 15 13 15v21c-21 0 -33 -13 -33 -36zM102 69h101v21h-63l63 46v18h-101v-21h62l-62 -44v-20zM102 168h21v30h80v21h-80v28h-21v-79z
M102 281l101 -39v23l-18 7v40l18 8v23l-101 -41v-21zM102 453h21v28h80v23h-80v27h-21v-78zM102 575h63c23 0 40 18 40 43c0 23 -17 41 -40 41h-63v-22h62c13 0 21 -8 21 -19c0 -13 -8 -21 -21 -21h-62v-22zM121 -3c0 18 14 32 32 32c17 0 32 -14 32 -32
c0 -17 -15 -32 -32 -32c-18 0 -32 15 -32 32zM128 292l37 14v-28z" />
    <glyph glyph-name="f_f" unicode="ff" 
d="M125 -92v-30h86v-24h-86v-30h-22v84h22zM100 433c0 -33 25 -58 57 -58s57 25 57 58s-25 58 -57 58s-57 -25 -57 -58zM103 -76h108v23h-37v16l37 21v26l-41 -24c-6 12 -17 20 -31 20c-21 0 -36 -16 -36 -38v-44zM103 26v24h108v-24h-108zM103 106l108 -42v25l-20 7v43
l20 8v26l-108 -44v-23zM103 186h108v66h-21v-42h-87v-24zM103 300h108v23h-41v38h-22v-38h-23v42h-22v-65zM103 509h108v23h-68l68 50v19h-108v-23h66l-66 -47v-22zM103 617h22v30h86v24h-86v30h-22v-84zM123 433c0 20 14 34 34 34s35 -14 35 -34c0 -19 -15 -34 -35 -34
s-34 15 -34 34zM124 -53v19c0 10 6 16 14 16c9 0 15 -6 15 -16v-19h-29zM131 118l39 14v-28z" />
    <glyph glyph-name="f_f_i" unicode="ffi" 
d="M125 -92v-30h86v-24h-86v-30h-22v84h22zM100 433c0 -33 25 -58 57 -58s57 25 57 58s-25 58 -57 58s-57 -25 -57 -58zM103 -76h108v23h-37v16l37 21v26l-41 -24c-6 12 -17 20 -31 20c-21 0 -36 -16 -36 -38v-44zM103 26v24h108v-24h-108zM103 106l108 -42v25l-20 7v43
l20 8v26l-108 -44v-23zM103 186h108v66h-21v-42h-87v-24zM103 300h108v23h-41v38h-22v-38h-23v42h-22v-65zM103 509h108v23h-68l68 50v19h-108v-23h66l-66 -47v-22zM103 617h22v30h86v24h-86v30h-22v-84zM123 433c0 20 14 34 34 34s35 -14 35 -34c0 -19 -15 -34 -35 -34
s-34 15 -34 34zM124 -53v19c0 10 6 16 14 16c9 0 15 -6 15 -16v-19h-29zM131 118l39 14v-28z" />
    <glyph glyph-name="f_f_l" unicode="ffl" 
d="M125 -92v-30h86v-24h-86v-30h-22v84h22zM100 433c0 -33 25 -58 57 -58s57 25 57 58s-25 58 -57 58s-57 -25 -57 -58zM103 -76h108v23h-37v16l37 21v26l-41 -24c-6 12 -17 20 -31 20c-21 0 -36 -16 -36 -38v-44zM103 26v24h108v-24h-108zM103 106l108 -42v25l-20 7v43
l20 8v26l-108 -44v-23zM103 186h108v66h-21v-42h-87v-24zM103 300h108v23h-41v38h-22v-38h-23v42h-22v-65zM103 509h108v23h-68l68 50v19h-108v-23h66l-66 -47v-22zM103 617h22v30h86v24h-86v30h-22v-84zM123 433c0 20 14 34 34 34s35 -14 35 -34c0 -19 -15 -34 -35 -34
s-34 15 -34 34zM124 -53v19c0 10 6 16 14 16c9 0 15 -6 15 -16v-19h-29zM131 118l39 14v-28z" />
    <glyph glyph-name="f_i" unicode="fi" 
d="M125 -92v-30h86v-24h-86v-30h-22v84h22zM100 433c0 -33 25 -58 57 -58s57 25 57 58s-25 58 -57 58s-57 -25 -57 -58zM103 -76h108v23h-37v16l37 21v26l-41 -24c-6 12 -17 20 -31 20c-21 0 -36 -16 -36 -38v-44zM103 26v24h108v-24h-108zM103 106l108 -42v25l-20 7v43
l20 8v26l-108 -44v-23zM103 186h108v66h-21v-42h-87v-24zM103 300h108v23h-41v38h-22v-38h-23v42h-22v-65zM103 509h108v23h-68l68 50v19h-108v-23h66l-66 -47v-22zM103 617h22v30h86v24h-86v30h-22v-84zM123 433c0 20 14 34 34 34s35 -14 35 -34c0 -19 -15 -34 -35 -34
s-34 15 -34 34zM124 -53v19c0 10 6 16 14 16c9 0 15 -6 15 -16v-19h-29zM131 118l39 14v-28z" />
    <glyph glyph-name="f_l" unicode="fl" 
d="M125 -92v-30h86v-24h-86v-30h-22v84h22zM100 433c0 -33 25 -58 57 -58s57 25 57 58s-25 58 -57 58s-57 -25 -57 -58zM103 -76h108v23h-37v16l37 21v26l-41 -24c-6 12 -17 20 -31 20c-21 0 -36 -16 -36 -38v-44zM103 26v24h108v-24h-108zM103 106l108 -42v25l-20 7v43
l20 8v26l-108 -44v-23zM103 186h108v66h-21v-42h-87v-24zM103 300h108v23h-41v38h-22v-38h-23v42h-22v-65zM103 509h108v23h-68l68 50v19h-108v-23h66l-66 -47v-22zM103 617h22v30h86v24h-86v30h-22v-84zM123 433c0 20 14 34 34 34s35 -14 35 -34c0 -19 -15 -34 -35 -34
s-34 15 -34 34zM124 -53v19c0 10 6 16 14 16c9 0 15 -6 15 -16v-19h-29zM131 118l39 14v-28z" />
    <glyph glyph-name=".notdef" horiz-adv-x="305" 
d="M205 -115c0 25 -17 44 -41 49v-23c13 -3 21 -13 21 -26c0 -17 -15 -30 -32 -30c-18 0 -32 13 -32 30c0 13 7 23 19 26v22c-24 -4 -40 -24 -40 -48c0 -30 23 -53 53 -53s52 23 52 53zM100 -3c0 -30 23 -53 53 -53s52 23 52 53c0 31 -22 54 -52 54s-53 -23 -53 -54z
M100 398c0 -29 23 -52 53 -52s52 23 52 52c0 26 -17 45 -41 50v-23c13 -3 21 -13 21 -27c0 -17 -15 -30 -32 -30c-18 0 -32 13 -32 30c0 13 7 23 19 27v23c-24 -5 -40 -25 -40 -50zM100 714c0 -23 11 -37 31 -37c22 0 26 19 30 34c2 10 4 19 12 19s12 -7 12 -16
c0 -8 -4 -16 -15 -16v-23c22 0 35 16 35 39c0 22 -11 39 -33 39c-21 0 -27 -19 -31 -35c-2 -11 -4 -20 -12 -20c-6 0 -9 8 -9 16c0 7 4 15 13 15v21c-21 0 -33 -13 -33 -36zM102 69h101v21h-63l63 46v18h-101v-21h62l-62 -44v-20zM102 168h21v30h80v21h-80v28h-21v-79z
M102 281l101 -39v23l-18 7v40l18 8v23l-101 -41v-21zM102 453h21v28h80v23h-80v27h-21v-78zM102 575h63c23 0 40 18 40 43c0 23 -17 41 -40 41h-63v-22h62c13 0 21 -8 21 -19c0 -13 -8 -21 -21 -21h-62v-22zM121 -3c0 18 14 32 32 32c17 0 32 -14 32 -32
c0 -17 -15 -32 -32 -32c-18 0 -32 15 -32 32zM128 292l37 14v-28z" />
    <glyph glyph-name="space" unicode=" " horiz-adv-x="208" 
 />
    <glyph glyph-name="space" unicode="&#xa0;" horiz-adv-x="208" 
 />
    <glyph glyph-name="A" unicode="A" horiz-adv-x="752" 
d="M1 0l275 700h200l275 -700h-190l-40 110h-290l-40 -110h-190zM286 260h180l-72 202c-6 17 -12 35 -18 71c-6 -36 -12 -54 -18 -71z" />
    <glyph glyph-name="Aacute" unicode="&#xc1;" 
d="M125 -92v-30h86v-24h-86v-30h-22v84h22zM100 433c0 -33 25 -58 57 -58s57 25 57 58s-25 58 -57 58s-57 -25 -57 -58zM103 -76h108v23h-37v16l37 21v26l-41 -24c-6 12 -17 20 -31 20c-21 0 -36 -16 -36 -38v-44zM103 26v24h108v-24h-108zM103 106l108 -42v25l-20 7v43
l20 8v26l-108 -44v-23zM103 186h108v66h-21v-42h-87v-24zM103 300h108v23h-41v38h-22v-38h-23v42h-22v-65zM103 509h108v23h-68l68 50v19h-108v-23h66l-66 -47v-22zM103 617h22v30h86v24h-86v30h-22v-84zM123 433c0 20 14 34 34 34s35 -14 35 -34c0 -19 -15 -34 -35 -34
s-34 15 -34 34zM124 -53v19c0 10 6 16 14 16c9 0 15 -6 15 -16v-19h-29zM131 118l39 14v-28z" />
    <glyph glyph-name="Abreve" unicode="&#x102;" 
d="M125 -92v-30h86v-24h-86v-30h-22v84h22zM100 433c0 -33 25 -58 57 -58s57 25 57 58s-25 58 -57 58s-57 -25 -57 -58zM103 -76h108v23h-37v16l37 21v26l-41 -24c-6 12 -17 20 -31 20c-21 0 -36 -16 -36 -38v-44zM103 26v24h108v-24h-108zM103 106l108 -42v25l-20 7v43
l20 8v26l-108 -44v-23zM103 186h108v66h-21v-42h-87v-24zM103 300h108v23h-41v38h-22v-38h-23v42h-22v-65zM103 509h108v23h-68l68 50v19h-108v-23h66l-66 -47v-22zM103 617h22v30h86v24h-86v30h-22v-84zM123 433c0 20 14 34 34 34s35 -14 35 -34c0 -19 -15 -34 -35 -34
s-34 15 -34 34zM124 -53v19c0 10 6 16 14 16c9 0 15 -6 15 -16v-19h-29zM131 118l39 14v-28z" />
    <glyph glyph-name="Acircumflex" unicode="&#xc2;" 
d="M125 -92v-30h86v-24h-86v-30h-22v84h22zM100 433c0 -33 25 -58 57 -58s57 25 57 58s-25 58 -57 58s-57 -25 -57 -58zM103 -76h108v23h-37v16l37 21v26l-41 -24c-6 12 -17 20 -31 20c-21 0 -36 -16 -36 -38v-44zM103 26v24h108v-24h-108zM103 106l108 -42v25l-20 7v43
l20 8v26l-108 -44v-23zM103 186h108v66h-21v-42h-87v-24zM103 300h108v23h-41v38h-22v-38h-23v42h-22v-65zM103 509h108v23h-68l68 50v19h-108v-23h66l-66 -47v-22zM103 617h22v30h86v24h-86v30h-22v-84zM123 433c0 20 14 34 34 34s35 -14 35 -34c0 -19 -15 -34 -35 -34
s-34 15 -34 34zM124 -53v19c0 10 6 16 14 16c9 0 15 -6 15 -16v-19h-29zM131 118l39 14v-28z" />
    <glyph glyph-name="Adieresis" unicode="&#xc4;" 
d="M125 -92v-30h86v-24h-86v-30h-22v84h22zM100 433c0 -33 25 -58 57 -58s57 25 57 58s-25 58 -57 58s-57 -25 -57 -58zM103 -76h108v23h-37v16l37 21v26l-41 -24c-6 12 -17 20 -31 20c-21 0 -36 -16 -36 -38v-44zM103 26v24h108v-24h-108zM103 106l108 -42v25l-20 7v43
l20 8v26l-108 -44v-23zM103 186h108v66h-21v-42h-87v-24zM103 300h108v23h-41v38h-22v-38h-23v42h-22v-65zM103 509h108v23h-68l68 50v19h-108v-23h66l-66 -47v-22zM103 617h22v30h86v24h-86v30h-22v-84zM123 433c0 20 14 34 34 34s35 -14 35 -34c0 -19 -15 -34 -35 -34
s-34 15 -34 34zM124 -53v19c0 10 6 16 14 16c9 0 15 -6 15 -16v-19h-29zM131 118l39 14v-28z" />
    <glyph glyph-name="Agrave" unicode="&#xc0;" 
d="M125 -92v-30h86v-24h-86v-30h-22v84h22zM100 433c0 -33 25 -58 57 -58s57 25 57 58s-25 58 -57 58s-57 -25 -57 -58zM103 -76h108v23h-37v16l37 21v26l-41 -24c-6 12 -17 20 -31 20c-21 0 -36 -16 -36 -38v-44zM103 26v24h108v-24h-108zM103 106l108 -42v25l-20 7v43
l20 8v26l-108 -44v-23zM103 186h108v66h-21v-42h-87v-24zM103 300h108v23h-41v38h-22v-38h-23v42h-22v-65zM103 509h108v23h-68l68 50v19h-108v-23h66l-66 -47v-22zM103 617h22v30h86v24h-86v30h-22v-84zM123 433c0 20 14 34 34 34s35 -14 35 -34c0 -19 -15 -34 -35 -34
s-34 15 -34 34zM124 -53v19c0 10 6 16 14 16c9 0 15 -6 15 -16v-19h-29zM131 118l39 14v-28z" />
    <glyph glyph-name="Amacron" unicode="&#x100;" 
d="M125 -92v-30h86v-24h-86v-30h-22v84h22zM100 433c0 -33 25 -58 57 -58s57 25 57 58s-25 58 -57 58s-57 -25 -57 -58zM103 -76h108v23h-37v16l37 21v26l-41 -24c-6 12 -17 20 -31 20c-21 0 -36 -16 -36 -38v-44zM103 26v24h108v-24h-108zM103 106l108 -42v25l-20 7v43
l20 8v26l-108 -44v-23zM103 186h108v66h-21v-42h-87v-24zM103 300h108v23h-41v38h-22v-38h-23v42h-22v-65zM103 509h108v23h-68l68 50v19h-108v-23h66l-66 -47v-22zM103 617h22v30h86v24h-86v30h-22v-84zM123 433c0 20 14 34 34 34s35 -14 35 -34c0 -19 -15 -34 -35 -34
s-34 15 -34 34zM124 -53v19c0 10 6 16 14 16c9 0 15 -6 15 -16v-19h-29zM131 118l39 14v-28z" />
    <glyph glyph-name="Aogonek" unicode="&#x104;" 
d="M125 -92v-30h86v-24h-86v-30h-22v84h22zM100 433c0 -33 25 -58 57 -58s57 25 57 58s-25 58 -57 58s-57 -25 -57 -58zM103 -76h108v23h-37v16l37 21v26l-41 -24c-6 12 -17 20 -31 20c-21 0 -36 -16 -36 -38v-44zM103 26v24h108v-24h-108zM103 106l108 -42v25l-20 7v43
l20 8v26l-108 -44v-23zM103 186h108v66h-21v-42h-87v-24zM103 300h108v23h-41v38h-22v-38h-23v42h-22v-65zM103 509h108v23h-68l68 50v19h-108v-23h66l-66 -47v-22zM103 617h22v30h86v24h-86v30h-22v-84zM123 433c0 20 14 34 34 34s35 -14 35 -34c0 -19 -15 -34 -35 -34
s-34 15 -34 34zM124 -53v19c0 10 6 16 14 16c9 0 15 -6 15 -16v-19h-29zM131 118l39 14v-28z" />
    <glyph glyph-name="Aring" unicode="&#xc5;" 
d="M125 -92v-30h86v-24h-86v-30h-22v84h22zM100 433c0 -33 25 -58 57 -58s57 25 57 58s-25 58 -57 58s-57 -25 -57 -58zM103 -76h108v23h-37v16l37 21v26l-41 -24c-6 12 -17 20 -31 20c-21 0 -36 -16 -36 -38v-44zM103 26v24h108v-24h-108zM103 106l108 -42v25l-20 7v43
l20 8v26l-108 -44v-23zM103 186h108v66h-21v-42h-87v-24zM103 300h108v23h-41v38h-22v-38h-23v42h-22v-65zM103 509h108v23h-68l68 50v19h-108v-23h66l-66 -47v-22zM103 617h22v30h86v24h-86v30h-22v-84zM123 433c0 20 14 34 34 34s35 -14 35 -34c0 -19 -15 -34 -35 -34
s-34 15 -34 34zM124 -53v19c0 10 6 16 14 16c9 0 15 -6 15 -16v-19h-29zM131 118l39 14v-28z" />
    <glyph glyph-name="Atilde" unicode="&#xc3;" 
d="M125 -92v-30h86v-24h-86v-30h-22v84h22zM100 433c0 -33 25 -58 57 -58s57 25 57 58s-25 58 -57 58s-57 -25 -57 -58zM103 -76h108v23h-37v16l37 21v26l-41 -24c-6 12 -17 20 -31 20c-21 0 -36 -16 -36 -38v-44zM103 26v24h108v-24h-108zM103 106l108 -42v25l-20 7v43
l20 8v26l-108 -44v-23zM103 186h108v66h-21v-42h-87v-24zM103 300h108v23h-41v38h-22v-38h-23v42h-22v-65zM103 509h108v23h-68l68 50v19h-108v-23h66l-66 -47v-22zM103 617h22v30h86v24h-86v30h-22v-84zM123 433c0 20 14 34 34 34s35 -14 35 -34c0 -19 -15 -34 -35 -34
s-34 15 -34 34zM124 -53v19c0 10 6 16 14 16c9 0 15 -6 15 -16v-19h-29zM131 118l39 14v-28z" />
    <glyph glyph-name="AE" unicode="&#xc6;" 
d="M125 -92v-30h86v-24h-86v-30h-22v84h22zM100 433c0 -33 25 -58 57 -58s57 25 57 58s-25 58 -57 58s-57 -25 -57 -58zM103 -76h108v23h-37v16l37 21v26l-41 -24c-6 12 -17 20 -31 20c-21 0 -36 -16 -36 -38v-44zM103 26v24h108v-24h-108zM103 106l108 -42v25l-20 7v43
l20 8v26l-108 -44v-23zM103 186h108v66h-21v-42h-87v-24zM103 300h108v23h-41v38h-22v-38h-23v42h-22v-65zM103 509h108v23h-68l68 50v19h-108v-23h66l-66 -47v-22zM103 617h22v30h86v24h-86v30h-22v-84zM123 433c0 20 14 34 34 34s35 -14 35 -34c0 -19 -15 -34 -35 -34
s-34 15 -34 34zM124 -53v19c0 10 6 16 14 16c9 0 15 -6 15 -16v-19h-29zM131 118l39 14v-28z" />
    <glyph glyph-name="B" unicode="B" horiz-adv-x="684" 
d="M66 0v700h316c153 0 245 -56 245 -177c0 -77 -37 -128 -104 -152c75 -22 132 -76 132 -173c0 -159 -152 -198 -285 -198h-304zM250 145h126c56 0 93 18 93 73s-37 73 -93 73h-126v-146zM251 426l114 -1c49 0 77 25 77 65s-28 65 -77 65h-114v-129z" />
    <glyph glyph-name="C" unicode="C" horiz-adv-x="655" 
d="M415 -15c-192 0 -383 105 -383 355c0 264 190 375 379 375c71 0 142 -15 203 -44v-175c-43 36 -107 57 -171 57c-111 0 -221 -61 -221 -213c0 -136 110 -192 219 -192c72 0 138 22 178 61v-180c-61 -29 -130 -44 -204 -44z" />
    <glyph glyph-name="Cacute" unicode="&#x106;" 
d="M125 -92v-30h86v-24h-86v-30h-22v84h22zM100 433c0 -33 25 -58 57 -58s57 25 57 58s-25 58 -57 58s-57 -25 -57 -58zM103 -76h108v23h-37v16l37 21v26l-41 -24c-6 12 -17 20 -31 20c-21 0 -36 -16 -36 -38v-44zM103 26v24h108v-24h-108zM103 106l108 -42v25l-20 7v43
l20 8v26l-108 -44v-23zM103 186h108v66h-21v-42h-87v-24zM103 300h108v23h-41v38h-22v-38h-23v42h-22v-65zM103 509h108v23h-68l68 50v19h-108v-23h66l-66 -47v-22zM103 617h22v30h86v24h-86v30h-22v-84zM123 433c0 20 14 34 34 34s35 -14 35 -34c0 -19 -15 -34 -35 -34
s-34 15 -34 34zM124 -53v19c0 10 6 16 14 16c9 0 15 -6 15 -16v-19h-29zM131 118l39 14v-28z" />
    <glyph glyph-name="Ccaron" unicode="&#x10c;" 
d="M125 -92v-30h86v-24h-86v-30h-22v84h22zM100 433c0 -33 25 -58 57 -58s57 25 57 58s-25 58 -57 58s-57 -25 -57 -58zM103 -76h108v23h-37v16l37 21v26l-41 -24c-6 12 -17 20 -31 20c-21 0 -36 -16 -36 -38v-44zM103 26v24h108v-24h-108zM103 106l108 -42v25l-20 7v43
l20 8v26l-108 -44v-23zM103 186h108v66h-21v-42h-87v-24zM103 300h108v23h-41v38h-22v-38h-23v42h-22v-65zM103 509h108v23h-68l68 50v19h-108v-23h66l-66 -47v-22zM103 617h22v30h86v24h-86v30h-22v-84zM123 433c0 20 14 34 34 34s35 -14 35 -34c0 -19 -15 -34 -35 -34
s-34 15 -34 34zM124 -53v19c0 10 6 16 14 16c9 0 15 -6 15 -16v-19h-29zM131 118l39 14v-28z" />
    <glyph glyph-name="Ccedilla" unicode="&#xc7;" 
d="M125 -92v-30h86v-24h-86v-30h-22v84h22zM100 433c0 -33 25 -58 57 -58s57 25 57 58s-25 58 -57 58s-57 -25 -57 -58zM103 -76h108v23h-37v16l37 21v26l-41 -24c-6 12 -17 20 -31 20c-21 0 -36 -16 -36 -38v-44zM103 26v24h108v-24h-108zM103 106l108 -42v25l-20 7v43
l20 8v26l-108 -44v-23zM103 186h108v66h-21v-42h-87v-24zM103 300h108v23h-41v38h-22v-38h-23v42h-22v-65zM103 509h108v23h-68l68 50v19h-108v-23h66l-66 -47v-22zM103 617h22v30h86v24h-86v30h-22v-84zM123 433c0 20 14 34 34 34s35 -14 35 -34c0 -19 -15 -34 -35 -34
s-34 15 -34 34zM124 -53v19c0 10 6 16 14 16c9 0 15 -6 15 -16v-19h-29zM131 118l39 14v-28z" />
    <glyph glyph-name="Cdotaccent" unicode="&#x10a;" 
d="M125 -92v-30h86v-24h-86v-30h-22v84h22zM100 433c0 -33 25 -58 57 -58s57 25 57 58s-25 58 -57 58s-57 -25 -57 -58zM103 -76h108v23h-37v16l37 21v26l-41 -24c-6 12 -17 20 -31 20c-21 0 -36 -16 -36 -38v-44zM103 26v24h108v-24h-108zM103 106l108 -42v25l-20 7v43
l20 8v26l-108 -44v-23zM103 186h108v66h-21v-42h-87v-24zM103 300h108v23h-41v38h-22v-38h-23v42h-22v-65zM103 509h108v23h-68l68 50v19h-108v-23h66l-66 -47v-22zM103 617h22v30h86v24h-86v30h-22v-84zM123 433c0 20 14 34 34 34s35 -14 35 -34c0 -19 -15 -34 -35 -34
s-34 15 -34 34zM124 -53v19c0 10 6 16 14 16c9 0 15 -6 15 -16v-19h-29zM131 118l39 14v-28z" />
    <glyph glyph-name="D" unicode="D" horiz-adv-x="744" 
d="M66 0v700h279c250 0 366 -146 366 -350s-116 -350 -366 -350h-279zM251 160h94c111 0 176 59 176 190s-65 190 -176 190h-94v-380z" />
    <glyph glyph-name="Eth" unicode="&#xd0;" 
d="M125 -92v-30h86v-24h-86v-30h-22v84h22zM100 433c0 -33 25 -58 57 -58s57 25 57 58s-25 58 -57 58s-57 -25 -57 -58zM103 -76h108v23h-37v16l37 21v26l-41 -24c-6 12 -17 20 -31 20c-21 0 -36 -16 -36 -38v-44zM103 26v24h108v-24h-108zM103 106l108 -42v25l-20 7v43
l20 8v26l-108 -44v-23zM103 186h108v66h-21v-42h-87v-24zM103 300h108v23h-41v38h-22v-38h-23v42h-22v-65zM103 509h108v23h-68l68 50v19h-108v-23h66l-66 -47v-22zM103 617h22v30h86v24h-86v30h-22v-84zM123 433c0 20 14 34 34 34s35 -14 35 -34c0 -19 -15 -34 -35 -34
s-34 15 -34 34zM124 -53v19c0 10 6 16 14 16c9 0 15 -6 15 -16v-19h-29zM131 118l39 14v-28z" />
    <glyph glyph-name="Dcaron" unicode="&#x10e;" 
d="M125 -92v-30h86v-24h-86v-30h-22v84h22zM100 433c0 -33 25 -58 57 -58s57 25 57 58s-25 58 -57 58s-57 -25 -57 -58zM103 -76h108v23h-37v16l37 21v26l-41 -24c-6 12 -17 20 -31 20c-21 0 -36 -16 -36 -38v-44zM103 26v24h108v-24h-108zM103 106l108 -42v25l-20 7v43
l20 8v26l-108 -44v-23zM103 186h108v66h-21v-42h-87v-24zM103 300h108v23h-41v38h-22v-38h-23v42h-22v-65zM103 509h108v23h-68l68 50v19h-108v-23h66l-66 -47v-22zM103 617h22v30h86v24h-86v30h-22v-84zM123 433c0 20 14 34 34 34s35 -14 35 -34c0 -19 -15 -34 -35 -34
s-34 15 -34 34zM124 -53v19c0 10 6 16 14 16c9 0 15 -6 15 -16v-19h-29zM131 118l39 14v-28z" />
    <glyph glyph-name="Dcroat" unicode="&#x110;" 
d="M125 -92v-30h86v-24h-86v-30h-22v84h22zM100 433c0 -33 25 -58 57 -58s57 25 57 58s-25 58 -57 58s-57 -25 -57 -58zM103 -76h108v23h-37v16l37 21v26l-41 -24c-6 12 -17 20 -31 20c-21 0 -36 -16 -36 -38v-44zM103 26v24h108v-24h-108zM103 106l108 -42v25l-20 7v43
l20 8v26l-108 -44v-23zM103 186h108v66h-21v-42h-87v-24zM103 300h108v23h-41v38h-22v-38h-23v42h-22v-65zM103 509h108v23h-68l68 50v19h-108v-23h66l-66 -47v-22zM103 617h22v30h86v24h-86v30h-22v-84zM123 433c0 20 14 34 34 34s35 -14 35 -34c0 -19 -15 -34 -35 -34
s-34 15 -34 34zM124 -53v19c0 10 6 16 14 16c9 0 15 -6 15 -16v-19h-29zM131 118l39 14v-28z" />
    <glyph glyph-name="E" unicode="E" horiz-adv-x="617" 
d="M66 0v700h504v-160h-319v-107h289v-159h-289v-114h325v-160h-510z" />
    <glyph glyph-name="Eacute" unicode="&#xc9;" 
d="M125 -92v-30h86v-24h-86v-30h-22v84h22zM100 433c0 -33 25 -58 57 -58s57 25 57 58s-25 58 -57 58s-57 -25 -57 -58zM103 -76h108v23h-37v16l37 21v26l-41 -24c-6 12 -17 20 -31 20c-21 0 -36 -16 -36 -38v-44zM103 26v24h108v-24h-108zM103 106l108 -42v25l-20 7v43
l20 8v26l-108 -44v-23zM103 186h108v66h-21v-42h-87v-24zM103 300h108v23h-41v38h-22v-38h-23v42h-22v-65zM103 509h108v23h-68l68 50v19h-108v-23h66l-66 -47v-22zM103 617h22v30h86v24h-86v30h-22v-84zM123 433c0 20 14 34 34 34s35 -14 35 -34c0 -19 -15 -34 -35 -34
s-34 15 -34 34zM124 -53v19c0 10 6 16 14 16c9 0 15 -6 15 -16v-19h-29zM131 118l39 14v-28z" />
    <glyph glyph-name="Ecaron" unicode="&#x11a;" 
d="M125 -92v-30h86v-24h-86v-30h-22v84h22zM100 433c0 -33 25 -58 57 -58s57 25 57 58s-25 58 -57 58s-57 -25 -57 -58zM103 -76h108v23h-37v16l37 21v26l-41 -24c-6 12 -17 20 -31 20c-21 0 -36 -16 -36 -38v-44zM103 26v24h108v-24h-108zM103 106l108 -42v25l-20 7v43
l20 8v26l-108 -44v-23zM103 186h108v66h-21v-42h-87v-24zM103 300h108v23h-41v38h-22v-38h-23v42h-22v-65zM103 509h108v23h-68l68 50v19h-108v-23h66l-66 -47v-22zM103 617h22v30h86v24h-86v30h-22v-84zM123 433c0 20 14 34 34 34s35 -14 35 -34c0 -19 -15 -34 -35 -34
s-34 15 -34 34zM124 -53v19c0 10 6 16 14 16c9 0 15 -6 15 -16v-19h-29zM131 118l39 14v-28z" />
    <glyph glyph-name="Ecircumflex" unicode="&#xca;" 
d="M125 -92v-30h86v-24h-86v-30h-22v84h22zM100 433c0 -33 25 -58 57 -58s57 25 57 58s-25 58 -57 58s-57 -25 -57 -58zM103 -76h108v23h-37v16l37 21v26l-41 -24c-6 12 -17 20 -31 20c-21 0 -36 -16 -36 -38v-44zM103 26v24h108v-24h-108zM103 106l108 -42v25l-20 7v43
l20 8v26l-108 -44v-23zM103 186h108v66h-21v-42h-87v-24zM103 300h108v23h-41v38h-22v-38h-23v42h-22v-65zM103 509h108v23h-68l68 50v19h-108v-23h66l-66 -47v-22zM103 617h22v30h86v24h-86v30h-22v-84zM123 433c0 20 14 34 34 34s35 -14 35 -34c0 -19 -15 -34 -35 -34
s-34 15 -34 34zM124 -53v19c0 10 6 16 14 16c9 0 15 -6 15 -16v-19h-29zM131 118l39 14v-28z" />
    <glyph glyph-name="Edieresis" unicode="&#xcb;" 
d="M125 -92v-30h86v-24h-86v-30h-22v84h22zM100 433c0 -33 25 -58 57 -58s57 25 57 58s-25 58 -57 58s-57 -25 -57 -58zM103 -76h108v23h-37v16l37 21v26l-41 -24c-6 12 -17 20 -31 20c-21 0 -36 -16 -36 -38v-44zM103 26v24h108v-24h-108zM103 106l108 -42v25l-20 7v43
l20 8v26l-108 -44v-23zM103 186h108v66h-21v-42h-87v-24zM103 300h108v23h-41v38h-22v-38h-23v42h-22v-65zM103 509h108v23h-68l68 50v19h-108v-23h66l-66 -47v-22zM103 617h22v30h86v24h-86v30h-22v-84zM123 433c0 20 14 34 34 34s35 -14 35 -34c0 -19 -15 -34 -35 -34
s-34 15 -34 34zM124 -53v19c0 10 6 16 14 16c9 0 15 -6 15 -16v-19h-29zM131 118l39 14v-28z" />
    <glyph glyph-name="Edotaccent" unicode="&#x116;" 
d="M125 -92v-30h86v-24h-86v-30h-22v84h22zM100 433c0 -33 25 -58 57 -58s57 25 57 58s-25 58 -57 58s-57 -25 -57 -58zM103 -76h108v23h-37v16l37 21v26l-41 -24c-6 12 -17 20 -31 20c-21 0 -36 -16 -36 -38v-44zM103 26v24h108v-24h-108zM103 106l108 -42v25l-20 7v43
l20 8v26l-108 -44v-23zM103 186h108v66h-21v-42h-87v-24zM103 300h108v23h-41v38h-22v-38h-23v42h-22v-65zM103 509h108v23h-68l68 50v19h-108v-23h66l-66 -47v-22zM103 617h22v30h86v24h-86v30h-22v-84zM123 433c0 20 14 34 34 34s35 -14 35 -34c0 -19 -15 -34 -35 -34
s-34 15 -34 34zM124 -53v19c0 10 6 16 14 16c9 0 15 -6 15 -16v-19h-29zM131 118l39 14v-28z" />
    <glyph glyph-name="Egrave" unicode="&#xc8;" 
d="M125 -92v-30h86v-24h-86v-30h-22v84h22zM100 433c0 -33 25 -58 57 -58s57 25 57 58s-25 58 -57 58s-57 -25 -57 -58zM103 -76h108v23h-37v16l37 21v26l-41 -24c-6 12 -17 20 -31 20c-21 0 -36 -16 -36 -38v-44zM103 26v24h108v-24h-108zM103 106l108 -42v25l-20 7v43
l20 8v26l-108 -44v-23zM103 186h108v66h-21v-42h-87v-24zM103 300h108v23h-41v38h-22v-38h-23v42h-22v-65zM103 509h108v23h-68l68 50v19h-108v-23h66l-66 -47v-22zM103 617h22v30h86v24h-86v30h-22v-84zM123 433c0 20 14 34 34 34s35 -14 35 -34c0 -19 -15 -34 -35 -34
s-34 15 -34 34zM124 -53v19c0 10 6 16 14 16c9 0 15 -6 15 -16v-19h-29zM131 118l39 14v-28z" />
    <glyph glyph-name="Emacron" unicode="&#x112;" 
d="M125 -92v-30h86v-24h-86v-30h-22v84h22zM100 433c0 -33 25 -58 57 -58s57 25 57 58s-25 58 -57 58s-57 -25 -57 -58zM103 -76h108v23h-37v16l37 21v26l-41 -24c-6 12 -17 20 -31 20c-21 0 -36 -16 -36 -38v-44zM103 26v24h108v-24h-108zM103 106l108 -42v25l-20 7v43
l20 8v26l-108 -44v-23zM103 186h108v66h-21v-42h-87v-24zM103 300h108v23h-41v38h-22v-38h-23v42h-22v-65zM103 509h108v23h-68l68 50v19h-108v-23h66l-66 -47v-22zM103 617h22v30h86v24h-86v30h-22v-84zM123 433c0 20 14 34 34 34s35 -14 35 -34c0 -19 -15 -34 -35 -34
s-34 15 -34 34zM124 -53v19c0 10 6 16 14 16c9 0 15 -6 15 -16v-19h-29zM131 118l39 14v-28z" />
    <glyph glyph-name="Eogonek" unicode="&#x118;" 
d="M125 -92v-30h86v-24h-86v-30h-22v84h22zM100 433c0 -33 25 -58 57 -58s57 25 57 58s-25 58 -57 58s-57 -25 -57 -58zM103 -76h108v23h-37v16l37 21v26l-41 -24c-6 12 -17 20 -31 20c-21 0 -36 -16 -36 -38v-44zM103 26v24h108v-24h-108zM103 106l108 -42v25l-20 7v43
l20 8v26l-108 -44v-23zM103 186h108v66h-21v-42h-87v-24zM103 300h108v23h-41v38h-22v-38h-23v42h-22v-65zM103 509h108v23h-68l68 50v19h-108v-23h66l-66 -47v-22zM103 617h22v30h86v24h-86v30h-22v-84zM123 433c0 20 14 34 34 34s35 -14 35 -34c0 -19 -15 -34 -35 -34
s-34 15 -34 34zM124 -53v19c0 10 6 16 14 16c9 0 15 -6 15 -16v-19h-29zM131 118l39 14v-28z" />
    <glyph glyph-name="F" unicode="F" horiz-adv-x="604" 
d="M66 0v700h505v-165h-320v-121h291v-165h-291v-249h-185z" />
    <glyph glyph-name="G" unicode="G" horiz-adv-x="699" 
d="M420 -15c-199 0 -388 111 -388 365c0 261 191 365 386 365c75 0 151 -16 217 -44v-175c-52 36 -123 56 -193 56c-113 0 -220 -58 -220 -202c0 -173 127 -206 207 -206c20 0 36 2 48 5v236h175v-353c-72 -30 -153 -47 -232 -47z" />
    <glyph glyph-name="Gbreve" unicode="&#x11e;" 
d="M125 -92v-30h86v-24h-86v-30h-22v84h22zM100 433c0 -33 25 -58 57 -58s57 25 57 58s-25 58 -57 58s-57 -25 -57 -58zM103 -76h108v23h-37v16l37 21v26l-41 -24c-6 12 -17 20 -31 20c-21 0 -36 -16 -36 -38v-44zM103 26v24h108v-24h-108zM103 106l108 -42v25l-20 7v43
l20 8v26l-108 -44v-23zM103 186h108v66h-21v-42h-87v-24zM103 300h108v23h-41v38h-22v-38h-23v42h-22v-65zM103 509h108v23h-68l68 50v19h-108v-23h66l-66 -47v-22zM103 617h22v30h86v24h-86v30h-22v-84zM123 433c0 20 14 34 34 34s35 -14 35 -34c0 -19 -15 -34 -35 -34
s-34 15 -34 34zM124 -53v19c0 10 6 16 14 16c9 0 15 -6 15 -16v-19h-29zM131 118l39 14v-28z" />
    <glyph glyph-name="uni0122" unicode="&#x122;" 
d="M125 -92v-30h86v-24h-86v-30h-22v84h22zM100 433c0 -33 25 -58 57 -58s57 25 57 58s-25 58 -57 58s-57 -25 -57 -58zM103 -76h108v23h-37v16l37 21v26l-41 -24c-6 12 -17 20 -31 20c-21 0 -36 -16 -36 -38v-44zM103 26v24h108v-24h-108zM103 106l108 -42v25l-20 7v43
l20 8v26l-108 -44v-23zM103 186h108v66h-21v-42h-87v-24zM103 300h108v23h-41v38h-22v-38h-23v42h-22v-65zM103 509h108v23h-68l68 50v19h-108v-23h66l-66 -47v-22zM103 617h22v30h86v24h-86v30h-22v-84zM123 433c0 20 14 34 34 34s35 -14 35 -34c0 -19 -15 -34 -35 -34
s-34 15 -34 34zM124 -53v19c0 10 6 16 14 16c9 0 15 -6 15 -16v-19h-29zM131 118l39 14v-28z" />
    <glyph glyph-name="Gdotaccent" unicode="&#x120;" 
d="M125 -92v-30h86v-24h-86v-30h-22v84h22zM100 433c0 -33 25 -58 57 -58s57 25 57 58s-25 58 -57 58s-57 -25 -57 -58zM103 -76h108v23h-37v16l37 21v26l-41 -24c-6 12 -17 20 -31 20c-21 0 -36 -16 -36 -38v-44zM103 26v24h108v-24h-108zM103 106l108 -42v25l-20 7v43
l20 8v26l-108 -44v-23zM103 186h108v66h-21v-42h-87v-24zM103 300h108v23h-41v38h-22v-38h-23v42h-22v-65zM103 509h108v23h-68l68 50v19h-108v-23h66l-66 -47v-22zM103 617h22v30h86v24h-86v30h-22v-84zM123 433c0 20 14 34 34 34s35 -14 35 -34c0 -19 -15 -34 -35 -34
s-34 15 -34 34zM124 -53v19c0 10 6 16 14 16c9 0 15 -6 15 -16v-19h-29zM131 118l39 14v-28z" />
    <glyph glyph-name="H" unicode="H" horiz-adv-x="762" 
d="M66 0v700h185v-268h260v268h185v-700h-185v267h-260v-267h-185z" />
    <glyph glyph-name="Hbar" unicode="&#x126;" 
d="M125 -92v-30h86v-24h-86v-30h-22v84h22zM100 433c0 -33 25 -58 57 -58s57 25 57 58s-25 58 -57 58s-57 -25 -57 -58zM103 -76h108v23h-37v16l37 21v26l-41 -24c-6 12 -17 20 -31 20c-21 0 -36 -16 -36 -38v-44zM103 26v24h108v-24h-108zM103 106l108 -42v25l-20 7v43
l20 8v26l-108 -44v-23zM103 186h108v66h-21v-42h-87v-24zM103 300h108v23h-41v38h-22v-38h-23v42h-22v-65zM103 509h108v23h-68l68 50v19h-108v-23h66l-66 -47v-22zM103 617h22v30h86v24h-86v30h-22v-84zM123 433c0 20 14 34 34 34s35 -14 35 -34c0 -19 -15 -34 -35 -34
s-34 15 -34 34zM124 -53v19c0 10 6 16 14 16c9 0 15 -6 15 -16v-19h-29zM131 118l39 14v-28z" />
    <glyph glyph-name="I" unicode="I" horiz-adv-x="317" 
d="M66 0v700h185v-700h-185z" />
    <glyph glyph-name="IJ" unicode="&#x132;" 
d="M125 -92v-30h86v-24h-86v-30h-22v84h22zM100 433c0 -33 25 -58 57 -58s57 25 57 58s-25 58 -57 58s-57 -25 -57 -58zM103 -76h108v23h-37v16l37 21v26l-41 -24c-6 12 -17 20 -31 20c-21 0 -36 -16 -36 -38v-44zM103 26v24h108v-24h-108zM103 106l108 -42v25l-20 7v43
l20 8v26l-108 -44v-23zM103 186h108v66h-21v-42h-87v-24zM103 300h108v23h-41v38h-22v-38h-23v42h-22v-65zM103 509h108v23h-68l68 50v19h-108v-23h66l-66 -47v-22zM103 617h22v30h86v24h-86v30h-22v-84zM123 433c0 20 14 34 34 34s35 -14 35 -34c0 -19 -15 -34 -35 -34
s-34 15 -34 34zM124 -53v19c0 10 6 16 14 16c9 0 15 -6 15 -16v-19h-29zM131 118l39 14v-28z" />
    <glyph glyph-name="Iacute" unicode="&#xcd;" 
d="M125 -92v-30h86v-24h-86v-30h-22v84h22zM100 433c0 -33 25 -58 57 -58s57 25 57 58s-25 58 -57 58s-57 -25 -57 -58zM103 -76h108v23h-37v16l37 21v26l-41 -24c-6 12 -17 20 -31 20c-21 0 -36 -16 -36 -38v-44zM103 26v24h108v-24h-108zM103 106l108 -42v25l-20 7v43
l20 8v26l-108 -44v-23zM103 186h108v66h-21v-42h-87v-24zM103 300h108v23h-41v38h-22v-38h-23v42h-22v-65zM103 509h108v23h-68l68 50v19h-108v-23h66l-66 -47v-22zM103 617h22v30h86v24h-86v30h-22v-84zM123 433c0 20 14 34 34 34s35 -14 35 -34c0 -19 -15 -34 -35 -34
s-34 15 -34 34zM124 -53v19c0 10 6 16 14 16c9 0 15 -6 15 -16v-19h-29zM131 118l39 14v-28z" />
    <glyph glyph-name="Icircumflex" unicode="&#xce;" 
d="M125 -92v-30h86v-24h-86v-30h-22v84h22zM100 433c0 -33 25 -58 57 -58s57 25 57 58s-25 58 -57 58s-57 -25 -57 -58zM103 -76h108v23h-37v16l37 21v26l-41 -24c-6 12 -17 20 -31 20c-21 0 -36 -16 -36 -38v-44zM103 26v24h108v-24h-108zM103 106l108 -42v25l-20 7v43
l20 8v26l-108 -44v-23zM103 186h108v66h-21v-42h-87v-24zM103 300h108v23h-41v38h-22v-38h-23v42h-22v-65zM103 509h108v23h-68l68 50v19h-108v-23h66l-66 -47v-22zM103 617h22v30h86v24h-86v30h-22v-84zM123 433c0 20 14 34 34 34s35 -14 35 -34c0 -19 -15 -34 -35 -34
s-34 15 -34 34zM124 -53v19c0 10 6 16 14 16c9 0 15 -6 15 -16v-19h-29zM131 118l39 14v-28z" />
    <glyph glyph-name="Idieresis" unicode="&#xcf;" 
d="M125 -92v-30h86v-24h-86v-30h-22v84h22zM100 433c0 -33 25 -58 57 -58s57 25 57 58s-25 58 -57 58s-57 -25 -57 -58zM103 -76h108v23h-37v16l37 21v26l-41 -24c-6 12 -17 20 -31 20c-21 0 -36 -16 -36 -38v-44zM103 26v24h108v-24h-108zM103 106l108 -42v25l-20 7v43
l20 8v26l-108 -44v-23zM103 186h108v66h-21v-42h-87v-24zM103 300h108v23h-41v38h-22v-38h-23v42h-22v-65zM103 509h108v23h-68l68 50v19h-108v-23h66l-66 -47v-22zM103 617h22v30h86v24h-86v30h-22v-84zM123 433c0 20 14 34 34 34s35 -14 35 -34c0 -19 -15 -34 -35 -34
s-34 15 -34 34zM124 -53v19c0 10 6 16 14 16c9 0 15 -6 15 -16v-19h-29zM131 118l39 14v-28z" />
    <glyph glyph-name="Idotaccent" unicode="&#x130;" 
d="M125 -92v-30h86v-24h-86v-30h-22v84h22zM100 433c0 -33 25 -58 57 -58s57 25 57 58s-25 58 -57 58s-57 -25 -57 -58zM103 -76h108v23h-37v16l37 21v26l-41 -24c-6 12 -17 20 -31 20c-21 0 -36 -16 -36 -38v-44zM103 26v24h108v-24h-108zM103 106l108 -42v25l-20 7v43
l20 8v26l-108 -44v-23zM103 186h108v66h-21v-42h-87v-24zM103 300h108v23h-41v38h-22v-38h-23v42h-22v-65zM103 509h108v23h-68l68 50v19h-108v-23h66l-66 -47v-22zM103 617h22v30h86v24h-86v30h-22v-84zM123 433c0 20 14 34 34 34s35 -14 35 -34c0 -19 -15 -34 -35 -34
s-34 15 -34 34zM124 -53v19c0 10 6 16 14 16c9 0 15 -6 15 -16v-19h-29zM131 118l39 14v-28z" />
    <glyph glyph-name="Igrave" unicode="&#xcc;" 
d="M125 -92v-30h86v-24h-86v-30h-22v84h22zM100 433c0 -33 25 -58 57 -58s57 25 57 58s-25 58 -57 58s-57 -25 -57 -58zM103 -76h108v23h-37v16l37 21v26l-41 -24c-6 12 -17 20 -31 20c-21 0 -36 -16 -36 -38v-44zM103 26v24h108v-24h-108zM103 106l108 -42v25l-20 7v43
l20 8v26l-108 -44v-23zM103 186h108v66h-21v-42h-87v-24zM103 300h108v23h-41v38h-22v-38h-23v42h-22v-65zM103 509h108v23h-68l68 50v19h-108v-23h66l-66 -47v-22zM103 617h22v30h86v24h-86v30h-22v-84zM123 433c0 20 14 34 34 34s35 -14 35 -34c0 -19 -15 -34 -35 -34
s-34 15 -34 34zM124 -53v19c0 10 6 16 14 16c9 0 15 -6 15 -16v-19h-29zM131 118l39 14v-28z" />
    <glyph glyph-name="Imacron" unicode="&#x12a;" 
d="M125 -92v-30h86v-24h-86v-30h-22v84h22zM100 433c0 -33 25 -58 57 -58s57 25 57 58s-25 58 -57 58s-57 -25 -57 -58zM103 -76h108v23h-37v16l37 21v26l-41 -24c-6 12 -17 20 -31 20c-21 0 -36 -16 -36 -38v-44zM103 26v24h108v-24h-108zM103 106l108 -42v25l-20 7v43
l20 8v26l-108 -44v-23zM103 186h108v66h-21v-42h-87v-24zM103 300h108v23h-41v38h-22v-38h-23v42h-22v-65zM103 509h108v23h-68l68 50v19h-108v-23h66l-66 -47v-22zM103 617h22v30h86v24h-86v30h-22v-84zM123 433c0 20 14 34 34 34s35 -14 35 -34c0 -19 -15 -34 -35 -34
s-34 15 -34 34zM124 -53v19c0 10 6 16 14 16c9 0 15 -6 15 -16v-19h-29zM131 118l39 14v-28z" />
    <glyph glyph-name="Iogonek" unicode="&#x12e;" 
d="M125 -92v-30h86v-24h-86v-30h-22v84h22zM100 433c0 -33 25 -58 57 -58s57 25 57 58s-25 58 -57 58s-57 -25 -57 -58zM103 -76h108v23h-37v16l37 21v26l-41 -24c-6 12 -17 20 -31 20c-21 0 -36 -16 -36 -38v-44zM103 26v24h108v-24h-108zM103 106l108 -42v25l-20 7v43
l20 8v26l-108 -44v-23zM103 186h108v66h-21v-42h-87v-24zM103 300h108v23h-41v38h-22v-38h-23v42h-22v-65zM103 509h108v23h-68l68 50v19h-108v-23h66l-66 -47v-22zM103 617h22v30h86v24h-86v30h-22v-84zM123 433c0 20 14 34 34 34s35 -14 35 -34c0 -19 -15 -34 -35 -34
s-34 15 -34 34zM124 -53v19c0 10 6 16 14 16c9 0 15 -6 15 -16v-19h-29zM131 118l39 14v-28z" />
    <glyph glyph-name="J" unicode="J" horiz-adv-x="518" 
d="M196 -15c-69 0 -137 17 -181 33v170c37 -20 88 -33 134 -33c66 0 123 20 123 88v292h-175v165h360v-482c0 -174 -123 -233 -261 -233z" />
    <glyph glyph-name="K" unicode="K" horiz-adv-x="706" 
d="M66 0v700h185v-265h88l159 265h205l-220 -341l230 -359h-205l-170 270h-87v-270h-185z" />
    <glyph glyph-name="uni0136" unicode="&#x136;" 
d="M125 -92v-30h86v-24h-86v-30h-22v84h22zM100 433c0 -33 25 -58 57 -58s57 25 57 58s-25 58 -57 58s-57 -25 -57 -58zM103 -76h108v23h-37v16l37 21v26l-41 -24c-6 12 -17 20 -31 20c-21 0 -36 -16 -36 -38v-44zM103 26v24h108v-24h-108zM103 106l108 -42v25l-20 7v43
l20 8v26l-108 -44v-23zM103 186h108v66h-21v-42h-87v-24zM103 300h108v23h-41v38h-22v-38h-23v42h-22v-65zM103 509h108v23h-68l68 50v19h-108v-23h66l-66 -47v-22zM103 617h22v30h86v24h-86v30h-22v-84zM123 433c0 20 14 34 34 34s35 -14 35 -34c0 -19 -15 -34 -35 -34
s-34 15 -34 34zM124 -53v19c0 10 6 16 14 16c9 0 15 -6 15 -16v-19h-29zM131 118l39 14v-28z" />
    <glyph glyph-name="L" unicode="L" horiz-adv-x="584" 
d="M66 0v700h185v-535h320v-165h-505z" />
    <glyph glyph-name="Lacute" unicode="&#x139;" 
d="M125 -92v-30h86v-24h-86v-30h-22v84h22zM100 433c0 -33 25 -58 57 -58s57 25 57 58s-25 58 -57 58s-57 -25 -57 -58zM103 -76h108v23h-37v16l37 21v26l-41 -24c-6 12 -17 20 -31 20c-21 0 -36 -16 -36 -38v-44zM103 26v24h108v-24h-108zM103 106l108 -42v25l-20 7v43
l20 8v26l-108 -44v-23zM103 186h108v66h-21v-42h-87v-24zM103 300h108v23h-41v38h-22v-38h-23v42h-22v-65zM103 509h108v23h-68l68 50v19h-108v-23h66l-66 -47v-22zM103 617h22v30h86v24h-86v30h-22v-84zM123 433c0 20 14 34 34 34s35 -14 35 -34c0 -19 -15 -34 -35 -34
s-34 15 -34 34zM124 -53v19c0 10 6 16 14 16c9 0 15 -6 15 -16v-19h-29zM131 118l39 14v-28z" />
    <glyph glyph-name="Lcaron" unicode="&#x13d;" 
d="M125 -92v-30h86v-24h-86v-30h-22v84h22zM100 433c0 -33 25 -58 57 -58s57 25 57 58s-25 58 -57 58s-57 -25 -57 -58zM103 -76h108v23h-37v16l37 21v26l-41 -24c-6 12 -17 20 -31 20c-21 0 -36 -16 -36 -38v-44zM103 26v24h108v-24h-108zM103 106l108 -42v25l-20 7v43
l20 8v26l-108 -44v-23zM103 186h108v66h-21v-42h-87v-24zM103 300h108v23h-41v38h-22v-38h-23v42h-22v-65zM103 509h108v23h-68l68 50v19h-108v-23h66l-66 -47v-22zM103 617h22v30h86v24h-86v30h-22v-84zM123 433c0 20 14 34 34 34s35 -14 35 -34c0 -19 -15 -34 -35 -34
s-34 15 -34 34zM124 -53v19c0 10 6 16 14 16c9 0 15 -6 15 -16v-19h-29zM131 118l39 14v-28z" />
    <glyph glyph-name="uni013B" unicode="&#x13b;" 
d="M125 -92v-30h86v-24h-86v-30h-22v84h22zM100 433c0 -33 25 -58 57 -58s57 25 57 58s-25 58 -57 58s-57 -25 -57 -58zM103 -76h108v23h-37v16l37 21v26l-41 -24c-6 12 -17 20 -31 20c-21 0 -36 -16 -36 -38v-44zM103 26v24h108v-24h-108zM103 106l108 -42v25l-20 7v43
l20 8v26l-108 -44v-23zM103 186h108v66h-21v-42h-87v-24zM103 300h108v23h-41v38h-22v-38h-23v42h-22v-65zM103 509h108v23h-68l68 50v19h-108v-23h66l-66 -47v-22zM103 617h22v30h86v24h-86v30h-22v-84zM123 433c0 20 14 34 34 34s35 -14 35 -34c0 -19 -15 -34 -35 -34
s-34 15 -34 34zM124 -53v19c0 10 6 16 14 16c9 0 15 -6 15 -16v-19h-29zM131 118l39 14v-28z" />
    <glyph glyph-name="Ldot" unicode="&#x13f;" 
d="M125 -92v-30h86v-24h-86v-30h-22v84h22zM100 433c0 -33 25 -58 57 -58s57 25 57 58s-25 58 -57 58s-57 -25 -57 -58zM103 -76h108v23h-37v16l37 21v26l-41 -24c-6 12 -17 20 -31 20c-21 0 -36 -16 -36 -38v-44zM103 26v24h108v-24h-108zM103 106l108 -42v25l-20 7v43
l20 8v26l-108 -44v-23zM103 186h108v66h-21v-42h-87v-24zM103 300h108v23h-41v38h-22v-38h-23v42h-22v-65zM103 509h108v23h-68l68 50v19h-108v-23h66l-66 -47v-22zM103 617h22v30h86v24h-86v30h-22v-84zM123 433c0 20 14 34 34 34s35 -14 35 -34c0 -19 -15 -34 -35 -34
s-34 15 -34 34zM124 -53v19c0 10 6 16 14 16c9 0 15 -6 15 -16v-19h-29zM131 118l39 14v-28z" />
    <glyph glyph-name="Lslash" unicode="&#x141;" 
d="M125 -92v-30h86v-24h-86v-30h-22v84h22zM100 433c0 -33 25 -58 57 -58s57 25 57 58s-25 58 -57 58s-57 -25 -57 -58zM103 -76h108v23h-37v16l37 21v26l-41 -24c-6 12 -17 20 -31 20c-21 0 -36 -16 -36 -38v-44zM103 26v24h108v-24h-108zM103 106l108 -42v25l-20 7v43
l20 8v26l-108 -44v-23zM103 186h108v66h-21v-42h-87v-24zM103 300h108v23h-41v38h-22v-38h-23v42h-22v-65zM103 509h108v23h-68l68 50v19h-108v-23h66l-66 -47v-22zM103 617h22v30h86v24h-86v30h-22v-84zM123 433c0 20 14 34 34 34s35 -14 35 -34c0 -19 -15 -34 -35 -34
s-34 15 -34 34zM124 -53v19c0 10 6 16 14 16c9 0 15 -6 15 -16v-19h-29zM131 118l39 14v-28z" />
    <glyph glyph-name="M" unicode="M" horiz-adv-x="908" 
d="M66 0v700h175l213 -328l213 328h175v-700h-185v372l-150 -230h-106l-150 231v-373h-185z" />
    <glyph glyph-name="N" unicode="N" horiz-adv-x="762" 
d="M66 0v700h175l274 -402c-3 33 -4 77 -4 116v286h185v-700h-175l-274 401c3 -33 4 -77 4 -115v-286h-185z" />
    <glyph glyph-name="Nacute" unicode="&#x143;" 
d="M125 -92v-30h86v-24h-86v-30h-22v84h22zM100 433c0 -33 25 -58 57 -58s57 25 57 58s-25 58 -57 58s-57 -25 -57 -58zM103 -76h108v23h-37v16l37 21v26l-41 -24c-6 12 -17 20 -31 20c-21 0 -36 -16 -36 -38v-44zM103 26v24h108v-24h-108zM103 106l108 -42v25l-20 7v43
l20 8v26l-108 -44v-23zM103 186h108v66h-21v-42h-87v-24zM103 300h108v23h-41v38h-22v-38h-23v42h-22v-65zM103 509h108v23h-68l68 50v19h-108v-23h66l-66 -47v-22zM103 617h22v30h86v24h-86v30h-22v-84zM123 433c0 20 14 34 34 34s35 -14 35 -34c0 -19 -15 -34 -35 -34
s-34 15 -34 34zM124 -53v19c0 10 6 16 14 16c9 0 15 -6 15 -16v-19h-29zM131 118l39 14v-28z" />
    <glyph glyph-name="Ncaron" unicode="&#x147;" 
d="M125 -92v-30h86v-24h-86v-30h-22v84h22zM100 433c0 -33 25 -58 57 -58s57 25 57 58s-25 58 -57 58s-57 -25 -57 -58zM103 -76h108v23h-37v16l37 21v26l-41 -24c-6 12 -17 20 -31 20c-21 0 -36 -16 -36 -38v-44zM103 26v24h108v-24h-108zM103 106l108 -42v25l-20 7v43
l20 8v26l-108 -44v-23zM103 186h108v66h-21v-42h-87v-24zM103 300h108v23h-41v38h-22v-38h-23v42h-22v-65zM103 509h108v23h-68l68 50v19h-108v-23h66l-66 -47v-22zM103 617h22v30h86v24h-86v30h-22v-84zM123 433c0 20 14 34 34 34s35 -14 35 -34c0 -19 -15 -34 -35 -34
s-34 15 -34 34zM124 -53v19c0 10 6 16 14 16c9 0 15 -6 15 -16v-19h-29zM131 118l39 14v-28z" />
    <glyph glyph-name="uni0145" unicode="&#x145;" 
d="M125 -92v-30h86v-24h-86v-30h-22v84h22zM100 433c0 -33 25 -58 57 -58s57 25 57 58s-25 58 -57 58s-57 -25 -57 -58zM103 -76h108v23h-37v16l37 21v26l-41 -24c-6 12 -17 20 -31 20c-21 0 -36 -16 -36 -38v-44zM103 26v24h108v-24h-108zM103 106l108 -42v25l-20 7v43
l20 8v26l-108 -44v-23zM103 186h108v66h-21v-42h-87v-24zM103 300h108v23h-41v38h-22v-38h-23v42h-22v-65zM103 509h108v23h-68l68 50v19h-108v-23h66l-66 -47v-22zM103 617h22v30h86v24h-86v30h-22v-84zM123 433c0 20 14 34 34 34s35 -14 35 -34c0 -19 -15 -34 -35 -34
s-34 15 -34 34zM124 -53v19c0 10 6 16 14 16c9 0 15 -6 15 -16v-19h-29zM131 118l39 14v-28z" />
    <glyph glyph-name="Ntilde" unicode="&#xd1;" 
d="M125 -92v-30h86v-24h-86v-30h-22v84h22zM100 433c0 -33 25 -58 57 -58s57 25 57 58s-25 58 -57 58s-57 -25 -57 -58zM103 -76h108v23h-37v16l37 21v26l-41 -24c-6 12 -17 20 -31 20c-21 0 -36 -16 -36 -38v-44zM103 26v24h108v-24h-108zM103 106l108 -42v25l-20 7v43
l20 8v26l-108 -44v-23zM103 186h108v66h-21v-42h-87v-24zM103 300h108v23h-41v38h-22v-38h-23v42h-22v-65zM103 509h108v23h-68l68 50v19h-108v-23h66l-66 -47v-22zM103 617h22v30h86v24h-86v30h-22v-84zM123 433c0 20 14 34 34 34s35 -14 35 -34c0 -19 -15 -34 -35 -34
s-34 15 -34 34zM124 -53v19c0 10 6 16 14 16c9 0 15 -6 15 -16v-19h-29zM131 118l39 14v-28z" />
    <glyph glyph-name="Eng" unicode="&#x14a;" 
d="M125 -92v-30h86v-24h-86v-30h-22v84h22zM100 433c0 -33 25 -58 57 -58s57 25 57 58s-25 58 -57 58s-57 -25 -57 -58zM103 -76h108v23h-37v16l37 21v26l-41 -24c-6 12 -17 20 -31 20c-21 0 -36 -16 -36 -38v-44zM103 26v24h108v-24h-108zM103 106l108 -42v25l-20 7v43
l20 8v26l-108 -44v-23zM103 186h108v66h-21v-42h-87v-24zM103 300h108v23h-41v38h-22v-38h-23v42h-22v-65zM103 509h108v23h-68l68 50v19h-108v-23h66l-66 -47v-22zM103 617h22v30h86v24h-86v30h-22v-84zM123 433c0 20 14 34 34 34s35 -14 35 -34c0 -19 -15 -34 -35 -34
s-34 15 -34 34zM124 -53v19c0 10 6 16 14 16c9 0 15 -6 15 -16v-19h-29zM131 118l39 14v-28z" />
    <glyph glyph-name="O" unicode="O" horiz-adv-x="812" 
d="M406 -15c-250 0 -375 170 -375 365s125 365 375 365s375 -170 375 -365s-125 -365 -375 -365zM221 350c0 -112 64 -195 185 -195s185 83 185 195s-64 195 -185 195s-185 -83 -185 -195z" />
    <glyph glyph-name="Oacute" unicode="&#xd3;" 
d="M125 -92v-30h86v-24h-86v-30h-22v84h22zM100 433c0 -33 25 -58 57 -58s57 25 57 58s-25 58 -57 58s-57 -25 -57 -58zM103 -76h108v23h-37v16l37 21v26l-41 -24c-6 12 -17 20 -31 20c-21 0 -36 -16 -36 -38v-44zM103 26v24h108v-24h-108zM103 106l108 -42v25l-20 7v43
l20 8v26l-108 -44v-23zM103 186h108v66h-21v-42h-87v-24zM103 300h108v23h-41v38h-22v-38h-23v42h-22v-65zM103 509h108v23h-68l68 50v19h-108v-23h66l-66 -47v-22zM103 617h22v30h86v24h-86v30h-22v-84zM123 433c0 20 14 34 34 34s35 -14 35 -34c0 -19 -15 -34 -35 -34
s-34 15 -34 34zM124 -53v19c0 10 6 16 14 16c9 0 15 -6 15 -16v-19h-29zM131 118l39 14v-28z" />
    <glyph glyph-name="Ocircumflex" unicode="&#xd4;" 
d="M125 -92v-30h86v-24h-86v-30h-22v84h22zM100 433c0 -33 25 -58 57 -58s57 25 57 58s-25 58 -57 58s-57 -25 -57 -58zM103 -76h108v23h-37v16l37 21v26l-41 -24c-6 12 -17 20 -31 20c-21 0 -36 -16 -36 -38v-44zM103 26v24h108v-24h-108zM103 106l108 -42v25l-20 7v43
l20 8v26l-108 -44v-23zM103 186h108v66h-21v-42h-87v-24zM103 300h108v23h-41v38h-22v-38h-23v42h-22v-65zM103 509h108v23h-68l68 50v19h-108v-23h66l-66 -47v-22zM103 617h22v30h86v24h-86v30h-22v-84zM123 433c0 20 14 34 34 34s35 -14 35 -34c0 -19 -15 -34 -35 -34
s-34 15 -34 34zM124 -53v19c0 10 6 16 14 16c9 0 15 -6 15 -16v-19h-29zM131 118l39 14v-28z" />
    <glyph glyph-name="Odieresis" unicode="&#xd6;" 
d="M125 -92v-30h86v-24h-86v-30h-22v84h22zM100 433c0 -33 25 -58 57 -58s57 25 57 58s-25 58 -57 58s-57 -25 -57 -58zM103 -76h108v23h-37v16l37 21v26l-41 -24c-6 12 -17 20 -31 20c-21 0 -36 -16 -36 -38v-44zM103 26v24h108v-24h-108zM103 106l108 -42v25l-20 7v43
l20 8v26l-108 -44v-23zM103 186h108v66h-21v-42h-87v-24zM103 300h108v23h-41v38h-22v-38h-23v42h-22v-65zM103 509h108v23h-68l68 50v19h-108v-23h66l-66 -47v-22zM103 617h22v30h86v24h-86v30h-22v-84zM123 433c0 20 14 34 34 34s35 -14 35 -34c0 -19 -15 -34 -35 -34
s-34 15 -34 34zM124 -53v19c0 10 6 16 14 16c9 0 15 -6 15 -16v-19h-29zM131 118l39 14v-28z" />
    <glyph glyph-name="Ograve" unicode="&#xd2;" 
d="M125 -92v-30h86v-24h-86v-30h-22v84h22zM100 433c0 -33 25 -58 57 -58s57 25 57 58s-25 58 -57 58s-57 -25 -57 -58zM103 -76h108v23h-37v16l37 21v26l-41 -24c-6 12 -17 20 -31 20c-21 0 -36 -16 -36 -38v-44zM103 26v24h108v-24h-108zM103 106l108 -42v25l-20 7v43
l20 8v26l-108 -44v-23zM103 186h108v66h-21v-42h-87v-24zM103 300h108v23h-41v38h-22v-38h-23v42h-22v-65zM103 509h108v23h-68l68 50v19h-108v-23h66l-66 -47v-22zM103 617h22v30h86v24h-86v30h-22v-84zM123 433c0 20 14 34 34 34s35 -14 35 -34c0 -19 -15 -34 -35 -34
s-34 15 -34 34zM124 -53v19c0 10 6 16 14 16c9 0 15 -6 15 -16v-19h-29zM131 118l39 14v-28z" />
    <glyph glyph-name="Ohungarumlaut" unicode="&#x150;" 
d="M125 -92v-30h86v-24h-86v-30h-22v84h22zM100 433c0 -33 25 -58 57 -58s57 25 57 58s-25 58 -57 58s-57 -25 -57 -58zM103 -76h108v23h-37v16l37 21v26l-41 -24c-6 12 -17 20 -31 20c-21 0 -36 -16 -36 -38v-44zM103 26v24h108v-24h-108zM103 106l108 -42v25l-20 7v43
l20 8v26l-108 -44v-23zM103 186h108v66h-21v-42h-87v-24zM103 300h108v23h-41v38h-22v-38h-23v42h-22v-65zM103 509h108v23h-68l68 50v19h-108v-23h66l-66 -47v-22zM103 617h22v30h86v24h-86v30h-22v-84zM123 433c0 20 14 34 34 34s35 -14 35 -34c0 -19 -15 -34 -35 -34
s-34 15 -34 34zM124 -53v19c0 10 6 16 14 16c9 0 15 -6 15 -16v-19h-29zM131 118l39 14v-28z" />
    <glyph glyph-name="Omacron" unicode="&#x14c;" 
d="M125 -92v-30h86v-24h-86v-30h-22v84h22zM100 433c0 -33 25 -58 57 -58s57 25 57 58s-25 58 -57 58s-57 -25 -57 -58zM103 -76h108v23h-37v16l37 21v26l-41 -24c-6 12 -17 20 -31 20c-21 0 -36 -16 -36 -38v-44zM103 26v24h108v-24h-108zM103 106l108 -42v25l-20 7v43
l20 8v26l-108 -44v-23zM103 186h108v66h-21v-42h-87v-24zM103 300h108v23h-41v38h-22v-38h-23v42h-22v-65zM103 509h108v23h-68l68 50v19h-108v-23h66l-66 -47v-22zM103 617h22v30h86v24h-86v30h-22v-84zM123 433c0 20 14 34 34 34s35 -14 35 -34c0 -19 -15 -34 -35 -34
s-34 15 -34 34zM124 -53v19c0 10 6 16 14 16c9 0 15 -6 15 -16v-19h-29zM131 118l39 14v-28z" />
    <glyph glyph-name="Oslash" unicode="&#xd8;" 
d="M125 -92v-30h86v-24h-86v-30h-22v84h22zM100 433c0 -33 25 -58 57 -58s57 25 57 58s-25 58 -57 58s-57 -25 -57 -58zM103 -76h108v23h-37v16l37 21v26l-41 -24c-6 12 -17 20 -31 20c-21 0 -36 -16 -36 -38v-44zM103 26v24h108v-24h-108zM103 106l108 -42v25l-20 7v43
l20 8v26l-108 -44v-23zM103 186h108v66h-21v-42h-87v-24zM103 300h108v23h-41v38h-22v-38h-23v42h-22v-65zM103 509h108v23h-68l68 50v19h-108v-23h66l-66 -47v-22zM103 617h22v30h86v24h-86v30h-22v-84zM123 433c0 20 14 34 34 34s35 -14 35 -34c0 -19 -15 -34 -35 -34
s-34 15 -34 34zM124 -53v19c0 10 6 16 14 16c9 0 15 -6 15 -16v-19h-29zM131 118l39 14v-28z" />
    <glyph glyph-name="Otilde" unicode="&#xd5;" 
d="M125 -92v-30h86v-24h-86v-30h-22v84h22zM100 433c0 -33 25 -58 57 -58s57 25 57 58s-25 58 -57 58s-57 -25 -57 -58zM103 -76h108v23h-37v16l37 21v26l-41 -24c-6 12 -17 20 -31 20c-21 0 -36 -16 -36 -38v-44zM103 26v24h108v-24h-108zM103 106l108 -42v25l-20 7v43
l20 8v26l-108 -44v-23zM103 186h108v66h-21v-42h-87v-24zM103 300h108v23h-41v38h-22v-38h-23v42h-22v-65zM103 509h108v23h-68l68 50v19h-108v-23h66l-66 -47v-22zM103 617h22v30h86v24h-86v30h-22v-84zM123 433c0 20 14 34 34 34s35 -14 35 -34c0 -19 -15 -34 -35 -34
s-34 15 -34 34zM124 -53v19c0 10 6 16 14 16c9 0 15 -6 15 -16v-19h-29zM131 118l39 14v-28z" />
    <glyph glyph-name="OE" unicode="&#x152;" 
d="M125 -92v-30h86v-24h-86v-30h-22v84h22zM100 433c0 -33 25 -58 57 -58s57 25 57 58s-25 58 -57 58s-57 -25 -57 -58zM103 -76h108v23h-37v16l37 21v26l-41 -24c-6 12 -17 20 -31 20c-21 0 -36 -16 -36 -38v-44zM103 26v24h108v-24h-108zM103 106l108 -42v25l-20 7v43
l20 8v26l-108 -44v-23zM103 186h108v66h-21v-42h-87v-24zM103 300h108v23h-41v38h-22v-38h-23v42h-22v-65zM103 509h108v23h-68l68 50v19h-108v-23h66l-66 -47v-22zM103 617h22v30h86v24h-86v30h-22v-84zM123 433c0 20 14 34 34 34s35 -14 35 -34c0 -19 -15 -34 -35 -34
s-34 15 -34 34zM124 -53v19c0 10 6 16 14 16c9 0 15 -6 15 -16v-19h-29zM131 118l39 14v-28z" />
    <glyph glyph-name="P" unicode="P" horiz-adv-x="668" 
d="M66 0v700h277c173 0 305 -56 305 -240s-132 -239 -305 -240h-92v-220h-185zM251 380h101c56 0 106 17 106 80s-50 80 -106 80h-101v-160z" />
    <glyph glyph-name="Thorn" unicode="&#xde;" 
d="M125 -92v-30h86v-24h-86v-30h-22v84h22zM100 433c0 -33 25 -58 57 -58s57 25 57 58s-25 58 -57 58s-57 -25 -57 -58zM103 -76h108v23h-37v16l37 21v26l-41 -24c-6 12 -17 20 -31 20c-21 0 -36 -16 -36 -38v-44zM103 26v24h108v-24h-108zM103 106l108 -42v25l-20 7v43
l20 8v26l-108 -44v-23zM103 186h108v66h-21v-42h-87v-24zM103 300h108v23h-41v38h-22v-38h-23v42h-22v-65zM103 509h108v23h-68l68 50v19h-108v-23h66l-66 -47v-22zM103 617h22v30h86v24h-86v30h-22v-84zM123 433c0 20 14 34 34 34s35 -14 35 -34c0 -19 -15 -34 -35 -34
s-34 15 -34 34zM124 -53v19c0 10 6 16 14 16c9 0 15 -6 15 -16v-19h-29zM131 118l39 14v-28z" />
    <glyph glyph-name="Q" unicode="Q" horiz-adv-x="812" 
d="M579 19c-48 -22 -106 -34 -173 -34c-250 0 -375 170 -375 365s125 365 375 365s375 -170 375 -365c0 -84 -23 -163 -70 -226l70 -70l-126 -111zM221 350c0 -112 64 -195 185 -195c12 0 24 1 35 2l-63 63l119 118l78 -78c10 27 16 57 16 90c0 112 -64 197 -185 197
s-185 -85 -185 -197z" />
    <glyph glyph-name="R" unicode="R" horiz-adv-x="711" 
d="M66 0v700h295c142 0 287 -51 287 -236c0 -116 -57 -179 -134 -210l193 -254h-209l-167 228h-80v-228h-185zM251 378h118c53 0 89 27 89 81s-36 81 -89 81h-118v-162z" />
    <glyph glyph-name="Racute" unicode="&#x154;" 
d="M125 -92v-30h86v-24h-86v-30h-22v84h22zM100 433c0 -33 25 -58 57 -58s57 25 57 58s-25 58 -57 58s-57 -25 -57 -58zM103 -76h108v23h-37v16l37 21v26l-41 -24c-6 12 -17 20 -31 20c-21 0 -36 -16 -36 -38v-44zM103 26v24h108v-24h-108zM103 106l108 -42v25l-20 7v43
l20 8v26l-108 -44v-23zM103 186h108v66h-21v-42h-87v-24zM103 300h108v23h-41v38h-22v-38h-23v42h-22v-65zM103 509h108v23h-68l68 50v19h-108v-23h66l-66 -47v-22zM103 617h22v30h86v24h-86v30h-22v-84zM123 433c0 20 14 34 34 34s35 -14 35 -34c0 -19 -15 -34 -35 -34
s-34 15 -34 34zM124 -53v19c0 10 6 16 14 16c9 0 15 -6 15 -16v-19h-29zM131 118l39 14v-28z" />
    <glyph glyph-name="Rcaron" unicode="&#x158;" 
d="M125 -92v-30h86v-24h-86v-30h-22v84h22zM100 433c0 -33 25 -58 57 -58s57 25 57 58s-25 58 -57 58s-57 -25 -57 -58zM103 -76h108v23h-37v16l37 21v26l-41 -24c-6 12 -17 20 -31 20c-21 0 -36 -16 -36 -38v-44zM103 26v24h108v-24h-108zM103 106l108 -42v25l-20 7v43
l20 8v26l-108 -44v-23zM103 186h108v66h-21v-42h-87v-24zM103 300h108v23h-41v38h-22v-38h-23v42h-22v-65zM103 509h108v23h-68l68 50v19h-108v-23h66l-66 -47v-22zM103 617h22v30h86v24h-86v30h-22v-84zM123 433c0 20 14 34 34 34s35 -14 35 -34c0 -19 -15 -34 -35 -34
s-34 15 -34 34zM124 -53v19c0 10 6 16 14 16c9 0 15 -6 15 -16v-19h-29zM131 118l39 14v-28z" />
    <glyph glyph-name="uni0156" unicode="&#x156;" 
d="M125 -92v-30h86v-24h-86v-30h-22v84h22zM100 433c0 -33 25 -58 57 -58s57 25 57 58s-25 58 -57 58s-57 -25 -57 -58zM103 -76h108v23h-37v16l37 21v26l-41 -24c-6 12 -17 20 -31 20c-21 0 -36 -16 -36 -38v-44zM103 26v24h108v-24h-108zM103 106l108 -42v25l-20 7v43
l20 8v26l-108 -44v-23zM103 186h108v66h-21v-42h-87v-24zM103 300h108v23h-41v38h-22v-38h-23v42h-22v-65zM103 509h108v23h-68l68 50v19h-108v-23h66l-66 -47v-22zM103 617h22v30h86v24h-86v30h-22v-84zM123 433c0 20 14 34 34 34s35 -14 35 -34c0 -19 -15 -34 -35 -34
s-34 15 -34 34zM124 -53v19c0 10 6 16 14 16c9 0 15 -6 15 -16v-19h-29zM131 118l39 14v-28z" />
    <glyph glyph-name="S" unicode="S" horiz-adv-x="621" 
d="M315 -15c-101 0 -195 23 -269 64v175c83 -57 175 -79 255 -79c73 0 104 12 104 47c0 101 -364 67 -364 317c0 140 120 206 264 206c87 0 174 -21 235 -56v-170c-60 45 -139 67 -220 66c-68 -1 -89 -19 -89 -45c0 -91 364 -63 364 -311c0 -166 -127 -214 -280 -214z" />
    <glyph glyph-name="Sacute" unicode="&#x15a;" 
d="M125 -92v-30h86v-24h-86v-30h-22v84h22zM100 433c0 -33 25 -58 57 -58s57 25 57 58s-25 58 -57 58s-57 -25 -57 -58zM103 -76h108v23h-37v16l37 21v26l-41 -24c-6 12 -17 20 -31 20c-21 0 -36 -16 -36 -38v-44zM103 26v24h108v-24h-108zM103 106l108 -42v25l-20 7v43
l20 8v26l-108 -44v-23zM103 186h108v66h-21v-42h-87v-24zM103 300h108v23h-41v38h-22v-38h-23v42h-22v-65zM103 509h108v23h-68l68 50v19h-108v-23h66l-66 -47v-22zM103 617h22v30h86v24h-86v30h-22v-84zM123 433c0 20 14 34 34 34s35 -14 35 -34c0 -19 -15 -34 -35 -34
s-34 15 -34 34zM124 -53v19c0 10 6 16 14 16c9 0 15 -6 15 -16v-19h-29zM131 118l39 14v-28z" />
    <glyph glyph-name="Scaron" unicode="&#x160;" 
d="M125 -92v-30h86v-24h-86v-30h-22v84h22zM100 433c0 -33 25 -58 57 -58s57 25 57 58s-25 58 -57 58s-57 -25 -57 -58zM103 -76h108v23h-37v16l37 21v26l-41 -24c-6 12 -17 20 -31 20c-21 0 -36 -16 -36 -38v-44zM103 26v24h108v-24h-108zM103 106l108 -42v25l-20 7v43
l20 8v26l-108 -44v-23zM103 186h108v66h-21v-42h-87v-24zM103 300h108v23h-41v38h-22v-38h-23v42h-22v-65zM103 509h108v23h-68l68 50v19h-108v-23h66l-66 -47v-22zM103 617h22v30h86v24h-86v30h-22v-84zM123 433c0 20 14 34 34 34s35 -14 35 -34c0 -19 -15 -34 -35 -34
s-34 15 -34 34zM124 -53v19c0 10 6 16 14 16c9 0 15 -6 15 -16v-19h-29zM131 118l39 14v-28z" />
    <glyph glyph-name="Scedilla" unicode="&#x15e;" 
d="M125 -92v-30h86v-24h-86v-30h-22v84h22zM100 433c0 -33 25 -58 57 -58s57 25 57 58s-25 58 -57 58s-57 -25 -57 -58zM103 -76h108v23h-37v16l37 21v26l-41 -24c-6 12 -17 20 -31 20c-21 0 -36 -16 -36 -38v-44zM103 26v24h108v-24h-108zM103 106l108 -42v25l-20 7v43
l20 8v26l-108 -44v-23zM103 186h108v66h-21v-42h-87v-24zM103 300h108v23h-41v38h-22v-38h-23v42h-22v-65zM103 509h108v23h-68l68 50v19h-108v-23h66l-66 -47v-22zM103 617h22v30h86v24h-86v30h-22v-84zM123 433c0 20 14 34 34 34s35 -14 35 -34c0 -19 -15 -34 -35 -34
s-34 15 -34 34zM124 -53v19c0 10 6 16 14 16c9 0 15 -6 15 -16v-19h-29zM131 118l39 14v-28z" />
    <glyph glyph-name="uni0218" unicode="&#x218;" 
d="M125 -92v-30h86v-24h-86v-30h-22v84h22zM100 433c0 -33 25 -58 57 -58s57 25 57 58s-25 58 -57 58s-57 -25 -57 -58zM103 -76h108v23h-37v16l37 21v26l-41 -24c-6 12 -17 20 -31 20c-21 0 -36 -16 -36 -38v-44zM103 26v24h108v-24h-108zM103 106l108 -42v25l-20 7v43
l20 8v26l-108 -44v-23zM103 186h108v66h-21v-42h-87v-24zM103 300h108v23h-41v38h-22v-38h-23v42h-22v-65zM103 509h108v23h-68l68 50v19h-108v-23h66l-66 -47v-22zM103 617h22v30h86v24h-86v30h-22v-84zM123 433c0 20 14 34 34 34s35 -14 35 -34c0 -19 -15 -34 -35 -34
s-34 15 -34 34zM124 -53v19c0 10 6 16 14 16c9 0 15 -6 15 -16v-19h-29zM131 118l39 14v-28z" />
    <glyph glyph-name="T" unicode="T" horiz-adv-x="606" 
d="M211 0v535h-198v165h580v-165h-197v-535h-185z" />
    <glyph glyph-name="Tbar" unicode="&#x166;" 
d="M125 -92v-30h86v-24h-86v-30h-22v84h22zM100 433c0 -33 25 -58 57 -58s57 25 57 58s-25 58 -57 58s-57 -25 -57 -58zM103 -76h108v23h-37v16l37 21v26l-41 -24c-6 12 -17 20 -31 20c-21 0 -36 -16 -36 -38v-44zM103 26v24h108v-24h-108zM103 106l108 -42v25l-20 7v43
l20 8v26l-108 -44v-23zM103 186h108v66h-21v-42h-87v-24zM103 300h108v23h-41v38h-22v-38h-23v42h-22v-65zM103 509h108v23h-68l68 50v19h-108v-23h66l-66 -47v-22zM103 617h22v30h86v24h-86v30h-22v-84zM123 433c0 20 14 34 34 34s35 -14 35 -34c0 -19 -15 -34 -35 -34
s-34 15 -34 34zM124 -53v19c0 10 6 16 14 16c9 0 15 -6 15 -16v-19h-29zM131 118l39 14v-28z" />
    <glyph glyph-name="Tcaron" unicode="&#x164;" 
d="M125 -92v-30h86v-24h-86v-30h-22v84h22zM100 433c0 -33 25 -58 57 -58s57 25 57 58s-25 58 -57 58s-57 -25 -57 -58zM103 -76h108v23h-37v16l37 21v26l-41 -24c-6 12 -17 20 -31 20c-21 0 -36 -16 -36 -38v-44zM103 26v24h108v-24h-108zM103 106l108 -42v25l-20 7v43
l20 8v26l-108 -44v-23zM103 186h108v66h-21v-42h-87v-24zM103 300h108v23h-41v38h-22v-38h-23v42h-22v-65zM103 509h108v23h-68l68 50v19h-108v-23h66l-66 -47v-22zM103 617h22v30h86v24h-86v30h-22v-84zM123 433c0 20 14 34 34 34s35 -14 35 -34c0 -19 -15 -34 -35 -34
s-34 15 -34 34zM124 -53v19c0 10 6 16 14 16c9 0 15 -6 15 -16v-19h-29zM131 118l39 14v-28z" />
    <glyph glyph-name="uni0162" unicode="&#x162;" 
d="M125 -92v-30h86v-24h-86v-30h-22v84h22zM100 433c0 -33 25 -58 57 -58s57 25 57 58s-25 58 -57 58s-57 -25 -57 -58zM103 -76h108v23h-37v16l37 21v26l-41 -24c-6 12 -17 20 -31 20c-21 0 -36 -16 -36 -38v-44zM103 26v24h108v-24h-108zM103 106l108 -42v25l-20 7v43
l20 8v26l-108 -44v-23zM103 186h108v66h-21v-42h-87v-24zM103 300h108v23h-41v38h-22v-38h-23v42h-22v-65zM103 509h108v23h-68l68 50v19h-108v-23h66l-66 -47v-22zM103 617h22v30h86v24h-86v30h-22v-84zM123 433c0 20 14 34 34 34s35 -14 35 -34c0 -19 -15 -34 -35 -34
s-34 15 -34 34zM124 -53v19c0 10 6 16 14 16c9 0 15 -6 15 -16v-19h-29zM131 118l39 14v-28z" />
    <glyph glyph-name="uni021A" unicode="&#x21a;" 
d="M125 -92v-30h86v-24h-86v-30h-22v84h22zM100 433c0 -33 25 -58 57 -58s57 25 57 58s-25 58 -57 58s-57 -25 -57 -58zM103 -76h108v23h-37v16l37 21v26l-41 -24c-6 12 -17 20 -31 20c-21 0 -36 -16 -36 -38v-44zM103 26v24h108v-24h-108zM103 106l108 -42v25l-20 7v43
l20 8v26l-108 -44v-23zM103 186h108v66h-21v-42h-87v-24zM103 300h108v23h-41v38h-22v-38h-23v42h-22v-65zM103 509h108v23h-68l68 50v19h-108v-23h66l-66 -47v-22zM103 617h22v30h86v24h-86v30h-22v-84zM123 433c0 20 14 34 34 34s35 -14 35 -34c0 -19 -15 -34 -35 -34
s-34 15 -34 34zM124 -53v19c0 10 6 16 14 16c9 0 15 -6 15 -16v-19h-29zM131 118l39 14v-28z" />
    <glyph glyph-name="U" unicode="U" horiz-adv-x="748" 
d="M374 -15c-155 0 -315 71 -315 282v433h185v-423c0 -94 51 -127 130 -127s130 33 130 127v423h185v-433c0 -211 -160 -282 -315 -282z" />
    <glyph glyph-name="Uacute" unicode="&#xda;" 
d="M125 -92v-30h86v-24h-86v-30h-22v84h22zM100 433c0 -33 25 -58 57 -58s57 25 57 58s-25 58 -57 58s-57 -25 -57 -58zM103 -76h108v23h-37v16l37 21v26l-41 -24c-6 12 -17 20 -31 20c-21 0 -36 -16 -36 -38v-44zM103 26v24h108v-24h-108zM103 106l108 -42v25l-20 7v43
l20 8v26l-108 -44v-23zM103 186h108v66h-21v-42h-87v-24zM103 300h108v23h-41v38h-22v-38h-23v42h-22v-65zM103 509h108v23h-68l68 50v19h-108v-23h66l-66 -47v-22zM103 617h22v30h86v24h-86v30h-22v-84zM123 433c0 20 14 34 34 34s35 -14 35 -34c0 -19 -15 -34 -35 -34
s-34 15 -34 34zM124 -53v19c0 10 6 16 14 16c9 0 15 -6 15 -16v-19h-29zM131 118l39 14v-28z" />
    <glyph glyph-name="Ucircumflex" unicode="&#xdb;" 
d="M125 -92v-30h86v-24h-86v-30h-22v84h22zM100 433c0 -33 25 -58 57 -58s57 25 57 58s-25 58 -57 58s-57 -25 -57 -58zM103 -76h108v23h-37v16l37 21v26l-41 -24c-6 12 -17 20 -31 20c-21 0 -36 -16 -36 -38v-44zM103 26v24h108v-24h-108zM103 106l108 -42v25l-20 7v43
l20 8v26l-108 -44v-23zM103 186h108v66h-21v-42h-87v-24zM103 300h108v23h-41v38h-22v-38h-23v42h-22v-65zM103 509h108v23h-68l68 50v19h-108v-23h66l-66 -47v-22zM103 617h22v30h86v24h-86v30h-22v-84zM123 433c0 20 14 34 34 34s35 -14 35 -34c0 -19 -15 -34 -35 -34
s-34 15 -34 34zM124 -53v19c0 10 6 16 14 16c9 0 15 -6 15 -16v-19h-29zM131 118l39 14v-28z" />
    <glyph glyph-name="Udieresis" unicode="&#xdc;" 
d="M125 -92v-30h86v-24h-86v-30h-22v84h22zM100 433c0 -33 25 -58 57 -58s57 25 57 58s-25 58 -57 58s-57 -25 -57 -58zM103 -76h108v23h-37v16l37 21v26l-41 -24c-6 12 -17 20 -31 20c-21 0 -36 -16 -36 -38v-44zM103 26v24h108v-24h-108zM103 106l108 -42v25l-20 7v43
l20 8v26l-108 -44v-23zM103 186h108v66h-21v-42h-87v-24zM103 300h108v23h-41v38h-22v-38h-23v42h-22v-65zM103 509h108v23h-68l68 50v19h-108v-23h66l-66 -47v-22zM103 617h22v30h86v24h-86v30h-22v-84zM123 433c0 20 14 34 34 34s35 -14 35 -34c0 -19 -15 -34 -35 -34
s-34 15 -34 34zM124 -53v19c0 10 6 16 14 16c9 0 15 -6 15 -16v-19h-29zM131 118l39 14v-28z" />
    <glyph glyph-name="Ugrave" unicode="&#xd9;" 
d="M125 -92v-30h86v-24h-86v-30h-22v84h22zM100 433c0 -33 25 -58 57 -58s57 25 57 58s-25 58 -57 58s-57 -25 -57 -58zM103 -76h108v23h-37v16l37 21v26l-41 -24c-6 12 -17 20 -31 20c-21 0 -36 -16 -36 -38v-44zM103 26v24h108v-24h-108zM103 106l108 -42v25l-20 7v43
l20 8v26l-108 -44v-23zM103 186h108v66h-21v-42h-87v-24zM103 300h108v23h-41v38h-22v-38h-23v42h-22v-65zM103 509h108v23h-68l68 50v19h-108v-23h66l-66 -47v-22zM103 617h22v30h86v24h-86v30h-22v-84zM123 433c0 20 14 34 34 34s35 -14 35 -34c0 -19 -15 -34 -35 -34
s-34 15 -34 34zM124 -53v19c0 10 6 16 14 16c9 0 15 -6 15 -16v-19h-29zM131 118l39 14v-28z" />
    <glyph glyph-name="Uhungarumlaut" unicode="&#x170;" 
d="M125 -92v-30h86v-24h-86v-30h-22v84h22zM100 433c0 -33 25 -58 57 -58s57 25 57 58s-25 58 -57 58s-57 -25 -57 -58zM103 -76h108v23h-37v16l37 21v26l-41 -24c-6 12 -17 20 -31 20c-21 0 -36 -16 -36 -38v-44zM103 26v24h108v-24h-108zM103 106l108 -42v25l-20 7v43
l20 8v26l-108 -44v-23zM103 186h108v66h-21v-42h-87v-24zM103 300h108v23h-41v38h-22v-38h-23v42h-22v-65zM103 509h108v23h-68l68 50v19h-108v-23h66l-66 -47v-22zM103 617h22v30h86v24h-86v30h-22v-84zM123 433c0 20 14 34 34 34s35 -14 35 -34c0 -19 -15 -34 -35 -34
s-34 15 -34 34zM124 -53v19c0 10 6 16 14 16c9 0 15 -6 15 -16v-19h-29zM131 118l39 14v-28z" />
    <glyph glyph-name="Umacron" unicode="&#x16a;" 
d="M125 -92v-30h86v-24h-86v-30h-22v84h22zM100 433c0 -33 25 -58 57 -58s57 25 57 58s-25 58 -57 58s-57 -25 -57 -58zM103 -76h108v23h-37v16l37 21v26l-41 -24c-6 12 -17 20 -31 20c-21 0 -36 -16 -36 -38v-44zM103 26v24h108v-24h-108zM103 106l108 -42v25l-20 7v43
l20 8v26l-108 -44v-23zM103 186h108v66h-21v-42h-87v-24zM103 300h108v23h-41v38h-22v-38h-23v42h-22v-65zM103 509h108v23h-68l68 50v19h-108v-23h66l-66 -47v-22zM103 617h22v30h86v24h-86v30h-22v-84zM123 433c0 20 14 34 34 34s35 -14 35 -34c0 -19 -15 -34 -35 -34
s-34 15 -34 34zM124 -53v19c0 10 6 16 14 16c9 0 15 -6 15 -16v-19h-29zM131 118l39 14v-28z" />
    <glyph glyph-name="Uogonek" unicode="&#x172;" 
d="M125 -92v-30h86v-24h-86v-30h-22v84h22zM100 433c0 -33 25 -58 57 -58s57 25 57 58s-25 58 -57 58s-57 -25 -57 -58zM103 -76h108v23h-37v16l37 21v26l-41 -24c-6 12 -17 20 -31 20c-21 0 -36 -16 -36 -38v-44zM103 26v24h108v-24h-108zM103 106l108 -42v25l-20 7v43
l20 8v26l-108 -44v-23zM103 186h108v66h-21v-42h-87v-24zM103 300h108v23h-41v38h-22v-38h-23v42h-22v-65zM103 509h108v23h-68l68 50v19h-108v-23h66l-66 -47v-22zM103 617h22v30h86v24h-86v30h-22v-84zM123 433c0 20 14 34 34 34s35 -14 35 -34c0 -19 -15 -34 -35 -34
s-34 15 -34 34zM124 -53v19c0 10 6 16 14 16c9 0 15 -6 15 -16v-19h-29zM131 118l39 14v-28z" />
    <glyph glyph-name="Uring" unicode="&#x16e;" 
d="M125 -92v-30h86v-24h-86v-30h-22v84h22zM100 433c0 -33 25 -58 57 -58s57 25 57 58s-25 58 -57 58s-57 -25 -57 -58zM103 -76h108v23h-37v16l37 21v26l-41 -24c-6 12 -17 20 -31 20c-21 0 -36 -16 -36 -38v-44zM103 26v24h108v-24h-108zM103 106l108 -42v25l-20 7v43
l20 8v26l-108 -44v-23zM103 186h108v66h-21v-42h-87v-24zM103 300h108v23h-41v38h-22v-38h-23v42h-22v-65zM103 509h108v23h-68l68 50v19h-108v-23h66l-66 -47v-22zM103 617h22v30h86v24h-86v30h-22v-84zM123 433c0 20 14 34 34 34s35 -14 35 -34c0 -19 -15 -34 -35 -34
s-34 15 -34 34zM124 -53v19c0 10 6 16 14 16c9 0 15 -6 15 -16v-19h-29zM131 118l39 14v-28z" />
    <glyph glyph-name="V" unicode="V" horiz-adv-x="722" 
d="M266 0l-263 700h200l158 -480l158 480h200l-263 -700h-190z" />
    <glyph glyph-name="W" unicode="W" horiz-adv-x="1078" 
d="M220 0l-214 700h200l119 -492l133 492h162l133 -492l119 492h200l-214 -700h-200l-119 433l-119 -433h-200z" />
    <glyph glyph-name="Wacute" unicode="&#x1e82;" 
d="M125 -92v-30h86v-24h-86v-30h-22v84h22zM100 433c0 -33 25 -58 57 -58s57 25 57 58s-25 58 -57 58s-57 -25 -57 -58zM103 -76h108v23h-37v16l37 21v26l-41 -24c-6 12 -17 20 -31 20c-21 0 -36 -16 -36 -38v-44zM103 26v24h108v-24h-108zM103 106l108 -42v25l-20 7v43
l20 8v26l-108 -44v-23zM103 186h108v66h-21v-42h-87v-24zM103 300h108v23h-41v38h-22v-38h-23v42h-22v-65zM103 509h108v23h-68l68 50v19h-108v-23h66l-66 -47v-22zM103 617h22v30h86v24h-86v30h-22v-84zM123 433c0 20 14 34 34 34s35 -14 35 -34c0 -19 -15 -34 -35 -34
s-34 15 -34 34zM124 -53v19c0 10 6 16 14 16c9 0 15 -6 15 -16v-19h-29zM131 118l39 14v-28z" />
    <glyph glyph-name="Wcircumflex" unicode="&#x174;" 
d="M125 -92v-30h86v-24h-86v-30h-22v84h22zM100 433c0 -33 25 -58 57 -58s57 25 57 58s-25 58 -57 58s-57 -25 -57 -58zM103 -76h108v23h-37v16l37 21v26l-41 -24c-6 12 -17 20 -31 20c-21 0 -36 -16 -36 -38v-44zM103 26v24h108v-24h-108zM103 106l108 -42v25l-20 7v43
l20 8v26l-108 -44v-23zM103 186h108v66h-21v-42h-87v-24zM103 300h108v23h-41v38h-22v-38h-23v42h-22v-65zM103 509h108v23h-68l68 50v19h-108v-23h66l-66 -47v-22zM103 617h22v30h86v24h-86v30h-22v-84zM123 433c0 20 14 34 34 34s35 -14 35 -34c0 -19 -15 -34 -35 -34
s-34 15 -34 34zM124 -53v19c0 10 6 16 14 16c9 0 15 -6 15 -16v-19h-29zM131 118l39 14v-28z" />
    <glyph glyph-name="Wdieresis" unicode="&#x1e84;" 
d="M125 -92v-30h86v-24h-86v-30h-22v84h22zM100 433c0 -33 25 -58 57 -58s57 25 57 58s-25 58 -57 58s-57 -25 -57 -58zM103 -76h108v23h-37v16l37 21v26l-41 -24c-6 12 -17 20 -31 20c-21 0 -36 -16 -36 -38v-44zM103 26v24h108v-24h-108zM103 106l108 -42v25l-20 7v43
l20 8v26l-108 -44v-23zM103 186h108v66h-21v-42h-87v-24zM103 300h108v23h-41v38h-22v-38h-23v42h-22v-65zM103 509h108v23h-68l68 50v19h-108v-23h66l-66 -47v-22zM103 617h22v30h86v24h-86v30h-22v-84zM123 433c0 20 14 34 34 34s35 -14 35 -34c0 -19 -15 -34 -35 -34
s-34 15 -34 34zM124 -53v19c0 10 6 16 14 16c9 0 15 -6 15 -16v-19h-29zM131 118l39 14v-28z" />
    <glyph glyph-name="Wgrave" unicode="&#x1e80;" 
d="M125 -92v-30h86v-24h-86v-30h-22v84h22zM100 433c0 -33 25 -58 57 -58s57 25 57 58s-25 58 -57 58s-57 -25 -57 -58zM103 -76h108v23h-37v16l37 21v26l-41 -24c-6 12 -17 20 -31 20c-21 0 -36 -16 -36 -38v-44zM103 26v24h108v-24h-108zM103 106l108 -42v25l-20 7v43
l20 8v26l-108 -44v-23zM103 186h108v66h-21v-42h-87v-24zM103 300h108v23h-41v38h-22v-38h-23v42h-22v-65zM103 509h108v23h-68l68 50v19h-108v-23h66l-66 -47v-22zM103 617h22v30h86v24h-86v30h-22v-84zM123 433c0 20 14 34 34 34s35 -14 35 -34c0 -19 -15 -34 -35 -34
s-34 15 -34 34zM124 -53v19c0 10 6 16 14 16c9 0 15 -6 15 -16v-19h-29zM131 118l39 14v-28z" />
    <glyph glyph-name="X" unicode="X" horiz-adv-x="694" 
d="M-11 0l240 364l-225 336h216l127 -206l127 206h216l-225 -336l240 -364h-216l-142 235l-142 -235h-216z" />
    <glyph glyph-name="Y" unicode="Y" horiz-adv-x="728" 
d="M272 0v239l-273 461h210l155 -289l155 289h210l-273 -461v-239h-184z" />
    <glyph glyph-name="Yacute" unicode="&#xdd;" 
d="M125 -92v-30h86v-24h-86v-30h-22v84h22zM100 433c0 -33 25 -58 57 -58s57 25 57 58s-25 58 -57 58s-57 -25 -57 -58zM103 -76h108v23h-37v16l37 21v26l-41 -24c-6 12 -17 20 -31 20c-21 0 -36 -16 -36 -38v-44zM103 26v24h108v-24h-108zM103 106l108 -42v25l-20 7v43
l20 8v26l-108 -44v-23zM103 186h108v66h-21v-42h-87v-24zM103 300h108v23h-41v38h-22v-38h-23v42h-22v-65zM103 509h108v23h-68l68 50v19h-108v-23h66l-66 -47v-22zM103 617h22v30h86v24h-86v30h-22v-84zM123 433c0 20 14 34 34 34s35 -14 35 -34c0 -19 -15 -34 -35 -34
s-34 15 -34 34zM124 -53v19c0 10 6 16 14 16c9 0 15 -6 15 -16v-19h-29zM131 118l39 14v-28z" />
    <glyph glyph-name="Ycircumflex" unicode="&#x176;" 
d="M125 -92v-30h86v-24h-86v-30h-22v84h22zM100 433c0 -33 25 -58 57 -58s57 25 57 58s-25 58 -57 58s-57 -25 -57 -58zM103 -76h108v23h-37v16l37 21v26l-41 -24c-6 12 -17 20 -31 20c-21 0 -36 -16 -36 -38v-44zM103 26v24h108v-24h-108zM103 106l108 -42v25l-20 7v43
l20 8v26l-108 -44v-23zM103 186h108v66h-21v-42h-87v-24zM103 300h108v23h-41v38h-22v-38h-23v42h-22v-65zM103 509h108v23h-68l68 50v19h-108v-23h66l-66 -47v-22zM103 617h22v30h86v24h-86v30h-22v-84zM123 433c0 20 14 34 34 34s35 -14 35 -34c0 -19 -15 -34 -35 -34
s-34 15 -34 34zM124 -53v19c0 10 6 16 14 16c9 0 15 -6 15 -16v-19h-29zM131 118l39 14v-28z" />
    <glyph glyph-name="Ydieresis" unicode="&#x178;" 
d="M125 -92v-30h86v-24h-86v-30h-22v84h22zM100 433c0 -33 25 -58 57 -58s57 25 57 58s-25 58 -57 58s-57 -25 -57 -58zM103 -76h108v23h-37v16l37 21v26l-41 -24c-6 12 -17 20 -31 20c-21 0 -36 -16 -36 -38v-44zM103 26v24h108v-24h-108zM103 106l108 -42v25l-20 7v43
l20 8v26l-108 -44v-23zM103 186h108v66h-21v-42h-87v-24zM103 300h108v23h-41v38h-22v-38h-23v42h-22v-65zM103 509h108v23h-68l68 50v19h-108v-23h66l-66 -47v-22zM103 617h22v30h86v24h-86v30h-22v-84zM123 433c0 20 14 34 34 34s35 -14 35 -34c0 -19 -15 -34 -35 -34
s-34 15 -34 34zM124 -53v19c0 10 6 16 14 16c9 0 15 -6 15 -16v-19h-29zM131 118l39 14v-28z" />
    <glyph glyph-name="Ygrave" unicode="&#x1ef2;" 
d="M125 -92v-30h86v-24h-86v-30h-22v84h22zM100 433c0 -33 25 -58 57 -58s57 25 57 58s-25 58 -57 58s-57 -25 -57 -58zM103 -76h108v23h-37v16l37 21v26l-41 -24c-6 12 -17 20 -31 20c-21 0 -36 -16 -36 -38v-44zM103 26v24h108v-24h-108zM103 106l108 -42v25l-20 7v43
l20 8v26l-108 -44v-23zM103 186h108v66h-21v-42h-87v-24zM103 300h108v23h-41v38h-22v-38h-23v42h-22v-65zM103 509h108v23h-68l68 50v19h-108v-23h66l-66 -47v-22zM103 617h22v30h86v24h-86v30h-22v-84zM123 433c0 20 14 34 34 34s35 -14 35 -34c0 -19 -15 -34 -35 -34
s-34 15 -34 34zM124 -53v19c0 10 6 16 14 16c9 0 15 -6 15 -16v-19h-29zM131 118l39 14v-28z" />
    <glyph glyph-name="Z" unicode="Z" horiz-adv-x="627" 
d="M30 0v125l304 410h-286v165h536v-125l-305 -410h314v-165h-563z" />
    <glyph glyph-name="Zacute" unicode="&#x179;" 
d="M125 -92v-30h86v-24h-86v-30h-22v84h22zM100 433c0 -33 25 -58 57 -58s57 25 57 58s-25 58 -57 58s-57 -25 -57 -58zM103 -76h108v23h-37v16l37 21v26l-41 -24c-6 12 -17 20 -31 20c-21 0 -36 -16 -36 -38v-44zM103 26v24h108v-24h-108zM103 106l108 -42v25l-20 7v43
l20 8v26l-108 -44v-23zM103 186h108v66h-21v-42h-87v-24zM103 300h108v23h-41v38h-22v-38h-23v42h-22v-65zM103 509h108v23h-68l68 50v19h-108v-23h66l-66 -47v-22zM103 617h22v30h86v24h-86v30h-22v-84zM123 433c0 20 14 34 34 34s35 -14 35 -34c0 -19 -15 -34 -35 -34
s-34 15 -34 34zM124 -53v19c0 10 6 16 14 16c9 0 15 -6 15 -16v-19h-29zM131 118l39 14v-28z" />
    <glyph glyph-name="Zcaron" unicode="&#x17d;" 
d="M125 -92v-30h86v-24h-86v-30h-22v84h22zM100 433c0 -33 25 -58 57 -58s57 25 57 58s-25 58 -57 58s-57 -25 -57 -58zM103 -76h108v23h-37v16l37 21v26l-41 -24c-6 12 -17 20 -31 20c-21 0 -36 -16 -36 -38v-44zM103 26v24h108v-24h-108zM103 106l108 -42v25l-20 7v43
l20 8v26l-108 -44v-23zM103 186h108v66h-21v-42h-87v-24zM103 300h108v23h-41v38h-22v-38h-23v42h-22v-65zM103 509h108v23h-68l68 50v19h-108v-23h66l-66 -47v-22zM103 617h22v30h86v24h-86v30h-22v-84zM123 433c0 20 14 34 34 34s35 -14 35 -34c0 -19 -15 -34 -35 -34
s-34 15 -34 34zM124 -53v19c0 10 6 16 14 16c9 0 15 -6 15 -16v-19h-29zM131 118l39 14v-28z" />
    <glyph glyph-name="Zdotaccent" unicode="&#x17b;" 
d="M125 -92v-30h86v-24h-86v-30h-22v84h22zM100 433c0 -33 25 -58 57 -58s57 25 57 58s-25 58 -57 58s-57 -25 -57 -58zM103 -76h108v23h-37v16l37 21v26l-41 -24c-6 12 -17 20 -31 20c-21 0 -36 -16 -36 -38v-44zM103 26v24h108v-24h-108zM103 106l108 -42v25l-20 7v43
l20 8v26l-108 -44v-23zM103 186h108v66h-21v-42h-87v-24zM103 300h108v23h-41v38h-22v-38h-23v42h-22v-65zM103 509h108v23h-68l68 50v19h-108v-23h66l-66 -47v-22zM103 617h22v30h86v24h-86v30h-22v-84zM123 433c0 20 14 34 34 34s35 -14 35 -34c0 -19 -15 -34 -35 -34
s-34 15 -34 34zM124 -53v19c0 10 6 16 14 16c9 0 15 -6 15 -16v-19h-29zM131 118l39 14v-28z" />
    <glyph glyph-name="a" unicode="a" horiz-adv-x="567" 
d="M190 -15c-92 0 -167 55 -167 148c0 121 115 158 208 158c36 0 72 -4 104 -11v17c0 34 -32 60 -100 60c-63 0 -121 -18 -168 -37v143c40 13 116 32 187 32c153 0 251 -53 251 -224v-134c0 -23 16 -30 33 -30c6 0 13 1 19 3v-105c-23 -9 -54 -15 -86 -15
c-51 0 -90 18 -112 50l-2 3c-46 -36 -99 -58 -167 -58zM198 147c0 -25 22 -47 58 -47c28 0 53 6 79 25v65c-15 5 -38 9 -61 9c-40 0 -76 -14 -76 -52z" />
    <glyph glyph-name="aacute" unicode="&#xe1;" 
d="M125 -92v-30h86v-24h-86v-30h-22v84h22zM100 433c0 -33 25 -58 57 -58s57 25 57 58s-25 58 -57 58s-57 -25 -57 -58zM103 -76h108v23h-37v16l37 21v26l-41 -24c-6 12 -17 20 -31 20c-21 0 -36 -16 -36 -38v-44zM103 26v24h108v-24h-108zM103 106l108 -42v25l-20 7v43
l20 8v26l-108 -44v-23zM103 186h108v66h-21v-42h-87v-24zM103 300h108v23h-41v38h-22v-38h-23v42h-22v-65zM103 509h108v23h-68l68 50v19h-108v-23h66l-66 -47v-22zM103 617h22v30h86v24h-86v30h-22v-84zM123 433c0 20 14 34 34 34s35 -14 35 -34c0 -19 -15 -34 -35 -34
s-34 15 -34 34zM124 -53v19c0 10 6 16 14 16c9 0 15 -6 15 -16v-19h-29zM131 118l39 14v-28z" />
    <glyph glyph-name="abreve" unicode="&#x103;" 
d="M125 -92v-30h86v-24h-86v-30h-22v84h22zM100 433c0 -33 25 -58 57 -58s57 25 57 58s-25 58 -57 58s-57 -25 -57 -58zM103 -76h108v23h-37v16l37 21v26l-41 -24c-6 12 -17 20 -31 20c-21 0 -36 -16 -36 -38v-44zM103 26v24h108v-24h-108zM103 106l108 -42v25l-20 7v43
l20 8v26l-108 -44v-23zM103 186h108v66h-21v-42h-87v-24zM103 300h108v23h-41v38h-22v-38h-23v42h-22v-65zM103 509h108v23h-68l68 50v19h-108v-23h66l-66 -47v-22zM103 617h22v30h86v24h-86v30h-22v-84zM123 433c0 20 14 34 34 34s35 -14 35 -34c0 -19 -15 -34 -35 -34
s-34 15 -34 34zM124 -53v19c0 10 6 16 14 16c9 0 15 -6 15 -16v-19h-29zM131 118l39 14v-28z" />
    <glyph glyph-name="acircumflex" unicode="&#xe2;" 
d="M125 -92v-30h86v-24h-86v-30h-22v84h22zM100 433c0 -33 25 -58 57 -58s57 25 57 58s-25 58 -57 58s-57 -25 -57 -58zM103 -76h108v23h-37v16l37 21v26l-41 -24c-6 12 -17 20 -31 20c-21 0 -36 -16 -36 -38v-44zM103 26v24h108v-24h-108zM103 106l108 -42v25l-20 7v43
l20 8v26l-108 -44v-23zM103 186h108v66h-21v-42h-87v-24zM103 300h108v23h-41v38h-22v-38h-23v42h-22v-65zM103 509h108v23h-68l68 50v19h-108v-23h66l-66 -47v-22zM103 617h22v30h86v24h-86v30h-22v-84zM123 433c0 20 14 34 34 34s35 -14 35 -34c0 -19 -15 -34 -35 -34
s-34 15 -34 34zM124 -53v19c0 10 6 16 14 16c9 0 15 -6 15 -16v-19h-29zM131 118l39 14v-28z" />
    <glyph glyph-name="adieresis" unicode="&#xe4;" 
d="M125 -92v-30h86v-24h-86v-30h-22v84h22zM100 433c0 -33 25 -58 57 -58s57 25 57 58s-25 58 -57 58s-57 -25 -57 -58zM103 -76h108v23h-37v16l37 21v26l-41 -24c-6 12 -17 20 -31 20c-21 0 -36 -16 -36 -38v-44zM103 26v24h108v-24h-108zM103 106l108 -42v25l-20 7v43
l20 8v26l-108 -44v-23zM103 186h108v66h-21v-42h-87v-24zM103 300h108v23h-41v38h-22v-38h-23v42h-22v-65zM103 509h108v23h-68l68 50v19h-108v-23h66l-66 -47v-22zM103 617h22v30h86v24h-86v30h-22v-84zM123 433c0 20 14 34 34 34s35 -14 35 -34c0 -19 -15 -34 -35 -34
s-34 15 -34 34zM124 -53v19c0 10 6 16 14 16c9 0 15 -6 15 -16v-19h-29zM131 118l39 14v-28z" />
    <glyph glyph-name="agrave" unicode="&#xe0;" 
d="M125 -92v-30h86v-24h-86v-30h-22v84h22zM100 433c0 -33 25 -58 57 -58s57 25 57 58s-25 58 -57 58s-57 -25 -57 -58zM103 -76h108v23h-37v16l37 21v26l-41 -24c-6 12 -17 20 -31 20c-21 0 -36 -16 -36 -38v-44zM103 26v24h108v-24h-108zM103 106l108 -42v25l-20 7v43
l20 8v26l-108 -44v-23zM103 186h108v66h-21v-42h-87v-24zM103 300h108v23h-41v38h-22v-38h-23v42h-22v-65zM103 509h108v23h-68l68 50v19h-108v-23h66l-66 -47v-22zM103 617h22v30h86v24h-86v30h-22v-84zM123 433c0 20 14 34 34 34s35 -14 35 -34c0 -19 -15 -34 -35 -34
s-34 15 -34 34zM124 -53v19c0 10 6 16 14 16c9 0 15 -6 15 -16v-19h-29zM131 118l39 14v-28z" />
    <glyph glyph-name="amacron" unicode="&#x101;" 
d="M125 -92v-30h86v-24h-86v-30h-22v84h22zM100 433c0 -33 25 -58 57 -58s57 25 57 58s-25 58 -57 58s-57 -25 -57 -58zM103 -76h108v23h-37v16l37 21v26l-41 -24c-6 12 -17 20 -31 20c-21 0 -36 -16 -36 -38v-44zM103 26v24h108v-24h-108zM103 106l108 -42v25l-20 7v43
l20 8v26l-108 -44v-23zM103 186h108v66h-21v-42h-87v-24zM103 300h108v23h-41v38h-22v-38h-23v42h-22v-65zM103 509h108v23h-68l68 50v19h-108v-23h66l-66 -47v-22zM103 617h22v30h86v24h-86v30h-22v-84zM123 433c0 20 14 34 34 34s35 -14 35 -34c0 -19 -15 -34 -35 -34
s-34 15 -34 34zM124 -53v19c0 10 6 16 14 16c9 0 15 -6 15 -16v-19h-29zM131 118l39 14v-28z" />
    <glyph glyph-name="aogonek" unicode="&#x105;" 
d="M125 -92v-30h86v-24h-86v-30h-22v84h22zM100 433c0 -33 25 -58 57 -58s57 25 57 58s-25 58 -57 58s-57 -25 -57 -58zM103 -76h108v23h-37v16l37 21v26l-41 -24c-6 12 -17 20 -31 20c-21 0 -36 -16 -36 -38v-44zM103 26v24h108v-24h-108zM103 106l108 -42v25l-20 7v43
l20 8v26l-108 -44v-23zM103 186h108v66h-21v-42h-87v-24zM103 300h108v23h-41v38h-22v-38h-23v42h-22v-65zM103 509h108v23h-68l68 50v19h-108v-23h66l-66 -47v-22zM103 617h22v30h86v24h-86v30h-22v-84zM123 433c0 20 14 34 34 34s35 -14 35 -34c0 -19 -15 -34 -35 -34
s-34 15 -34 34zM124 -53v19c0 10 6 16 14 16c9 0 15 -6 15 -16v-19h-29zM131 118l39 14v-28z" />
    <glyph glyph-name="aring" unicode="&#xe5;" 
d="M125 -92v-30h86v-24h-86v-30h-22v84h22zM100 433c0 -33 25 -58 57 -58s57 25 57 58s-25 58 -57 58s-57 -25 -57 -58zM103 -76h108v23h-37v16l37 21v26l-41 -24c-6 12 -17 20 -31 20c-21 0 -36 -16 -36 -38v-44zM103 26v24h108v-24h-108zM103 106l108 -42v25l-20 7v43
l20 8v26l-108 -44v-23zM103 186h108v66h-21v-42h-87v-24zM103 300h108v23h-41v38h-22v-38h-23v42h-22v-65zM103 509h108v23h-68l68 50v19h-108v-23h66l-66 -47v-22zM103 617h22v30h86v24h-86v30h-22v-84zM123 433c0 20 14 34 34 34s35 -14 35 -34c0 -19 -15 -34 -35 -34
s-34 15 -34 34zM124 -53v19c0 10 6 16 14 16c9 0 15 -6 15 -16v-19h-29zM131 118l39 14v-28z" />
    <glyph glyph-name="atilde" unicode="&#xe3;" 
d="M125 -92v-30h86v-24h-86v-30h-22v84h22zM100 433c0 -33 25 -58 57 -58s57 25 57 58s-25 58 -57 58s-57 -25 -57 -58zM103 -76h108v23h-37v16l37 21v26l-41 -24c-6 12 -17 20 -31 20c-21 0 -36 -16 -36 -38v-44zM103 26v24h108v-24h-108zM103 106l108 -42v25l-20 7v43
l20 8v26l-108 -44v-23zM103 186h108v66h-21v-42h-87v-24zM103 300h108v23h-41v38h-22v-38h-23v42h-22v-65zM103 509h108v23h-68l68 50v19h-108v-23h66l-66 -47v-22zM103 617h22v30h86v24h-86v30h-22v-84zM123 433c0 20 14 34 34 34s35 -14 35 -34c0 -19 -15 -34 -35 -34
s-34 15 -34 34zM124 -53v19c0 10 6 16 14 16c9 0 15 -6 15 -16v-19h-29zM131 118l39 14v-28z" />
    <glyph glyph-name="ae" unicode="&#xe6;" 
d="M125 -92v-30h86v-24h-86v-30h-22v84h22zM100 433c0 -33 25 -58 57 -58s57 25 57 58s-25 58 -57 58s-57 -25 -57 -58zM103 -76h108v23h-37v16l37 21v26l-41 -24c-6 12 -17 20 -31 20c-21 0 -36 -16 -36 -38v-44zM103 26v24h108v-24h-108zM103 106l108 -42v25l-20 7v43
l20 8v26l-108 -44v-23zM103 186h108v66h-21v-42h-87v-24zM103 300h108v23h-41v38h-22v-38h-23v42h-22v-65zM103 509h108v23h-68l68 50v19h-108v-23h66l-66 -47v-22zM103 617h22v30h86v24h-86v30h-22v-84zM123 433c0 20 14 34 34 34s35 -14 35 -34c0 -19 -15 -34 -35 -34
s-34 15 -34 34zM124 -53v19c0 10 6 16 14 16c9 0 15 -6 15 -16v-19h-29zM131 118l39 14v-28z" />
    <glyph glyph-name="b" unicode="b" horiz-adv-x="624" 
d="M364 -15c-86 0 -139 40 -163 80v-65h-150v700h170v-259c29 30 76 54 143 54c161 0 232 -131 232 -255s-71 -255 -232 -255zM221 185c15 -31 50 -60 97 -60c72 0 103 59 103 115s-31 115 -103 115c-47 0 -82 -29 -97 -60v-110z" />
    <glyph glyph-name="c" unicode="c" horiz-adv-x="490" 
d="M292 -15c-134 0 -265 75 -265 245c0 189 140 266 277 266c52 0 104 -12 148 -33v-145c-33 19 -79 33 -122 33c-67 0 -128 -29 -128 -111c0 -76 60 -110 125 -110c50 0 97 13 130 32v-145c-48 -20 -104 -32 -165 -32z" />
    <glyph glyph-name="cacute" unicode="&#x107;" 
d="M125 -92v-30h86v-24h-86v-30h-22v84h22zM100 433c0 -33 25 -58 57 -58s57 25 57 58s-25 58 -57 58s-57 -25 -57 -58zM103 -76h108v23h-37v16l37 21v26l-41 -24c-6 12 -17 20 -31 20c-21 0 -36 -16 -36 -38v-44zM103 26v24h108v-24h-108zM103 106l108 -42v25l-20 7v43
l20 8v26l-108 -44v-23zM103 186h108v66h-21v-42h-87v-24zM103 300h108v23h-41v38h-22v-38h-23v42h-22v-65zM103 509h108v23h-68l68 50v19h-108v-23h66l-66 -47v-22zM103 617h22v30h86v24h-86v30h-22v-84zM123 433c0 20 14 34 34 34s35 -14 35 -34c0 -19 -15 -34 -35 -34
s-34 15 -34 34zM124 -53v19c0 10 6 16 14 16c9 0 15 -6 15 -16v-19h-29zM131 118l39 14v-28z" />
    <glyph glyph-name="ccaron" unicode="&#x10d;" 
d="M125 -92v-30h86v-24h-86v-30h-22v84h22zM100 433c0 -33 25 -58 57 -58s57 25 57 58s-25 58 -57 58s-57 -25 -57 -58zM103 -76h108v23h-37v16l37 21v26l-41 -24c-6 12 -17 20 -31 20c-21 0 -36 -16 -36 -38v-44zM103 26v24h108v-24h-108zM103 106l108 -42v25l-20 7v43
l20 8v26l-108 -44v-23zM103 186h108v66h-21v-42h-87v-24zM103 300h108v23h-41v38h-22v-38h-23v42h-22v-65zM103 509h108v23h-68l68 50v19h-108v-23h66l-66 -47v-22zM103 617h22v30h86v24h-86v30h-22v-84zM123 433c0 20 14 34 34 34s35 -14 35 -34c0 -19 -15 -34 -35 -34
s-34 15 -34 34zM124 -53v19c0 10 6 16 14 16c9 0 15 -6 15 -16v-19h-29zM131 118l39 14v-28z" />
    <glyph glyph-name="ccedilla" unicode="&#xe7;" 
d="M125 -92v-30h86v-24h-86v-30h-22v84h22zM100 433c0 -33 25 -58 57 -58s57 25 57 58s-25 58 -57 58s-57 -25 -57 -58zM103 -76h108v23h-37v16l37 21v26l-41 -24c-6 12 -17 20 -31 20c-21 0 -36 -16 -36 -38v-44zM103 26v24h108v-24h-108zM103 106l108 -42v25l-20 7v43
l20 8v26l-108 -44v-23zM103 186h108v66h-21v-42h-87v-24zM103 300h108v23h-41v38h-22v-38h-23v42h-22v-65zM103 509h108v23h-68l68 50v19h-108v-23h66l-66 -47v-22zM103 617h22v30h86v24h-86v30h-22v-84zM123 433c0 20 14 34 34 34s35 -14 35 -34c0 -19 -15 -34 -35 -34
s-34 15 -34 34zM124 -53v19c0 10 6 16 14 16c9 0 15 -6 15 -16v-19h-29zM131 118l39 14v-28z" />
    <glyph glyph-name="cdotaccent" unicode="&#x10b;" 
d="M125 -92v-30h86v-24h-86v-30h-22v84h22zM100 433c0 -33 25 -58 57 -58s57 25 57 58s-25 58 -57 58s-57 -25 -57 -58zM103 -76h108v23h-37v16l37 21v26l-41 -24c-6 12 -17 20 -31 20c-21 0 -36 -16 -36 -38v-44zM103 26v24h108v-24h-108zM103 106l108 -42v25l-20 7v43
l20 8v26l-108 -44v-23zM103 186h108v66h-21v-42h-87v-24zM103 300h108v23h-41v38h-22v-38h-23v42h-22v-65zM103 509h108v23h-68l68 50v19h-108v-23h66l-66 -47v-22zM103 617h22v30h86v24h-86v30h-22v-84zM123 433c0 20 14 34 34 34s35 -14 35 -34c0 -19 -15 -34 -35 -34
s-34 15 -34 34zM124 -53v19c0 10 6 16 14 16c9 0 15 -6 15 -16v-19h-29zM131 118l39 14v-28z" />
    <glyph glyph-name="d" unicode="d" horiz-adv-x="623" 
d="M259 -15c-161 0 -232 131 -232 255s71 255 232 255c67 0 114 -24 143 -54v259h170v-700h-150v65c-24 -40 -77 -80 -163 -80zM202 240c0 -56 31 -115 103 -115c47 0 82 29 97 60v110c-15 31 -50 60 -97 60c-72 0 -103 -59 -103 -115z" />
    <glyph glyph-name="eth" unicode="&#xf0;" 
d="M125 -92v-30h86v-24h-86v-30h-22v84h22zM100 433c0 -33 25 -58 57 -58s57 25 57 58s-25 58 -57 58s-57 -25 -57 -58zM103 -76h108v23h-37v16l37 21v26l-41 -24c-6 12 -17 20 -31 20c-21 0 -36 -16 -36 -38v-44zM103 26v24h108v-24h-108zM103 106l108 -42v25l-20 7v43
l20 8v26l-108 -44v-23zM103 186h108v66h-21v-42h-87v-24zM103 300h108v23h-41v38h-22v-38h-23v42h-22v-65zM103 509h108v23h-68l68 50v19h-108v-23h66l-66 -47v-22zM103 617h22v30h86v24h-86v30h-22v-84zM123 433c0 20 14 34 34 34s35 -14 35 -34c0 -19 -15 -34 -35 -34
s-34 15 -34 34zM124 -53v19c0 10 6 16 14 16c9 0 15 -6 15 -16v-19h-29zM131 118l39 14v-28z" />
    <glyph glyph-name="dcaron" unicode="&#x10f;" 
d="M125 -92v-30h86v-24h-86v-30h-22v84h22zM100 433c0 -33 25 -58 57 -58s57 25 57 58s-25 58 -57 58s-57 -25 -57 -58zM103 -76h108v23h-37v16l37 21v26l-41 -24c-6 12 -17 20 -31 20c-21 0 -36 -16 -36 -38v-44zM103 26v24h108v-24h-108zM103 106l108 -42v25l-20 7v43
l20 8v26l-108 -44v-23zM103 186h108v66h-21v-42h-87v-24zM103 300h108v23h-41v38h-22v-38h-23v42h-22v-65zM103 509h108v23h-68l68 50v19h-108v-23h66l-66 -47v-22zM103 617h22v30h86v24h-86v30h-22v-84zM123 433c0 20 14 34 34 34s35 -14 35 -34c0 -19 -15 -34 -35 -34
s-34 15 -34 34zM124 -53v19c0 10 6 16 14 16c9 0 15 -6 15 -16v-19h-29zM131 118l39 14v-28z" />
    <glyph glyph-name="dcroat" unicode="&#x111;" 
d="M125 -92v-30h86v-24h-86v-30h-22v84h22zM100 433c0 -33 25 -58 57 -58s57 25 57 58s-25 58 -57 58s-57 -25 -57 -58zM103 -76h108v23h-37v16l37 21v26l-41 -24c-6 12 -17 20 -31 20c-21 0 -36 -16 -36 -38v-44zM103 26v24h108v-24h-108zM103 106l108 -42v25l-20 7v43
l20 8v26l-108 -44v-23zM103 186h108v66h-21v-42h-87v-24zM103 300h108v23h-41v38h-22v-38h-23v42h-22v-65zM103 509h108v23h-68l68 50v19h-108v-23h66l-66 -47v-22zM103 617h22v30h86v24h-86v30h-22v-84zM123 433c0 20 14 34 34 34s35 -14 35 -34c0 -19 -15 -34 -35 -34
s-34 15 -34 34zM124 -53v19c0 10 6 16 14 16c9 0 15 -6 15 -16v-19h-29zM131 118l39 14v-28z" />
    <glyph glyph-name="e" unicode="e" horiz-adv-x="548" 
d="M312 -15c-158 0 -285 90 -285 255c0 188 147 255 252 255c206 0 268 -160 234 -306h-314c19 -53 84 -74 153 -74c54 0 98 8 138 23v-126c-45 -16 -102 -27 -178 -27zM197 291h161c5 23 -7 81 -75 81c-47 0 -86 -31 -86 -81z" />
    <glyph glyph-name="eacute" unicode="&#xe9;" 
d="M125 -92v-30h86v-24h-86v-30h-22v84h22zM100 433c0 -33 25 -58 57 -58s57 25 57 58s-25 58 -57 58s-57 -25 -57 -58zM103 -76h108v23h-37v16l37 21v26l-41 -24c-6 12 -17 20 -31 20c-21 0 -36 -16 -36 -38v-44zM103 26v24h108v-24h-108zM103 106l108 -42v25l-20 7v43
l20 8v26l-108 -44v-23zM103 186h108v66h-21v-42h-87v-24zM103 300h108v23h-41v38h-22v-38h-23v42h-22v-65zM103 509h108v23h-68l68 50v19h-108v-23h66l-66 -47v-22zM103 617h22v30h86v24h-86v30h-22v-84zM123 433c0 20 14 34 34 34s35 -14 35 -34c0 -19 -15 -34 -35 -34
s-34 15 -34 34zM124 -53v19c0 10 6 16 14 16c9 0 15 -6 15 -16v-19h-29zM131 118l39 14v-28z" />
    <glyph glyph-name="ecaron" unicode="&#x11b;" 
d="M125 -92v-30h86v-24h-86v-30h-22v84h22zM100 433c0 -33 25 -58 57 -58s57 25 57 58s-25 58 -57 58s-57 -25 -57 -58zM103 -76h108v23h-37v16l37 21v26l-41 -24c-6 12 -17 20 -31 20c-21 0 -36 -16 -36 -38v-44zM103 26v24h108v-24h-108zM103 106l108 -42v25l-20 7v43
l20 8v26l-108 -44v-23zM103 186h108v66h-21v-42h-87v-24zM103 300h108v23h-41v38h-22v-38h-23v42h-22v-65zM103 509h108v23h-68l68 50v19h-108v-23h66l-66 -47v-22zM103 617h22v30h86v24h-86v30h-22v-84zM123 433c0 20 14 34 34 34s35 -14 35 -34c0 -19 -15 -34 -35 -34
s-34 15 -34 34zM124 -53v19c0 10 6 16 14 16c9 0 15 -6 15 -16v-19h-29zM131 118l39 14v-28z" />
    <glyph glyph-name="ecircumflex" unicode="&#xea;" 
d="M125 -92v-30h86v-24h-86v-30h-22v84h22zM100 433c0 -33 25 -58 57 -58s57 25 57 58s-25 58 -57 58s-57 -25 -57 -58zM103 -76h108v23h-37v16l37 21v26l-41 -24c-6 12 -17 20 -31 20c-21 0 -36 -16 -36 -38v-44zM103 26v24h108v-24h-108zM103 106l108 -42v25l-20 7v43
l20 8v26l-108 -44v-23zM103 186h108v66h-21v-42h-87v-24zM103 300h108v23h-41v38h-22v-38h-23v42h-22v-65zM103 509h108v23h-68l68 50v19h-108v-23h66l-66 -47v-22zM103 617h22v30h86v24h-86v30h-22v-84zM123 433c0 20 14 34 34 34s35 -14 35 -34c0 -19 -15 -34 -35 -34
s-34 15 -34 34zM124 -53v19c0 10 6 16 14 16c9 0 15 -6 15 -16v-19h-29zM131 118l39 14v-28z" />
    <glyph glyph-name="edieresis" unicode="&#xeb;" 
d="M125 -92v-30h86v-24h-86v-30h-22v84h22zM100 433c0 -33 25 -58 57 -58s57 25 57 58s-25 58 -57 58s-57 -25 -57 -58zM103 -76h108v23h-37v16l37 21v26l-41 -24c-6 12 -17 20 -31 20c-21 0 -36 -16 -36 -38v-44zM103 26v24h108v-24h-108zM103 106l108 -42v25l-20 7v43
l20 8v26l-108 -44v-23zM103 186h108v66h-21v-42h-87v-24zM103 300h108v23h-41v38h-22v-38h-23v42h-22v-65zM103 509h108v23h-68l68 50v19h-108v-23h66l-66 -47v-22zM103 617h22v30h86v24h-86v30h-22v-84zM123 433c0 20 14 34 34 34s35 -14 35 -34c0 -19 -15 -34 -35 -34
s-34 15 -34 34zM124 -53v19c0 10 6 16 14 16c9 0 15 -6 15 -16v-19h-29zM131 118l39 14v-28z" />
    <glyph glyph-name="edotaccent" unicode="&#x117;" 
d="M125 -92v-30h86v-24h-86v-30h-22v84h22zM100 433c0 -33 25 -58 57 -58s57 25 57 58s-25 58 -57 58s-57 -25 -57 -58zM103 -76h108v23h-37v16l37 21v26l-41 -24c-6 12 -17 20 -31 20c-21 0 -36 -16 -36 -38v-44zM103 26v24h108v-24h-108zM103 106l108 -42v25l-20 7v43
l20 8v26l-108 -44v-23zM103 186h108v66h-21v-42h-87v-24zM103 300h108v23h-41v38h-22v-38h-23v42h-22v-65zM103 509h108v23h-68l68 50v19h-108v-23h66l-66 -47v-22zM103 617h22v30h86v24h-86v30h-22v-84zM123 433c0 20 14 34 34 34s35 -14 35 -34c0 -19 -15 -34 -35 -34
s-34 15 -34 34zM124 -53v19c0 10 6 16 14 16c9 0 15 -6 15 -16v-19h-29zM131 118l39 14v-28z" />
    <glyph glyph-name="egrave" unicode="&#xe8;" 
d="M125 -92v-30h86v-24h-86v-30h-22v84h22zM100 433c0 -33 25 -58 57 -58s57 25 57 58s-25 58 -57 58s-57 -25 -57 -58zM103 -76h108v23h-37v16l37 21v26l-41 -24c-6 12 -17 20 -31 20c-21 0 -36 -16 -36 -38v-44zM103 26v24h108v-24h-108zM103 106l108 -42v25l-20 7v43
l20 8v26l-108 -44v-23zM103 186h108v66h-21v-42h-87v-24zM103 300h108v23h-41v38h-22v-38h-23v42h-22v-65zM103 509h108v23h-68l68 50v19h-108v-23h66l-66 -47v-22zM103 617h22v30h86v24h-86v30h-22v-84zM123 433c0 20 14 34 34 34s35 -14 35 -34c0 -19 -15 -34 -35 -34
s-34 15 -34 34zM124 -53v19c0 10 6 16 14 16c9 0 15 -6 15 -16v-19h-29zM131 118l39 14v-28z" />
    <glyph glyph-name="emacron" unicode="&#x113;" 
d="M125 -92v-30h86v-24h-86v-30h-22v84h22zM100 433c0 -33 25 -58 57 -58s57 25 57 58s-25 58 -57 58s-57 -25 -57 -58zM103 -76h108v23h-37v16l37 21v26l-41 -24c-6 12 -17 20 -31 20c-21 0 -36 -16 -36 -38v-44zM103 26v24h108v-24h-108zM103 106l108 -42v25l-20 7v43
l20 8v26l-108 -44v-23zM103 186h108v66h-21v-42h-87v-24zM103 300h108v23h-41v38h-22v-38h-23v42h-22v-65zM103 509h108v23h-68l68 50v19h-108v-23h66l-66 -47v-22zM103 617h22v30h86v24h-86v30h-22v-84zM123 433c0 20 14 34 34 34s35 -14 35 -34c0 -19 -15 -34 -35 -34
s-34 15 -34 34zM124 -53v19c0 10 6 16 14 16c9 0 15 -6 15 -16v-19h-29zM131 118l39 14v-28z" />
    <glyph glyph-name="eogonek" unicode="&#x119;" 
d="M125 -92v-30h86v-24h-86v-30h-22v84h22zM100 433c0 -33 25 -58 57 -58s57 25 57 58s-25 58 -57 58s-57 -25 -57 -58zM103 -76h108v23h-37v16l37 21v26l-41 -24c-6 12 -17 20 -31 20c-21 0 -36 -16 -36 -38v-44zM103 26v24h108v-24h-108zM103 106l108 -42v25l-20 7v43
l20 8v26l-108 -44v-23zM103 186h108v66h-21v-42h-87v-24zM103 300h108v23h-41v38h-22v-38h-23v42h-22v-65zM103 509h108v23h-68l68 50v19h-108v-23h66l-66 -47v-22zM103 617h22v30h86v24h-86v30h-22v-84zM123 433c0 20 14 34 34 34s35 -14 35 -34c0 -19 -15 -34 -35 -34
s-34 15 -34 34zM124 -53v19c0 10 6 16 14 16c9 0 15 -6 15 -16v-19h-29zM131 118l39 14v-28z" />
    <glyph glyph-name="f" unicode="f" horiz-adv-x="412" 
d="M103 0v340h-79v140h79v41c0 151 104 194 200 194c44 0 86 -8 117 -19v-140c-18 11 -46 19 -74 19c-38 0 -73 -16 -73 -61v-34h128v-140h-128v-340h-170z" />
    <glyph glyph-name="g" unicode="g" horiz-adv-x="623" 
d="M288 -235c-77 0 -149 17 -207 45v145c52 -32 119 -50 184 -50c77 0 137 23 137 105v29c-29 -30 -76 -54 -143 -54c-161 0 -232 131 -232 255s71 255 232 255c86 0 139 -40 163 -80v65h150v-460c0 -192 -139 -255 -284 -255zM202 240c0 -56 31 -115 103 -115
c47 0 82 29 97 60v110c-15 31 -50 60 -97 60c-72 0 -103 -59 -103 -115z" />
    <glyph glyph-name="gbreve" unicode="&#x11f;" 
d="M125 -92v-30h86v-24h-86v-30h-22v84h22zM100 433c0 -33 25 -58 57 -58s57 25 57 58s-25 58 -57 58s-57 -25 -57 -58zM103 -76h108v23h-37v16l37 21v26l-41 -24c-6 12 -17 20 -31 20c-21 0 -36 -16 -36 -38v-44zM103 26v24h108v-24h-108zM103 106l108 -42v25l-20 7v43
l20 8v26l-108 -44v-23zM103 186h108v66h-21v-42h-87v-24zM103 300h108v23h-41v38h-22v-38h-23v42h-22v-65zM103 509h108v23h-68l68 50v19h-108v-23h66l-66 -47v-22zM103 617h22v30h86v24h-86v30h-22v-84zM123 433c0 20 14 34 34 34s35 -14 35 -34c0 -19 -15 -34 -35 -34
s-34 15 -34 34zM124 -53v19c0 10 6 16 14 16c9 0 15 -6 15 -16v-19h-29zM131 118l39 14v-28z" />
    <glyph glyph-name="uni0123" unicode="&#x123;" 
d="M125 -92v-30h86v-24h-86v-30h-22v84h22zM100 433c0 -33 25 -58 57 -58s57 25 57 58s-25 58 -57 58s-57 -25 -57 -58zM103 -76h108v23h-37v16l37 21v26l-41 -24c-6 12 -17 20 -31 20c-21 0 -36 -16 -36 -38v-44zM103 26v24h108v-24h-108zM103 106l108 -42v25l-20 7v43
l20 8v26l-108 -44v-23zM103 186h108v66h-21v-42h-87v-24zM103 300h108v23h-41v38h-22v-38h-23v42h-22v-65zM103 509h108v23h-68l68 50v19h-108v-23h66l-66 -47v-22zM103 617h22v30h86v24h-86v30h-22v-84zM123 433c0 20 14 34 34 34s35 -14 35 -34c0 -19 -15 -34 -35 -34
s-34 15 -34 34zM124 -53v19c0 10 6 16 14 16c9 0 15 -6 15 -16v-19h-29zM131 118l39 14v-28z" />
    <glyph glyph-name="gdotaccent" unicode="&#x121;" 
d="M125 -92v-30h86v-24h-86v-30h-22v84h22zM100 433c0 -33 25 -58 57 -58s57 25 57 58s-25 58 -57 58s-57 -25 -57 -58zM103 -76h108v23h-37v16l37 21v26l-41 -24c-6 12 -17 20 -31 20c-21 0 -36 -16 -36 -38v-44zM103 26v24h108v-24h-108zM103 106l108 -42v25l-20 7v43
l20 8v26l-108 -44v-23zM103 186h108v66h-21v-42h-87v-24zM103 300h108v23h-41v38h-22v-38h-23v42h-22v-65zM103 509h108v23h-68l68 50v19h-108v-23h66l-66 -47v-22zM103 617h22v30h86v24h-86v30h-22v-84zM123 433c0 20 14 34 34 34s35 -14 35 -34c0 -19 -15 -34 -35 -34
s-34 15 -34 34zM124 -53v19c0 10 6 16 14 16c9 0 15 -6 15 -16v-19h-29zM131 118l39 14v-28z" />
    <glyph glyph-name="h" unicode="h" horiz-adv-x="592" 
d="M51 0v700h170v-256c36 32 79 51 133 51c132 0 192 -89 192 -197v-298h-170v275c0 51 -31 75 -73 75c-38 0 -67 -23 -82 -42v-308h-170z" />
    <glyph glyph-name="hbar" unicode="&#x127;" 
d="M125 -92v-30h86v-24h-86v-30h-22v84h22zM100 433c0 -33 25 -58 57 -58s57 25 57 58s-25 58 -57 58s-57 -25 -57 -58zM103 -76h108v23h-37v16l37 21v26l-41 -24c-6 12 -17 20 -31 20c-21 0 -36 -16 -36 -38v-44zM103 26v24h108v-24h-108zM103 106l108 -42v25l-20 7v43
l20 8v26l-108 -44v-23zM103 186h108v66h-21v-42h-87v-24zM103 300h108v23h-41v38h-22v-38h-23v42h-22v-65zM103 509h108v23h-68l68 50v19h-108v-23h66l-66 -47v-22zM103 617h22v30h86v24h-86v30h-22v-84zM123 433c0 20 14 34 34 34s35 -14 35 -34c0 -19 -15 -34 -35 -34
s-34 15 -34 34zM124 -53v19c0 10 6 16 14 16c9 0 15 -6 15 -16v-19h-29zM131 118l39 14v-28z" />
    <glyph glyph-name="i" unicode="i" horiz-adv-x="274" 
d="M52 0v480h170v-480h-170zM40 642c0 65 46 93 97 93c52 0 97 -28 97 -93c0 -66 -45 -94 -97 -94c-51 0 -97 28 -97 94z" />
    <glyph glyph-name="dotlessi" unicode="&#x131;" 
d="M125 -92v-30h86v-24h-86v-30h-22v84h22zM100 433c0 -33 25 -58 57 -58s57 25 57 58s-25 58 -57 58s-57 -25 -57 -58zM103 -76h108v23h-37v16l37 21v26l-41 -24c-6 12 -17 20 -31 20c-21 0 -36 -16 -36 -38v-44zM103 26v24h108v-24h-108zM103 106l108 -42v25l-20 7v43
l20 8v26l-108 -44v-23zM103 186h108v66h-21v-42h-87v-24zM103 300h108v23h-41v38h-22v-38h-23v42h-22v-65zM103 509h108v23h-68l68 50v19h-108v-23h66l-66 -47v-22zM103 617h22v30h86v24h-86v30h-22v-84zM123 433c0 20 14 34 34 34s35 -14 35 -34c0 -19 -15 -34 -35 -34
s-34 15 -34 34zM124 -53v19c0 10 6 16 14 16c9 0 15 -6 15 -16v-19h-29zM131 118l39 14v-28z" />
    <glyph glyph-name="iacute" unicode="&#xed;" 
d="M125 -92v-30h86v-24h-86v-30h-22v84h22zM100 433c0 -33 25 -58 57 -58s57 25 57 58s-25 58 -57 58s-57 -25 -57 -58zM103 -76h108v23h-37v16l37 21v26l-41 -24c-6 12 -17 20 -31 20c-21 0 -36 -16 -36 -38v-44zM103 26v24h108v-24h-108zM103 106l108 -42v25l-20 7v43
l20 8v26l-108 -44v-23zM103 186h108v66h-21v-42h-87v-24zM103 300h108v23h-41v38h-22v-38h-23v42h-22v-65zM103 509h108v23h-68l68 50v19h-108v-23h66l-66 -47v-22zM103 617h22v30h86v24h-86v30h-22v-84zM123 433c0 20 14 34 34 34s35 -14 35 -34c0 -19 -15 -34 -35 -34
s-34 15 -34 34zM124 -53v19c0 10 6 16 14 16c9 0 15 -6 15 -16v-19h-29zM131 118l39 14v-28z" />
    <glyph glyph-name="icircumflex" unicode="&#xee;" 
d="M125 -92v-30h86v-24h-86v-30h-22v84h22zM100 433c0 -33 25 -58 57 -58s57 25 57 58s-25 58 -57 58s-57 -25 -57 -58zM103 -76h108v23h-37v16l37 21v26l-41 -24c-6 12 -17 20 -31 20c-21 0 -36 -16 -36 -38v-44zM103 26v24h108v-24h-108zM103 106l108 -42v25l-20 7v43
l20 8v26l-108 -44v-23zM103 186h108v66h-21v-42h-87v-24zM103 300h108v23h-41v38h-22v-38h-23v42h-22v-65zM103 509h108v23h-68l68 50v19h-108v-23h66l-66 -47v-22zM103 617h22v30h86v24h-86v30h-22v-84zM123 433c0 20 14 34 34 34s35 -14 35 -34c0 -19 -15 -34 -35 -34
s-34 15 -34 34zM124 -53v19c0 10 6 16 14 16c9 0 15 -6 15 -16v-19h-29zM131 118l39 14v-28z" />
    <glyph glyph-name="idieresis" unicode="&#xef;" 
d="M125 -92v-30h86v-24h-86v-30h-22v84h22zM100 433c0 -33 25 -58 57 -58s57 25 57 58s-25 58 -57 58s-57 -25 -57 -58zM103 -76h108v23h-37v16l37 21v26l-41 -24c-6 12 -17 20 -31 20c-21 0 -36 -16 -36 -38v-44zM103 26v24h108v-24h-108zM103 106l108 -42v25l-20 7v43
l20 8v26l-108 -44v-23zM103 186h108v66h-21v-42h-87v-24zM103 300h108v23h-41v38h-22v-38h-23v42h-22v-65zM103 509h108v23h-68l68 50v19h-108v-23h66l-66 -47v-22zM103 617h22v30h86v24h-86v30h-22v-84zM123 433c0 20 14 34 34 34s35 -14 35 -34c0 -19 -15 -34 -35 -34
s-34 15 -34 34zM124 -53v19c0 10 6 16 14 16c9 0 15 -6 15 -16v-19h-29zM131 118l39 14v-28z" />
    <glyph glyph-name="i.loclTRK" 
d="M125 -92v-30h86v-24h-86v-30h-22v84h22zM100 433c0 -33 25 -58 57 -58s57 25 57 58s-25 58 -57 58s-57 -25 -57 -58zM103 -76h108v23h-37v16l37 21v26l-41 -24c-6 12 -17 20 -31 20c-21 0 -36 -16 -36 -38v-44zM103 26v24h108v-24h-108zM103 106l108 -42v25l-20 7v43
l20 8v26l-108 -44v-23zM103 186h108v66h-21v-42h-87v-24zM103 300h108v23h-41v38h-22v-38h-23v42h-22v-65zM103 509h108v23h-68l68 50v19h-108v-23h66l-66 -47v-22zM103 617h22v30h86v24h-86v30h-22v-84zM123 433c0 20 14 34 34 34s35 -14 35 -34c0 -19 -15 -34 -35 -34
s-34 15 -34 34zM124 -53v19c0 10 6 16 14 16c9 0 15 -6 15 -16v-19h-29zM131 118l39 14v-28z" />
    <glyph glyph-name="igrave" unicode="&#xec;" 
d="M125 -92v-30h86v-24h-86v-30h-22v84h22zM100 433c0 -33 25 -58 57 -58s57 25 57 58s-25 58 -57 58s-57 -25 -57 -58zM103 -76h108v23h-37v16l37 21v26l-41 -24c-6 12 -17 20 -31 20c-21 0 -36 -16 -36 -38v-44zM103 26v24h108v-24h-108zM103 106l108 -42v25l-20 7v43
l20 8v26l-108 -44v-23zM103 186h108v66h-21v-42h-87v-24zM103 300h108v23h-41v38h-22v-38h-23v42h-22v-65zM103 509h108v23h-68l68 50v19h-108v-23h66l-66 -47v-22zM103 617h22v30h86v24h-86v30h-22v-84zM123 433c0 20 14 34 34 34s35 -14 35 -34c0 -19 -15 -34 -35 -34
s-34 15 -34 34zM124 -53v19c0 10 6 16 14 16c9 0 15 -6 15 -16v-19h-29zM131 118l39 14v-28z" />
    <glyph glyph-name="ij" unicode="&#x133;" 
d="M125 -92v-30h86v-24h-86v-30h-22v84h22zM100 433c0 -33 25 -58 57 -58s57 25 57 58s-25 58 -57 58s-57 -25 -57 -58zM103 -76h108v23h-37v16l37 21v26l-41 -24c-6 12 -17 20 -31 20c-21 0 -36 -16 -36 -38v-44zM103 26v24h108v-24h-108zM103 106l108 -42v25l-20 7v43
l20 8v26l-108 -44v-23zM103 186h108v66h-21v-42h-87v-24zM103 300h108v23h-41v38h-22v-38h-23v42h-22v-65zM103 509h108v23h-68l68 50v19h-108v-23h66l-66 -47v-22zM103 617h22v30h86v24h-86v30h-22v-84zM123 433c0 20 14 34 34 34s35 -14 35 -34c0 -19 -15 -34 -35 -34
s-34 15 -34 34zM124 -53v19c0 10 6 16 14 16c9 0 15 -6 15 -16v-19h-29zM131 118l39 14v-28z" />
    <glyph glyph-name="imacron" unicode="&#x12b;" 
d="M125 -92v-30h86v-24h-86v-30h-22v84h22zM100 433c0 -33 25 -58 57 -58s57 25 57 58s-25 58 -57 58s-57 -25 -57 -58zM103 -76h108v23h-37v16l37 21v26l-41 -24c-6 12 -17 20 -31 20c-21 0 -36 -16 -36 -38v-44zM103 26v24h108v-24h-108zM103 106l108 -42v25l-20 7v43
l20 8v26l-108 -44v-23zM103 186h108v66h-21v-42h-87v-24zM103 300h108v23h-41v38h-22v-38h-23v42h-22v-65zM103 509h108v23h-68l68 50v19h-108v-23h66l-66 -47v-22zM103 617h22v30h86v24h-86v30h-22v-84zM123 433c0 20 14 34 34 34s35 -14 35 -34c0 -19 -15 -34 -35 -34
s-34 15 -34 34zM124 -53v19c0 10 6 16 14 16c9 0 15 -6 15 -16v-19h-29zM131 118l39 14v-28z" />
    <glyph glyph-name="iogonek" unicode="&#x12f;" 
d="M125 -92v-30h86v-24h-86v-30h-22v84h22zM100 433c0 -33 25 -58 57 -58s57 25 57 58s-25 58 -57 58s-57 -25 -57 -58zM103 -76h108v23h-37v16l37 21v26l-41 -24c-6 12 -17 20 -31 20c-21 0 -36 -16 -36 -38v-44zM103 26v24h108v-24h-108zM103 106l108 -42v25l-20 7v43
l20 8v26l-108 -44v-23zM103 186h108v66h-21v-42h-87v-24zM103 300h108v23h-41v38h-22v-38h-23v42h-22v-65zM103 509h108v23h-68l68 50v19h-108v-23h66l-66 -47v-22zM103 617h22v30h86v24h-86v30h-22v-84zM123 433c0 20 14 34 34 34s35 -14 35 -34c0 -19 -15 -34 -35 -34
s-34 15 -34 34zM124 -53v19c0 10 6 16 14 16c9 0 15 -6 15 -16v-19h-29zM131 118l39 14v-28z" />
    <glyph glyph-name="j" unicode="j" horiz-adv-x="274" 
d="M37 -235c-37 0 -69 5 -92 15v142c15 -5 32 -8 49 -8c32 0 58 19 58 61v505h170v-537c0 -131 -86 -178 -185 -178zM40 642c0 65 46 93 97 93c52 0 97 -28 97 -93c0 -66 -45 -94 -97 -94c-51 0 -97 28 -97 94z" />
    <glyph glyph-name="k" unicode="k" horiz-adv-x="561" 
d="M51 0v700h170v-388h38l105 168h190l-156 -236l166 -244h-189l-118 182h-36v-182h-170z" />
    <glyph glyph-name="uni0137" unicode="&#x137;" 
d="M125 -92v-30h86v-24h-86v-30h-22v84h22zM100 433c0 -33 25 -58 57 -58s57 25 57 58s-25 58 -57 58s-57 -25 -57 -58zM103 -76h108v23h-37v16l37 21v26l-41 -24c-6 12 -17 20 -31 20c-21 0 -36 -16 -36 -38v-44zM103 26v24h108v-24h-108zM103 106l108 -42v25l-20 7v43
l20 8v26l-108 -44v-23zM103 186h108v66h-21v-42h-87v-24zM103 300h108v23h-41v38h-22v-38h-23v42h-22v-65zM103 509h108v23h-68l68 50v19h-108v-23h66l-66 -47v-22zM103 617h22v30h86v24h-86v30h-22v-84zM123 433c0 20 14 34 34 34s35 -14 35 -34c0 -19 -15 -34 -35 -34
s-34 15 -34 34zM124 -53v19c0 10 6 16 14 16c9 0 15 -6 15 -16v-19h-29zM131 118l39 14v-28z" />
    <glyph glyph-name="l" unicode="l" horiz-adv-x="274" 
d="M52 0v730h170v-730h-170z" />
    <glyph glyph-name="lacute" unicode="&#x13a;" 
d="M125 -92v-30h86v-24h-86v-30h-22v84h22zM100 433c0 -33 25 -58 57 -58s57 25 57 58s-25 58 -57 58s-57 -25 -57 -58zM103 -76h108v23h-37v16l37 21v26l-41 -24c-6 12 -17 20 -31 20c-21 0 -36 -16 -36 -38v-44zM103 26v24h108v-24h-108zM103 106l108 -42v25l-20 7v43
l20 8v26l-108 -44v-23zM103 186h108v66h-21v-42h-87v-24zM103 300h108v23h-41v38h-22v-38h-23v42h-22v-65zM103 509h108v23h-68l68 50v19h-108v-23h66l-66 -47v-22zM103 617h22v30h86v24h-86v30h-22v-84zM123 433c0 20 14 34 34 34s35 -14 35 -34c0 -19 -15 -34 -35 -34
s-34 15 -34 34zM124 -53v19c0 10 6 16 14 16c9 0 15 -6 15 -16v-19h-29zM131 118l39 14v-28z" />
    <glyph glyph-name="lcaron" unicode="&#x13e;" 
d="M125 -92v-30h86v-24h-86v-30h-22v84h22zM100 433c0 -33 25 -58 57 -58s57 25 57 58s-25 58 -57 58s-57 -25 -57 -58zM103 -76h108v23h-37v16l37 21v26l-41 -24c-6 12 -17 20 -31 20c-21 0 -36 -16 -36 -38v-44zM103 26v24h108v-24h-108zM103 106l108 -42v25l-20 7v43
l20 8v26l-108 -44v-23zM103 186h108v66h-21v-42h-87v-24zM103 300h108v23h-41v38h-22v-38h-23v42h-22v-65zM103 509h108v23h-68l68 50v19h-108v-23h66l-66 -47v-22zM103 617h22v30h86v24h-86v30h-22v-84zM123 433c0 20 14 34 34 34s35 -14 35 -34c0 -19 -15 -34 -35 -34
s-34 15 -34 34zM124 -53v19c0 10 6 16 14 16c9 0 15 -6 15 -16v-19h-29zM131 118l39 14v-28z" />
    <glyph glyph-name="uni013C" unicode="&#x13c;" 
d="M125 -92v-30h86v-24h-86v-30h-22v84h22zM100 433c0 -33 25 -58 57 -58s57 25 57 58s-25 58 -57 58s-57 -25 -57 -58zM103 -76h108v23h-37v16l37 21v26l-41 -24c-6 12 -17 20 -31 20c-21 0 -36 -16 -36 -38v-44zM103 26v24h108v-24h-108zM103 106l108 -42v25l-20 7v43
l20 8v26l-108 -44v-23zM103 186h108v66h-21v-42h-87v-24zM103 300h108v23h-41v38h-22v-38h-23v42h-22v-65zM103 509h108v23h-68l68 50v19h-108v-23h66l-66 -47v-22zM103 617h22v30h86v24h-86v30h-22v-84zM123 433c0 20 14 34 34 34s35 -14 35 -34c0 -19 -15 -34 -35 -34
s-34 15 -34 34zM124 -53v19c0 10 6 16 14 16c9 0 15 -6 15 -16v-19h-29zM131 118l39 14v-28z" />
    <glyph glyph-name="ldot" unicode="&#x140;" 
d="M125 -92v-30h86v-24h-86v-30h-22v84h22zM100 433c0 -33 25 -58 57 -58s57 25 57 58s-25 58 -57 58s-57 -25 -57 -58zM103 -76h108v23h-37v16l37 21v26l-41 -24c-6 12 -17 20 -31 20c-21 0 -36 -16 -36 -38v-44zM103 26v24h108v-24h-108zM103 106l108 -42v25l-20 7v43
l20 8v26l-108 -44v-23zM103 186h108v66h-21v-42h-87v-24zM103 300h108v23h-41v38h-22v-38h-23v42h-22v-65zM103 509h108v23h-68l68 50v19h-108v-23h66l-66 -47v-22zM103 617h22v30h86v24h-86v30h-22v-84zM123 433c0 20 14 34 34 34s35 -14 35 -34c0 -19 -15 -34 -35 -34
s-34 15 -34 34zM124 -53v19c0 10 6 16 14 16c9 0 15 -6 15 -16v-19h-29zM131 118l39 14v-28z" />
    <glyph glyph-name="lslash" unicode="&#x142;" 
d="M125 -92v-30h86v-24h-86v-30h-22v84h22zM100 433c0 -33 25 -58 57 -58s57 25 57 58s-25 58 -57 58s-57 -25 -57 -58zM103 -76h108v23h-37v16l37 21v26l-41 -24c-6 12 -17 20 -31 20c-21 0 -36 -16 -36 -38v-44zM103 26v24h108v-24h-108zM103 106l108 -42v25l-20 7v43
l20 8v26l-108 -44v-23zM103 186h108v66h-21v-42h-87v-24zM103 300h108v23h-41v38h-22v-38h-23v42h-22v-65zM103 509h108v23h-68l68 50v19h-108v-23h66l-66 -47v-22zM103 617h22v30h86v24h-86v30h-22v-84zM123 433c0 20 14 34 34 34s35 -14 35 -34c0 -19 -15 -34 -35 -34
s-34 15 -34 34zM124 -53v19c0 10 6 16 14 16c9 0 15 -6 15 -16v-19h-29zM131 118l39 14v-28z" />
    <glyph glyph-name="m" unicode="m" horiz-adv-x="867" 
d="M51 0v480h150v-51c25 30 79 66 148 66c72 0 116 -29 142 -66c39 36 90 66 153 66c144 0 177 -116 177 -187v-308h-170v293c0 38 -25 57 -55 57c-23 0 -49 -10 -70 -31v-11v-308h-170v293c0 38 -25 57 -55 57c-27 0 -58 -14 -80 -42v-308h-170z" />
    <glyph glyph-name="n" unicode="n" horiz-adv-x="592" 
d="M51 0v480h150v-55c40 43 89 70 153 70c132 0 192 -89 192 -197v-298h-170v275c0 51 -31 75 -73 75c-38 0 -67 -23 -82 -42v-308h-170z" />
    <glyph glyph-name="nacute" unicode="&#x144;" 
d="M125 -92v-30h86v-24h-86v-30h-22v84h22zM100 433c0 -33 25 -58 57 -58s57 25 57 58s-25 58 -57 58s-57 -25 -57 -58zM103 -76h108v23h-37v16l37 21v26l-41 -24c-6 12 -17 20 -31 20c-21 0 -36 -16 -36 -38v-44zM103 26v24h108v-24h-108zM103 106l108 -42v25l-20 7v43
l20 8v26l-108 -44v-23zM103 186h108v66h-21v-42h-87v-24zM103 300h108v23h-41v38h-22v-38h-23v42h-22v-65zM103 509h108v23h-68l68 50v19h-108v-23h66l-66 -47v-22zM103 617h22v30h86v24h-86v30h-22v-84zM123 433c0 20 14 34 34 34s35 -14 35 -34c0 -19 -15 -34 -35 -34
s-34 15 -34 34zM124 -53v19c0 10 6 16 14 16c9 0 15 -6 15 -16v-19h-29zM131 118l39 14v-28z" />
    <glyph glyph-name="ncaron" unicode="&#x148;" 
d="M125 -92v-30h86v-24h-86v-30h-22v84h22zM100 433c0 -33 25 -58 57 -58s57 25 57 58s-25 58 -57 58s-57 -25 -57 -58zM103 -76h108v23h-37v16l37 21v26l-41 -24c-6 12 -17 20 -31 20c-21 0 -36 -16 -36 -38v-44zM103 26v24h108v-24h-108zM103 106l108 -42v25l-20 7v43
l20 8v26l-108 -44v-23zM103 186h108v66h-21v-42h-87v-24zM103 300h108v23h-41v38h-22v-38h-23v42h-22v-65zM103 509h108v23h-68l68 50v19h-108v-23h66l-66 -47v-22zM103 617h22v30h86v24h-86v30h-22v-84zM123 433c0 20 14 34 34 34s35 -14 35 -34c0 -19 -15 -34 -35 -34
s-34 15 -34 34zM124 -53v19c0 10 6 16 14 16c9 0 15 -6 15 -16v-19h-29zM131 118l39 14v-28z" />
    <glyph glyph-name="uni0146" unicode="&#x146;" 
d="M125 -92v-30h86v-24h-86v-30h-22v84h22zM100 433c0 -33 25 -58 57 -58s57 25 57 58s-25 58 -57 58s-57 -25 -57 -58zM103 -76h108v23h-37v16l37 21v26l-41 -24c-6 12 -17 20 -31 20c-21 0 -36 -16 -36 -38v-44zM103 26v24h108v-24h-108zM103 106l108 -42v25l-20 7v43
l20 8v26l-108 -44v-23zM103 186h108v66h-21v-42h-87v-24zM103 300h108v23h-41v38h-22v-38h-23v42h-22v-65zM103 509h108v23h-68l68 50v19h-108v-23h66l-66 -47v-22zM103 617h22v30h86v24h-86v30h-22v-84zM123 433c0 20 14 34 34 34s35 -14 35 -34c0 -19 -15 -34 -35 -34
s-34 15 -34 34zM124 -53v19c0 10 6 16 14 16c9 0 15 -6 15 -16v-19h-29zM131 118l39 14v-28z" />
    <glyph glyph-name="ntilde" unicode="&#xf1;" 
d="M125 -92v-30h86v-24h-86v-30h-22v84h22zM100 433c0 -33 25 -58 57 -58s57 25 57 58s-25 58 -57 58s-57 -25 -57 -58zM103 -76h108v23h-37v16l37 21v26l-41 -24c-6 12 -17 20 -31 20c-21 0 -36 -16 -36 -38v-44zM103 26v24h108v-24h-108zM103 106l108 -42v25l-20 7v43
l20 8v26l-108 -44v-23zM103 186h108v66h-21v-42h-87v-24zM103 300h108v23h-41v38h-22v-38h-23v42h-22v-65zM103 509h108v23h-68l68 50v19h-108v-23h66l-66 -47v-22zM103 617h22v30h86v24h-86v30h-22v-84zM123 433c0 20 14 34 34 34s35 -14 35 -34c0 -19 -15 -34 -35 -34
s-34 15 -34 34zM124 -53v19c0 10 6 16 14 16c9 0 15 -6 15 -16v-19h-29zM131 118l39 14v-28z" />
    <glyph glyph-name="eng" unicode="&#x14b;" 
d="M125 -92v-30h86v-24h-86v-30h-22v84h22zM100 433c0 -33 25 -58 57 -58s57 25 57 58s-25 58 -57 58s-57 -25 -57 -58zM103 -76h108v23h-37v16l37 21v26l-41 -24c-6 12 -17 20 -31 20c-21 0 -36 -16 -36 -38v-44zM103 26v24h108v-24h-108zM103 106l108 -42v25l-20 7v43
l20 8v26l-108 -44v-23zM103 186h108v66h-21v-42h-87v-24zM103 300h108v23h-41v38h-22v-38h-23v42h-22v-65zM103 509h108v23h-68l68 50v19h-108v-23h66l-66 -47v-22zM103 617h22v30h86v24h-86v30h-22v-84zM123 433c0 20 14 34 34 34s35 -14 35 -34c0 -19 -15 -34 -35 -34
s-34 15 -34 34zM124 -53v19c0 10 6 16 14 16c9 0 15 -6 15 -16v-19h-29zM131 118l39 14v-28z" />
    <glyph glyph-name="o" unicode="o" horiz-adv-x="594" 
d="M297 -15c-144 0 -270 85 -270 255s126 255 270 255s270 -85 270 -255s-126 -255 -270 -255zM202 240c0 -54 25 -105 95 -105s95 51 95 105s-25 105 -95 105s-95 -51 -95 -105z" />
    <glyph glyph-name="oacute" unicode="&#xf3;" 
d="M125 -92v-30h86v-24h-86v-30h-22v84h22zM100 433c0 -33 25 -58 57 -58s57 25 57 58s-25 58 -57 58s-57 -25 -57 -58zM103 -76h108v23h-37v16l37 21v26l-41 -24c-6 12 -17 20 -31 20c-21 0 -36 -16 -36 -38v-44zM103 26v24h108v-24h-108zM103 106l108 -42v25l-20 7v43
l20 8v26l-108 -44v-23zM103 186h108v66h-21v-42h-87v-24zM103 300h108v23h-41v38h-22v-38h-23v42h-22v-65zM103 509h108v23h-68l68 50v19h-108v-23h66l-66 -47v-22zM103 617h22v30h86v24h-86v30h-22v-84zM123 433c0 20 14 34 34 34s35 -14 35 -34c0 -19 -15 -34 -35 -34
s-34 15 -34 34zM124 -53v19c0 10 6 16 14 16c9 0 15 -6 15 -16v-19h-29zM131 118l39 14v-28z" />
    <glyph glyph-name="ocircumflex" unicode="&#xf4;" 
d="M125 -92v-30h86v-24h-86v-30h-22v84h22zM100 433c0 -33 25 -58 57 -58s57 25 57 58s-25 58 -57 58s-57 -25 -57 -58zM103 -76h108v23h-37v16l37 21v26l-41 -24c-6 12 -17 20 -31 20c-21 0 -36 -16 -36 -38v-44zM103 26v24h108v-24h-108zM103 106l108 -42v25l-20 7v43
l20 8v26l-108 -44v-23zM103 186h108v66h-21v-42h-87v-24zM103 300h108v23h-41v38h-22v-38h-23v42h-22v-65zM103 509h108v23h-68l68 50v19h-108v-23h66l-66 -47v-22zM103 617h22v30h86v24h-86v30h-22v-84zM123 433c0 20 14 34 34 34s35 -14 35 -34c0 -19 -15 -34 -35 -34
s-34 15 -34 34zM124 -53v19c0 10 6 16 14 16c9 0 15 -6 15 -16v-19h-29zM131 118l39 14v-28z" />
    <glyph glyph-name="odieresis" unicode="&#xf6;" 
d="M125 -92v-30h86v-24h-86v-30h-22v84h22zM100 433c0 -33 25 -58 57 -58s57 25 57 58s-25 58 -57 58s-57 -25 -57 -58zM103 -76h108v23h-37v16l37 21v26l-41 -24c-6 12 -17 20 -31 20c-21 0 -36 -16 -36 -38v-44zM103 26v24h108v-24h-108zM103 106l108 -42v25l-20 7v43
l20 8v26l-108 -44v-23zM103 186h108v66h-21v-42h-87v-24zM103 300h108v23h-41v38h-22v-38h-23v42h-22v-65zM103 509h108v23h-68l68 50v19h-108v-23h66l-66 -47v-22zM103 617h22v30h86v24h-86v30h-22v-84zM123 433c0 20 14 34 34 34s35 -14 35 -34c0 -19 -15 -34 -35 -34
s-34 15 -34 34zM124 -53v19c0 10 6 16 14 16c9 0 15 -6 15 -16v-19h-29zM131 118l39 14v-28z" />
    <glyph glyph-name="ograve" unicode="&#xf2;" 
d="M125 -92v-30h86v-24h-86v-30h-22v84h22zM100 433c0 -33 25 -58 57 -58s57 25 57 58s-25 58 -57 58s-57 -25 -57 -58zM103 -76h108v23h-37v16l37 21v26l-41 -24c-6 12 -17 20 -31 20c-21 0 -36 -16 -36 -38v-44zM103 26v24h108v-24h-108zM103 106l108 -42v25l-20 7v43
l20 8v26l-108 -44v-23zM103 186h108v66h-21v-42h-87v-24zM103 300h108v23h-41v38h-22v-38h-23v42h-22v-65zM103 509h108v23h-68l68 50v19h-108v-23h66l-66 -47v-22zM103 617h22v30h86v24h-86v30h-22v-84zM123 433c0 20 14 34 34 34s35 -14 35 -34c0 -19 -15 -34 -35 -34
s-34 15 -34 34zM124 -53v19c0 10 6 16 14 16c9 0 15 -6 15 -16v-19h-29zM131 118l39 14v-28z" />
    <glyph glyph-name="ohungarumlaut" unicode="&#x151;" 
d="M125 -92v-30h86v-24h-86v-30h-22v84h22zM100 433c0 -33 25 -58 57 -58s57 25 57 58s-25 58 -57 58s-57 -25 -57 -58zM103 -76h108v23h-37v16l37 21v26l-41 -24c-6 12 -17 20 -31 20c-21 0 -36 -16 -36 -38v-44zM103 26v24h108v-24h-108zM103 106l108 -42v25l-20 7v43
l20 8v26l-108 -44v-23zM103 186h108v66h-21v-42h-87v-24zM103 300h108v23h-41v38h-22v-38h-23v42h-22v-65zM103 509h108v23h-68l68 50v19h-108v-23h66l-66 -47v-22zM103 617h22v30h86v24h-86v30h-22v-84zM123 433c0 20 14 34 34 34s35 -14 35 -34c0 -19 -15 -34 -35 -34
s-34 15 -34 34zM124 -53v19c0 10 6 16 14 16c9 0 15 -6 15 -16v-19h-29zM131 118l39 14v-28z" />
    <glyph glyph-name="omacron" unicode="&#x14d;" 
d="M125 -92v-30h86v-24h-86v-30h-22v84h22zM100 433c0 -33 25 -58 57 -58s57 25 57 58s-25 58 -57 58s-57 -25 -57 -58zM103 -76h108v23h-37v16l37 21v26l-41 -24c-6 12 -17 20 -31 20c-21 0 -36 -16 -36 -38v-44zM103 26v24h108v-24h-108zM103 106l108 -42v25l-20 7v43
l20 8v26l-108 -44v-23zM103 186h108v66h-21v-42h-87v-24zM103 300h108v23h-41v38h-22v-38h-23v42h-22v-65zM103 509h108v23h-68l68 50v19h-108v-23h66l-66 -47v-22zM103 617h22v30h86v24h-86v30h-22v-84zM123 433c0 20 14 34 34 34s35 -14 35 -34c0 -19 -15 -34 -35 -34
s-34 15 -34 34zM124 -53v19c0 10 6 16 14 16c9 0 15 -6 15 -16v-19h-29zM131 118l39 14v-28z" />
    <glyph glyph-name="oslash" unicode="&#xf8;" 
d="M125 -92v-30h86v-24h-86v-30h-22v84h22zM100 433c0 -33 25 -58 57 -58s57 25 57 58s-25 58 -57 58s-57 -25 -57 -58zM103 -76h108v23h-37v16l37 21v26l-41 -24c-6 12 -17 20 -31 20c-21 0 -36 -16 -36 -38v-44zM103 26v24h108v-24h-108zM103 106l108 -42v25l-20 7v43
l20 8v26l-108 -44v-23zM103 186h108v66h-21v-42h-87v-24zM103 300h108v23h-41v38h-22v-38h-23v42h-22v-65zM103 509h108v23h-68l68 50v19h-108v-23h66l-66 -47v-22zM103 617h22v30h86v24h-86v30h-22v-84zM123 433c0 20 14 34 34 34s35 -14 35 -34c0 -19 -15 -34 -35 -34
s-34 15 -34 34zM124 -53v19c0 10 6 16 14 16c9 0 15 -6 15 -16v-19h-29zM131 118l39 14v-28z" />
    <glyph glyph-name="otilde" unicode="&#xf5;" 
d="M125 -92v-30h86v-24h-86v-30h-22v84h22zM100 433c0 -33 25 -58 57 -58s57 25 57 58s-25 58 -57 58s-57 -25 -57 -58zM103 -76h108v23h-37v16l37 21v26l-41 -24c-6 12 -17 20 -31 20c-21 0 -36 -16 -36 -38v-44zM103 26v24h108v-24h-108zM103 106l108 -42v25l-20 7v43
l20 8v26l-108 -44v-23zM103 186h108v66h-21v-42h-87v-24zM103 300h108v23h-41v38h-22v-38h-23v42h-22v-65zM103 509h108v23h-68l68 50v19h-108v-23h66l-66 -47v-22zM103 617h22v30h86v24h-86v30h-22v-84zM123 433c0 20 14 34 34 34s35 -14 35 -34c0 -19 -15 -34 -35 -34
s-34 15 -34 34zM124 -53v19c0 10 6 16 14 16c9 0 15 -6 15 -16v-19h-29zM131 118l39 14v-28z" />
    <glyph glyph-name="oe" unicode="&#x153;" 
d="M125 -92v-30h86v-24h-86v-30h-22v84h22zM100 433c0 -33 25 -58 57 -58s57 25 57 58s-25 58 -57 58s-57 -25 -57 -58zM103 -76h108v23h-37v16l37 21v26l-41 -24c-6 12 -17 20 -31 20c-21 0 -36 -16 -36 -38v-44zM103 26v24h108v-24h-108zM103 106l108 -42v25l-20 7v43
l20 8v26l-108 -44v-23zM103 186h108v66h-21v-42h-87v-24zM103 300h108v23h-41v38h-22v-38h-23v42h-22v-65zM103 509h108v23h-68l68 50v19h-108v-23h66l-66 -47v-22zM103 617h22v30h86v24h-86v30h-22v-84zM123 433c0 20 14 34 34 34s35 -14 35 -34c0 -19 -15 -34 -35 -34
s-34 15 -34 34zM124 -53v19c0 10 6 16 14 16c9 0 15 -6 15 -16v-19h-29zM131 118l39 14v-28z" />
    <glyph glyph-name="p" unicode="p" horiz-adv-x="624" 
d="M51 -220v700h150v-65c24 40 77 80 163 80c161 0 232 -131 232 -255s-71 -255 -232 -255c-67 0 -114 24 -143 54v-259h-170zM221 185c15 -31 50 -60 97 -60c72 0 103 59 103 115s-31 115 -103 115c-47 0 -82 -29 -97 -60v-110z" />
    <glyph glyph-name="thorn" unicode="&#xfe;" 
d="M125 -92v-30h86v-24h-86v-30h-22v84h22zM100 433c0 -33 25 -58 57 -58s57 25 57 58s-25 58 -57 58s-57 -25 -57 -58zM103 -76h108v23h-37v16l37 21v26l-41 -24c-6 12 -17 20 -31 20c-21 0 -36 -16 -36 -38v-44zM103 26v24h108v-24h-108zM103 106l108 -42v25l-20 7v43
l20 8v26l-108 -44v-23zM103 186h108v66h-21v-42h-87v-24zM103 300h108v23h-41v38h-22v-38h-23v42h-22v-65zM103 509h108v23h-68l68 50v19h-108v-23h66l-66 -47v-22zM103 617h22v30h86v24h-86v30h-22v-84zM123 433c0 20 14 34 34 34s35 -14 35 -34c0 -19 -15 -34 -35 -34
s-34 15 -34 34zM124 -53v19c0 10 6 16 14 16c9 0 15 -6 15 -16v-19h-29zM131 118l39 14v-28z" />
    <glyph glyph-name="q" unicode="q" horiz-adv-x="623" 
d="M402 39c-29 -30 -76 -54 -143 -54c-161 0 -232 131 -232 255s71 255 232 255c86 0 139 -40 163 -80v65h150v-700h-170v259zM202 240c0 -56 31 -115 103 -115c47 0 82 29 97 60v110c-15 31 -50 60 -97 60c-72 0 -103 -59 -103 -115z" />
    <glyph glyph-name="r" unicode="r" horiz-adv-x="404" 
d="M51 0v480h150v-65c33 48 94 85 188 75v-165c-67 15 -138 -6 -168 -52v-273h-170z" />
    <glyph glyph-name="racute" unicode="&#x155;" 
d="M125 -92v-30h86v-24h-86v-30h-22v84h22zM100 433c0 -33 25 -58 57 -58s57 25 57 58s-25 58 -57 58s-57 -25 -57 -58zM103 -76h108v23h-37v16l37 21v26l-41 -24c-6 12 -17 20 -31 20c-21 0 -36 -16 -36 -38v-44zM103 26v24h108v-24h-108zM103 106l108 -42v25l-20 7v43
l20 8v26l-108 -44v-23zM103 186h108v66h-21v-42h-87v-24zM103 300h108v23h-41v38h-22v-38h-23v42h-22v-65zM103 509h108v23h-68l68 50v19h-108v-23h66l-66 -47v-22zM103 617h22v30h86v24h-86v30h-22v-84zM123 433c0 20 14 34 34 34s35 -14 35 -34c0 -19 -15 -34 -35 -34
s-34 15 -34 34zM124 -53v19c0 10 6 16 14 16c9 0 15 -6 15 -16v-19h-29zM131 118l39 14v-28z" />
    <glyph glyph-name="rcaron" unicode="&#x159;" 
d="M125 -92v-30h86v-24h-86v-30h-22v84h22zM100 433c0 -33 25 -58 57 -58s57 25 57 58s-25 58 -57 58s-57 -25 -57 -58zM103 -76h108v23h-37v16l37 21v26l-41 -24c-6 12 -17 20 -31 20c-21 0 -36 -16 -36 -38v-44zM103 26v24h108v-24h-108zM103 106l108 -42v25l-20 7v43
l20 8v26l-108 -44v-23zM103 186h108v66h-21v-42h-87v-24zM103 300h108v23h-41v38h-22v-38h-23v42h-22v-65zM103 509h108v23h-68l68 50v19h-108v-23h66l-66 -47v-22zM103 617h22v30h86v24h-86v30h-22v-84zM123 433c0 20 14 34 34 34s35 -14 35 -34c0 -19 -15 -34 -35 -34
s-34 15 -34 34zM124 -53v19c0 10 6 16 14 16c9 0 15 -6 15 -16v-19h-29zM131 118l39 14v-28z" />
    <glyph glyph-name="uni0157" unicode="&#x157;" 
d="M125 -92v-30h86v-24h-86v-30h-22v84h22zM100 433c0 -33 25 -58 57 -58s57 25 57 58s-25 58 -57 58s-57 -25 -57 -58zM103 -76h108v23h-37v16l37 21v26l-41 -24c-6 12 -17 20 -31 20c-21 0 -36 -16 -36 -38v-44zM103 26v24h108v-24h-108zM103 106l108 -42v25l-20 7v43
l20 8v26l-108 -44v-23zM103 186h108v66h-21v-42h-87v-24zM103 300h108v23h-41v38h-22v-38h-23v42h-22v-65zM103 509h108v23h-68l68 50v19h-108v-23h66l-66 -47v-22zM103 617h22v30h86v24h-86v30h-22v-84zM123 433c0 20 14 34 34 34s35 -14 35 -34c0 -19 -15 -34 -35 -34
s-34 15 -34 34zM124 -53v19c0 10 6 16 14 16c9 0 15 -6 15 -16v-19h-29zM131 118l39 14v-28z" />
    <glyph glyph-name="s" unicode="s" horiz-adv-x="486" 
d="M232 -15c-75 0 -142 15 -193 44v135c53 -35 127 -51 184 -51c42 0 63 7 63 24c0 63 -252 32 -252 205c0 117 102 153 209 153c70 0 130 -17 181 -41v-135c-42 29 -113 51 -169 51c-21 0 -46 -4 -46 -24c0 -67 252 -28 252 -206c0 -120 -108 -155 -229 -155z" />
    <glyph glyph-name="sacute" unicode="&#x15b;" 
d="M125 -92v-30h86v-24h-86v-30h-22v84h22zM100 433c0 -33 25 -58 57 -58s57 25 57 58s-25 58 -57 58s-57 -25 -57 -58zM103 -76h108v23h-37v16l37 21v26l-41 -24c-6 12 -17 20 -31 20c-21 0 -36 -16 -36 -38v-44zM103 26v24h108v-24h-108zM103 106l108 -42v25l-20 7v43
l20 8v26l-108 -44v-23zM103 186h108v66h-21v-42h-87v-24zM103 300h108v23h-41v38h-22v-38h-23v42h-22v-65zM103 509h108v23h-68l68 50v19h-108v-23h66l-66 -47v-22zM103 617h22v30h86v24h-86v30h-22v-84zM123 433c0 20 14 34 34 34s35 -14 35 -34c0 -19 -15 -34 -35 -34
s-34 15 -34 34zM124 -53v19c0 10 6 16 14 16c9 0 15 -6 15 -16v-19h-29zM131 118l39 14v-28z" />
    <glyph glyph-name="scaron" unicode="&#x161;" 
d="M125 -92v-30h86v-24h-86v-30h-22v84h22zM100 433c0 -33 25 -58 57 -58s57 25 57 58s-25 58 -57 58s-57 -25 -57 -58zM103 -76h108v23h-37v16l37 21v26l-41 -24c-6 12 -17 20 -31 20c-21 0 -36 -16 -36 -38v-44zM103 26v24h108v-24h-108zM103 106l108 -42v25l-20 7v43
l20 8v26l-108 -44v-23zM103 186h108v66h-21v-42h-87v-24zM103 300h108v23h-41v38h-22v-38h-23v42h-22v-65zM103 509h108v23h-68l68 50v19h-108v-23h66l-66 -47v-22zM103 617h22v30h86v24h-86v30h-22v-84zM123 433c0 20 14 34 34 34s35 -14 35 -34c0 -19 -15 -34 -35 -34
s-34 15 -34 34zM124 -53v19c0 10 6 16 14 16c9 0 15 -6 15 -16v-19h-29zM131 118l39 14v-28z" />
    <glyph glyph-name="scedilla" unicode="&#x15f;" 
d="M125 -92v-30h86v-24h-86v-30h-22v84h22zM100 433c0 -33 25 -58 57 -58s57 25 57 58s-25 58 -57 58s-57 -25 -57 -58zM103 -76h108v23h-37v16l37 21v26l-41 -24c-6 12 -17 20 -31 20c-21 0 -36 -16 -36 -38v-44zM103 26v24h108v-24h-108zM103 106l108 -42v25l-20 7v43
l20 8v26l-108 -44v-23zM103 186h108v66h-21v-42h-87v-24zM103 300h108v23h-41v38h-22v-38h-23v42h-22v-65zM103 509h108v23h-68l68 50v19h-108v-23h66l-66 -47v-22zM103 617h22v30h86v24h-86v30h-22v-84zM123 433c0 20 14 34 34 34s35 -14 35 -34c0 -19 -15 -34 -35 -34
s-34 15 -34 34zM124 -53v19c0 10 6 16 14 16c9 0 15 -6 15 -16v-19h-29zM131 118l39 14v-28z" />
    <glyph glyph-name="uni0219" unicode="&#x219;" 
d="M125 -92v-30h86v-24h-86v-30h-22v84h22zM100 433c0 -33 25 -58 57 -58s57 25 57 58s-25 58 -57 58s-57 -25 -57 -58zM103 -76h108v23h-37v16l37 21v26l-41 -24c-6 12 -17 20 -31 20c-21 0 -36 -16 -36 -38v-44zM103 26v24h108v-24h-108zM103 106l108 -42v25l-20 7v43
l20 8v26l-108 -44v-23zM103 186h108v66h-21v-42h-87v-24zM103 300h108v23h-41v38h-22v-38h-23v42h-22v-65zM103 509h108v23h-68l68 50v19h-108v-23h66l-66 -47v-22zM103 617h22v30h86v24h-86v30h-22v-84zM123 433c0 20 14 34 34 34s35 -14 35 -34c0 -19 -15 -34 -35 -34
s-34 15 -34 34zM124 -53v19c0 10 6 16 14 16c9 0 15 -6 15 -16v-19h-29zM131 118l39 14v-28z" />
    <glyph glyph-name="germandbls" unicode="&#xdf;" horiz-adv-x="588" 
d="M375 -15c-41 0 -81 9 -114 24v130c29 -16 57 -23 80 -23c34 0 57 15 57 40c0 51 -136 114 -136 201c0 76 72 95 72 171c0 44 -28 57 -56 57c-35 0 -57 -22 -57 -56v-529h-170v486c0 147 80 228 227 229c157 1 216 -90 216 -156c0 -85 -82 -132 -82 -178
c0 -63 161 -116 161 -240c0 -109 -100 -156 -198 -156z" />
    <glyph glyph-name="t" unicode="t" horiz-adv-x="422" 
d="M269 -15c-93 0 -180 38 -180 165v190h-76v140h76v135l170 40v-175h130v-140h-130v-156c0 -38 20 -59 63 -59c28 0 51 3 77 12v-132c-38 -13 -81 -20 -130 -20z" />
    <glyph glyph-name="tbar" unicode="&#x167;" 
d="M125 -92v-30h86v-24h-86v-30h-22v84h22zM100 433c0 -33 25 -58 57 -58s57 25 57 58s-25 58 -57 58s-57 -25 -57 -58zM103 -76h108v23h-37v16l37 21v26l-41 -24c-6 12 -17 20 -31 20c-21 0 -36 -16 -36 -38v-44zM103 26v24h108v-24h-108zM103 106l108 -42v25l-20 7v43
l20 8v26l-108 -44v-23zM103 186h108v66h-21v-42h-87v-24zM103 300h108v23h-41v38h-22v-38h-23v42h-22v-65zM103 509h108v23h-68l68 50v19h-108v-23h66l-66 -47v-22zM103 617h22v30h86v24h-86v30h-22v-84zM123 433c0 20 14 34 34 34s35 -14 35 -34c0 -19 -15 -34 -35 -34
s-34 15 -34 34zM124 -53v19c0 10 6 16 14 16c9 0 15 -6 15 -16v-19h-29zM131 118l39 14v-28z" />
    <glyph glyph-name="tcaron" unicode="&#x165;" 
d="M125 -92v-30h86v-24h-86v-30h-22v84h22zM100 433c0 -33 25 -58 57 -58s57 25 57 58s-25 58 -57 58s-57 -25 -57 -58zM103 -76h108v23h-37v16l37 21v26l-41 -24c-6 12 -17 20 -31 20c-21 0 -36 -16 -36 -38v-44zM103 26v24h108v-24h-108zM103 106l108 -42v25l-20 7v43
l20 8v26l-108 -44v-23zM103 186h108v66h-21v-42h-87v-24zM103 300h108v23h-41v38h-22v-38h-23v42h-22v-65zM103 509h108v23h-68l68 50v19h-108v-23h66l-66 -47v-22zM103 617h22v30h86v24h-86v30h-22v-84zM123 433c0 20 14 34 34 34s35 -14 35 -34c0 -19 -15 -34 -35 -34
s-34 15 -34 34zM124 -53v19c0 10 6 16 14 16c9 0 15 -6 15 -16v-19h-29zM131 118l39 14v-28z" />
    <glyph glyph-name="uni0163" unicode="&#x163;" 
d="M125 -92v-30h86v-24h-86v-30h-22v84h22zM100 433c0 -33 25 -58 57 -58s57 25 57 58s-25 58 -57 58s-57 -25 -57 -58zM103 -76h108v23h-37v16l37 21v26l-41 -24c-6 12 -17 20 -31 20c-21 0 -36 -16 -36 -38v-44zM103 26v24h108v-24h-108zM103 106l108 -42v25l-20 7v43
l20 8v26l-108 -44v-23zM103 186h108v66h-21v-42h-87v-24zM103 300h108v23h-41v38h-22v-38h-23v42h-22v-65zM103 509h108v23h-68l68 50v19h-108v-23h66l-66 -47v-22zM103 617h22v30h86v24h-86v30h-22v-84zM123 433c0 20 14 34 34 34s35 -14 35 -34c0 -19 -15 -34 -35 -34
s-34 15 -34 34zM124 -53v19c0 10 6 16 14 16c9 0 15 -6 15 -16v-19h-29zM131 118l39 14v-28z" />
    <glyph glyph-name="u" unicode="u" horiz-adv-x="592" 
d="M238 -15c-132 0 -192 89 -192 197v298h170v-275c0 -51 31 -75 73 -75c38 0 67 23 82 42v308h170v-480h-150v55c-40 -43 -89 -70 -153 -70z" />
    <glyph glyph-name="uacute" unicode="&#xfa;" 
d="M125 -92v-30h86v-24h-86v-30h-22v84h22zM100 433c0 -33 25 -58 57 -58s57 25 57 58s-25 58 -57 58s-57 -25 -57 -58zM103 -76h108v23h-37v16l37 21v26l-41 -24c-6 12 -17 20 -31 20c-21 0 -36 -16 -36 -38v-44zM103 26v24h108v-24h-108zM103 106l108 -42v25l-20 7v43
l20 8v26l-108 -44v-23zM103 186h108v66h-21v-42h-87v-24zM103 300h108v23h-41v38h-22v-38h-23v42h-22v-65zM103 509h108v23h-68l68 50v19h-108v-23h66l-66 -47v-22zM103 617h22v30h86v24h-86v30h-22v-84zM123 433c0 20 14 34 34 34s35 -14 35 -34c0 -19 -15 -34 -35 -34
s-34 15 -34 34zM124 -53v19c0 10 6 16 14 16c9 0 15 -6 15 -16v-19h-29zM131 118l39 14v-28z" />
    <glyph glyph-name="ucircumflex" unicode="&#xfb;" 
d="M125 -92v-30h86v-24h-86v-30h-22v84h22zM100 433c0 -33 25 -58 57 -58s57 25 57 58s-25 58 -57 58s-57 -25 -57 -58zM103 -76h108v23h-37v16l37 21v26l-41 -24c-6 12 -17 20 -31 20c-21 0 -36 -16 -36 -38v-44zM103 26v24h108v-24h-108zM103 106l108 -42v25l-20 7v43
l20 8v26l-108 -44v-23zM103 186h108v66h-21v-42h-87v-24zM103 300h108v23h-41v38h-22v-38h-23v42h-22v-65zM103 509h108v23h-68l68 50v19h-108v-23h66l-66 -47v-22zM103 617h22v30h86v24h-86v30h-22v-84zM123 433c0 20 14 34 34 34s35 -14 35 -34c0 -19 -15 -34 -35 -34
s-34 15 -34 34zM124 -53v19c0 10 6 16 14 16c9 0 15 -6 15 -16v-19h-29zM131 118l39 14v-28z" />
    <glyph glyph-name="udieresis" unicode="&#xfc;" 
d="M125 -92v-30h86v-24h-86v-30h-22v84h22zM100 433c0 -33 25 -58 57 -58s57 25 57 58s-25 58 -57 58s-57 -25 -57 -58zM103 -76h108v23h-37v16l37 21v26l-41 -24c-6 12 -17 20 -31 20c-21 0 -36 -16 -36 -38v-44zM103 26v24h108v-24h-108zM103 106l108 -42v25l-20 7v43
l20 8v26l-108 -44v-23zM103 186h108v66h-21v-42h-87v-24zM103 300h108v23h-41v38h-22v-38h-23v42h-22v-65zM103 509h108v23h-68l68 50v19h-108v-23h66l-66 -47v-22zM103 617h22v30h86v24h-86v30h-22v-84zM123 433c0 20 14 34 34 34s35 -14 35 -34c0 -19 -15 -34 -35 -34
s-34 15 -34 34zM124 -53v19c0 10 6 16 14 16c9 0 15 -6 15 -16v-19h-29zM131 118l39 14v-28z" />
    <glyph glyph-name="ugrave" unicode="&#xf9;" 
d="M125 -92v-30h86v-24h-86v-30h-22v84h22zM100 433c0 -33 25 -58 57 -58s57 25 57 58s-25 58 -57 58s-57 -25 -57 -58zM103 -76h108v23h-37v16l37 21v26l-41 -24c-6 12 -17 20 -31 20c-21 0 -36 -16 -36 -38v-44zM103 26v24h108v-24h-108zM103 106l108 -42v25l-20 7v43
l20 8v26l-108 -44v-23zM103 186h108v66h-21v-42h-87v-24zM103 300h108v23h-41v38h-22v-38h-23v42h-22v-65zM103 509h108v23h-68l68 50v19h-108v-23h66l-66 -47v-22zM103 617h22v30h86v24h-86v30h-22v-84zM123 433c0 20 14 34 34 34s35 -14 35 -34c0 -19 -15 -34 -35 -34
s-34 15 -34 34zM124 -53v19c0 10 6 16 14 16c9 0 15 -6 15 -16v-19h-29zM131 118l39 14v-28z" />
    <glyph glyph-name="uhungarumlaut" unicode="&#x171;" 
d="M125 -92v-30h86v-24h-86v-30h-22v84h22zM100 433c0 -33 25 -58 57 -58s57 25 57 58s-25 58 -57 58s-57 -25 -57 -58zM103 -76h108v23h-37v16l37 21v26l-41 -24c-6 12 -17 20 -31 20c-21 0 -36 -16 -36 -38v-44zM103 26v24h108v-24h-108zM103 106l108 -42v25l-20 7v43
l20 8v26l-108 -44v-23zM103 186h108v66h-21v-42h-87v-24zM103 300h108v23h-41v38h-22v-38h-23v42h-22v-65zM103 509h108v23h-68l68 50v19h-108v-23h66l-66 -47v-22zM103 617h22v30h86v24h-86v30h-22v-84zM123 433c0 20 14 34 34 34s35 -14 35 -34c0 -19 -15 -34 -35 -34
s-34 15 -34 34zM124 -53v19c0 10 6 16 14 16c9 0 15 -6 15 -16v-19h-29zM131 118l39 14v-28z" />
    <glyph glyph-name="umacron" unicode="&#x16b;" 
d="M125 -92v-30h86v-24h-86v-30h-22v84h22zM100 433c0 -33 25 -58 57 -58s57 25 57 58s-25 58 -57 58s-57 -25 -57 -58zM103 -76h108v23h-37v16l37 21v26l-41 -24c-6 12 -17 20 -31 20c-21 0 -36 -16 -36 -38v-44zM103 26v24h108v-24h-108zM103 106l108 -42v25l-20 7v43
l20 8v26l-108 -44v-23zM103 186h108v66h-21v-42h-87v-24zM103 300h108v23h-41v38h-22v-38h-23v42h-22v-65zM103 509h108v23h-68l68 50v19h-108v-23h66l-66 -47v-22zM103 617h22v30h86v24h-86v30h-22v-84zM123 433c0 20 14 34 34 34s35 -14 35 -34c0 -19 -15 -34 -35 -34
s-34 15 -34 34zM124 -53v19c0 10 6 16 14 16c9 0 15 -6 15 -16v-19h-29zM131 118l39 14v-28z" />
    <glyph glyph-name="uni021B" unicode="&#x21b;" 
d="M125 -92v-30h86v-24h-86v-30h-22v84h22zM100 433c0 -33 25 -58 57 -58s57 25 57 58s-25 58 -57 58s-57 -25 -57 -58zM103 -76h108v23h-37v16l37 21v26l-41 -24c-6 12 -17 20 -31 20c-21 0 -36 -16 -36 -38v-44zM103 26v24h108v-24h-108zM103 106l108 -42v25l-20 7v43
l20 8v26l-108 -44v-23zM103 186h108v66h-21v-42h-87v-24zM103 300h108v23h-41v38h-22v-38h-23v42h-22v-65zM103 509h108v23h-68l68 50v19h-108v-23h66l-66 -47v-22zM103 617h22v30h86v24h-86v30h-22v-84zM123 433c0 20 14 34 34 34s35 -14 35 -34c0 -19 -15 -34 -35 -34
s-34 15 -34 34zM124 -53v19c0 10 6 16 14 16c9 0 15 -6 15 -16v-19h-29zM131 118l39 14v-28z" />
    <glyph glyph-name="uogonek" unicode="&#x173;" 
d="M125 -92v-30h86v-24h-86v-30h-22v84h22zM100 433c0 -33 25 -58 57 -58s57 25 57 58s-25 58 -57 58s-57 -25 -57 -58zM103 -76h108v23h-37v16l37 21v26l-41 -24c-6 12 -17 20 -31 20c-21 0 -36 -16 -36 -38v-44zM103 26v24h108v-24h-108zM103 106l108 -42v25l-20 7v43
l20 8v26l-108 -44v-23zM103 186h108v66h-21v-42h-87v-24zM103 300h108v23h-41v38h-22v-38h-23v42h-22v-65zM103 509h108v23h-68l68 50v19h-108v-23h66l-66 -47v-22zM103 617h22v30h86v24h-86v30h-22v-84zM123 433c0 20 14 34 34 34s35 -14 35 -34c0 -19 -15 -34 -35 -34
s-34 15 -34 34zM124 -53v19c0 10 6 16 14 16c9 0 15 -6 15 -16v-19h-29zM131 118l39 14v-28z" />
    <glyph glyph-name="uring" unicode="&#x16f;" 
d="M125 -92v-30h86v-24h-86v-30h-22v84h22zM100 433c0 -33 25 -58 57 -58s57 25 57 58s-25 58 -57 58s-57 -25 -57 -58zM103 -76h108v23h-37v16l37 21v26l-41 -24c-6 12 -17 20 -31 20c-21 0 -36 -16 -36 -38v-44zM103 26v24h108v-24h-108zM103 106l108 -42v25l-20 7v43
l20 8v26l-108 -44v-23zM103 186h108v66h-21v-42h-87v-24zM103 300h108v23h-41v38h-22v-38h-23v42h-22v-65zM103 509h108v23h-68l68 50v19h-108v-23h66l-66 -47v-22zM103 617h22v30h86v24h-86v30h-22v-84zM123 433c0 20 14 34 34 34s35 -14 35 -34c0 -19 -15 -34 -35 -34
s-34 15 -34 34zM124 -53v19c0 10 6 16 14 16c9 0 15 -6 15 -16v-19h-29zM131 118l39 14v-28z" />
    <glyph glyph-name="v" unicode="v" horiz-adv-x="572" 
d="M196 0l-190 480h180l100 -303l100 303h180l-190 -480h-180z" />
    <glyph glyph-name="w" unicode="w" horiz-adv-x="828" 
d="M158 0l-149 480h182l68 -295l73 295h164l73 -295l68 295h182l-149 -480h-180l-76 281l-76 -281h-180z" />
    <glyph glyph-name="wacute" unicode="&#x1e83;" 
d="M125 -92v-30h86v-24h-86v-30h-22v84h22zM100 433c0 -33 25 -58 57 -58s57 25 57 58s-25 58 -57 58s-57 -25 -57 -58zM103 -76h108v23h-37v16l37 21v26l-41 -24c-6 12 -17 20 -31 20c-21 0 -36 -16 -36 -38v-44zM103 26v24h108v-24h-108zM103 106l108 -42v25l-20 7v43
l20 8v26l-108 -44v-23zM103 186h108v66h-21v-42h-87v-24zM103 300h108v23h-41v38h-22v-38h-23v42h-22v-65zM103 509h108v23h-68l68 50v19h-108v-23h66l-66 -47v-22zM103 617h22v30h86v24h-86v30h-22v-84zM123 433c0 20 14 34 34 34s35 -14 35 -34c0 -19 -15 -34 -35 -34
s-34 15 -34 34zM124 -53v19c0 10 6 16 14 16c9 0 15 -6 15 -16v-19h-29zM131 118l39 14v-28z" />
    <glyph glyph-name="wcircumflex" unicode="&#x175;" 
d="M125 -92v-30h86v-24h-86v-30h-22v84h22zM100 433c0 -33 25 -58 57 -58s57 25 57 58s-25 58 -57 58s-57 -25 -57 -58zM103 -76h108v23h-37v16l37 21v26l-41 -24c-6 12 -17 20 -31 20c-21 0 -36 -16 -36 -38v-44zM103 26v24h108v-24h-108zM103 106l108 -42v25l-20 7v43
l20 8v26l-108 -44v-23zM103 186h108v66h-21v-42h-87v-24zM103 300h108v23h-41v38h-22v-38h-23v42h-22v-65zM103 509h108v23h-68l68 50v19h-108v-23h66l-66 -47v-22zM103 617h22v30h86v24h-86v30h-22v-84zM123 433c0 20 14 34 34 34s35 -14 35 -34c0 -19 -15 -34 -35 -34
s-34 15 -34 34zM124 -53v19c0 10 6 16 14 16c9 0 15 -6 15 -16v-19h-29zM131 118l39 14v-28z" />
    <glyph glyph-name="wdieresis" unicode="&#x1e85;" 
d="M125 -92v-30h86v-24h-86v-30h-22v84h22zM100 433c0 -33 25 -58 57 -58s57 25 57 58s-25 58 -57 58s-57 -25 -57 -58zM103 -76h108v23h-37v16l37 21v26l-41 -24c-6 12 -17 20 -31 20c-21 0 -36 -16 -36 -38v-44zM103 26v24h108v-24h-108zM103 106l108 -42v25l-20 7v43
l20 8v26l-108 -44v-23zM103 186h108v66h-21v-42h-87v-24zM103 300h108v23h-41v38h-22v-38h-23v42h-22v-65zM103 509h108v23h-68l68 50v19h-108v-23h66l-66 -47v-22zM103 617h22v30h86v24h-86v30h-22v-84zM123 433c0 20 14 34 34 34s35 -14 35 -34c0 -19 -15 -34 -35 -34
s-34 15 -34 34zM124 -53v19c0 10 6 16 14 16c9 0 15 -6 15 -16v-19h-29zM131 118l39 14v-28z" />
    <glyph glyph-name="wgrave" unicode="&#x1e81;" 
d="M125 -92v-30h86v-24h-86v-30h-22v84h22zM100 433c0 -33 25 -58 57 -58s57 25 57 58s-25 58 -57 58s-57 -25 -57 -58zM103 -76h108v23h-37v16l37 21v26l-41 -24c-6 12 -17 20 -31 20c-21 0 -36 -16 -36 -38v-44zM103 26v24h108v-24h-108zM103 106l108 -42v25l-20 7v43
l20 8v26l-108 -44v-23zM103 186h108v66h-21v-42h-87v-24zM103 300h108v23h-41v38h-22v-38h-23v42h-22v-65zM103 509h108v23h-68l68 50v19h-108v-23h66l-66 -47v-22zM103 617h22v30h86v24h-86v30h-22v-84zM123 433c0 20 14 34 34 34s35 -14 35 -34c0 -19 -15 -34 -35 -34
s-34 15 -34 34zM124 -53v19c0 10 6 16 14 16c9 0 15 -6 15 -16v-19h-29zM131 118l39 14v-28z" />
    <glyph glyph-name="x" unicode="x" horiz-adv-x="552" 
d="M-4 0l181 239l-172 241h192l79 -126l79 126h192l-172 -241l181 -239h-192l-88 124l-88 -124h-192z" />
    <glyph glyph-name="y" unicode="y" horiz-adv-x="577" 
d="M149 -233c-30 0 -60 6 -88 13v140c21 -5 43 -8 65 -8c40 0 74 22 97 70l3 6l-226 492h180l117 -286l98 286h175l-201 -530c-55 -144 -138 -183 -220 -183z" />
    <glyph glyph-name="yacute" unicode="&#xfd;" 
d="M125 -92v-30h86v-24h-86v-30h-22v84h22zM100 433c0 -33 25 -58 57 -58s57 25 57 58s-25 58 -57 58s-57 -25 -57 -58zM103 -76h108v23h-37v16l37 21v26l-41 -24c-6 12 -17 20 -31 20c-21 0 -36 -16 -36 -38v-44zM103 26v24h108v-24h-108zM103 106l108 -42v25l-20 7v43
l20 8v26l-108 -44v-23zM103 186h108v66h-21v-42h-87v-24zM103 300h108v23h-41v38h-22v-38h-23v42h-22v-65zM103 509h108v23h-68l68 50v19h-108v-23h66l-66 -47v-22zM103 617h22v30h86v24h-86v30h-22v-84zM123 433c0 20 14 34 34 34s35 -14 35 -34c0 -19 -15 -34 -35 -34
s-34 15 -34 34zM124 -53v19c0 10 6 16 14 16c9 0 15 -6 15 -16v-19h-29zM131 118l39 14v-28z" />
    <glyph glyph-name="ycircumflex" unicode="&#x177;" 
d="M125 -92v-30h86v-24h-86v-30h-22v84h22zM100 433c0 -33 25 -58 57 -58s57 25 57 58s-25 58 -57 58s-57 -25 -57 -58zM103 -76h108v23h-37v16l37 21v26l-41 -24c-6 12 -17 20 -31 20c-21 0 -36 -16 -36 -38v-44zM103 26v24h108v-24h-108zM103 106l108 -42v25l-20 7v43
l20 8v26l-108 -44v-23zM103 186h108v66h-21v-42h-87v-24zM103 300h108v23h-41v38h-22v-38h-23v42h-22v-65zM103 509h108v23h-68l68 50v19h-108v-23h66l-66 -47v-22zM103 617h22v30h86v24h-86v30h-22v-84zM123 433c0 20 14 34 34 34s35 -14 35 -34c0 -19 -15 -34 -35 -34
s-34 15 -34 34zM124 -53v19c0 10 6 16 14 16c9 0 15 -6 15 -16v-19h-29zM131 118l39 14v-28z" />
    <glyph glyph-name="ydieresis" unicode="&#xff;" 
d="M125 -92v-30h86v-24h-86v-30h-22v84h22zM100 433c0 -33 25 -58 57 -58s57 25 57 58s-25 58 -57 58s-57 -25 -57 -58zM103 -76h108v23h-37v16l37 21v26l-41 -24c-6 12 -17 20 -31 20c-21 0 -36 -16 -36 -38v-44zM103 26v24h108v-24h-108zM103 106l108 -42v25l-20 7v43
l20 8v26l-108 -44v-23zM103 186h108v66h-21v-42h-87v-24zM103 300h108v23h-41v38h-22v-38h-23v42h-22v-65zM103 509h108v23h-68l68 50v19h-108v-23h66l-66 -47v-22zM103 617h22v30h86v24h-86v30h-22v-84zM123 433c0 20 14 34 34 34s35 -14 35 -34c0 -19 -15 -34 -35 -34
s-34 15 -34 34zM124 -53v19c0 10 6 16 14 16c9 0 15 -6 15 -16v-19h-29zM131 118l39 14v-28z" />
    <glyph glyph-name="ygrave" unicode="&#x1ef3;" 
d="M125 -92v-30h86v-24h-86v-30h-22v84h22zM100 433c0 -33 25 -58 57 -58s57 25 57 58s-25 58 -57 58s-57 -25 -57 -58zM103 -76h108v23h-37v16l37 21v26l-41 -24c-6 12 -17 20 -31 20c-21 0 -36 -16 -36 -38v-44zM103 26v24h108v-24h-108zM103 106l108 -42v25l-20 7v43
l20 8v26l-108 -44v-23zM103 186h108v66h-21v-42h-87v-24zM103 300h108v23h-41v38h-22v-38h-23v42h-22v-65zM103 509h108v23h-68l68 50v19h-108v-23h66l-66 -47v-22zM103 617h22v30h86v24h-86v30h-22v-84zM123 433c0 20 14 34 34 34s35 -14 35 -34c0 -19 -15 -34 -35 -34
s-34 15 -34 34zM124 -53v19c0 10 6 16 14 16c9 0 15 -6 15 -16v-19h-29zM131 118l39 14v-28z" />
    <glyph glyph-name="z" unicode="z" horiz-adv-x="492" 
d="M29 0v100l195 240h-181v140h405v-100l-194 -240h208v-140h-433z" />
    <glyph glyph-name="zacute" unicode="&#x17a;" 
d="M125 -92v-30h86v-24h-86v-30h-22v84h22zM100 433c0 -33 25 -58 57 -58s57 25 57 58s-25 58 -57 58s-57 -25 -57 -58zM103 -76h108v23h-37v16l37 21v26l-41 -24c-6 12 -17 20 -31 20c-21 0 -36 -16 -36 -38v-44zM103 26v24h108v-24h-108zM103 106l108 -42v25l-20 7v43
l20 8v26l-108 -44v-23zM103 186h108v66h-21v-42h-87v-24zM103 300h108v23h-41v38h-22v-38h-23v42h-22v-65zM103 509h108v23h-68l68 50v19h-108v-23h66l-66 -47v-22zM103 617h22v30h86v24h-86v30h-22v-84zM123 433c0 20 14 34 34 34s35 -14 35 -34c0 -19 -15 -34 -35 -34
s-34 15 -34 34zM124 -53v19c0 10 6 16 14 16c9 0 15 -6 15 -16v-19h-29zM131 118l39 14v-28z" />
    <glyph glyph-name="zcaron" unicode="&#x17e;" 
d="M125 -92v-30h86v-24h-86v-30h-22v84h22zM100 433c0 -33 25 -58 57 -58s57 25 57 58s-25 58 -57 58s-57 -25 -57 -58zM103 -76h108v23h-37v16l37 21v26l-41 -24c-6 12 -17 20 -31 20c-21 0 -36 -16 -36 -38v-44zM103 26v24h108v-24h-108zM103 106l108 -42v25l-20 7v43
l20 8v26l-108 -44v-23zM103 186h108v66h-21v-42h-87v-24zM103 300h108v23h-41v38h-22v-38h-23v42h-22v-65zM103 509h108v23h-68l68 50v19h-108v-23h66l-66 -47v-22zM103 617h22v30h86v24h-86v30h-22v-84zM123 433c0 20 14 34 34 34s35 -14 35 -34c0 -19 -15 -34 -35 -34
s-34 15 -34 34zM124 -53v19c0 10 6 16 14 16c9 0 15 -6 15 -16v-19h-29zM131 118l39 14v-28z" />
    <glyph glyph-name="zdotaccent" unicode="&#x17c;" 
d="M125 -92v-30h86v-24h-86v-30h-22v84h22zM100 433c0 -33 25 -58 57 -58s57 25 57 58s-25 58 -57 58s-57 -25 -57 -58zM103 -76h108v23h-37v16l37 21v26l-41 -24c-6 12 -17 20 -31 20c-21 0 -36 -16 -36 -38v-44zM103 26v24h108v-24h-108zM103 106l108 -42v25l-20 7v43
l20 8v26l-108 -44v-23zM103 186h108v66h-21v-42h-87v-24zM103 300h108v23h-41v38h-22v-38h-23v42h-22v-65zM103 509h108v23h-68l68 50v19h-108v-23h66l-66 -47v-22zM103 617h22v30h86v24h-86v30h-22v-84zM123 433c0 20 14 34 34 34s35 -14 35 -34c0 -19 -15 -34 -35 -34
s-34 15 -34 34zM124 -53v19c0 10 6 16 14 16c9 0 15 -6 15 -16v-19h-29zM131 118l39 14v-28z" />
    <glyph glyph-name="a.ss01" 
d="M125 -92v-30h86v-24h-86v-30h-22v84h22zM100 433c0 -33 25 -58 57 -58s57 25 57 58s-25 58 -57 58s-57 -25 -57 -58zM103 -76h108v23h-37v16l37 21v26l-41 -24c-6 12 -17 20 -31 20c-21 0 -36 -16 -36 -38v-44zM103 26v24h108v-24h-108zM103 106l108 -42v25l-20 7v43
l20 8v26l-108 -44v-23zM103 186h108v66h-21v-42h-87v-24zM103 300h108v23h-41v38h-22v-38h-23v42h-22v-65zM103 509h108v23h-68l68 50v19h-108v-23h66l-66 -47v-22zM103 617h22v30h86v24h-86v30h-22v-84zM123 433c0 20 14 34 34 34s35 -14 35 -34c0 -19 -15 -34 -35 -34
s-34 15 -34 34zM124 -53v19c0 10 6 16 14 16c9 0 15 -6 15 -16v-19h-29zM131 118l39 14v-28z" />
    <glyph glyph-name="aacute.ss01" 
d="M125 -92v-30h86v-24h-86v-30h-22v84h22zM100 433c0 -33 25 -58 57 -58s57 25 57 58s-25 58 -57 58s-57 -25 -57 -58zM103 -76h108v23h-37v16l37 21v26l-41 -24c-6 12 -17 20 -31 20c-21 0 -36 -16 -36 -38v-44zM103 26v24h108v-24h-108zM103 106l108 -42v25l-20 7v43
l20 8v26l-108 -44v-23zM103 186h108v66h-21v-42h-87v-24zM103 300h108v23h-41v38h-22v-38h-23v42h-22v-65zM103 509h108v23h-68l68 50v19h-108v-23h66l-66 -47v-22zM103 617h22v30h86v24h-86v30h-22v-84zM123 433c0 20 14 34 34 34s35 -14 35 -34c0 -19 -15 -34 -35 -34
s-34 15 -34 34zM124 -53v19c0 10 6 16 14 16c9 0 15 -6 15 -16v-19h-29zM131 118l39 14v-28z" />
    <glyph glyph-name="abreve.ss01" 
d="M125 -92v-30h86v-24h-86v-30h-22v84h22zM100 433c0 -33 25 -58 57 -58s57 25 57 58s-25 58 -57 58s-57 -25 -57 -58zM103 -76h108v23h-37v16l37 21v26l-41 -24c-6 12 -17 20 -31 20c-21 0 -36 -16 -36 -38v-44zM103 26v24h108v-24h-108zM103 106l108 -42v25l-20 7v43
l20 8v26l-108 -44v-23zM103 186h108v66h-21v-42h-87v-24zM103 300h108v23h-41v38h-22v-38h-23v42h-22v-65zM103 509h108v23h-68l68 50v19h-108v-23h66l-66 -47v-22zM103 617h22v30h86v24h-86v30h-22v-84zM123 433c0 20 14 34 34 34s35 -14 35 -34c0 -19 -15 -34 -35 -34
s-34 15 -34 34zM124 -53v19c0 10 6 16 14 16c9 0 15 -6 15 -16v-19h-29zM131 118l39 14v-28z" />
    <glyph glyph-name="acircumflex.ss01" 
d="M125 -92v-30h86v-24h-86v-30h-22v84h22zM100 433c0 -33 25 -58 57 -58s57 25 57 58s-25 58 -57 58s-57 -25 -57 -58zM103 -76h108v23h-37v16l37 21v26l-41 -24c-6 12 -17 20 -31 20c-21 0 -36 -16 -36 -38v-44zM103 26v24h108v-24h-108zM103 106l108 -42v25l-20 7v43
l20 8v26l-108 -44v-23zM103 186h108v66h-21v-42h-87v-24zM103 300h108v23h-41v38h-22v-38h-23v42h-22v-65zM103 509h108v23h-68l68 50v19h-108v-23h66l-66 -47v-22zM103 617h22v30h86v24h-86v30h-22v-84zM123 433c0 20 14 34 34 34s35 -14 35 -34c0 -19 -15 -34 -35 -34
s-34 15 -34 34zM124 -53v19c0 10 6 16 14 16c9 0 15 -6 15 -16v-19h-29zM131 118l39 14v-28z" />
    <glyph glyph-name="adieresis.ss01" 
d="M125 -92v-30h86v-24h-86v-30h-22v84h22zM100 433c0 -33 25 -58 57 -58s57 25 57 58s-25 58 -57 58s-57 -25 -57 -58zM103 -76h108v23h-37v16l37 21v26l-41 -24c-6 12 -17 20 -31 20c-21 0 -36 -16 -36 -38v-44zM103 26v24h108v-24h-108zM103 106l108 -42v25l-20 7v43
l20 8v26l-108 -44v-23zM103 186h108v66h-21v-42h-87v-24zM103 300h108v23h-41v38h-22v-38h-23v42h-22v-65zM103 509h108v23h-68l68 50v19h-108v-23h66l-66 -47v-22zM103 617h22v30h86v24h-86v30h-22v-84zM123 433c0 20 14 34 34 34s35 -14 35 -34c0 -19 -15 -34 -35 -34
s-34 15 -34 34zM124 -53v19c0 10 6 16 14 16c9 0 15 -6 15 -16v-19h-29zM131 118l39 14v-28z" />
    <glyph glyph-name="agrave.ss01" 
d="M125 -92v-30h86v-24h-86v-30h-22v84h22zM100 433c0 -33 25 -58 57 -58s57 25 57 58s-25 58 -57 58s-57 -25 -57 -58zM103 -76h108v23h-37v16l37 21v26l-41 -24c-6 12 -17 20 -31 20c-21 0 -36 -16 -36 -38v-44zM103 26v24h108v-24h-108zM103 106l108 -42v25l-20 7v43
l20 8v26l-108 -44v-23zM103 186h108v66h-21v-42h-87v-24zM103 300h108v23h-41v38h-22v-38h-23v42h-22v-65zM103 509h108v23h-68l68 50v19h-108v-23h66l-66 -47v-22zM103 617h22v30h86v24h-86v30h-22v-84zM123 433c0 20 14 34 34 34s35 -14 35 -34c0 -19 -15 -34 -35 -34
s-34 15 -34 34zM124 -53v19c0 10 6 16 14 16c9 0 15 -6 15 -16v-19h-29zM131 118l39 14v-28z" />
    <glyph glyph-name="amacron.ss01" 
d="M125 -92v-30h86v-24h-86v-30h-22v84h22zM100 433c0 -33 25 -58 57 -58s57 25 57 58s-25 58 -57 58s-57 -25 -57 -58zM103 -76h108v23h-37v16l37 21v26l-41 -24c-6 12 -17 20 -31 20c-21 0 -36 -16 -36 -38v-44zM103 26v24h108v-24h-108zM103 106l108 -42v25l-20 7v43
l20 8v26l-108 -44v-23zM103 186h108v66h-21v-42h-87v-24zM103 300h108v23h-41v38h-22v-38h-23v42h-22v-65zM103 509h108v23h-68l68 50v19h-108v-23h66l-66 -47v-22zM103 617h22v30h86v24h-86v30h-22v-84zM123 433c0 20 14 34 34 34s35 -14 35 -34c0 -19 -15 -34 -35 -34
s-34 15 -34 34zM124 -53v19c0 10 6 16 14 16c9 0 15 -6 15 -16v-19h-29zM131 118l39 14v-28z" />
    <glyph glyph-name="aogonek.ss01" 
d="M125 -92v-30h86v-24h-86v-30h-22v84h22zM100 433c0 -33 25 -58 57 -58s57 25 57 58s-25 58 -57 58s-57 -25 -57 -58zM103 -76h108v23h-37v16l37 21v26l-41 -24c-6 12 -17 20 -31 20c-21 0 -36 -16 -36 -38v-44zM103 26v24h108v-24h-108zM103 106l108 -42v25l-20 7v43
l20 8v26l-108 -44v-23zM103 186h108v66h-21v-42h-87v-24zM103 300h108v23h-41v38h-22v-38h-23v42h-22v-65zM103 509h108v23h-68l68 50v19h-108v-23h66l-66 -47v-22zM103 617h22v30h86v24h-86v30h-22v-84zM123 433c0 20 14 34 34 34s35 -14 35 -34c0 -19 -15 -34 -35 -34
s-34 15 -34 34zM124 -53v19c0 10 6 16 14 16c9 0 15 -6 15 -16v-19h-29zM131 118l39 14v-28z" />
    <glyph glyph-name="aring.ss01" 
d="M125 -92v-30h86v-24h-86v-30h-22v84h22zM100 433c0 -33 25 -58 57 -58s57 25 57 58s-25 58 -57 58s-57 -25 -57 -58zM103 -76h108v23h-37v16l37 21v26l-41 -24c-6 12 -17 20 -31 20c-21 0 -36 -16 -36 -38v-44zM103 26v24h108v-24h-108zM103 106l108 -42v25l-20 7v43
l20 8v26l-108 -44v-23zM103 186h108v66h-21v-42h-87v-24zM103 300h108v23h-41v38h-22v-38h-23v42h-22v-65zM103 509h108v23h-68l68 50v19h-108v-23h66l-66 -47v-22zM103 617h22v30h86v24h-86v30h-22v-84zM123 433c0 20 14 34 34 34s35 -14 35 -34c0 -19 -15 -34 -35 -34
s-34 15 -34 34zM124 -53v19c0 10 6 16 14 16c9 0 15 -6 15 -16v-19h-29zM131 118l39 14v-28z" />
    <glyph glyph-name="atilde.ss01" 
d="M125 -92v-30h86v-24h-86v-30h-22v84h22zM100 433c0 -33 25 -58 57 -58s57 25 57 58s-25 58 -57 58s-57 -25 -57 -58zM103 -76h108v23h-37v16l37 21v26l-41 -24c-6 12 -17 20 -31 20c-21 0 -36 -16 -36 -38v-44zM103 26v24h108v-24h-108zM103 106l108 -42v25l-20 7v43
l20 8v26l-108 -44v-23zM103 186h108v66h-21v-42h-87v-24zM103 300h108v23h-41v38h-22v-38h-23v42h-22v-65zM103 509h108v23h-68l68 50v19h-108v-23h66l-66 -47v-22zM103 617h22v30h86v24h-86v30h-22v-84zM123 433c0 20 14 34 34 34s35 -14 35 -34c0 -19 -15 -34 -35 -34
s-34 15 -34 34zM124 -53v19c0 10 6 16 14 16c9 0 15 -6 15 -16v-19h-29zM131 118l39 14v-28z" />
    <glyph glyph-name="ae.ss01" 
d="M125 -92v-30h86v-24h-86v-30h-22v84h22zM100 433c0 -33 25 -58 57 -58s57 25 57 58s-25 58 -57 58s-57 -25 -57 -58zM103 -76h108v23h-37v16l37 21v26l-41 -24c-6 12 -17 20 -31 20c-21 0 -36 -16 -36 -38v-44zM103 26v24h108v-24h-108zM103 106l108 -42v25l-20 7v43
l20 8v26l-108 -44v-23zM103 186h108v66h-21v-42h-87v-24zM103 300h108v23h-41v38h-22v-38h-23v42h-22v-65zM103 509h108v23h-68l68 50v19h-108v-23h66l-66 -47v-22zM103 617h22v30h86v24h-86v30h-22v-84zM123 433c0 20 14 34 34 34s35 -14 35 -34c0 -19 -15 -34 -35 -34
s-34 15 -34 34zM124 -53v19c0 10 6 16 14 16c9 0 15 -6 15 -16v-19h-29zM131 118l39 14v-28z" />
    <glyph glyph-name="y.ss01" 
d="M125 -92v-30h86v-24h-86v-30h-22v84h22zM100 433c0 -33 25 -58 57 -58s57 25 57 58s-25 58 -57 58s-57 -25 -57 -58zM103 -76h108v23h-37v16l37 21v26l-41 -24c-6 12 -17 20 -31 20c-21 0 -36 -16 -36 -38v-44zM103 26v24h108v-24h-108zM103 106l108 -42v25l-20 7v43
l20 8v26l-108 -44v-23zM103 186h108v66h-21v-42h-87v-24zM103 300h108v23h-41v38h-22v-38h-23v42h-22v-65zM103 509h108v23h-68l68 50v19h-108v-23h66l-66 -47v-22zM103 617h22v30h86v24h-86v30h-22v-84zM123 433c0 20 14 34 34 34s35 -14 35 -34c0 -19 -15 -34 -35 -34
s-34 15 -34 34zM124 -53v19c0 10 6 16 14 16c9 0 15 -6 15 -16v-19h-29zM131 118l39 14v-28z" />
    <glyph glyph-name="yacute.ss01" 
d="M125 -92v-30h86v-24h-86v-30h-22v84h22zM100 433c0 -33 25 -58 57 -58s57 25 57 58s-25 58 -57 58s-57 -25 -57 -58zM103 -76h108v23h-37v16l37 21v26l-41 -24c-6 12 -17 20 -31 20c-21 0 -36 -16 -36 -38v-44zM103 26v24h108v-24h-108zM103 106l108 -42v25l-20 7v43
l20 8v26l-108 -44v-23zM103 186h108v66h-21v-42h-87v-24zM103 300h108v23h-41v38h-22v-38h-23v42h-22v-65zM103 509h108v23h-68l68 50v19h-108v-23h66l-66 -47v-22zM103 617h22v30h86v24h-86v30h-22v-84zM123 433c0 20 14 34 34 34s35 -14 35 -34c0 -19 -15 -34 -35 -34
s-34 15 -34 34zM124 -53v19c0 10 6 16 14 16c9 0 15 -6 15 -16v-19h-29zM131 118l39 14v-28z" />
    <glyph glyph-name="ycircumflex.ss01" 
d="M125 -92v-30h86v-24h-86v-30h-22v84h22zM100 433c0 -33 25 -58 57 -58s57 25 57 58s-25 58 -57 58s-57 -25 -57 -58zM103 -76h108v23h-37v16l37 21v26l-41 -24c-6 12 -17 20 -31 20c-21 0 -36 -16 -36 -38v-44zM103 26v24h108v-24h-108zM103 106l108 -42v25l-20 7v43
l20 8v26l-108 -44v-23zM103 186h108v66h-21v-42h-87v-24zM103 300h108v23h-41v38h-22v-38h-23v42h-22v-65zM103 509h108v23h-68l68 50v19h-108v-23h66l-66 -47v-22zM103 617h22v30h86v24h-86v30h-22v-84zM123 433c0 20 14 34 34 34s35 -14 35 -34c0 -19 -15 -34 -35 -34
s-34 15 -34 34zM124 -53v19c0 10 6 16 14 16c9 0 15 -6 15 -16v-19h-29zM131 118l39 14v-28z" />
    <glyph glyph-name="ydieresis.ss01" 
d="M125 -92v-30h86v-24h-86v-30h-22v84h22zM100 433c0 -33 25 -58 57 -58s57 25 57 58s-25 58 -57 58s-57 -25 -57 -58zM103 -76h108v23h-37v16l37 21v26l-41 -24c-6 12 -17 20 -31 20c-21 0 -36 -16 -36 -38v-44zM103 26v24h108v-24h-108zM103 106l108 -42v25l-20 7v43
l20 8v26l-108 -44v-23zM103 186h108v66h-21v-42h-87v-24zM103 300h108v23h-41v38h-22v-38h-23v42h-22v-65zM103 509h108v23h-68l68 50v19h-108v-23h66l-66 -47v-22zM103 617h22v30h86v24h-86v30h-22v-84zM123 433c0 20 14 34 34 34s35 -14 35 -34c0 -19 -15 -34 -35 -34
s-34 15 -34 34zM124 -53v19c0 10 6 16 14 16c9 0 15 -6 15 -16v-19h-29zM131 118l39 14v-28z" />
    <glyph glyph-name="ygrave.ss01" 
d="M125 -92v-30h86v-24h-86v-30h-22v84h22zM100 433c0 -33 25 -58 57 -58s57 25 57 58s-25 58 -57 58s-57 -25 -57 -58zM103 -76h108v23h-37v16l37 21v26l-41 -24c-6 12 -17 20 -31 20c-21 0 -36 -16 -36 -38v-44zM103 26v24h108v-24h-108zM103 106l108 -42v25l-20 7v43
l20 8v26l-108 -44v-23zM103 186h108v66h-21v-42h-87v-24zM103 300h108v23h-41v38h-22v-38h-23v42h-22v-65zM103 509h108v23h-68l68 50v19h-108v-23h66l-66 -47v-22zM103 617h22v30h86v24h-86v30h-22v-84zM123 433c0 20 14 34 34 34s35 -14 35 -34c0 -19 -15 -34 -35 -34
s-34 15 -34 34zM124 -53v19c0 10 6 16 14 16c9 0 15 -6 15 -16v-19h-29zM131 118l39 14v-28z" />
    <glyph glyph-name="f_b" 
d="M125 -92v-30h86v-24h-86v-30h-22v84h22zM100 433c0 -33 25 -58 57 -58s57 25 57 58s-25 58 -57 58s-57 -25 -57 -58zM103 -76h108v23h-37v16l37 21v26l-41 -24c-6 12 -17 20 -31 20c-21 0 -36 -16 -36 -38v-44zM103 26v24h108v-24h-108zM103 106l108 -42v25l-20 7v43
l20 8v26l-108 -44v-23zM103 186h108v66h-21v-42h-87v-24zM103 300h108v23h-41v38h-22v-38h-23v42h-22v-65zM103 509h108v23h-68l68 50v19h-108v-23h66l-66 -47v-22zM103 617h22v30h86v24h-86v30h-22v-84zM123 433c0 20 14 34 34 34s35 -14 35 -34c0 -19 -15 -34 -35 -34
s-34 15 -34 34zM124 -53v19c0 10 6 16 14 16c9 0 15 -6 15 -16v-19h-29zM131 118l39 14v-28z" />
    <glyph glyph-name="f_f_b" 
d="M125 -92v-30h86v-24h-86v-30h-22v84h22zM100 433c0 -33 25 -58 57 -58s57 25 57 58s-25 58 -57 58s-57 -25 -57 -58zM103 -76h108v23h-37v16l37 21v26l-41 -24c-6 12 -17 20 -31 20c-21 0 -36 -16 -36 -38v-44zM103 26v24h108v-24h-108zM103 106l108 -42v25l-20 7v43
l20 8v26l-108 -44v-23zM103 186h108v66h-21v-42h-87v-24zM103 300h108v23h-41v38h-22v-38h-23v42h-22v-65zM103 509h108v23h-68l68 50v19h-108v-23h66l-66 -47v-22zM103 617h22v30h86v24h-86v30h-22v-84zM123 433c0 20 14 34 34 34s35 -14 35 -34c0 -19 -15 -34 -35 -34
s-34 15 -34 34zM124 -53v19c0 10 6 16 14 16c9 0 15 -6 15 -16v-19h-29zM131 118l39 14v-28z" />
    <glyph glyph-name="f_f_h" 
d="M125 -92v-30h86v-24h-86v-30h-22v84h22zM100 433c0 -33 25 -58 57 -58s57 25 57 58s-25 58 -57 58s-57 -25 -57 -58zM103 -76h108v23h-37v16l37 21v26l-41 -24c-6 12 -17 20 -31 20c-21 0 -36 -16 -36 -38v-44zM103 26v24h108v-24h-108zM103 106l108 -42v25l-20 7v43
l20 8v26l-108 -44v-23zM103 186h108v66h-21v-42h-87v-24zM103 300h108v23h-41v38h-22v-38h-23v42h-22v-65zM103 509h108v23h-68l68 50v19h-108v-23h66l-66 -47v-22zM103 617h22v30h86v24h-86v30h-22v-84zM123 433c0 20 14 34 34 34s35 -14 35 -34c0 -19 -15 -34 -35 -34
s-34 15 -34 34zM124 -53v19c0 10 6 16 14 16c9 0 15 -6 15 -16v-19h-29zM131 118l39 14v-28z" />
    <glyph glyph-name="f_f_j" 
d="M125 -92v-30h86v-24h-86v-30h-22v84h22zM100 433c0 -33 25 -58 57 -58s57 25 57 58s-25 58 -57 58s-57 -25 -57 -58zM103 -76h108v23h-37v16l37 21v26l-41 -24c-6 12 -17 20 -31 20c-21 0 -36 -16 -36 -38v-44zM103 26v24h108v-24h-108zM103 106l108 -42v25l-20 7v43
l20 8v26l-108 -44v-23zM103 186h108v66h-21v-42h-87v-24zM103 300h108v23h-41v38h-22v-38h-23v42h-22v-65zM103 509h108v23h-68l68 50v19h-108v-23h66l-66 -47v-22zM103 617h22v30h86v24h-86v30h-22v-84zM123 433c0 20 14 34 34 34s35 -14 35 -34c0 -19 -15 -34 -35 -34
s-34 15 -34 34zM124 -53v19c0 10 6 16 14 16c9 0 15 -6 15 -16v-19h-29zM131 118l39 14v-28z" />
    <glyph glyph-name="f_f_k" 
d="M125 -92v-30h86v-24h-86v-30h-22v84h22zM100 433c0 -33 25 -58 57 -58s57 25 57 58s-25 58 -57 58s-57 -25 -57 -58zM103 -76h108v23h-37v16l37 21v26l-41 -24c-6 12 -17 20 -31 20c-21 0 -36 -16 -36 -38v-44zM103 26v24h108v-24h-108zM103 106l108 -42v25l-20 7v43
l20 8v26l-108 -44v-23zM103 186h108v66h-21v-42h-87v-24zM103 300h108v23h-41v38h-22v-38h-23v42h-22v-65zM103 509h108v23h-68l68 50v19h-108v-23h66l-66 -47v-22zM103 617h22v30h86v24h-86v30h-22v-84zM123 433c0 20 14 34 34 34s35 -14 35 -34c0 -19 -15 -34 -35 -34
s-34 15 -34 34zM124 -53v19c0 10 6 16 14 16c9 0 15 -6 15 -16v-19h-29zM131 118l39 14v-28z" />
    <glyph glyph-name="f_h" 
d="M125 -92v-30h86v-24h-86v-30h-22v84h22zM100 433c0 -33 25 -58 57 -58s57 25 57 58s-25 58 -57 58s-57 -25 -57 -58zM103 -76h108v23h-37v16l37 21v26l-41 -24c-6 12 -17 20 -31 20c-21 0 -36 -16 -36 -38v-44zM103 26v24h108v-24h-108zM103 106l108 -42v25l-20 7v43
l20 8v26l-108 -44v-23zM103 186h108v66h-21v-42h-87v-24zM103 300h108v23h-41v38h-22v-38h-23v42h-22v-65zM103 509h108v23h-68l68 50v19h-108v-23h66l-66 -47v-22zM103 617h22v30h86v24h-86v30h-22v-84zM123 433c0 20 14 34 34 34s35 -14 35 -34c0 -19 -15 -34 -35 -34
s-34 15 -34 34zM124 -53v19c0 10 6 16 14 16c9 0 15 -6 15 -16v-19h-29zM131 118l39 14v-28z" />
    <glyph glyph-name="f_j" 
d="M125 -92v-30h86v-24h-86v-30h-22v84h22zM100 433c0 -33 25 -58 57 -58s57 25 57 58s-25 58 -57 58s-57 -25 -57 -58zM103 -76h108v23h-37v16l37 21v26l-41 -24c-6 12 -17 20 -31 20c-21 0 -36 -16 -36 -38v-44zM103 26v24h108v-24h-108zM103 106l108 -42v25l-20 7v43
l20 8v26l-108 -44v-23zM103 186h108v66h-21v-42h-87v-24zM103 300h108v23h-41v38h-22v-38h-23v42h-22v-65zM103 509h108v23h-68l68 50v19h-108v-23h66l-66 -47v-22zM103 617h22v30h86v24h-86v30h-22v-84zM123 433c0 20 14 34 34 34s35 -14 35 -34c0 -19 -15 -34 -35 -34
s-34 15 -34 34zM124 -53v19c0 10 6 16 14 16c9 0 15 -6 15 -16v-19h-29zM131 118l39 14v-28z" />
    <glyph glyph-name="f_k" 
d="M125 -92v-30h86v-24h-86v-30h-22v84h22zM100 433c0 -33 25 -58 57 -58s57 25 57 58s-25 58 -57 58s-57 -25 -57 -58zM103 -76h108v23h-37v16l37 21v26l-41 -24c-6 12 -17 20 -31 20c-21 0 -36 -16 -36 -38v-44zM103 26v24h108v-24h-108zM103 106l108 -42v25l-20 7v43
l20 8v26l-108 -44v-23zM103 186h108v66h-21v-42h-87v-24zM103 300h108v23h-41v38h-22v-38h-23v42h-22v-65zM103 509h108v23h-68l68 50v19h-108v-23h66l-66 -47v-22zM103 617h22v30h86v24h-86v30h-22v-84zM123 433c0 20 14 34 34 34s35 -14 35 -34c0 -19 -15 -34 -35 -34
s-34 15 -34 34zM124 -53v19c0 10 6 16 14 16c9 0 15 -6 15 -16v-19h-29zM131 118l39 14v-28z" />
    <glyph glyph-name="uni0410" unicode="&#x410;" horiz-adv-x="752" 
d="M1 0l275 700h200l275 -700h-190l-40 110h-290l-40 -110h-190zM286 260h180l-72 202c-6 17 -12 35 -18 71c-6 -36 -12 -54 -18 -71z" />
    <glyph glyph-name="uni0411" unicode="&#x411;" horiz-adv-x="680" 
d="M66 0v700h531v-165h-346v-83h138c142 0 267 -51 267 -226s-125 -226 -267 -226h-323zM251 160h136c43 0 79 12 79 66s-36 66 -79 66h-136v-132z" />
    <glyph glyph-name="uni0412" unicode="&#x412;" horiz-adv-x="684" 
d="M66 0v700h316c153 0 245 -56 245 -177c0 -77 -37 -128 -104 -152c75 -22 132 -76 132 -173c0 -159 -152 -198 -285 -198h-304zM250 145h126c56 0 93 18 93 73s-37 73 -93 73h-126v-146zM251 426l114 -1c49 0 77 25 77 65s-28 65 -77 65h-114v-129z" />
    <glyph glyph-name="uni0413" unicode="&#x413;" horiz-adv-x="582" 
d="M66 0v700h505v-165h-320v-535h-185z" />
    <glyph glyph-name="uni0403" unicode="&#x403;" 
d="M125 -92v-30h86v-24h-86v-30h-22v84h22zM100 433c0 -33 25 -58 57 -58s57 25 57 58s-25 58 -57 58s-57 -25 -57 -58zM103 -76h108v23h-37v16l37 21v26l-41 -24c-6 12 -17 20 -31 20c-21 0 -36 -16 -36 -38v-44zM103 26v24h108v-24h-108zM103 106l108 -42v25l-20 7v43
l20 8v26l-108 -44v-23zM103 186h108v66h-21v-42h-87v-24zM103 300h108v23h-41v38h-22v-38h-23v42h-22v-65zM103 509h108v23h-68l68 50v19h-108v-23h66l-66 -47v-22zM103 617h22v30h86v24h-86v30h-22v-84zM123 433c0 20 14 34 34 34s35 -14 35 -34c0 -19 -15 -34 -35 -34
s-34 15 -34 34zM124 -53v19c0 10 6 16 14 16c9 0 15 -6 15 -16v-19h-29zM131 118l39 14v-28z" />
    <glyph glyph-name="uni0490" unicode="&#x490;" 
d="M125 -92v-30h86v-24h-86v-30h-22v84h22zM100 433c0 -33 25 -58 57 -58s57 25 57 58s-25 58 -57 58s-57 -25 -57 -58zM103 -76h108v23h-37v16l37 21v26l-41 -24c-6 12 -17 20 -31 20c-21 0 -36 -16 -36 -38v-44zM103 26v24h108v-24h-108zM103 106l108 -42v25l-20 7v43
l20 8v26l-108 -44v-23zM103 186h108v66h-21v-42h-87v-24zM103 300h108v23h-41v38h-22v-38h-23v42h-22v-65zM103 509h108v23h-68l68 50v19h-108v-23h66l-66 -47v-22zM103 617h22v30h86v24h-86v30h-22v-84zM123 433c0 20 14 34 34 34s35 -14 35 -34c0 -19 -15 -34 -35 -34
s-34 15 -34 34zM124 -53v19c0 10 6 16 14 16c9 0 15 -6 15 -16v-19h-29zM131 118l39 14v-28z" />
    <glyph glyph-name="uni0414" unicode="&#x414;" horiz-adv-x="829" 
d="M21 -145v305h80c90 160 110 355 110 540h500v-540h90v-305h-160v145h-460v-145h-160zM296 160h230v375h-145c-10 -137 -30 -273 -85 -375z" />
    <glyph glyph-name="uni0415" unicode="&#x415;" horiz-adv-x="617" 
d="M66 0v700h504v-160h-319v-107h289v-159h-289v-114h325v-160h-510z" />
    <glyph glyph-name="uni0401" unicode="&#x401;" horiz-adv-x="617" 
d="M478 746c-47 0 -85 38 -85 85s38 85 85 85s85 -38 85 -85s-38 -85 -85 -85zM66 0v700h504v-160h-319v-107h289v-159h-289v-114h325v-160h-510zM173 831c0 47 38 85 85 85s85 -38 85 -85s-38 -85 -85 -85s-85 38 -85 85z" />
    <glyph glyph-name="uni0416" unicode="&#x416;" horiz-adv-x="1013" 
d="M2 0l200 359l-190 341h205l136 -265h61v265h185v-265h61l136 265h205l-190 -341l200 -359h-205l-147 270h-60v-270h-185v270h-60l-147 -270h-205z" />
    <glyph glyph-name="uni0417" unicode="&#x417;" horiz-adv-x="629" 
d="M302 -15c-77 0 -164 11 -265 46v175c100 -49 184 -57 250 -56c66 0 124 16 124 70c0 46 -37 59 -93 59h-166l1 160l154 -1c49 0 77 16 77 51c0 40 -36 61 -115 61c-56 1 -130 -12 -220 -56v175c86 35 168 46 235 46c173 0 285 -63 285 -194c0 -73 -40 -125 -110 -149
c78 -24 138 -81 138 -181c0 -159 -152 -206 -295 -206z" />
    <glyph glyph-name="uni0418" unicode="&#x418;" horiz-adv-x="762" 
d="M696 0h-185v286c0 38 1 82 4 115l-274 -401h-175v700h185v-286c0 -39 -1 -83 -4 -116l274 402h175v-700z" />
    <glyph glyph-name="uni0419" unicode="&#x419;" horiz-adv-x="762" 
d="M696 0h-185v286c0 38 1 82 4 115l-274 -401h-175v700h185v-286c0 -39 -1 -83 -4 -116l274 402h175v-700zM216 785v126c54 -33 108 -42 165 -42s111 9 165 42v-126c-43 -29 -91 -46 -165 -46s-122 17 -165 46z" />
    <glyph glyph-name="uni040D" unicode="&#x40d;" 
d="M125 -92v-30h86v-24h-86v-30h-22v84h22zM100 433c0 -33 25 -58 57 -58s57 25 57 58s-25 58 -57 58s-57 -25 -57 -58zM103 -76h108v23h-37v16l37 21v26l-41 -24c-6 12 -17 20 -31 20c-21 0 -36 -16 -36 -38v-44zM103 26v24h108v-24h-108zM103 106l108 -42v25l-20 7v43
l20 8v26l-108 -44v-23zM103 186h108v66h-21v-42h-87v-24zM103 300h108v23h-41v38h-22v-38h-23v42h-22v-65zM103 509h108v23h-68l68 50v19h-108v-23h66l-66 -47v-22zM103 617h22v30h86v24h-86v30h-22v-84zM123 433c0 20 14 34 34 34s35 -14 35 -34c0 -19 -15 -34 -35 -34
s-34 15 -34 34zM124 -53v19c0 10 6 16 14 16c9 0 15 -6 15 -16v-19h-29zM131 118l39 14v-28z" />
    <glyph glyph-name="uni041A" unicode="&#x41a;" horiz-adv-x="706" 
d="M66 0v700h185v-265h88l159 265h205l-220 -341l230 -359h-205l-170 270h-87v-270h-185z" />
    <glyph glyph-name="uni040C" unicode="&#x40c;" 
d="M125 -92v-30h86v-24h-86v-30h-22v84h22zM100 433c0 -33 25 -58 57 -58s57 25 57 58s-25 58 -57 58s-57 -25 -57 -58zM103 -76h108v23h-37v16l37 21v26l-41 -24c-6 12 -17 20 -31 20c-21 0 -36 -16 -36 -38v-44zM103 26v24h108v-24h-108zM103 106l108 -42v25l-20 7v43
l20 8v26l-108 -44v-23zM103 186h108v66h-21v-42h-87v-24zM103 300h108v23h-41v38h-22v-38h-23v42h-22v-65zM103 509h108v23h-68l68 50v19h-108v-23h66l-66 -47v-22zM103 617h22v30h86v24h-86v30h-22v-84zM123 433c0 20 14 34 34 34s35 -14 35 -34c0 -19 -15 -34 -35 -34
s-34 15 -34 34zM124 -53v19c0 10 6 16 14 16c9 0 15 -6 15 -16v-19h-29zM131 118l39 14v-28z" />
    <glyph glyph-name="uni041B" unicode="&#x41b;" horiz-adv-x="754" 
d="M94 -9c-26 0 -55 4 -86 14v161c13 -4 29 -6 48 -4c113 12 111 326 127 538h505v-700h-185v535h-151c-22 -287 -57 -543 -258 -544z" />
    <glyph glyph-name="uni041C" unicode="&#x41c;" horiz-adv-x="908" 
d="M66 0v700h175l213 -328l213 328h175v-700h-185v372l-150 -230h-106l-150 231v-373h-185z" />
    <glyph glyph-name="uni041D" unicode="&#x41d;" horiz-adv-x="762" 
d="M66 0v700h185v-268h260v268h185v-700h-185v267h-260v-267h-185z" />
    <glyph glyph-name="uni041E" unicode="&#x41e;" horiz-adv-x="812" 
d="M406 -15c-250 0 -375 170 -375 365s125 365 375 365s375 -170 375 -365s-125 -365 -375 -365zM221 350c0 -112 64 -195 185 -195s185 83 185 195s-64 195 -185 195s-185 -83 -185 -195z" />
    <glyph glyph-name="uni041F" unicode="&#x41f;" horiz-adv-x="762" 
d="M66 0v700h630v-700h-185v535h-260v-535h-185z" />
    <glyph glyph-name="uni0420" unicode="&#x420;" horiz-adv-x="668" 
d="M66 0v700h277c173 0 305 -56 305 -240s-132 -239 -305 -240h-92v-220h-185zM251 380h101c56 0 106 17 106 80s-50 80 -106 80h-101v-160z" />
    <glyph glyph-name="uni0421" unicode="&#x421;" horiz-adv-x="655" 
d="M415 -15c-192 0 -383 105 -383 355c0 264 190 375 379 375c71 0 142 -15 203 -44v-175c-43 36 -107 57 -171 57c-111 0 -221 -61 -221 -213c0 -136 110 -192 219 -192c72 0 138 22 178 61v-180c-61 -29 -130 -44 -204 -44z" />
    <glyph glyph-name="uni0422" unicode="&#x422;" horiz-adv-x="606" 
d="M211 0v535h-198v165h580v-165h-197v-535h-185z" />
    <glyph glyph-name="uni0423" unicode="&#x423;" horiz-adv-x="685" 
d="M200 -15c-36 0 -74 8 -112 19v153c24 -9 54 -14 81 -14c44 0 75 12 91 48l11 24l-273 485h205l154 -319l126 319h205l-253 -540c-63 -135 -140 -175 -235 -175z" />
    <glyph glyph-name="uni040E" unicode="&#x40e;" 
d="M125 -92v-30h86v-24h-86v-30h-22v84h22zM100 433c0 -33 25 -58 57 -58s57 25 57 58s-25 58 -57 58s-57 -25 -57 -58zM103 -76h108v23h-37v16l37 21v26l-41 -24c-6 12 -17 20 -31 20c-21 0 -36 -16 -36 -38v-44zM103 26v24h108v-24h-108zM103 106l108 -42v25l-20 7v43
l20 8v26l-108 -44v-23zM103 186h108v66h-21v-42h-87v-24zM103 300h108v23h-41v38h-22v-38h-23v42h-22v-65zM103 509h108v23h-68l68 50v19h-108v-23h66l-66 -47v-22zM103 617h22v30h86v24h-86v30h-22v-84zM123 433c0 20 14 34 34 34s35 -14 35 -34c0 -19 -15 -34 -35 -34
s-34 15 -34 34zM124 -53v19c0 10 6 16 14 16c9 0 15 -6 15 -16v-19h-29zM131 118l39 14v-28z" />
    <glyph glyph-name="uni0424" unicode="&#x424;" horiz-adv-x="884" 
d="M357 46c-207 11 -340 121 -340 304s133 293 340 304v86h175v-86c204 -13 335 -122 335 -304s-131 -291 -335 -304v-86h-175v86zM202 350c0 -66 30 -141 155 -153v306c-125 -12 -155 -87 -155 -153zM532 197c120 14 150 88 150 153s-30 139 -150 153v-306z" />
    <glyph glyph-name="uni0425" unicode="&#x425;" horiz-adv-x="694" 
d="M-11 0l240 364l-225 336h216l127 -206l127 206h216l-225 -336l240 -364h-216l-142 235l-142 -235h-216z" />
    <glyph glyph-name="uni0427" unicode="&#x427;" horiz-adv-x="703" 
d="M452 238c-57 -17 -112 -26 -162 -26c-152 0 -255 78 -255 242v246h185v-236c0 -57 51 -85 117 -85c36 0 76 8 115 24v297h185v-700h-185v238z" />
    <glyph glyph-name="uni0426" unicode="&#x426;" horiz-adv-x="814" 
d="M626 -145v145h-560v700h185v-535h260v535h185v-535h90v-310h-160z" />
    <glyph glyph-name="uni0428" unicode="&#x428;" horiz-adv-x="1047" 
d="M66 0v700h185v-535h180v535h185v-535h180v535h185v-700h-915z" />
    <glyph glyph-name="uni0429" unicode="&#x429;" horiz-adv-x="1099" 
d="M911 -145v145h-845v700h185v-535h180v535h185v-535h180v535h185v-535h90v-310h-160z" />
    <glyph glyph-name="uni040F" unicode="&#x40f;" 
d="M125 -92v-30h86v-24h-86v-30h-22v84h22zM100 433c0 -33 25 -58 57 -58s57 25 57 58s-25 58 -57 58s-57 -25 -57 -58zM103 -76h108v23h-37v16l37 21v26l-41 -24c-6 12 -17 20 -31 20c-21 0 -36 -16 -36 -38v-44zM103 26v24h108v-24h-108zM103 106l108 -42v25l-20 7v43
l20 8v26l-108 -44v-23zM103 186h108v66h-21v-42h-87v-24zM103 300h108v23h-41v38h-22v-38h-23v42h-22v-65zM103 509h108v23h-68l68 50v19h-108v-23h66l-66 -47v-22zM103 617h22v30h86v24h-86v30h-22v-84zM123 433c0 20 14 34 34 34s35 -14 35 -34c0 -19 -15 -34 -35 -34
s-34 15 -34 34zM124 -53v19c0 10 6 16 14 16c9 0 15 -6 15 -16v-19h-29zM131 118l39 14v-28z" />
    <glyph glyph-name="uni042C" unicode="&#x42c;" horiz-adv-x="669" 
d="M66 0v700h185v-220h92c173 -1 305 -56 305 -240s-132 -240 -305 -240h-277zM251 160h101c56 0 106 17 106 80s-50 80 -106 80h-101v-160z" />
    <glyph glyph-name="uni042B" unicode="&#x42b;" horiz-adv-x="944" 
d="M66 0v700h185v-220h92c173 -1 305 -56 305 -240s-132 -240 -305 -240h-277zM251 160h101c56 0 106 17 106 80s-50 80 -106 80h-101v-160zM693 0v700h185v-700h-185z" />
    <glyph glyph-name="uni042A" unicode="&#x42a;" horiz-adv-x="778" 
d="M175 0v535h-160v165h345v-220h92c173 -1 305 -56 305 -240s-132 -240 -305 -240h-277zM360 160h101c56 0 106 17 106 80s-50 80 -106 80h-101v-160z" />
    <glyph glyph-name="uni0409" unicode="&#x409;" 
d="M125 -92v-30h86v-24h-86v-30h-22v84h22zM100 433c0 -33 25 -58 57 -58s57 25 57 58s-25 58 -57 58s-57 -25 -57 -58zM103 -76h108v23h-37v16l37 21v26l-41 -24c-6 12 -17 20 -31 20c-21 0 -36 -16 -36 -38v-44zM103 26v24h108v-24h-108zM103 106l108 -42v25l-20 7v43
l20 8v26l-108 -44v-23zM103 186h108v66h-21v-42h-87v-24zM103 300h108v23h-41v38h-22v-38h-23v42h-22v-65zM103 509h108v23h-68l68 50v19h-108v-23h66l-66 -47v-22zM103 617h22v30h86v24h-86v30h-22v-84zM123 433c0 20 14 34 34 34s35 -14 35 -34c0 -19 -15 -34 -35 -34
s-34 15 -34 34zM124 -53v19c0 10 6 16 14 16c9 0 15 -6 15 -16v-19h-29zM131 118l39 14v-28z" />
    <glyph glyph-name="uni040A" unicode="&#x40a;" 
d="M125 -92v-30h86v-24h-86v-30h-22v84h22zM100 433c0 -33 25 -58 57 -58s57 25 57 58s-25 58 -57 58s-57 -25 -57 -58zM103 -76h108v23h-37v16l37 21v26l-41 -24c-6 12 -17 20 -31 20c-21 0 -36 -16 -36 -38v-44zM103 26v24h108v-24h-108zM103 106l108 -42v25l-20 7v43
l20 8v26l-108 -44v-23zM103 186h108v66h-21v-42h-87v-24zM103 300h108v23h-41v38h-22v-38h-23v42h-22v-65zM103 509h108v23h-68l68 50v19h-108v-23h66l-66 -47v-22zM103 617h22v30h86v24h-86v30h-22v-84zM123 433c0 20 14 34 34 34s35 -14 35 -34c0 -19 -15 -34 -35 -34
s-34 15 -34 34zM124 -53v19c0 10 6 16 14 16c9 0 15 -6 15 -16v-19h-29zM131 118l39 14v-28z" />
    <glyph glyph-name="uni0405" unicode="&#x405;" 
d="M125 -92v-30h86v-24h-86v-30h-22v84h22zM100 433c0 -33 25 -58 57 -58s57 25 57 58s-25 58 -57 58s-57 -25 -57 -58zM103 -76h108v23h-37v16l37 21v26l-41 -24c-6 12 -17 20 -31 20c-21 0 -36 -16 -36 -38v-44zM103 26v24h108v-24h-108zM103 106l108 -42v25l-20 7v43
l20 8v26l-108 -44v-23zM103 186h108v66h-21v-42h-87v-24zM103 300h108v23h-41v38h-22v-38h-23v42h-22v-65zM103 509h108v23h-68l68 50v19h-108v-23h66l-66 -47v-22zM103 617h22v30h86v24h-86v30h-22v-84zM123 433c0 20 14 34 34 34s35 -14 35 -34c0 -19 -15 -34 -35 -34
s-34 15 -34 34zM124 -53v19c0 10 6 16 14 16c9 0 15 -6 15 -16v-19h-29zM131 118l39 14v-28z" />
    <glyph glyph-name="uni0404" unicode="&#x404;" 
d="M125 -92v-30h86v-24h-86v-30h-22v84h22zM100 433c0 -33 25 -58 57 -58s57 25 57 58s-25 58 -57 58s-57 -25 -57 -58zM103 -76h108v23h-37v16l37 21v26l-41 -24c-6 12 -17 20 -31 20c-21 0 -36 -16 -36 -38v-44zM103 26v24h108v-24h-108zM103 106l108 -42v25l-20 7v43
l20 8v26l-108 -44v-23zM103 186h108v66h-21v-42h-87v-24zM103 300h108v23h-41v38h-22v-38h-23v42h-22v-65zM103 509h108v23h-68l68 50v19h-108v-23h66l-66 -47v-22zM103 617h22v30h86v24h-86v30h-22v-84zM123 433c0 20 14 34 34 34s35 -14 35 -34c0 -19 -15 -34 -35 -34
s-34 15 -34 34zM124 -53v19c0 10 6 16 14 16c9 0 15 -6 15 -16v-19h-29zM131 118l39 14v-28z" />
    <glyph glyph-name="uni042D" unicode="&#x42d;" horiz-adv-x="657" 
d="M242 -15c-69 0 -138 15 -199 44v180c44 -42 108 -59 171 -59c103 0 198 22 224 123h-290v155h287c-29 100 -116 121 -217 122c-59 0 -129 -16 -175 -54v175c61 29 132 44 203 44c189 0 379 -111 379 -375c0 -250 -191 -355 -383 -355z" />
    <glyph glyph-name="uni0406" unicode="&#x406;" 
d="M125 -92v-30h86v-24h-86v-30h-22v84h22zM100 433c0 -33 25 -58 57 -58s57 25 57 58s-25 58 -57 58s-57 -25 -57 -58zM103 -76h108v23h-37v16l37 21v26l-41 -24c-6 12 -17 20 -31 20c-21 0 -36 -16 -36 -38v-44zM103 26v24h108v-24h-108zM103 106l108 -42v25l-20 7v43
l20 8v26l-108 -44v-23zM103 186h108v66h-21v-42h-87v-24zM103 300h108v23h-41v38h-22v-38h-23v42h-22v-65zM103 509h108v23h-68l68 50v19h-108v-23h66l-66 -47v-22zM103 617h22v30h86v24h-86v30h-22v-84zM123 433c0 20 14 34 34 34s35 -14 35 -34c0 -19 -15 -34 -35 -34
s-34 15 -34 34zM124 -53v19c0 10 6 16 14 16c9 0 15 -6 15 -16v-19h-29zM131 118l39 14v-28z" />
    <glyph glyph-name="uni0407" unicode="&#x407;" 
d="M125 -92v-30h86v-24h-86v-30h-22v84h22zM100 433c0 -33 25 -58 57 -58s57 25 57 58s-25 58 -57 58s-57 -25 -57 -58zM103 -76h108v23h-37v16l37 21v26l-41 -24c-6 12 -17 20 -31 20c-21 0 -36 -16 -36 -38v-44zM103 26v24h108v-24h-108zM103 106l108 -42v25l-20 7v43
l20 8v26l-108 -44v-23zM103 186h108v66h-21v-42h-87v-24zM103 300h108v23h-41v38h-22v-38h-23v42h-22v-65zM103 509h108v23h-68l68 50v19h-108v-23h66l-66 -47v-22zM103 617h22v30h86v24h-86v30h-22v-84zM123 433c0 20 14 34 34 34s35 -14 35 -34c0 -19 -15 -34 -35 -34
s-34 15 -34 34zM124 -53v19c0 10 6 16 14 16c9 0 15 -6 15 -16v-19h-29zM131 118l39 14v-28z" />
    <glyph glyph-name="uni0408" unicode="&#x408;" 
d="M125 -92v-30h86v-24h-86v-30h-22v84h22zM100 433c0 -33 25 -58 57 -58s57 25 57 58s-25 58 -57 58s-57 -25 -57 -58zM103 -76h108v23h-37v16l37 21v26l-41 -24c-6 12 -17 20 -31 20c-21 0 -36 -16 -36 -38v-44zM103 26v24h108v-24h-108zM103 106l108 -42v25l-20 7v43
l20 8v26l-108 -44v-23zM103 186h108v66h-21v-42h-87v-24zM103 300h108v23h-41v38h-22v-38h-23v42h-22v-65zM103 509h108v23h-68l68 50v19h-108v-23h66l-66 -47v-22zM103 617h22v30h86v24h-86v30h-22v-84zM123 433c0 20 14 34 34 34s35 -14 35 -34c0 -19 -15 -34 -35 -34
s-34 15 -34 34zM124 -53v19c0 10 6 16 14 16c9 0 15 -6 15 -16v-19h-29zM131 118l39 14v-28z" />
    <glyph glyph-name="uni040B" unicode="&#x40b;" 
d="M125 -92v-30h86v-24h-86v-30h-22v84h22zM100 433c0 -33 25 -58 57 -58s57 25 57 58s-25 58 -57 58s-57 -25 -57 -58zM103 -76h108v23h-37v16l37 21v26l-41 -24c-6 12 -17 20 -31 20c-21 0 -36 -16 -36 -38v-44zM103 26v24h108v-24h-108zM103 106l108 -42v25l-20 7v43
l20 8v26l-108 -44v-23zM103 186h108v66h-21v-42h-87v-24zM103 300h108v23h-41v38h-22v-38h-23v42h-22v-65zM103 509h108v23h-68l68 50v19h-108v-23h66l-66 -47v-22zM103 617h22v30h86v24h-86v30h-22v-84zM123 433c0 20 14 34 34 34s35 -14 35 -34c0 -19 -15 -34 -35 -34
s-34 15 -34 34zM124 -53v19c0 10 6 16 14 16c9 0 15 -6 15 -16v-19h-29zM131 118l39 14v-28z" />
    <glyph glyph-name="uni042E" unicode="&#x42e;" horiz-adv-x="1112" 
d="M706 -15c-212 0 -332 130 -359 283h-96v-268h-185v700h185v-267h96c27 153 147 282 359 282c250 0 375 -170 375 -365s-125 -365 -375 -365zM521 350c0 -112 64 -195 185 -195s185 83 185 195s-64 195 -185 195s-185 -83 -185 -195z" />
    <glyph glyph-name="uni042F" unicode="&#x42f;" horiz-adv-x="701" 
d="M450 0v228h-65l-165 -228h-211l188 252c-86 34 -144 106 -144 207c0 175 135 241 287 241h295v-700h-185zM243 459c0 -54 36 -81 99 -81h108v162h-108c-63 0 -99 -27 -99 -81z" />
    <glyph glyph-name="uni0402" unicode="&#x402;" 
d="M125 -92v-30h86v-24h-86v-30h-22v84h22zM100 433c0 -33 25 -58 57 -58s57 25 57 58s-25 58 -57 58s-57 -25 -57 -58zM103 -76h108v23h-37v16l37 21v26l-41 -24c-6 12 -17 20 -31 20c-21 0 -36 -16 -36 -38v-44zM103 26v24h108v-24h-108zM103 106l108 -42v25l-20 7v43
l20 8v26l-108 -44v-23zM103 186h108v66h-21v-42h-87v-24zM103 300h108v23h-41v38h-22v-38h-23v42h-22v-65zM103 509h108v23h-68l68 50v19h-108v-23h66l-66 -47v-22zM103 617h22v30h86v24h-86v30h-22v-84zM123 433c0 20 14 34 34 34s35 -14 35 -34c0 -19 -15 -34 -35 -34
s-34 15 -34 34zM124 -53v19c0 10 6 16 14 16c9 0 15 -6 15 -16v-19h-29zM131 118l39 14v-28z" />
    <glyph glyph-name="uni0414.loclBGR" horiz-adv-x="852" 
d="M26 -145v305h82l218 540h200l218 -540h82v-305h-160v145h-480v-145h-160zM302 160h248l-124 358z" />
    <glyph glyph-name="uni041B.loclBGR" horiz-adv-x="722" 
d="M266 700h190l263 -700h-200l-158 480l-158 -480h-200z" />
    <glyph glyph-name="uni0424.loclBGR" horiz-adv-x="888" 
d="M359 2c-216 17 -340 165 -340 348s124 331 340 348v92h175v-92c213 -19 335 -166 335 -348s-122 -329 -335 -348v-92h-175v92zM204 350c0 -66 20 -182 155 -192v384c-135 -10 -155 -126 -155 -192zM534 159c131 12 150 126 150 191s-19 179 -150 191v-382z" />
    <glyph glyph-name="uni0414.ss02" 
d="M125 -92v-30h86v-24h-86v-30h-22v84h22zM100 433c0 -33 25 -58 57 -58s57 25 57 58s-25 58 -57 58s-57 -25 -57 -58zM103 -76h108v23h-37v16l37 21v26l-41 -24c-6 12 -17 20 -31 20c-21 0 -36 -16 -36 -38v-44zM103 26v24h108v-24h-108zM103 106l108 -42v25l-20 7v43
l20 8v26l-108 -44v-23zM103 186h108v66h-21v-42h-87v-24zM103 300h108v23h-41v38h-22v-38h-23v42h-22v-65zM103 509h108v23h-68l68 50v19h-108v-23h66l-66 -47v-22zM103 617h22v30h86v24h-86v30h-22v-84zM123 433c0 20 14 34 34 34s35 -14 35 -34c0 -19 -15 -34 -35 -34
s-34 15 -34 34zM124 -53v19c0 10 6 16 14 16c9 0 15 -6 15 -16v-19h-29zM131 118l39 14v-28z" />
    <glyph glyph-name="uni041B.ss02" 
d="M125 -92v-30h86v-24h-86v-30h-22v84h22zM100 433c0 -33 25 -58 57 -58s57 25 57 58s-25 58 -57 58s-57 -25 -57 -58zM103 -76h108v23h-37v16l37 21v26l-41 -24c-6 12 -17 20 -31 20c-21 0 -36 -16 -36 -38v-44zM103 26v24h108v-24h-108zM103 106l108 -42v25l-20 7v43
l20 8v26l-108 -44v-23zM103 186h108v66h-21v-42h-87v-24zM103 300h108v23h-41v38h-22v-38h-23v42h-22v-65zM103 509h108v23h-68l68 50v19h-108v-23h66l-66 -47v-22zM103 617h22v30h86v24h-86v30h-22v-84zM123 433c0 20 14 34 34 34s35 -14 35 -34c0 -19 -15 -34 -35 -34
s-34 15 -34 34zM124 -53v19c0 10 6 16 14 16c9 0 15 -6 15 -16v-19h-29zM131 118l39 14v-28z" />
    <glyph glyph-name="uni0424.ss02" 
d="M125 -92v-30h86v-24h-86v-30h-22v84h22zM100 433c0 -33 25 -58 57 -58s57 25 57 58s-25 58 -57 58s-57 -25 -57 -58zM103 -76h108v23h-37v16l37 21v26l-41 -24c-6 12 -17 20 -31 20c-21 0 -36 -16 -36 -38v-44zM103 26v24h108v-24h-108zM103 106l108 -42v25l-20 7v43
l20 8v26l-108 -44v-23zM103 186h108v66h-21v-42h-87v-24zM103 300h108v23h-41v38h-22v-38h-23v42h-22v-65zM103 509h108v23h-68l68 50v19h-108v-23h66l-66 -47v-22zM103 617h22v30h86v24h-86v30h-22v-84zM123 433c0 20 14 34 34 34s35 -14 35 -34c0 -19 -15 -34 -35 -34
s-34 15 -34 34zM124 -53v19c0 10 6 16 14 16c9 0 15 -6 15 -16v-19h-29zM131 118l39 14v-28z" />
    <glyph glyph-name="uni0430" unicode="&#x430;" horiz-adv-x="567" 
d="M190 -15c-92 0 -167 55 -167 148c0 121 115 158 208 158c36 0 72 -4 104 -11v17c0 34 -32 60 -100 60c-63 0 -121 -18 -168 -37v143c40 13 116 32 187 32c153 0 251 -53 251 -224v-134c0 -23 16 -30 33 -30c6 0 13 1 19 3v-105c-23 -9 -54 -15 -86 -15
c-51 0 -90 18 -112 50l-2 3c-46 -36 -99 -58 -167 -58zM198 147c0 -25 22 -47 58 -47c28 0 53 6 79 25v65c-15 5 -38 9 -61 9c-40 0 -76 -14 -76 -52z" />
    <glyph glyph-name="uni0431" unicode="&#x431;" horiz-adv-x="583" 
d="M294 -15c-139 0 -260 75 -260 295c0 177 61 270 147 324c138 86 266 48 331 111v-150c-62 -56 -146 -27 -229 -68c-49 -24 -74 -80 -74 -119c28 35 73 67 145 67c114 0 200 -80 200 -230c0 -155 -116 -230 -260 -230zM209 215c0 -34 10 -100 85 -100s85 66 85 100
s-10 100 -85 100s-85 -66 -85 -100z" />
    <glyph glyph-name="uni0432" unicode="&#x432;" horiz-adv-x="551" 
d="M51 0v480h298c130 0 163 -71 163 -125c0 -58 -26 -93 -78 -113c59 -19 88 -57 88 -114c0 -62 -35 -128 -165 -128h-306zM221 286h69c28 0 52 12 52 42c0 32 -23 44 -53 44h-68v-86zM222 108h78c28 0 52 12 52 42c0 32 -23 44 -53 44h-77v-86z" />
    <glyph glyph-name="uni0433" unicode="&#x433;" horiz-adv-x="439" 
d="M51 0v480h374v-140h-204v-340h-170z" />
    <glyph glyph-name="uni0453" unicode="&#x453;" 
d="M125 -92v-30h86v-24h-86v-30h-22v84h22zM100 433c0 -33 25 -58 57 -58s57 25 57 58s-25 58 -57 58s-57 -25 -57 -58zM103 -76h108v23h-37v16l37 21v26l-41 -24c-6 12 -17 20 -31 20c-21 0 -36 -16 -36 -38v-44zM103 26v24h108v-24h-108zM103 106l108 -42v25l-20 7v43
l20 8v26l-108 -44v-23zM103 186h108v66h-21v-42h-87v-24zM103 300h108v23h-41v38h-22v-38h-23v42h-22v-65zM103 509h108v23h-68l68 50v19h-108v-23h66l-66 -47v-22zM103 617h22v30h86v24h-86v30h-22v-84zM123 433c0 20 14 34 34 34s35 -14 35 -34c0 -19 -15 -34 -35 -34
s-34 15 -34 34zM124 -53v19c0 10 6 16 14 16c9 0 15 -6 15 -16v-19h-29zM131 118l39 14v-28z" />
    <glyph glyph-name="uni0491" unicode="&#x491;" 
d="M125 -92v-30h86v-24h-86v-30h-22v84h22zM100 433c0 -33 25 -58 57 -58s57 25 57 58s-25 58 -57 58s-57 -25 -57 -58zM103 -76h108v23h-37v16l37 21v26l-41 -24c-6 12 -17 20 -31 20c-21 0 -36 -16 -36 -38v-44zM103 26v24h108v-24h-108zM103 106l108 -42v25l-20 7v43
l20 8v26l-108 -44v-23zM103 186h108v66h-21v-42h-87v-24zM103 300h108v23h-41v38h-22v-38h-23v42h-22v-65zM103 509h108v23h-68l68 50v19h-108v-23h66l-66 -47v-22zM103 617h22v30h86v24h-86v30h-22v-84zM123 433c0 20 14 34 34 34s35 -14 35 -34c0 -19 -15 -34 -35 -34
s-34 15 -34 34zM124 -53v19c0 10 6 16 14 16c9 0 15 -6 15 -16v-19h-29zM131 118l39 14v-28z" />
    <glyph glyph-name="uni0434" unicode="&#x434;" horiz-adv-x="661" 
d="M18 -125v250h69c56 97 67 217 63 355h415v-355h73v-250h-155v125h-310v-125h-155zM261 125h134v230h-90c-3 -95 -13 -161 -44 -230z" />
    <glyph glyph-name="uni0435" unicode="&#x435;" horiz-adv-x="548" 
d="M312 -15c-158 0 -285 90 -285 255c0 188 147 255 252 255c206 0 268 -160 234 -306h-314c19 -53 84 -74 153 -74c54 0 98 8 138 23v-126c-45 -16 -102 -27 -178 -27zM197 291h161c5 23 -7 81 -75 81c-47 0 -86 -31 -86 -81z" />
    <glyph glyph-name="uni0451" unicode="&#x451;" horiz-adv-x="547" 
d="M428 526c-47 0 -85 38 -85 85s38 85 85 85s85 -38 85 -85s-38 -85 -85 -85zM27 240c0 188 147 255 252 255c206 0 268 -160 234 -306h-314c19 -53 84 -74 153 -74c54 0 98 8 138 23v-126c-45 -16 -102 -27 -178 -27c-158 0 -285 90 -285 255zM123 611c0 47 38 85 85 85
s85 -38 85 -85s-38 -85 -85 -85s-85 38 -85 85zM197 291h161c5 23 -7 81 -75 81c-47 0 -86 -31 -86 -81z" />
    <glyph glyph-name="uni0436" unicode="&#x436;" horiz-adv-x="806" 
d="M0 0l152 241l-142 239h180l97 -183h31v183h170v-183h31l97 183h180l-142 -239l152 -241h-180l-96 167h-42v-167h-170v167h-42l-96 -167h-180z" />
    <glyph glyph-name="uni0437" unicode="&#x437;" horiz-adv-x="493" 
d="M217 -14c-79 0 -143 17 -186 41v130c34 -20 105 -42 164 -42s94 12 94 42c0 32 -38 35 -85 35h-80v102h80c45 0 75 9 75 35c0 21 -19 38 -74 38s-130 -22 -164 -42v130c43 24 117 41 186 41c182 0 227 -83 227 -145c0 -56 -36 -91 -77 -104c58 -18 87 -57 87 -112
c0 -67 -64 -149 -247 -149z" />
    <glyph glyph-name="uni0438" unicode="&#x438;" horiz-adv-x="592" 
d="M51 0v480h170v-227l171 227h149v-480h-170v227l-171 -227h-149z" />
    <glyph glyph-name="uni0439" unicode="&#x439;" horiz-adv-x="592" 
d="M51 0v480h170v-227l171 227h149v-480h-170v227l-171 -227h-149zM136 568v122c54 -28 108 -35 160 -35s106 7 160 35v-122c-43 -24 -91 -39 -160 -39s-117 15 -160 39z" />
    <glyph glyph-name="uni045D" unicode="&#x45d;" 
d="M125 -92v-30h86v-24h-86v-30h-22v84h22zM100 433c0 -33 25 -58 57 -58s57 25 57 58s-25 58 -57 58s-57 -25 -57 -58zM103 -76h108v23h-37v16l37 21v26l-41 -24c-6 12 -17 20 -31 20c-21 0 -36 -16 -36 -38v-44zM103 26v24h108v-24h-108zM103 106l108 -42v25l-20 7v43
l20 8v26l-108 -44v-23zM103 186h108v66h-21v-42h-87v-24zM103 300h108v23h-41v38h-22v-38h-23v42h-22v-65zM103 509h108v23h-68l68 50v19h-108v-23h66l-66 -47v-22zM103 617h22v30h86v24h-86v30h-22v-84zM123 433c0 20 14 34 34 34s35 -14 35 -34c0 -19 -15 -34 -35 -34
s-34 15 -34 34zM124 -53v19c0 10 6 16 14 16c9 0 15 -6 15 -16v-19h-29zM131 118l39 14v-28z" />
    <glyph glyph-name="uni043A" unicode="&#x43a;" horiz-adv-x="562" 
d="M51 0v480h170v-168h38l105 168h190l-156 -236l166 -244h-189l-118 182h-36v-182h-170z" />
    <glyph glyph-name="uni045C" unicode="&#x45c;" 
d="M125 -92v-30h86v-24h-86v-30h-22v84h22zM100 433c0 -33 25 -58 57 -58s57 25 57 58s-25 58 -57 58s-57 -25 -57 -58zM103 -76h108v23h-37v16l37 21v26l-41 -24c-6 12 -17 20 -31 20c-21 0 -36 -16 -36 -38v-44zM103 26v24h108v-24h-108zM103 106l108 -42v25l-20 7v43
l20 8v26l-108 -44v-23zM103 186h108v66h-21v-42h-87v-24zM103 300h108v23h-41v38h-22v-38h-23v42h-22v-65zM103 509h108v23h-68l68 50v19h-108v-23h66l-66 -47v-22zM103 617h22v30h86v24h-86v30h-22v-84zM123 433c0 20 14 34 34 34s35 -14 35 -34c0 -19 -15 -34 -35 -34
s-34 15 -34 34zM124 -53v19c0 10 6 16 14 16c9 0 15 -6 15 -16v-19h-29zM131 118l39 14v-28z" />
    <glyph glyph-name="uni043B" unicode="&#x43b;" horiz-adv-x="590" 
d="M97 -11c-25 0 -54 5 -86 16v135c10 -4 19 -6 27 -6c72 0 82 154 91 346h410v-480h-170v350h-85c-12 -200 -51 -361 -187 -361z" />
    <glyph glyph-name="uni043C" unicode="&#x43c;" horiz-adv-x="688" 
d="M51 0v480h157l136 -223l136 223h157v-480h-166v240l-90 -147h-74l-90 147v-240h-166z" />
    <glyph glyph-name="uni043D" unicode="&#x43d;" horiz-adv-x="592" 
d="M51 0v480h170v-170h150v170h170v-480h-170v170h-150v-170h-170z" />
    <glyph glyph-name="uni043E" unicode="&#x43e;" horiz-adv-x="594" 
d="M297 -15c-144 0 -270 85 -270 255s126 255 270 255s270 -85 270 -255s-126 -255 -270 -255zM202 240c0 -54 25 -105 95 -105s95 51 95 105s-25 105 -95 105s-95 -51 -95 -105z" />
    <glyph glyph-name="uni043F" unicode="&#x43f;" horiz-adv-x="592" 
d="M51 0v480h490v-480h-170v340h-150v-340h-170z" />
    <glyph glyph-name="uni0440" unicode="&#x440;" horiz-adv-x="624" 
d="M51 -220v700h150v-65c24 40 77 80 163 80c161 0 232 -131 232 -255s-71 -255 -232 -255c-67 0 -114 24 -143 54v-259h-170zM221 185c15 -31 50 -60 97 -60c72 0 103 59 103 115s-31 115 -103 115c-47 0 -82 -29 -97 -60v-110z" />
    <glyph glyph-name="uni0441" unicode="&#x441;" horiz-adv-x="490" 
d="M292 -15c-134 0 -265 75 -265 245c0 189 140 266 277 266c52 0 104 -12 148 -33v-145c-33 19 -79 33 -122 33c-67 0 -128 -29 -128 -111c0 -76 60 -110 125 -110c50 0 97 13 130 32v-145c-48 -20 -104 -32 -165 -32z" />
    <glyph glyph-name="uni0442" unicode="&#x442;" horiz-adv-x="480" 
d="M155 0v340h-140v140h450v-140h-140v-340h-170z" />
    <glyph glyph-name="uni0443" unicode="&#x443;" horiz-adv-x="577" 
d="M149 -233c-30 0 -60 6 -88 13v140c21 -5 43 -8 65 -8c40 0 74 22 97 70l3 6l-226 492h180l117 -286l98 286h175l-201 -530c-55 -144 -138 -183 -220 -183z" />
    <glyph glyph-name="uni045E" unicode="&#x45e;" 
d="M125 -92v-30h86v-24h-86v-30h-22v84h22zM100 433c0 -33 25 -58 57 -58s57 25 57 58s-25 58 -57 58s-57 -25 -57 -58zM103 -76h108v23h-37v16l37 21v26l-41 -24c-6 12 -17 20 -31 20c-21 0 -36 -16 -36 -38v-44zM103 26v24h108v-24h-108zM103 106l108 -42v25l-20 7v43
l20 8v26l-108 -44v-23zM103 186h108v66h-21v-42h-87v-24zM103 300h108v23h-41v38h-22v-38h-23v42h-22v-65zM103 509h108v23h-68l68 50v19h-108v-23h66l-66 -47v-22zM103 617h22v30h86v24h-86v30h-22v-84zM123 433c0 20 14 34 34 34s35 -14 35 -34c0 -19 -15 -34 -35 -34
s-34 15 -34 34zM124 -53v19c0 10 6 16 14 16c9 0 15 -6 15 -16v-19h-29zM131 118l39 14v-28z" />
    <glyph glyph-name="uni0444" unicode="&#x444;" horiz-adv-x="762" 
d="M301 -15c-159 7 -275 102 -275 255s116 248 275 255v205h160v-205c159 -7 275 -102 275 -255s-116 -248 -275 -255v-205h-160v205zM196 240c0 -52 27 -109 105 -115v230c-78 -6 -105 -63 -105 -115zM461 125c78 6 105 63 105 115s-27 109 -105 115v-230z" />
    <glyph glyph-name="uni0445" unicode="&#x445;" horiz-adv-x="552" 
d="M-4 0l181 239l-172 241h192l79 -126l79 126h192l-172 -241l181 -239h-192l-88 124l-88 -124h-192z" />
    <glyph glyph-name="uni0447" unicode="&#x447;" horiz-adv-x="550" 
d="M329 141c-34 -12 -71 -18 -112 -18c-99 0 -188 56 -188 184v173h170v-157c0 -44 28 -60 64 -60c23 0 46 4 66 12v205h170v-480h-170v141z" />
    <glyph glyph-name="uni0446" unicode="&#x446;" horiz-adv-x="639" 
d="M459 -125v125h-408v480h170v-340h150v340h170v-345h73v-260h-155z" />
    <glyph glyph-name="uni0448" unicode="&#x448;" horiz-adv-x="812" 
d="M51 0v480h170v-340h100v340h170v-340h100v340h170v-480h-710z" />
    <glyph glyph-name="uni0449" unicode="&#x449;" horiz-adv-x="859" 
d="M679 -125v125h-628v480h170v-340h100v340h170v-340h100v340h170v-345h73v-260h-155z" />
    <glyph glyph-name="uni045F" unicode="&#x45f;" 
d="M125 -92v-30h86v-24h-86v-30h-22v84h22zM100 433c0 -33 25 -58 57 -58s57 25 57 58s-25 58 -57 58s-57 -25 -57 -58zM103 -76h108v23h-37v16l37 21v26l-41 -24c-6 12 -17 20 -31 20c-21 0 -36 -16 -36 -38v-44zM103 26v24h108v-24h-108zM103 106l108 -42v25l-20 7v43
l20 8v26l-108 -44v-23zM103 186h108v66h-21v-42h-87v-24zM103 300h108v23h-41v38h-22v-38h-23v42h-22v-65zM103 509h108v23h-68l68 50v19h-108v-23h66l-66 -47v-22zM103 617h22v30h86v24h-86v30h-22v-84zM123 433c0 20 14 34 34 34s35 -14 35 -34c0 -19 -15 -34 -35 -34
s-34 15 -34 34zM124 -53v19c0 10 6 16 14 16c9 0 15 -6 15 -16v-19h-29zM131 118l39 14v-28z" />
    <glyph glyph-name="uni044C" unicode="&#x44c;" horiz-adv-x="529" 
d="M51 0v480h170v-140h92c130 0 198 -76 198 -170s-68 -170 -198 -170h-262zM221 115h46c46 0 69 23 69 55s-23 55 -69 55h-46v-110z" />
    <glyph glyph-name="uni044B" unicode="&#x44b;" horiz-adv-x="802" 
d="M51 0v480h170v-140h92c130 0 198 -76 198 -170s-68 -170 -198 -170h-262zM221 115h46c46 0 69 23 69 55s-23 55 -69 55h-46v-110zM581 0v480h170v-480h-170z" />
    <glyph glyph-name="uni044A" unicode="&#x44a;" horiz-adv-x="613" 
d="M135 0v350h-120v130h290v-140h92c130 0 198 -76 198 -170s-68 -170 -198 -170h-262zM305 115h46c46 0 69 23 69 55s-23 55 -69 55h-46v-110z" />
    <glyph glyph-name="uni0459" unicode="&#x459;" 
d="M125 -92v-30h86v-24h-86v-30h-22v84h22zM100 433c0 -33 25 -58 57 -58s57 25 57 58s-25 58 -57 58s-57 -25 -57 -58zM103 -76h108v23h-37v16l37 21v26l-41 -24c-6 12 -17 20 -31 20c-21 0 -36 -16 -36 -38v-44zM103 26v24h108v-24h-108zM103 106l108 -42v25l-20 7v43
l20 8v26l-108 -44v-23zM103 186h108v66h-21v-42h-87v-24zM103 300h108v23h-41v38h-22v-38h-23v42h-22v-65zM103 509h108v23h-68l68 50v19h-108v-23h66l-66 -47v-22zM103 617h22v30h86v24h-86v30h-22v-84zM123 433c0 20 14 34 34 34s35 -14 35 -34c0 -19 -15 -34 -35 -34
s-34 15 -34 34zM124 -53v19c0 10 6 16 14 16c9 0 15 -6 15 -16v-19h-29zM131 118l39 14v-28z" />
    <glyph glyph-name="uni045A" unicode="&#x45a;" 
d="M125 -92v-30h86v-24h-86v-30h-22v84h22zM100 433c0 -33 25 -58 57 -58s57 25 57 58s-25 58 -57 58s-57 -25 -57 -58zM103 -76h108v23h-37v16l37 21v26l-41 -24c-6 12 -17 20 -31 20c-21 0 -36 -16 -36 -38v-44zM103 26v24h108v-24h-108zM103 106l108 -42v25l-20 7v43
l20 8v26l-108 -44v-23zM103 186h108v66h-21v-42h-87v-24zM103 300h108v23h-41v38h-22v-38h-23v42h-22v-65zM103 509h108v23h-68l68 50v19h-108v-23h66l-66 -47v-22zM103 617h22v30h86v24h-86v30h-22v-84zM123 433c0 20 14 34 34 34s35 -14 35 -34c0 -19 -15 -34 -35 -34
s-34 15 -34 34zM124 -53v19c0 10 6 16 14 16c9 0 15 -6 15 -16v-19h-29zM131 118l39 14v-28z" />
    <glyph glyph-name="uni0455" unicode="&#x455;" 
d="M125 -92v-30h86v-24h-86v-30h-22v84h22zM100 433c0 -33 25 -58 57 -58s57 25 57 58s-25 58 -57 58s-57 -25 -57 -58zM103 -76h108v23h-37v16l37 21v26l-41 -24c-6 12 -17 20 -31 20c-21 0 -36 -16 -36 -38v-44zM103 26v24h108v-24h-108zM103 106l108 -42v25l-20 7v43
l20 8v26l-108 -44v-23zM103 186h108v66h-21v-42h-87v-24zM103 300h108v23h-41v38h-22v-38h-23v42h-22v-65zM103 509h108v23h-68l68 50v19h-108v-23h66l-66 -47v-22zM103 617h22v30h86v24h-86v30h-22v-84zM123 433c0 20 14 34 34 34s35 -14 35 -34c0 -19 -15 -34 -35 -34
s-34 15 -34 34zM124 -53v19c0 10 6 16 14 16c9 0 15 -6 15 -16v-19h-29zM131 118l39 14v-28z" />
    <glyph glyph-name="uni0454" unicode="&#x454;" 
d="M125 -92v-30h86v-24h-86v-30h-22v84h22zM100 433c0 -33 25 -58 57 -58s57 25 57 58s-25 58 -57 58s-57 -25 -57 -58zM103 -76h108v23h-37v16l37 21v26l-41 -24c-6 12 -17 20 -31 20c-21 0 -36 -16 -36 -38v-44zM103 26v24h108v-24h-108zM103 106l108 -42v25l-20 7v43
l20 8v26l-108 -44v-23zM103 186h108v66h-21v-42h-87v-24zM103 300h108v23h-41v38h-22v-38h-23v42h-22v-65zM103 509h108v23h-68l68 50v19h-108v-23h66l-66 -47v-22zM103 617h22v30h86v24h-86v30h-22v-84zM123 433c0 20 14 34 34 34s35 -14 35 -34c0 -19 -15 -34 -35 -34
s-34 15 -34 34zM124 -53v19c0 10 6 16 14 16c9 0 15 -6 15 -16v-19h-29zM131 118l39 14v-28z" />
    <glyph glyph-name="uni044D" unicode="&#x44d;" horiz-adv-x="506" 
d="M216 -15c-81 0 -124 12 -182 42v135c40 -27 95 -42 145 -42c68 0 114 20 130 60h-185v120h185c-17 38 -63 60 -130 60c-45 0 -100 -15 -140 -42v135c49 29 102 42 162 42c141 0 278 -77 278 -265c0 -173 -142 -245 -263 -245z" />
    <glyph glyph-name="uni0456" unicode="&#x456;" 
d="M125 -92v-30h86v-24h-86v-30h-22v84h22zM100 433c0 -33 25 -58 57 -58s57 25 57 58s-25 58 -57 58s-57 -25 -57 -58zM103 -76h108v23h-37v16l37 21v26l-41 -24c-6 12 -17 20 -31 20c-21 0 -36 -16 -36 -38v-44zM103 26v24h108v-24h-108zM103 106l108 -42v25l-20 7v43
l20 8v26l-108 -44v-23zM103 186h108v66h-21v-42h-87v-24zM103 300h108v23h-41v38h-22v-38h-23v42h-22v-65zM103 509h108v23h-68l68 50v19h-108v-23h66l-66 -47v-22zM103 617h22v30h86v24h-86v30h-22v-84zM123 433c0 20 14 34 34 34s35 -14 35 -34c0 -19 -15 -34 -35 -34
s-34 15 -34 34zM124 -53v19c0 10 6 16 14 16c9 0 15 -6 15 -16v-19h-29zM131 118l39 14v-28z" />
    <glyph glyph-name="uni0457" unicode="&#x457;" 
d="M125 -92v-30h86v-24h-86v-30h-22v84h22zM100 433c0 -33 25 -58 57 -58s57 25 57 58s-25 58 -57 58s-57 -25 -57 -58zM103 -76h108v23h-37v16l37 21v26l-41 -24c-6 12 -17 20 -31 20c-21 0 -36 -16 -36 -38v-44zM103 26v24h108v-24h-108zM103 106l108 -42v25l-20 7v43
l20 8v26l-108 -44v-23zM103 186h108v66h-21v-42h-87v-24zM103 300h108v23h-41v38h-22v-38h-23v42h-22v-65zM103 509h108v23h-68l68 50v19h-108v-23h66l-66 -47v-22zM103 617h22v30h86v24h-86v30h-22v-84zM123 433c0 20 14 34 34 34s35 -14 35 -34c0 -19 -15 -34 -35 -34
s-34 15 -34 34zM124 -53v19c0 10 6 16 14 16c9 0 15 -6 15 -16v-19h-29zM131 118l39 14v-28z" />
    <glyph glyph-name="uni0458" unicode="&#x458;" 
d="M125 -92v-30h86v-24h-86v-30h-22v84h22zM100 433c0 -33 25 -58 57 -58s57 25 57 58s-25 58 -57 58s-57 -25 -57 -58zM103 -76h108v23h-37v16l37 21v26l-41 -24c-6 12 -17 20 -31 20c-21 0 -36 -16 -36 -38v-44zM103 26v24h108v-24h-108zM103 106l108 -42v25l-20 7v43
l20 8v26l-108 -44v-23zM103 186h108v66h-21v-42h-87v-24zM103 300h108v23h-41v38h-22v-38h-23v42h-22v-65zM103 509h108v23h-68l68 50v19h-108v-23h66l-66 -47v-22zM103 617h22v30h86v24h-86v30h-22v-84zM123 433c0 20 14 34 34 34s35 -14 35 -34c0 -19 -15 -34 -35 -34
s-34 15 -34 34zM124 -53v19c0 10 6 16 14 16c9 0 15 -6 15 -16v-19h-29zM131 118l39 14v-28z" />
    <glyph glyph-name="uni045B" unicode="&#x45b;" 
d="M125 -92v-30h86v-24h-86v-30h-22v84h22zM100 433c0 -33 25 -58 57 -58s57 25 57 58s-25 58 -57 58s-57 -25 -57 -58zM103 -76h108v23h-37v16l37 21v26l-41 -24c-6 12 -17 20 -31 20c-21 0 -36 -16 -36 -38v-44zM103 26v24h108v-24h-108zM103 106l108 -42v25l-20 7v43
l20 8v26l-108 -44v-23zM103 186h108v66h-21v-42h-87v-24zM103 300h108v23h-41v38h-22v-38h-23v42h-22v-65zM103 509h108v23h-68l68 50v19h-108v-23h66l-66 -47v-22zM103 617h22v30h86v24h-86v30h-22v-84zM123 433c0 20 14 34 34 34s35 -14 35 -34c0 -19 -15 -34 -35 -34
s-34 15 -34 34zM124 -53v19c0 10 6 16 14 16c9 0 15 -6 15 -16v-19h-29zM131 118l39 14v-28z" />
    <glyph glyph-name="uni044E" unicode="&#x44e;" horiz-adv-x="843" 
d="M546 -15c-116 0 -225 63 -253 190h-72v-175h-170v480h170v-175h72c28 127 137 190 253 190c144 0 270 -85 270 -255s-126 -255 -270 -255zM451 240c0 -54 20 -115 95 -115s95 61 95 115s-20 115 -95 115s-95 -61 -95 -115z" />
    <glyph glyph-name="uni044F" unicode="&#x44f;" horiz-adv-x="563" 
d="M342 0v130h-47l-94 -130h-189l119 155c-49 25 -90 72 -90 150c0 94 68 175 198 175h273v-480h-170zM216 300c0 -32 23 -50 64 -50h62v100h-62c-41 0 -64 -18 -64 -50z" />
    <glyph glyph-name="uni0452" unicode="&#x452;" 
d="M125 -92v-30h86v-24h-86v-30h-22v84h22zM100 433c0 -33 25 -58 57 -58s57 25 57 58s-25 58 -57 58s-57 -25 -57 -58zM103 -76h108v23h-37v16l37 21v26l-41 -24c-6 12 -17 20 -31 20c-21 0 -36 -16 -36 -38v-44zM103 26v24h108v-24h-108zM103 106l108 -42v25l-20 7v43
l20 8v26l-108 -44v-23zM103 186h108v66h-21v-42h-87v-24zM103 300h108v23h-41v38h-22v-38h-23v42h-22v-65zM103 509h108v23h-68l68 50v19h-108v-23h66l-66 -47v-22zM103 617h22v30h86v24h-86v30h-22v-84zM123 433c0 20 14 34 34 34s35 -14 35 -34c0 -19 -15 -34 -35 -34
s-34 15 -34 34zM124 -53v19c0 10 6 16 14 16c9 0 15 -6 15 -16v-19h-29zM131 118l39 14v-28z" />
    <glyph glyph-name="uni0432.loclBGR" horiz-adv-x="597" 
d="M311 -15c-155 0 -271 77 -272 309v96c0 205 99 325 269 325c118 0 212 -78 212 -182c0 -49 -15 -97 -72 -137c73 -29 123 -94 123 -181c0 -142 -109 -230 -260 -230zM209 284c0 -111 34 -149 97 -149c59 0 94 38 94 89c0 40 -35 91 -109 78l-82 -14v-4zM209 418l76 13
c45 9 70 46 70 80s-20 60 -56 60c-45 0 -85 -36 -90 -151v-2z" />
    <glyph glyph-name="uni0433.loclBGR" horiz-adv-x="497" 
d="M265 -15c-131 0 -239 35 -239 155c0 188 261 140 261 202c0 22 -25 28 -50 28c-66 0 -137 -22 -179 -50v134c51 24 111 41 191 41c111 0 213 -36 213 -153c0 -183 -261 -144 -261 -202c0 -19 21 -27 73 -27c59 0 131 15 184 53v-137c-51 -29 -118 -44 -193 -44z" />
    <glyph glyph-name="uni0434.loclBGR" horiz-adv-x="623" 
d="M288 -235c-77 0 -149 17 -207 45v145c52 -32 119 -50 184 -50c77 0 137 23 137 105v29c-29 -30 -76 -54 -143 -54c-161 0 -232 131 -232 255s71 255 232 255c86 0 139 -40 163 -80v65h150v-460c0 -192 -139 -255 -284 -255zM202 240c0 -56 31 -115 103 -115
c47 0 82 29 97 60v110c-15 31 -50 60 -97 60c-72 0 -103 -59 -103 -115z" />
    <glyph glyph-name="uni0436.loclBGR" horiz-adv-x="806" 
d="M0 0l152 239l-142 241h180l89 -168h39v388h170v-388h39l89 168h180l-142 -241l152 -239h-180l-105 182h-33v-182h-170v182h-33l-105 -182h-180z" />
    <glyph glyph-name="uni0438.loclBGR" horiz-adv-x="592" 
d="M238 -15c-132 0 -192 89 -192 197v298h170v-275c0 -51 31 -75 73 -75c38 0 67 23 82 42v308h170v-480h-150v55c-40 -43 -89 -70 -153 -70z" />
    <glyph glyph-name="uni0439.loclBGR" horiz-adv-x="592" 
d="M238 -15c-132 0 -192 89 -192 197v298h170v-275c0 -51 31 -75 73 -75c38 0 67 23 82 42v308h170v-480h-150v55c-40 -43 -89 -70 -153 -70zM134 568v122c54 -28 108 -35 160 -35s106 7 160 35v-122c-43 -24 -91 -39 -160 -39s-117 15 -160 39z" />
    <glyph glyph-name="uni045D.loclBGR" horiz-adv-x="592" 
d="M238 -15c-132 0 -192 89 -192 197v298h170v-275c0 -51 31 -75 73 -75c38 0 67 23 82 42v308h170v-480h-150v55c-40 -43 -89 -70 -153 -70zM126 690h180l90 -150h-160z" />
    <glyph glyph-name="uni043A.loclBGR" horiz-adv-x="561" 
d="M51 0v700h170v-388h38l105 168h190l-156 -236l166 -244h-189l-118 182h-36v-182h-170z" />
    <glyph glyph-name="uni043B.loclBGR" horiz-adv-x="572" 
d="M196 480h180l190 -480h-180l-100 303l-100 -303h-180z" />
    <glyph glyph-name="uni043F.loclBGR" horiz-adv-x="592" 
d="M51 0v480h150v-55c40 43 89 70 153 70c132 0 192 -89 192 -197v-298h-170v275c0 51 -31 75 -73 75c-38 0 -67 -23 -82 -42v-308h-170z" />
    <glyph glyph-name="uni0442.loclBGR" horiz-adv-x="867" 
d="M51 0v480h150v-51c25 30 79 66 148 66c72 0 116 -29 142 -66c39 36 90 66 153 66c144 0 177 -116 177 -187v-308h-170v293c0 38 -25 57 -55 57c-23 0 -49 -10 -70 -31v-11v-308h-170v293c0 38 -25 57 -55 57c-27 0 -58 -14 -80 -42v-308h-170z" />
    <glyph glyph-name="uni0446.loclBGR" horiz-adv-x="636" 
d="M459 -3c-33 3 -60 24 -72 54c-39 -41 -87 -66 -149 -66c-132 0 -192 89 -192 197v298h170v-275c0 -51 31 -75 73 -75c38 0 67 23 82 42v308h170v-342c0 -17 13 -30 30 -30h43v-233h-155v122z" />
    <glyph glyph-name="uni0448.loclBGR" horiz-adv-x="867" 
d="M816 480v-480h-150v51c-25 -30 -79 -66 -148 -66c-72 0 -116 29 -142 66c-39 -36 -90 -66 -153 -66c-144 0 -177 116 -177 187v308h170v-293c0 -38 25 -57 55 -57c23 0 49 10 70 31v11v308h170v-293c0 -38 25 -57 55 -57c27 0 58 14 80 42v308h170z" />
    <glyph glyph-name="uni0449.loclBGR" horiz-adv-x="911" 
d="M734 -3c-32 3 -59 23 -71 51c-26 -30 -78 -63 -145 -63c-72 0 -116 29 -142 66c-39 -36 -90 -66 -153 -66c-144 0 -177 116 -177 187v308h170v-293c0 -38 25 -57 55 -57c23 0 49 10 70 31v11v308h170v-293c0 -38 25 -57 55 -57c27 0 58 14 80 42v308h170v-342
c0 -17 13 -30 30 -30h43v-233h-155v122z" />
    <glyph glyph-name="uni044E.loclBGR" 
d="M125 -92v-30h86v-24h-86v-30h-22v84h22zM100 433c0 -33 25 -58 57 -58s57 25 57 58s-25 58 -57 58s-57 -25 -57 -58zM103 -76h108v23h-37v16l37 21v26l-41 -24c-6 12 -17 20 -31 20c-21 0 -36 -16 -36 -38v-44zM103 26v24h108v-24h-108zM103 106l108 -42v25l-20 7v43
l20 8v26l-108 -44v-23zM103 186h108v66h-21v-42h-87v-24zM103 300h108v23h-41v38h-22v-38h-23v42h-22v-65zM103 509h108v23h-68l68 50v19h-108v-23h66l-66 -47v-22zM103 617h22v30h86v24h-86v30h-22v-84zM123 433c0 20 14 34 34 34s35 -14 35 -34c0 -19 -15 -34 -35 -34
s-34 15 -34 34zM124 -53v19c0 10 6 16 14 16c9 0 15 -6 15 -16v-19h-29zM131 118l39 14v-28z" />
    <glyph glyph-name="uni0430.ss01" 
d="M125 -92v-30h86v-24h-86v-30h-22v84h22zM100 433c0 -33 25 -58 57 -58s57 25 57 58s-25 58 -57 58s-57 -25 -57 -58zM103 -76h108v23h-37v16l37 21v26l-41 -24c-6 12 -17 20 -31 20c-21 0 -36 -16 -36 -38v-44zM103 26v24h108v-24h-108zM103 106l108 -42v25l-20 7v43
l20 8v26l-108 -44v-23zM103 186h108v66h-21v-42h-87v-24zM103 300h108v23h-41v38h-22v-38h-23v42h-22v-65zM103 509h108v23h-68l68 50v19h-108v-23h66l-66 -47v-22zM103 617h22v30h86v24h-86v30h-22v-84zM123 433c0 20 14 34 34 34s35 -14 35 -34c0 -19 -15 -34 -35 -34
s-34 15 -34 34zM124 -53v19c0 10 6 16 14 16c9 0 15 -6 15 -16v-19h-29zM131 118l39 14v-28z" />
    <glyph glyph-name="uni0437.ss01" 
d="M125 -92v-30h86v-24h-86v-30h-22v84h22zM100 433c0 -33 25 -58 57 -58s57 25 57 58s-25 58 -57 58s-57 -25 -57 -58zM103 -76h108v23h-37v16l37 21v26l-41 -24c-6 12 -17 20 -31 20c-21 0 -36 -16 -36 -38v-44zM103 26v24h108v-24h-108zM103 106l108 -42v25l-20 7v43
l20 8v26l-108 -44v-23zM103 186h108v66h-21v-42h-87v-24zM103 300h108v23h-41v38h-22v-38h-23v42h-22v-65zM103 509h108v23h-68l68 50v19h-108v-23h66l-66 -47v-22zM103 617h22v30h86v24h-86v30h-22v-84zM123 433c0 20 14 34 34 34s35 -14 35 -34c0 -19 -15 -34 -35 -34
s-34 15 -34 34zM124 -53v19c0 10 6 16 14 16c9 0 15 -6 15 -16v-19h-29zM131 118l39 14v-28z" />
    <glyph glyph-name="uni0443.ss01" 
d="M125 -92v-30h86v-24h-86v-30h-22v84h22zM100 433c0 -33 25 -58 57 -58s57 25 57 58s-25 58 -57 58s-57 -25 -57 -58zM103 -76h108v23h-37v16l37 21v26l-41 -24c-6 12 -17 20 -31 20c-21 0 -36 -16 -36 -38v-44zM103 26v24h108v-24h-108zM103 106l108 -42v25l-20 7v43
l20 8v26l-108 -44v-23zM103 186h108v66h-21v-42h-87v-24zM103 300h108v23h-41v38h-22v-38h-23v42h-22v-65zM103 509h108v23h-68l68 50v19h-108v-23h66l-66 -47v-22zM103 617h22v30h86v24h-86v30h-22v-84zM123 433c0 20 14 34 34 34s35 -14 35 -34c0 -19 -15 -34 -35 -34
s-34 15 -34 34zM124 -53v19c0 10 6 16 14 16c9 0 15 -6 15 -16v-19h-29zM131 118l39 14v-28z" />
    <glyph glyph-name="uni0432.ss02" 
d="M125 -92v-30h86v-24h-86v-30h-22v84h22zM100 433c0 -33 25 -58 57 -58s57 25 57 58s-25 58 -57 58s-57 -25 -57 -58zM103 -76h108v23h-37v16l37 21v26l-41 -24c-6 12 -17 20 -31 20c-21 0 -36 -16 -36 -38v-44zM103 26v24h108v-24h-108zM103 106l108 -42v25l-20 7v43
l20 8v26l-108 -44v-23zM103 186h108v66h-21v-42h-87v-24zM103 300h108v23h-41v38h-22v-38h-23v42h-22v-65zM103 509h108v23h-68l68 50v19h-108v-23h66l-66 -47v-22zM103 617h22v30h86v24h-86v30h-22v-84zM123 433c0 20 14 34 34 34s35 -14 35 -34c0 -19 -15 -34 -35 -34
s-34 15 -34 34zM124 -53v19c0 10 6 16 14 16c9 0 15 -6 15 -16v-19h-29zM131 118l39 14v-28z" />
    <glyph glyph-name="uni0433.ss02" 
d="M125 -92v-30h86v-24h-86v-30h-22v84h22zM100 433c0 -33 25 -58 57 -58s57 25 57 58s-25 58 -57 58s-57 -25 -57 -58zM103 -76h108v23h-37v16l37 21v26l-41 -24c-6 12 -17 20 -31 20c-21 0 -36 -16 -36 -38v-44zM103 26v24h108v-24h-108zM103 106l108 -42v25l-20 7v43
l20 8v26l-108 -44v-23zM103 186h108v66h-21v-42h-87v-24zM103 300h108v23h-41v38h-22v-38h-23v42h-22v-65zM103 509h108v23h-68l68 50v19h-108v-23h66l-66 -47v-22zM103 617h22v30h86v24h-86v30h-22v-84zM123 433c0 20 14 34 34 34s35 -14 35 -34c0 -19 -15 -34 -35 -34
s-34 15 -34 34zM124 -53v19c0 10 6 16 14 16c9 0 15 -6 15 -16v-19h-29zM131 118l39 14v-28z" />
    <glyph glyph-name="uni0434.ss02" 
d="M125 -92v-30h86v-24h-86v-30h-22v84h22zM100 433c0 -33 25 -58 57 -58s57 25 57 58s-25 58 -57 58s-57 -25 -57 -58zM103 -76h108v23h-37v16l37 21v26l-41 -24c-6 12 -17 20 -31 20c-21 0 -36 -16 -36 -38v-44zM103 26v24h108v-24h-108zM103 106l108 -42v25l-20 7v43
l20 8v26l-108 -44v-23zM103 186h108v66h-21v-42h-87v-24zM103 300h108v23h-41v38h-22v-38h-23v42h-22v-65zM103 509h108v23h-68l68 50v19h-108v-23h66l-66 -47v-22zM103 617h22v30h86v24h-86v30h-22v-84zM123 433c0 20 14 34 34 34s35 -14 35 -34c0 -19 -15 -34 -35 -34
s-34 15 -34 34zM124 -53v19c0 10 6 16 14 16c9 0 15 -6 15 -16v-19h-29zM131 118l39 14v-28z" />
    <glyph glyph-name="uni0436.ss02" 
d="M125 -92v-30h86v-24h-86v-30h-22v84h22zM100 433c0 -33 25 -58 57 -58s57 25 57 58s-25 58 -57 58s-57 -25 -57 -58zM103 -76h108v23h-37v16l37 21v26l-41 -24c-6 12 -17 20 -31 20c-21 0 -36 -16 -36 -38v-44zM103 26v24h108v-24h-108zM103 106l108 -42v25l-20 7v43
l20 8v26l-108 -44v-23zM103 186h108v66h-21v-42h-87v-24zM103 300h108v23h-41v38h-22v-38h-23v42h-22v-65zM103 509h108v23h-68l68 50v19h-108v-23h66l-66 -47v-22zM103 617h22v30h86v24h-86v30h-22v-84zM123 433c0 20 14 34 34 34s35 -14 35 -34c0 -19 -15 -34 -35 -34
s-34 15 -34 34zM124 -53v19c0 10 6 16 14 16c9 0 15 -6 15 -16v-19h-29zM131 118l39 14v-28z" />
    <glyph glyph-name="uni0438.ss02" 
d="M125 -92v-30h86v-24h-86v-30h-22v84h22zM100 433c0 -33 25 -58 57 -58s57 25 57 58s-25 58 -57 58s-57 -25 -57 -58zM103 -76h108v23h-37v16l37 21v26l-41 -24c-6 12 -17 20 -31 20c-21 0 -36 -16 -36 -38v-44zM103 26v24h108v-24h-108zM103 106l108 -42v25l-20 7v43
l20 8v26l-108 -44v-23zM103 186h108v66h-21v-42h-87v-24zM103 300h108v23h-41v38h-22v-38h-23v42h-22v-65zM103 509h108v23h-68l68 50v19h-108v-23h66l-66 -47v-22zM103 617h22v30h86v24h-86v30h-22v-84zM123 433c0 20 14 34 34 34s35 -14 35 -34c0 -19 -15 -34 -35 -34
s-34 15 -34 34zM124 -53v19c0 10 6 16 14 16c9 0 15 -6 15 -16v-19h-29zM131 118l39 14v-28z" />
    <glyph glyph-name="uni0439.ss02" 
d="M125 -92v-30h86v-24h-86v-30h-22v84h22zM100 433c0 -33 25 -58 57 -58s57 25 57 58s-25 58 -57 58s-57 -25 -57 -58zM103 -76h108v23h-37v16l37 21v26l-41 -24c-6 12 -17 20 -31 20c-21 0 -36 -16 -36 -38v-44zM103 26v24h108v-24h-108zM103 106l108 -42v25l-20 7v43
l20 8v26l-108 -44v-23zM103 186h108v66h-21v-42h-87v-24zM103 300h108v23h-41v38h-22v-38h-23v42h-22v-65zM103 509h108v23h-68l68 50v19h-108v-23h66l-66 -47v-22zM103 617h22v30h86v24h-86v30h-22v-84zM123 433c0 20 14 34 34 34s35 -14 35 -34c0 -19 -15 -34 -35 -34
s-34 15 -34 34zM124 -53v19c0 10 6 16 14 16c9 0 15 -6 15 -16v-19h-29zM131 118l39 14v-28z" />
    <glyph glyph-name="uni045D.ss02" 
d="M125 -92v-30h86v-24h-86v-30h-22v84h22zM100 433c0 -33 25 -58 57 -58s57 25 57 58s-25 58 -57 58s-57 -25 -57 -58zM103 -76h108v23h-37v16l37 21v26l-41 -24c-6 12 -17 20 -31 20c-21 0 -36 -16 -36 -38v-44zM103 26v24h108v-24h-108zM103 106l108 -42v25l-20 7v43
l20 8v26l-108 -44v-23zM103 186h108v66h-21v-42h-87v-24zM103 300h108v23h-41v38h-22v-38h-23v42h-22v-65zM103 509h108v23h-68l68 50v19h-108v-23h66l-66 -47v-22zM103 617h22v30h86v24h-86v30h-22v-84zM123 433c0 20 14 34 34 34s35 -14 35 -34c0 -19 -15 -34 -35 -34
s-34 15 -34 34zM124 -53v19c0 10 6 16 14 16c9 0 15 -6 15 -16v-19h-29zM131 118l39 14v-28z" />
    <glyph glyph-name="uni043A.ss02" 
d="M125 -92v-30h86v-24h-86v-30h-22v84h22zM100 433c0 -33 25 -58 57 -58s57 25 57 58s-25 58 -57 58s-57 -25 -57 -58zM103 -76h108v23h-37v16l37 21v26l-41 -24c-6 12 -17 20 -31 20c-21 0 -36 -16 -36 -38v-44zM103 26v24h108v-24h-108zM103 106l108 -42v25l-20 7v43
l20 8v26l-108 -44v-23zM103 186h108v66h-21v-42h-87v-24zM103 300h108v23h-41v38h-22v-38h-23v42h-22v-65zM103 509h108v23h-68l68 50v19h-108v-23h66l-66 -47v-22zM103 617h22v30h86v24h-86v30h-22v-84zM123 433c0 20 14 34 34 34s35 -14 35 -34c0 -19 -15 -34 -35 -34
s-34 15 -34 34zM124 -53v19c0 10 6 16 14 16c9 0 15 -6 15 -16v-19h-29zM131 118l39 14v-28z" />
    <glyph glyph-name="uni043B.ss02" 
d="M125 -92v-30h86v-24h-86v-30h-22v84h22zM100 433c0 -33 25 -58 57 -58s57 25 57 58s-25 58 -57 58s-57 -25 -57 -58zM103 -76h108v23h-37v16l37 21v26l-41 -24c-6 12 -17 20 -31 20c-21 0 -36 -16 -36 -38v-44zM103 26v24h108v-24h-108zM103 106l108 -42v25l-20 7v43
l20 8v26l-108 -44v-23zM103 186h108v66h-21v-42h-87v-24zM103 300h108v23h-41v38h-22v-38h-23v42h-22v-65zM103 509h108v23h-68l68 50v19h-108v-23h66l-66 -47v-22zM103 617h22v30h86v24h-86v30h-22v-84zM123 433c0 20 14 34 34 34s35 -14 35 -34c0 -19 -15 -34 -35 -34
s-34 15 -34 34zM124 -53v19c0 10 6 16 14 16c9 0 15 -6 15 -16v-19h-29zM131 118l39 14v-28z" />
    <glyph glyph-name="uni043F.ss02" 
d="M125 -92v-30h86v-24h-86v-30h-22v84h22zM100 433c0 -33 25 -58 57 -58s57 25 57 58s-25 58 -57 58s-57 -25 -57 -58zM103 -76h108v23h-37v16l37 21v26l-41 -24c-6 12 -17 20 -31 20c-21 0 -36 -16 -36 -38v-44zM103 26v24h108v-24h-108zM103 106l108 -42v25l-20 7v43
l20 8v26l-108 -44v-23zM103 186h108v66h-21v-42h-87v-24zM103 300h108v23h-41v38h-22v-38h-23v42h-22v-65zM103 509h108v23h-68l68 50v19h-108v-23h66l-66 -47v-22zM103 617h22v30h86v24h-86v30h-22v-84zM123 433c0 20 14 34 34 34s35 -14 35 -34c0 -19 -15 -34 -35 -34
s-34 15 -34 34zM124 -53v19c0 10 6 16 14 16c9 0 15 -6 15 -16v-19h-29zM131 118l39 14v-28z" />
    <glyph glyph-name="uni0442.ss02" 
d="M125 -92v-30h86v-24h-86v-30h-22v84h22zM100 433c0 -33 25 -58 57 -58s57 25 57 58s-25 58 -57 58s-57 -25 -57 -58zM103 -76h108v23h-37v16l37 21v26l-41 -24c-6 12 -17 20 -31 20c-21 0 -36 -16 -36 -38v-44zM103 26v24h108v-24h-108zM103 106l108 -42v25l-20 7v43
l20 8v26l-108 -44v-23zM103 186h108v66h-21v-42h-87v-24zM103 300h108v23h-41v38h-22v-38h-23v42h-22v-65zM103 509h108v23h-68l68 50v19h-108v-23h66l-66 -47v-22zM103 617h22v30h86v24h-86v30h-22v-84zM123 433c0 20 14 34 34 34s35 -14 35 -34c0 -19 -15 -34 -35 -34
s-34 15 -34 34zM124 -53v19c0 10 6 16 14 16c9 0 15 -6 15 -16v-19h-29zM131 118l39 14v-28z" />
    <glyph glyph-name="uni0446.ss02" 
d="M125 -92v-30h86v-24h-86v-30h-22v84h22zM100 433c0 -33 25 -58 57 -58s57 25 57 58s-25 58 -57 58s-57 -25 -57 -58zM103 -76h108v23h-37v16l37 21v26l-41 -24c-6 12 -17 20 -31 20c-21 0 -36 -16 -36 -38v-44zM103 26v24h108v-24h-108zM103 106l108 -42v25l-20 7v43
l20 8v26l-108 -44v-23zM103 186h108v66h-21v-42h-87v-24zM103 300h108v23h-41v38h-22v-38h-23v42h-22v-65zM103 509h108v23h-68l68 50v19h-108v-23h66l-66 -47v-22zM103 617h22v30h86v24h-86v30h-22v-84zM123 433c0 20 14 34 34 34s35 -14 35 -34c0 -19 -15 -34 -35 -34
s-34 15 -34 34zM124 -53v19c0 10 6 16 14 16c9 0 15 -6 15 -16v-19h-29zM131 118l39 14v-28z" />
    <glyph glyph-name="uni0448.ss02" 
d="M125 -92v-30h86v-24h-86v-30h-22v84h22zM100 433c0 -33 25 -58 57 -58s57 25 57 58s-25 58 -57 58s-57 -25 -57 -58zM103 -76h108v23h-37v16l37 21v26l-41 -24c-6 12 -17 20 -31 20c-21 0 -36 -16 -36 -38v-44zM103 26v24h108v-24h-108zM103 106l108 -42v25l-20 7v43
l20 8v26l-108 -44v-23zM103 186h108v66h-21v-42h-87v-24zM103 300h108v23h-41v38h-22v-38h-23v42h-22v-65zM103 509h108v23h-68l68 50v19h-108v-23h66l-66 -47v-22zM103 617h22v30h86v24h-86v30h-22v-84zM123 433c0 20 14 34 34 34s35 -14 35 -34c0 -19 -15 -34 -35 -34
s-34 15 -34 34zM124 -53v19c0 10 6 16 14 16c9 0 15 -6 15 -16v-19h-29zM131 118l39 14v-28z" />
    <glyph glyph-name="uni0449.ss02" 
d="M125 -92v-30h86v-24h-86v-30h-22v84h22zM100 433c0 -33 25 -58 57 -58s57 25 57 58s-25 58 -57 58s-57 -25 -57 -58zM103 -76h108v23h-37v16l37 21v26l-41 -24c-6 12 -17 20 -31 20c-21 0 -36 -16 -36 -38v-44zM103 26v24h108v-24h-108zM103 106l108 -42v25l-20 7v43
l20 8v26l-108 -44v-23zM103 186h108v66h-21v-42h-87v-24zM103 300h108v23h-41v38h-22v-38h-23v42h-22v-65zM103 509h108v23h-68l68 50v19h-108v-23h66l-66 -47v-22zM103 617h22v30h86v24h-86v30h-22v-84zM123 433c0 20 14 34 34 34s35 -14 35 -34c0 -19 -15 -34 -35 -34
s-34 15 -34 34zM124 -53v19c0 10 6 16 14 16c9 0 15 -6 15 -16v-19h-29zM131 118l39 14v-28z" />
    <glyph glyph-name="uni044E.ss02" 
d="M125 -92v-30h86v-24h-86v-30h-22v84h22zM100 433c0 -33 25 -58 57 -58s57 25 57 58s-25 58 -57 58s-57 -25 -57 -58zM103 -76h108v23h-37v16l37 21v26l-41 -24c-6 12 -17 20 -31 20c-21 0 -36 -16 -36 -38v-44zM103 26v24h108v-24h-108zM103 106l108 -42v25l-20 7v43
l20 8v26l-108 -44v-23zM103 186h108v66h-21v-42h-87v-24zM103 300h108v23h-41v38h-22v-38h-23v42h-22v-65zM103 509h108v23h-68l68 50v19h-108v-23h66l-66 -47v-22zM103 617h22v30h86v24h-86v30h-22v-84zM123 433c0 20 14 34 34 34s35 -14 35 -34c0 -19 -15 -34 -35 -34
s-34 15 -34 34zM124 -53v19c0 10 6 16 14 16c9 0 15 -6 15 -16v-19h-29zM131 118l39 14v-28z" />
    <glyph glyph-name="zero" unicode="0" horiz-adv-x="708" 
d="M354 -15c-222 0 -315 161 -315 355s93 355 315 355s315 -161 315 -355s-93 -355 -315 -355zM224 340c0 -131 41 -195 130 -195s130 64 130 195s-41 195 -130 195s-130 -64 -130 -195z" />
    <glyph glyph-name="one" unicode="1" horiz-adv-x="478" 
d="M50 0v155h120v342l-120 -45v165l165 63h135v-525h106v-155h-406z" />
    <glyph glyph-name="two" unicode="2" horiz-adv-x="608" 
d="M38 81c0 164 125 228 222 285c63 37 115 56 115 108c0 41 -37 61 -89 61c-68 0 -152 -27 -226 -85v170c72 51 156 75 243 75c136 0 257 -60 257 -211c0 -115 -94 -183 -180 -235c-73 -44 -130 -76 -130 -94h315v-155h-527v81z" />
    <glyph glyph-name="three" unicode="3" horiz-adv-x="604" 
d="M281 -15c-82 0 -152 13 -235 46v170c82 -47 149 -57 220 -56c66 1 124 21 124 71c0 40 -37 56 -93 56h-116l1 155l94 -1c49 -1 87 12 87 51c0 38 -36 58 -105 58c-56 0 -133 -21 -200 -66v170c61 35 143 56 225 56c143 0 255 -58 255 -189c0 -71 -38 -121 -105 -144
c75 -23 133 -78 133 -176c0 -149 -142 -201 -285 -201z" />
    <glyph glyph-name="four" unicode="4" horiz-adv-x="666" 
d="M367 0v110h-345v150l340 420h180v-420h90v-150h-90v-110h-175zM206 260h161v199z" />
    <glyph glyph-name="five" unicode="5" horiz-adv-x="598" 
d="M262 -15c-79 0 -158 17 -219 46v170c53 -37 133 -56 199 -56c77 0 136 23 136 76c0 43 -35 76 -146 77c-43 0 -105 -6 -168 -28l24 411h445v-155l-279 1l-7 -100c25 4 50 6 73 6c139 0 243 -63 243 -216c0 -168 -149 -232 -301 -232z" />
    </font>
</defs>
</svg>
