<?xml version="1.0" standalone="no"?>
<!DOCTYPE svg PUBLIC "-//W3C//DTD SVG 1.1//EN" "http://www.w3.org/Graphics/SVG/1.1/DTD/svg11.dtd" >
<svg xmlns="http://www.w3.org/2000/svg" xmlns:xlink="http://www.w3.org/1999/xlink" version="1.1">
<metadata>
Created by FontForge 20201107 at Thu Jun 10 13:15:00 2021
 By Jimmy Wärting
Copyright \(c\) 2015 by Fontfabric LLC. All rights reserved.
</metadata>
<defs>
<font id="Muller-Trial-Regular" horiz-adv-x="314" >
  <font-face 
    font-family="Muller-Trial"
    font-weight="400"
    font-stretch="normal"
    units-per-em="1000"
    panose-1="0 0 0 0 0 0 0 0 0 0"
    ascent="767"
    descent="-233"
    x-height="480"
    cap-height="700"
    bbox="-56 -232 1110 892"
    underline-thickness="50"
    underline-position="-125"
    stemh="78"
    stemv="82"
    unicode-range="U+0020-F8FF"
  />
<missing-glyph horiz-adv-x="305" 
d="M205 -105c0 25 -17 44 -41 49v-23c13 -3 21 -13 21 -26c0 -17 -15 -30 -32 -30c-18 0 -32 13 -32 30c0 13 7 23 19 26v22c-24 -4 -40 -24 -40 -48c0 -30 23 -53 53 -53s52 23 52 53zM100 7c0 -30 23 -53 53 -53s52 23 52 53c0 31 -22 54 -52 54s-53 -23 -53 -54zM100 408
c0 -29 23 -52 53 -52s52 23 52 52c0 26 -17 45 -41 50v-23c13 -3 21 -13 21 -27c0 -17 -15 -30 -32 -30c-18 0 -32 13 -32 30c0 13 7 23 19 27v23c-24 -5 -40 -25 -40 -50zM100 724c0 -23 11 -37 31 -37c22 0 26 19 30 34c2 10 4 19 12 19s12 -7 12 -16c0 -8 -4 -16 -15 -16
v-23c22 0 35 16 35 39c0 22 -11 39 -33 39c-21 0 -27 -19 -31 -35c-2 -11 -4 -20 -12 -20c-6 0 -9 8 -9 16c0 7 4 15 13 15v21c-21 0 -33 -13 -33 -36zM102 79h101v21h-63l63 46v18h-101v-21h62l-62 -44v-20zM102 178h21v30h80v21h-80v28h-21v-79zM102 291l101 -39v23l-18 7
v40l18 8v23l-101 -41v-21zM102 463h21v28h80v23h-80v27h-21v-78zM102 585h63c23 0 40 18 40 43c0 23 -17 41 -40 41h-63v-22h62c13 0 21 -8 21 -19c0 -13 -8 -21 -21 -21h-62v-22zM121 7c0 18 14 32 32 32c17 0 32 -14 32 -32c0 -17 -15 -32 -32 -32c-18 0 -32 15 -32 32z
M128 302l37 14v-28z" />
    <glyph glyph-name="f_f" unicode="ff" 
d="M125 -82v-30h86v-24h-86v-30h-22v84h22zM100 443c0 -33 25 -58 57 -58s57 25 57 58s-25 58 -57 58s-57 -25 -57 -58zM103 -66h108v23h-37v16l37 21v26l-41 -24c-6 12 -17 20 -31 20c-21 0 -36 -16 -36 -38v-44zM103 36v24h108v-24h-108zM103 116l108 -42v25l-20 7v43
l20 8v26l-108 -44v-23zM103 196h108v66h-21v-42h-87v-24zM103 310h108v23h-41v38h-22v-38h-23v42h-22v-65zM103 519h108v23h-68l68 50v19h-108v-23h66l-66 -47v-22zM103 627h22v30h86v24h-86v30h-22v-84zM123 443c0 20 14 34 34 34s35 -14 35 -34c0 -19 -15 -34 -35 -34
s-34 15 -34 34zM124 -43v19c0 10 6 16 14 16c9 0 15 -6 15 -16v-19h-29zM131 128l39 14v-28z" />
    <glyph glyph-name="f_f_i" unicode="ffi" 
d="M125 -82v-30h86v-24h-86v-30h-22v84h22zM100 443c0 -33 25 -58 57 -58s57 25 57 58s-25 58 -57 58s-57 -25 -57 -58zM103 -66h108v23h-37v16l37 21v26l-41 -24c-6 12 -17 20 -31 20c-21 0 -36 -16 -36 -38v-44zM103 36v24h108v-24h-108zM103 116l108 -42v25l-20 7v43
l20 8v26l-108 -44v-23zM103 196h108v66h-21v-42h-87v-24zM103 310h108v23h-41v38h-22v-38h-23v42h-22v-65zM103 519h108v23h-68l68 50v19h-108v-23h66l-66 -47v-22zM103 627h22v30h86v24h-86v30h-22v-84zM123 443c0 20 14 34 34 34s35 -14 35 -34c0 -19 -15 -34 -35 -34
s-34 15 -34 34zM124 -43v19c0 10 6 16 14 16c9 0 15 -6 15 -16v-19h-29zM131 128l39 14v-28z" />
    <glyph glyph-name="f_f_l" unicode="ffl" 
d="M125 -82v-30h86v-24h-86v-30h-22v84h22zM100 443c0 -33 25 -58 57 -58s57 25 57 58s-25 58 -57 58s-57 -25 -57 -58zM103 -66h108v23h-37v16l37 21v26l-41 -24c-6 12 -17 20 -31 20c-21 0 -36 -16 -36 -38v-44zM103 36v24h108v-24h-108zM103 116l108 -42v25l-20 7v43
l20 8v26l-108 -44v-23zM103 196h108v66h-21v-42h-87v-24zM103 310h108v23h-41v38h-22v-38h-23v42h-22v-65zM103 519h108v23h-68l68 50v19h-108v-23h66l-66 -47v-22zM103 627h22v30h86v24h-86v30h-22v-84zM123 443c0 20 14 34 34 34s35 -14 35 -34c0 -19 -15 -34 -35 -34
s-34 15 -34 34zM124 -43v19c0 10 6 16 14 16c9 0 15 -6 15 -16v-19h-29zM131 128l39 14v-28z" />
    <glyph glyph-name="f_i" unicode="fi" 
d="M125 -82v-30h86v-24h-86v-30h-22v84h22zM100 443c0 -33 25 -58 57 -58s57 25 57 58s-25 58 -57 58s-57 -25 -57 -58zM103 -66h108v23h-37v16l37 21v26l-41 -24c-6 12 -17 20 -31 20c-21 0 -36 -16 -36 -38v-44zM103 36v24h108v-24h-108zM103 116l108 -42v25l-20 7v43
l20 8v26l-108 -44v-23zM103 196h108v66h-21v-42h-87v-24zM103 310h108v23h-41v38h-22v-38h-23v42h-22v-65zM103 519h108v23h-68l68 50v19h-108v-23h66l-66 -47v-22zM103 627h22v30h86v24h-86v30h-22v-84zM123 443c0 20 14 34 34 34s35 -14 35 -34c0 -19 -15 -34 -35 -34
s-34 15 -34 34zM124 -43v19c0 10 6 16 14 16c9 0 15 -6 15 -16v-19h-29zM131 128l39 14v-28z" />
    <glyph glyph-name="f_l" unicode="fl" 
d="M125 -82v-30h86v-24h-86v-30h-22v84h22zM100 443c0 -33 25 -58 57 -58s57 25 57 58s-25 58 -57 58s-57 -25 -57 -58zM103 -66h108v23h-37v16l37 21v26l-41 -24c-6 12 -17 20 -31 20c-21 0 -36 -16 -36 -38v-44zM103 36v24h108v-24h-108zM103 116l108 -42v25l-20 7v43
l20 8v26l-108 -44v-23zM103 196h108v66h-21v-42h-87v-24zM103 310h108v23h-41v38h-22v-38h-23v42h-22v-65zM103 519h108v23h-68l68 50v19h-108v-23h66l-66 -47v-22zM103 627h22v30h86v24h-86v30h-22v-84zM123 443c0 20 14 34 34 34s35 -14 35 -34c0 -19 -15 -34 -35 -34
s-34 15 -34 34zM124 -43v19c0 10 6 16 14 16c9 0 15 -6 15 -16v-19h-29zM131 128l39 14v-28z" />
    <glyph glyph-name=".notdef" horiz-adv-x="305" 
d="M205 -105c0 25 -17 44 -41 49v-23c13 -3 21 -13 21 -26c0 -17 -15 -30 -32 -30c-18 0 -32 13 -32 30c0 13 7 23 19 26v22c-24 -4 -40 -24 -40 -48c0 -30 23 -53 53 -53s52 23 52 53zM100 7c0 -30 23 -53 53 -53s52 23 52 53c0 31 -22 54 -52 54s-53 -23 -53 -54zM100 408
c0 -29 23 -52 53 -52s52 23 52 52c0 26 -17 45 -41 50v-23c13 -3 21 -13 21 -27c0 -17 -15 -30 -32 -30c-18 0 -32 13 -32 30c0 13 7 23 19 27v23c-24 -5 -40 -25 -40 -50zM100 724c0 -23 11 -37 31 -37c22 0 26 19 30 34c2 10 4 19 12 19s12 -7 12 -16c0 -8 -4 -16 -15 -16
v-23c22 0 35 16 35 39c0 22 -11 39 -33 39c-21 0 -27 -19 -31 -35c-2 -11 -4 -20 -12 -20c-6 0 -9 8 -9 16c0 7 4 15 13 15v21c-21 0 -33 -13 -33 -36zM102 79h101v21h-63l63 46v18h-101v-21h62l-62 -44v-20zM102 178h21v30h80v21h-80v28h-21v-79zM102 291l101 -39v23l-18 7
v40l18 8v23l-101 -41v-21zM102 463h21v28h80v23h-80v27h-21v-78zM102 585h63c23 0 40 18 40 43c0 23 -17 41 -40 41h-63v-22h62c13 0 21 -8 21 -19c0 -13 -8 -21 -21 -21h-62v-22zM121 7c0 18 14 32 32 32c17 0 32 -14 32 -32c0 -17 -15 -32 -32 -32c-18 0 -32 15 -32 32z
M128 302l37 14v-28z" />
    <glyph glyph-name="space" unicode=" " horiz-adv-x="249" 
 />
    <glyph glyph-name="space" unicode="&#xa0;" horiz-adv-x="249" 
 />
    <glyph glyph-name="A" unicode="A" horiz-adv-x="717" 
d="M7 0l305 700h93l304 -700h-90l-72 169h-377l-72 -169h-91zM203 247h311l-145 340l-11 28c-4 -10 -7 -19 -11 -28z" />
    <glyph glyph-name="Aacute" unicode="&#xc1;" 
d="M125 -82v-30h86v-24h-86v-30h-22v84h22zM100 443c0 -33 25 -58 57 -58s57 25 57 58s-25 58 -57 58s-57 -25 -57 -58zM103 -66h108v23h-37v16l37 21v26l-41 -24c-6 12 -17 20 -31 20c-21 0 -36 -16 -36 -38v-44zM103 36v24h108v-24h-108zM103 116l108 -42v25l-20 7v43
l20 8v26l-108 -44v-23zM103 196h108v66h-21v-42h-87v-24zM103 310h108v23h-41v38h-22v-38h-23v42h-22v-65zM103 519h108v23h-68l68 50v19h-108v-23h66l-66 -47v-22zM103 627h22v30h86v24h-86v30h-22v-84zM123 443c0 20 14 34 34 34s35 -14 35 -34c0 -19 -15 -34 -35 -34
s-34 15 -34 34zM124 -43v19c0 10 6 16 14 16c9 0 15 -6 15 -16v-19h-29zM131 128l39 14v-28z" />
    <glyph glyph-name="Abreve" unicode="&#x102;" 
d="M125 -82v-30h86v-24h-86v-30h-22v84h22zM100 443c0 -33 25 -58 57 -58s57 25 57 58s-25 58 -57 58s-57 -25 -57 -58zM103 -66h108v23h-37v16l37 21v26l-41 -24c-6 12 -17 20 -31 20c-21 0 -36 -16 -36 -38v-44zM103 36v24h108v-24h-108zM103 116l108 -42v25l-20 7v43
l20 8v26l-108 -44v-23zM103 196h108v66h-21v-42h-87v-24zM103 310h108v23h-41v38h-22v-38h-23v42h-22v-65zM103 519h108v23h-68l68 50v19h-108v-23h66l-66 -47v-22zM103 627h22v30h86v24h-86v30h-22v-84zM123 443c0 20 14 34 34 34s35 -14 35 -34c0 -19 -15 -34 -35 -34
s-34 15 -34 34zM124 -43v19c0 10 6 16 14 16c9 0 15 -6 15 -16v-19h-29zM131 128l39 14v-28z" />
    <glyph glyph-name="Acircumflex" unicode="&#xc2;" 
d="M125 -82v-30h86v-24h-86v-30h-22v84h22zM100 443c0 -33 25 -58 57 -58s57 25 57 58s-25 58 -57 58s-57 -25 -57 -58zM103 -66h108v23h-37v16l37 21v26l-41 -24c-6 12 -17 20 -31 20c-21 0 -36 -16 -36 -38v-44zM103 36v24h108v-24h-108zM103 116l108 -42v25l-20 7v43
l20 8v26l-108 -44v-23zM103 196h108v66h-21v-42h-87v-24zM103 310h108v23h-41v38h-22v-38h-23v42h-22v-65zM103 519h108v23h-68l68 50v19h-108v-23h66l-66 -47v-22zM103 627h22v30h86v24h-86v30h-22v-84zM123 443c0 20 14 34 34 34s35 -14 35 -34c0 -19 -15 -34 -35 -34
s-34 15 -34 34zM124 -43v19c0 10 6 16 14 16c9 0 15 -6 15 -16v-19h-29zM131 128l39 14v-28z" />
    <glyph glyph-name="Adieresis" unicode="&#xc4;" 
d="M125 -82v-30h86v-24h-86v-30h-22v84h22zM100 443c0 -33 25 -58 57 -58s57 25 57 58s-25 58 -57 58s-57 -25 -57 -58zM103 -66h108v23h-37v16l37 21v26l-41 -24c-6 12 -17 20 -31 20c-21 0 -36 -16 -36 -38v-44zM103 36v24h108v-24h-108zM103 116l108 -42v25l-20 7v43
l20 8v26l-108 -44v-23zM103 196h108v66h-21v-42h-87v-24zM103 310h108v23h-41v38h-22v-38h-23v42h-22v-65zM103 519h108v23h-68l68 50v19h-108v-23h66l-66 -47v-22zM103 627h22v30h86v24h-86v30h-22v-84zM123 443c0 20 14 34 34 34s35 -14 35 -34c0 -19 -15 -34 -35 -34
s-34 15 -34 34zM124 -43v19c0 10 6 16 14 16c9 0 15 -6 15 -16v-19h-29zM131 128l39 14v-28z" />
    <glyph glyph-name="Agrave" unicode="&#xc0;" 
d="M125 -82v-30h86v-24h-86v-30h-22v84h22zM100 443c0 -33 25 -58 57 -58s57 25 57 58s-25 58 -57 58s-57 -25 -57 -58zM103 -66h108v23h-37v16l37 21v26l-41 -24c-6 12 -17 20 -31 20c-21 0 -36 -16 -36 -38v-44zM103 36v24h108v-24h-108zM103 116l108 -42v25l-20 7v43
l20 8v26l-108 -44v-23zM103 196h108v66h-21v-42h-87v-24zM103 310h108v23h-41v38h-22v-38h-23v42h-22v-65zM103 519h108v23h-68l68 50v19h-108v-23h66l-66 -47v-22zM103 627h22v30h86v24h-86v30h-22v-84zM123 443c0 20 14 34 34 34s35 -14 35 -34c0 -19 -15 -34 -35 -34
s-34 15 -34 34zM124 -43v19c0 10 6 16 14 16c9 0 15 -6 15 -16v-19h-29zM131 128l39 14v-28z" />
    <glyph glyph-name="Amacron" unicode="&#x100;" 
d="M125 -82v-30h86v-24h-86v-30h-22v84h22zM100 443c0 -33 25 -58 57 -58s57 25 57 58s-25 58 -57 58s-57 -25 -57 -58zM103 -66h108v23h-37v16l37 21v26l-41 -24c-6 12 -17 20 -31 20c-21 0 -36 -16 -36 -38v-44zM103 36v24h108v-24h-108zM103 116l108 -42v25l-20 7v43
l20 8v26l-108 -44v-23zM103 196h108v66h-21v-42h-87v-24zM103 310h108v23h-41v38h-22v-38h-23v42h-22v-65zM103 519h108v23h-68l68 50v19h-108v-23h66l-66 -47v-22zM103 627h22v30h86v24h-86v30h-22v-84zM123 443c0 20 14 34 34 34s35 -14 35 -34c0 -19 -15 -34 -35 -34
s-34 15 -34 34zM124 -43v19c0 10 6 16 14 16c9 0 15 -6 15 -16v-19h-29zM131 128l39 14v-28z" />
    <glyph glyph-name="Aogonek" unicode="&#x104;" 
d="M125 -82v-30h86v-24h-86v-30h-22v84h22zM100 443c0 -33 25 -58 57 -58s57 25 57 58s-25 58 -57 58s-57 -25 -57 -58zM103 -66h108v23h-37v16l37 21v26l-41 -24c-6 12 -17 20 -31 20c-21 0 -36 -16 -36 -38v-44zM103 36v24h108v-24h-108zM103 116l108 -42v25l-20 7v43
l20 8v26l-108 -44v-23zM103 196h108v66h-21v-42h-87v-24zM103 310h108v23h-41v38h-22v-38h-23v42h-22v-65zM103 519h108v23h-68l68 50v19h-108v-23h66l-66 -47v-22zM103 627h22v30h86v24h-86v30h-22v-84zM123 443c0 20 14 34 34 34s35 -14 35 -34c0 -19 -15 -34 -35 -34
s-34 15 -34 34zM124 -43v19c0 10 6 16 14 16c9 0 15 -6 15 -16v-19h-29zM131 128l39 14v-28z" />
    <glyph glyph-name="Aring" unicode="&#xc5;" 
d="M125 -82v-30h86v-24h-86v-30h-22v84h22zM100 443c0 -33 25 -58 57 -58s57 25 57 58s-25 58 -57 58s-57 -25 -57 -58zM103 -66h108v23h-37v16l37 21v26l-41 -24c-6 12 -17 20 -31 20c-21 0 -36 -16 -36 -38v-44zM103 36v24h108v-24h-108zM103 116l108 -42v25l-20 7v43
l20 8v26l-108 -44v-23zM103 196h108v66h-21v-42h-87v-24zM103 310h108v23h-41v38h-22v-38h-23v42h-22v-65zM103 519h108v23h-68l68 50v19h-108v-23h66l-66 -47v-22zM103 627h22v30h86v24h-86v30h-22v-84zM123 443c0 20 14 34 34 34s35 -14 35 -34c0 -19 -15 -34 -35 -34
s-34 15 -34 34zM124 -43v19c0 10 6 16 14 16c9 0 15 -6 15 -16v-19h-29zM131 128l39 14v-28z" />
    <glyph glyph-name="Atilde" unicode="&#xc3;" 
d="M125 -82v-30h86v-24h-86v-30h-22v84h22zM100 443c0 -33 25 -58 57 -58s57 25 57 58s-25 58 -57 58s-57 -25 -57 -58zM103 -66h108v23h-37v16l37 21v26l-41 -24c-6 12 -17 20 -31 20c-21 0 -36 -16 -36 -38v-44zM103 36v24h108v-24h-108zM103 116l108 -42v25l-20 7v43
l20 8v26l-108 -44v-23zM103 196h108v66h-21v-42h-87v-24zM103 310h108v23h-41v38h-22v-38h-23v42h-22v-65zM103 519h108v23h-68l68 50v19h-108v-23h66l-66 -47v-22zM103 627h22v30h86v24h-86v30h-22v-84zM123 443c0 20 14 34 34 34s35 -14 35 -34c0 -19 -15 -34 -35 -34
s-34 15 -34 34zM124 -43v19c0 10 6 16 14 16c9 0 15 -6 15 -16v-19h-29zM131 128l39 14v-28z" />
    <glyph glyph-name="AE" unicode="&#xc6;" 
d="M125 -82v-30h86v-24h-86v-30h-22v84h22zM100 443c0 -33 25 -58 57 -58s57 25 57 58s-25 58 -57 58s-57 -25 -57 -58zM103 -66h108v23h-37v16l37 21v26l-41 -24c-6 12 -17 20 -31 20c-21 0 -36 -16 -36 -38v-44zM103 36v24h108v-24h-108zM103 116l108 -42v25l-20 7v43
l20 8v26l-108 -44v-23zM103 196h108v66h-21v-42h-87v-24zM103 310h108v23h-41v38h-22v-38h-23v42h-22v-65zM103 519h108v23h-68l68 50v19h-108v-23h66l-66 -47v-22zM103 627h22v30h86v24h-86v30h-22v-84zM123 443c0 20 14 34 34 34s35 -14 35 -34c0 -19 -15 -34 -35 -34
s-34 15 -34 34zM124 -43v19c0 10 6 16 14 16c9 0 15 -6 15 -16v-19h-29zM131 128l39 14v-28z" />
    <glyph glyph-name="B" unicode="B" horiz-adv-x="691" 
d="M92 0v700h287c143 0 238 -59 238 -177c0 -89 -57 -139 -112 -155c58 -16 140 -62 140 -176c0 -159 -156 -192 -258 -192h-295zM176 80h194c88 0 190 6 190 121c0 109 -100 121 -167 121h-217v-242zM176 402h219c73 0 137 29 137 109c0 83 -61 109 -160 109h-196v-218z
" />
    <glyph glyph-name="C" unicode="C" horiz-adv-x="653" 
d="M412 -12c-176 0 -368 124 -367 357c1 243 186 367 368 367c70 0 138 -16 197 -47v-84c-51 34 -117 51 -183 51c-145 0 -296 -87 -297 -287c-1 -187 155 -277 300 -277c72 0 137 17 185 51v-84c-58 -30 -128 -47 -203 -47z" />
    <glyph glyph-name="Cacute" unicode="&#x106;" 
d="M125 -82v-30h86v-24h-86v-30h-22v84h22zM100 443c0 -33 25 -58 57 -58s57 25 57 58s-25 58 -57 58s-57 -25 -57 -58zM103 -66h108v23h-37v16l37 21v26l-41 -24c-6 12 -17 20 -31 20c-21 0 -36 -16 -36 -38v-44zM103 36v24h108v-24h-108zM103 116l108 -42v25l-20 7v43
l20 8v26l-108 -44v-23zM103 196h108v66h-21v-42h-87v-24zM103 310h108v23h-41v38h-22v-38h-23v42h-22v-65zM103 519h108v23h-68l68 50v19h-108v-23h66l-66 -47v-22zM103 627h22v30h86v24h-86v30h-22v-84zM123 443c0 20 14 34 34 34s35 -14 35 -34c0 -19 -15 -34 -35 -34
s-34 15 -34 34zM124 -43v19c0 10 6 16 14 16c9 0 15 -6 15 -16v-19h-29zM131 128l39 14v-28z" />
    <glyph glyph-name="Ccaron" unicode="&#x10c;" 
d="M125 -82v-30h86v-24h-86v-30h-22v84h22zM100 443c0 -33 25 -58 57 -58s57 25 57 58s-25 58 -57 58s-57 -25 -57 -58zM103 -66h108v23h-37v16l37 21v26l-41 -24c-6 12 -17 20 -31 20c-21 0 -36 -16 -36 -38v-44zM103 36v24h108v-24h-108zM103 116l108 -42v25l-20 7v43
l20 8v26l-108 -44v-23zM103 196h108v66h-21v-42h-87v-24zM103 310h108v23h-41v38h-22v-38h-23v42h-22v-65zM103 519h108v23h-68l68 50v19h-108v-23h66l-66 -47v-22zM103 627h22v30h86v24h-86v30h-22v-84zM123 443c0 20 14 34 34 34s35 -14 35 -34c0 -19 -15 -34 -35 -34
s-34 15 -34 34zM124 -43v19c0 10 6 16 14 16c9 0 15 -6 15 -16v-19h-29zM131 128l39 14v-28z" />
    <glyph glyph-name="Ccedilla" unicode="&#xc7;" 
d="M125 -82v-30h86v-24h-86v-30h-22v84h22zM100 443c0 -33 25 -58 57 -58s57 25 57 58s-25 58 -57 58s-57 -25 -57 -58zM103 -66h108v23h-37v16l37 21v26l-41 -24c-6 12 -17 20 -31 20c-21 0 -36 -16 -36 -38v-44zM103 36v24h108v-24h-108zM103 116l108 -42v25l-20 7v43
l20 8v26l-108 -44v-23zM103 196h108v66h-21v-42h-87v-24zM103 310h108v23h-41v38h-22v-38h-23v42h-22v-65zM103 519h108v23h-68l68 50v19h-108v-23h66l-66 -47v-22zM103 627h22v30h86v24h-86v30h-22v-84zM123 443c0 20 14 34 34 34s35 -14 35 -34c0 -19 -15 -34 -35 -34
s-34 15 -34 34zM124 -43v19c0 10 6 16 14 16c9 0 15 -6 15 -16v-19h-29zM131 128l39 14v-28z" />
    <glyph glyph-name="Cdotaccent" unicode="&#x10a;" 
d="M125 -82v-30h86v-24h-86v-30h-22v84h22zM100 443c0 -33 25 -58 57 -58s57 25 57 58s-25 58 -57 58s-57 -25 -57 -58zM103 -66h108v23h-37v16l37 21v26l-41 -24c-6 12 -17 20 -31 20c-21 0 -36 -16 -36 -38v-44zM103 36v24h108v-24h-108zM103 116l108 -42v25l-20 7v43
l20 8v26l-108 -44v-23zM103 196h108v66h-21v-42h-87v-24zM103 310h108v23h-41v38h-22v-38h-23v42h-22v-65zM103 519h108v23h-68l68 50v19h-108v-23h66l-66 -47v-22zM103 627h22v30h86v24h-86v30h-22v-84zM123 443c0 20 14 34 34 34s35 -14 35 -34c0 -19 -15 -34 -35 -34
s-34 15 -34 34zM124 -43v19c0 10 6 16 14 16c9 0 15 -6 15 -16v-19h-29zM131 128l39 14v-28z" />
    <glyph glyph-name="D" unicode="D" horiz-adv-x="738" 
d="M92 0v700h230c247 0 370 -148 370 -350s-123 -350 -370 -350h-230zM176 80h146c189 0 285 102 285 270s-96 270 -285 270h-146v-540z" />
    <glyph glyph-name="Eth" unicode="&#xd0;" 
d="M125 -82v-30h86v-24h-86v-30h-22v84h22zM100 443c0 -33 25 -58 57 -58s57 25 57 58s-25 58 -57 58s-57 -25 -57 -58zM103 -66h108v23h-37v16l37 21v26l-41 -24c-6 12 -17 20 -31 20c-21 0 -36 -16 -36 -38v-44zM103 36v24h108v-24h-108zM103 116l108 -42v25l-20 7v43
l20 8v26l-108 -44v-23zM103 196h108v66h-21v-42h-87v-24zM103 310h108v23h-41v38h-22v-38h-23v42h-22v-65zM103 519h108v23h-68l68 50v19h-108v-23h66l-66 -47v-22zM103 627h22v30h86v24h-86v30h-22v-84zM123 443c0 20 14 34 34 34s35 -14 35 -34c0 -19 -15 -34 -35 -34
s-34 15 -34 34zM124 -43v19c0 10 6 16 14 16c9 0 15 -6 15 -16v-19h-29zM131 128l39 14v-28z" />
    <glyph glyph-name="Dcaron" unicode="&#x10e;" 
d="M125 -82v-30h86v-24h-86v-30h-22v84h22zM100 443c0 -33 25 -58 57 -58s57 25 57 58s-25 58 -57 58s-57 -25 -57 -58zM103 -66h108v23h-37v16l37 21v26l-41 -24c-6 12 -17 20 -31 20c-21 0 -36 -16 -36 -38v-44zM103 36v24h108v-24h-108zM103 116l108 -42v25l-20 7v43
l20 8v26l-108 -44v-23zM103 196h108v66h-21v-42h-87v-24zM103 310h108v23h-41v38h-22v-38h-23v42h-22v-65zM103 519h108v23h-68l68 50v19h-108v-23h66l-66 -47v-22zM103 627h22v30h86v24h-86v30h-22v-84zM123 443c0 20 14 34 34 34s35 -14 35 -34c0 -19 -15 -34 -35 -34
s-34 15 -34 34zM124 -43v19c0 10 6 16 14 16c9 0 15 -6 15 -16v-19h-29zM131 128l39 14v-28z" />
    <glyph glyph-name="Dcroat" unicode="&#x110;" 
d="M125 -82v-30h86v-24h-86v-30h-22v84h22zM100 443c0 -33 25 -58 57 -58s57 25 57 58s-25 58 -57 58s-57 -25 -57 -58zM103 -66h108v23h-37v16l37 21v26l-41 -24c-6 12 -17 20 -31 20c-21 0 -36 -16 -36 -38v-44zM103 36v24h108v-24h-108zM103 116l108 -42v25l-20 7v43
l20 8v26l-108 -44v-23zM103 196h108v66h-21v-42h-87v-24zM103 310h108v23h-41v38h-22v-38h-23v42h-22v-65zM103 519h108v23h-68l68 50v19h-108v-23h66l-66 -47v-22zM103 627h22v30h86v24h-86v30h-22v-84zM123 443c0 20 14 34 34 34s35 -14 35 -34c0 -19 -15 -34 -35 -34
s-34 15 -34 34zM124 -43v19c0 10 6 16 14 16c9 0 15 -6 15 -16v-19h-29zM131 128l39 14v-28z" />
    <glyph glyph-name="E" unicode="E" horiz-adv-x="620" 
d="M92 0v700h472v-80h-388v-227h358v-80h-358v-233h394v-80h-478z" />
    <glyph glyph-name="Eacute" unicode="&#xc9;" 
d="M125 -82v-30h86v-24h-86v-30h-22v84h22zM100 443c0 -33 25 -58 57 -58s57 25 57 58s-25 58 -57 58s-57 -25 -57 -58zM103 -66h108v23h-37v16l37 21v26l-41 -24c-6 12 -17 20 -31 20c-21 0 -36 -16 -36 -38v-44zM103 36v24h108v-24h-108zM103 116l108 -42v25l-20 7v43
l20 8v26l-108 -44v-23zM103 196h108v66h-21v-42h-87v-24zM103 310h108v23h-41v38h-22v-38h-23v42h-22v-65zM103 519h108v23h-68l68 50v19h-108v-23h66l-66 -47v-22zM103 627h22v30h86v24h-86v30h-22v-84zM123 443c0 20 14 34 34 34s35 -14 35 -34c0 -19 -15 -34 -35 -34
s-34 15 -34 34zM124 -43v19c0 10 6 16 14 16c9 0 15 -6 15 -16v-19h-29zM131 128l39 14v-28z" />
    <glyph glyph-name="Ecaron" unicode="&#x11a;" 
d="M125 -82v-30h86v-24h-86v-30h-22v84h22zM100 443c0 -33 25 -58 57 -58s57 25 57 58s-25 58 -57 58s-57 -25 -57 -58zM103 -66h108v23h-37v16l37 21v26l-41 -24c-6 12 -17 20 -31 20c-21 0 -36 -16 -36 -38v-44zM103 36v24h108v-24h-108zM103 116l108 -42v25l-20 7v43
l20 8v26l-108 -44v-23zM103 196h108v66h-21v-42h-87v-24zM103 310h108v23h-41v38h-22v-38h-23v42h-22v-65zM103 519h108v23h-68l68 50v19h-108v-23h66l-66 -47v-22zM103 627h22v30h86v24h-86v30h-22v-84zM123 443c0 20 14 34 34 34s35 -14 35 -34c0 -19 -15 -34 -35 -34
s-34 15 -34 34zM124 -43v19c0 10 6 16 14 16c9 0 15 -6 15 -16v-19h-29zM131 128l39 14v-28z" />
    <glyph glyph-name="Ecircumflex" unicode="&#xca;" 
d="M125 -82v-30h86v-24h-86v-30h-22v84h22zM100 443c0 -33 25 -58 57 -58s57 25 57 58s-25 58 -57 58s-57 -25 -57 -58zM103 -66h108v23h-37v16l37 21v26l-41 -24c-6 12 -17 20 -31 20c-21 0 -36 -16 -36 -38v-44zM103 36v24h108v-24h-108zM103 116l108 -42v25l-20 7v43
l20 8v26l-108 -44v-23zM103 196h108v66h-21v-42h-87v-24zM103 310h108v23h-41v38h-22v-38h-23v42h-22v-65zM103 519h108v23h-68l68 50v19h-108v-23h66l-66 -47v-22zM103 627h22v30h86v24h-86v30h-22v-84zM123 443c0 20 14 34 34 34s35 -14 35 -34c0 -19 -15 -34 -35 -34
s-34 15 -34 34zM124 -43v19c0 10 6 16 14 16c9 0 15 -6 15 -16v-19h-29zM131 128l39 14v-28z" />
    <glyph glyph-name="Edieresis" unicode="&#xcb;" 
d="M125 -82v-30h86v-24h-86v-30h-22v84h22zM100 443c0 -33 25 -58 57 -58s57 25 57 58s-25 58 -57 58s-57 -25 -57 -58zM103 -66h108v23h-37v16l37 21v26l-41 -24c-6 12 -17 20 -31 20c-21 0 -36 -16 -36 -38v-44zM103 36v24h108v-24h-108zM103 116l108 -42v25l-20 7v43
l20 8v26l-108 -44v-23zM103 196h108v66h-21v-42h-87v-24zM103 310h108v23h-41v38h-22v-38h-23v42h-22v-65zM103 519h108v23h-68l68 50v19h-108v-23h66l-66 -47v-22zM103 627h22v30h86v24h-86v30h-22v-84zM123 443c0 20 14 34 34 34s35 -14 35 -34c0 -19 -15 -34 -35 -34
s-34 15 -34 34zM124 -43v19c0 10 6 16 14 16c9 0 15 -6 15 -16v-19h-29zM131 128l39 14v-28z" />
    <glyph glyph-name="Edotaccent" unicode="&#x116;" 
d="M125 -82v-30h86v-24h-86v-30h-22v84h22zM100 443c0 -33 25 -58 57 -58s57 25 57 58s-25 58 -57 58s-57 -25 -57 -58zM103 -66h108v23h-37v16l37 21v26l-41 -24c-6 12 -17 20 -31 20c-21 0 -36 -16 -36 -38v-44zM103 36v24h108v-24h-108zM103 116l108 -42v25l-20 7v43
l20 8v26l-108 -44v-23zM103 196h108v66h-21v-42h-87v-24zM103 310h108v23h-41v38h-22v-38h-23v42h-22v-65zM103 519h108v23h-68l68 50v19h-108v-23h66l-66 -47v-22zM103 627h22v30h86v24h-86v30h-22v-84zM123 443c0 20 14 34 34 34s35 -14 35 -34c0 -19 -15 -34 -35 -34
s-34 15 -34 34zM124 -43v19c0 10 6 16 14 16c9 0 15 -6 15 -16v-19h-29zM131 128l39 14v-28z" />
    <glyph glyph-name="Egrave" unicode="&#xc8;" 
d="M125 -82v-30h86v-24h-86v-30h-22v84h22zM100 443c0 -33 25 -58 57 -58s57 25 57 58s-25 58 -57 58s-57 -25 -57 -58zM103 -66h108v23h-37v16l37 21v26l-41 -24c-6 12 -17 20 -31 20c-21 0 -36 -16 -36 -38v-44zM103 36v24h108v-24h-108zM103 116l108 -42v25l-20 7v43
l20 8v26l-108 -44v-23zM103 196h108v66h-21v-42h-87v-24zM103 310h108v23h-41v38h-22v-38h-23v42h-22v-65zM103 519h108v23h-68l68 50v19h-108v-23h66l-66 -47v-22zM103 627h22v30h86v24h-86v30h-22v-84zM123 443c0 20 14 34 34 34s35 -14 35 -34c0 -19 -15 -34 -35 -34
s-34 15 -34 34zM124 -43v19c0 10 6 16 14 16c9 0 15 -6 15 -16v-19h-29zM131 128l39 14v-28z" />
    <glyph glyph-name="Emacron" unicode="&#x112;" 
d="M125 -82v-30h86v-24h-86v-30h-22v84h22zM100 443c0 -33 25 -58 57 -58s57 25 57 58s-25 58 -57 58s-57 -25 -57 -58zM103 -66h108v23h-37v16l37 21v26l-41 -24c-6 12 -17 20 -31 20c-21 0 -36 -16 -36 -38v-44zM103 36v24h108v-24h-108zM103 116l108 -42v25l-20 7v43
l20 8v26l-108 -44v-23zM103 196h108v66h-21v-42h-87v-24zM103 310h108v23h-41v38h-22v-38h-23v42h-22v-65zM103 519h108v23h-68l68 50v19h-108v-23h66l-66 -47v-22zM103 627h22v30h86v24h-86v30h-22v-84zM123 443c0 20 14 34 34 34s35 -14 35 -34c0 -19 -15 -34 -35 -34
s-34 15 -34 34zM124 -43v19c0 10 6 16 14 16c9 0 15 -6 15 -16v-19h-29zM131 128l39 14v-28z" />
    <glyph glyph-name="Eogonek" unicode="&#x118;" 
d="M125 -82v-30h86v-24h-86v-30h-22v84h22zM100 443c0 -33 25 -58 57 -58s57 25 57 58s-25 58 -57 58s-57 -25 -57 -58zM103 -66h108v23h-37v16l37 21v26l-41 -24c-6 12 -17 20 -31 20c-21 0 -36 -16 -36 -38v-44zM103 36v24h108v-24h-108zM103 116l108 -42v25l-20 7v43
l20 8v26l-108 -44v-23zM103 196h108v66h-21v-42h-87v-24zM103 310h108v23h-41v38h-22v-38h-23v42h-22v-65zM103 519h108v23h-68l68 50v19h-108v-23h66l-66 -47v-22zM103 627h22v30h86v24h-86v30h-22v-84zM123 443c0 20 14 34 34 34s35 -14 35 -34c0 -19 -15 -34 -35 -34
s-34 15 -34 34zM124 -43v19c0 10 6 16 14 16c9 0 15 -6 15 -16v-19h-29zM131 128l39 14v-28z" />
    <glyph glyph-name="F" unicode="F" horiz-adv-x="604" 
d="M92 0v700h474v-80h-390v-241h361v-80h-361v-299h-84z" />
    <glyph glyph-name="G" unicode="G" horiz-adv-x="705" 
d="M426 -12c-192 0 -380 98 -380 362c0 241 186 362 372 362c74 0 148 -16 210 -47v-84c-54 34 -125 51 -198 51c-147 0 -299 -82 -299 -282c0 -211 154 -282 301 -282c47 0 94 9 129 26v278h84v-337c-65 -30 -143 -47 -219 -47z" />
    <glyph glyph-name="Gbreve" unicode="&#x11e;" 
d="M125 -82v-30h86v-24h-86v-30h-22v84h22zM100 443c0 -33 25 -58 57 -58s57 25 57 58s-25 58 -57 58s-57 -25 -57 -58zM103 -66h108v23h-37v16l37 21v26l-41 -24c-6 12 -17 20 -31 20c-21 0 -36 -16 -36 -38v-44zM103 36v24h108v-24h-108zM103 116l108 -42v25l-20 7v43
l20 8v26l-108 -44v-23zM103 196h108v66h-21v-42h-87v-24zM103 310h108v23h-41v38h-22v-38h-23v42h-22v-65zM103 519h108v23h-68l68 50v19h-108v-23h66l-66 -47v-22zM103 627h22v30h86v24h-86v30h-22v-84zM123 443c0 20 14 34 34 34s35 -14 35 -34c0 -19 -15 -34 -35 -34
s-34 15 -34 34zM124 -43v19c0 10 6 16 14 16c9 0 15 -6 15 -16v-19h-29zM131 128l39 14v-28z" />
    <glyph glyph-name="uni0122" unicode="&#x122;" 
d="M125 -82v-30h86v-24h-86v-30h-22v84h22zM100 443c0 -33 25 -58 57 -58s57 25 57 58s-25 58 -57 58s-57 -25 -57 -58zM103 -66h108v23h-37v16l37 21v26l-41 -24c-6 12 -17 20 -31 20c-21 0 -36 -16 -36 -38v-44zM103 36v24h108v-24h-108zM103 116l108 -42v25l-20 7v43
l20 8v26l-108 -44v-23zM103 196h108v66h-21v-42h-87v-24zM103 310h108v23h-41v38h-22v-38h-23v42h-22v-65zM103 519h108v23h-68l68 50v19h-108v-23h66l-66 -47v-22zM103 627h22v30h86v24h-86v30h-22v-84zM123 443c0 20 14 34 34 34s35 -14 35 -34c0 -19 -15 -34 -35 -34
s-34 15 -34 34zM124 -43v19c0 10 6 16 14 16c9 0 15 -6 15 -16v-19h-29zM131 128l39 14v-28z" />
    <glyph glyph-name="Gdotaccent" unicode="&#x120;" 
d="M125 -82v-30h86v-24h-86v-30h-22v84h22zM100 443c0 -33 25 -58 57 -58s57 25 57 58s-25 58 -57 58s-57 -25 -57 -58zM103 -66h108v23h-37v16l37 21v26l-41 -24c-6 12 -17 20 -31 20c-21 0 -36 -16 -36 -38v-44zM103 36v24h108v-24h-108zM103 116l108 -42v25l-20 7v43
l20 8v26l-108 -44v-23zM103 196h108v66h-21v-42h-87v-24zM103 310h108v23h-41v38h-22v-38h-23v42h-22v-65zM103 519h108v23h-68l68 50v19h-108v-23h66l-66 -47v-22zM103 627h22v30h86v24h-86v30h-22v-84zM123 443c0 20 14 34 34 34s35 -14 35 -34c0 -19 -15 -34 -35 -34
s-34 15 -34 34zM124 -43v19c0 10 6 16 14 16c9 0 15 -6 15 -16v-19h-29zM131 128l39 14v-28z" />
    <glyph glyph-name="H" unicode="H" horiz-adv-x="767" 
d="M92 0v700h84v-309h415v309h84v-700h-84v311h-415v-311h-84z" />
    <glyph glyph-name="Hbar" unicode="&#x126;" 
d="M125 -82v-30h86v-24h-86v-30h-22v84h22zM100 443c0 -33 25 -58 57 -58s57 25 57 58s-25 58 -57 58s-57 -25 -57 -58zM103 -66h108v23h-37v16l37 21v26l-41 -24c-6 12 -17 20 -31 20c-21 0 -36 -16 -36 -38v-44zM103 36v24h108v-24h-108zM103 116l108 -42v25l-20 7v43
l20 8v26l-108 -44v-23zM103 196h108v66h-21v-42h-87v-24zM103 310h108v23h-41v38h-22v-38h-23v42h-22v-65zM103 519h108v23h-68l68 50v19h-108v-23h66l-66 -47v-22zM103 627h22v30h86v24h-86v30h-22v-84zM123 443c0 20 14 34 34 34s35 -14 35 -34c0 -19 -15 -34 -35 -34
s-34 15 -34 34zM124 -43v19c0 10 6 16 14 16c9 0 15 -6 15 -16v-19h-29zM131 128l39 14v-28z" />
    <glyph glyph-name="I" unicode="I" horiz-adv-x="268" 
d="M92 0v700h84v-700h-84z" />
    <glyph glyph-name="IJ" unicode="&#x132;" 
d="M125 -82v-30h86v-24h-86v-30h-22v84h22zM100 443c0 -33 25 -58 57 -58s57 25 57 58s-25 58 -57 58s-57 -25 -57 -58zM103 -66h108v23h-37v16l37 21v26l-41 -24c-6 12 -17 20 -31 20c-21 0 -36 -16 -36 -38v-44zM103 36v24h108v-24h-108zM103 116l108 -42v25l-20 7v43
l20 8v26l-108 -44v-23zM103 196h108v66h-21v-42h-87v-24zM103 310h108v23h-41v38h-22v-38h-23v42h-22v-65zM103 519h108v23h-68l68 50v19h-108v-23h66l-66 -47v-22zM103 627h22v30h86v24h-86v30h-22v-84zM123 443c0 20 14 34 34 34s35 -14 35 -34c0 -19 -15 -34 -35 -34
s-34 15 -34 34zM124 -43v19c0 10 6 16 14 16c9 0 15 -6 15 -16v-19h-29zM131 128l39 14v-28z" />
    <glyph glyph-name="Iacute" unicode="&#xcd;" 
d="M125 -82v-30h86v-24h-86v-30h-22v84h22zM100 443c0 -33 25 -58 57 -58s57 25 57 58s-25 58 -57 58s-57 -25 -57 -58zM103 -66h108v23h-37v16l37 21v26l-41 -24c-6 12 -17 20 -31 20c-21 0 -36 -16 -36 -38v-44zM103 36v24h108v-24h-108zM103 116l108 -42v25l-20 7v43
l20 8v26l-108 -44v-23zM103 196h108v66h-21v-42h-87v-24zM103 310h108v23h-41v38h-22v-38h-23v42h-22v-65zM103 519h108v23h-68l68 50v19h-108v-23h66l-66 -47v-22zM103 627h22v30h86v24h-86v30h-22v-84zM123 443c0 20 14 34 34 34s35 -14 35 -34c0 -19 -15 -34 -35 -34
s-34 15 -34 34zM124 -43v19c0 10 6 16 14 16c9 0 15 -6 15 -16v-19h-29zM131 128l39 14v-28z" />
    <glyph glyph-name="Icircumflex" unicode="&#xce;" 
d="M125 -82v-30h86v-24h-86v-30h-22v84h22zM100 443c0 -33 25 -58 57 -58s57 25 57 58s-25 58 -57 58s-57 -25 -57 -58zM103 -66h108v23h-37v16l37 21v26l-41 -24c-6 12 -17 20 -31 20c-21 0 -36 -16 -36 -38v-44zM103 36v24h108v-24h-108zM103 116l108 -42v25l-20 7v43
l20 8v26l-108 -44v-23zM103 196h108v66h-21v-42h-87v-24zM103 310h108v23h-41v38h-22v-38h-23v42h-22v-65zM103 519h108v23h-68l68 50v19h-108v-23h66l-66 -47v-22zM103 627h22v30h86v24h-86v30h-22v-84zM123 443c0 20 14 34 34 34s35 -14 35 -34c0 -19 -15 -34 -35 -34
s-34 15 -34 34zM124 -43v19c0 10 6 16 14 16c9 0 15 -6 15 -16v-19h-29zM131 128l39 14v-28z" />
    <glyph glyph-name="Idieresis" unicode="&#xcf;" 
d="M125 -82v-30h86v-24h-86v-30h-22v84h22zM100 443c0 -33 25 -58 57 -58s57 25 57 58s-25 58 -57 58s-57 -25 -57 -58zM103 -66h108v23h-37v16l37 21v26l-41 -24c-6 12 -17 20 -31 20c-21 0 -36 -16 -36 -38v-44zM103 36v24h108v-24h-108zM103 116l108 -42v25l-20 7v43
l20 8v26l-108 -44v-23zM103 196h108v66h-21v-42h-87v-24zM103 310h108v23h-41v38h-22v-38h-23v42h-22v-65zM103 519h108v23h-68l68 50v19h-108v-23h66l-66 -47v-22zM103 627h22v30h86v24h-86v30h-22v-84zM123 443c0 20 14 34 34 34s35 -14 35 -34c0 -19 -15 -34 -35 -34
s-34 15 -34 34zM124 -43v19c0 10 6 16 14 16c9 0 15 -6 15 -16v-19h-29zM131 128l39 14v-28z" />
    <glyph glyph-name="Idotaccent" unicode="&#x130;" 
d="M125 -82v-30h86v-24h-86v-30h-22v84h22zM100 443c0 -33 25 -58 57 -58s57 25 57 58s-25 58 -57 58s-57 -25 -57 -58zM103 -66h108v23h-37v16l37 21v26l-41 -24c-6 12 -17 20 -31 20c-21 0 -36 -16 -36 -38v-44zM103 36v24h108v-24h-108zM103 116l108 -42v25l-20 7v43
l20 8v26l-108 -44v-23zM103 196h108v66h-21v-42h-87v-24zM103 310h108v23h-41v38h-22v-38h-23v42h-22v-65zM103 519h108v23h-68l68 50v19h-108v-23h66l-66 -47v-22zM103 627h22v30h86v24h-86v30h-22v-84zM123 443c0 20 14 34 34 34s35 -14 35 -34c0 -19 -15 -34 -35 -34
s-34 15 -34 34zM124 -43v19c0 10 6 16 14 16c9 0 15 -6 15 -16v-19h-29zM131 128l39 14v-28z" />
    <glyph glyph-name="Igrave" unicode="&#xcc;" 
d="M125 -82v-30h86v-24h-86v-30h-22v84h22zM100 443c0 -33 25 -58 57 -58s57 25 57 58s-25 58 -57 58s-57 -25 -57 -58zM103 -66h108v23h-37v16l37 21v26l-41 -24c-6 12 -17 20 -31 20c-21 0 -36 -16 -36 -38v-44zM103 36v24h108v-24h-108zM103 116l108 -42v25l-20 7v43
l20 8v26l-108 -44v-23zM103 196h108v66h-21v-42h-87v-24zM103 310h108v23h-41v38h-22v-38h-23v42h-22v-65zM103 519h108v23h-68l68 50v19h-108v-23h66l-66 -47v-22zM103 627h22v30h86v24h-86v30h-22v-84zM123 443c0 20 14 34 34 34s35 -14 35 -34c0 -19 -15 -34 -35 -34
s-34 15 -34 34zM124 -43v19c0 10 6 16 14 16c9 0 15 -6 15 -16v-19h-29zM131 128l39 14v-28z" />
    <glyph glyph-name="Imacron" unicode="&#x12a;" 
d="M125 -82v-30h86v-24h-86v-30h-22v84h22zM100 443c0 -33 25 -58 57 -58s57 25 57 58s-25 58 -57 58s-57 -25 -57 -58zM103 -66h108v23h-37v16l37 21v26l-41 -24c-6 12 -17 20 -31 20c-21 0 -36 -16 -36 -38v-44zM103 36v24h108v-24h-108zM103 116l108 -42v25l-20 7v43
l20 8v26l-108 -44v-23zM103 196h108v66h-21v-42h-87v-24zM103 310h108v23h-41v38h-22v-38h-23v42h-22v-65zM103 519h108v23h-68l68 50v19h-108v-23h66l-66 -47v-22zM103 627h22v30h86v24h-86v30h-22v-84zM123 443c0 20 14 34 34 34s35 -14 35 -34c0 -19 -15 -34 -35 -34
s-34 15 -34 34zM124 -43v19c0 10 6 16 14 16c9 0 15 -6 15 -16v-19h-29zM131 128l39 14v-28z" />
    <glyph glyph-name="Iogonek" unicode="&#x12e;" 
d="M125 -82v-30h86v-24h-86v-30h-22v84h22zM100 443c0 -33 25 -58 57 -58s57 25 57 58s-25 58 -57 58s-57 -25 -57 -58zM103 -66h108v23h-37v16l37 21v26l-41 -24c-6 12 -17 20 -31 20c-21 0 -36 -16 -36 -38v-44zM103 36v24h108v-24h-108zM103 116l108 -42v25l-20 7v43
l20 8v26l-108 -44v-23zM103 196h108v66h-21v-42h-87v-24zM103 310h108v23h-41v38h-22v-38h-23v42h-22v-65zM103 519h108v23h-68l68 50v19h-108v-23h66l-66 -47v-22zM103 627h22v30h86v24h-86v30h-22v-84zM123 443c0 20 14 34 34 34s35 -14 35 -34c0 -19 -15 -34 -35 -34
s-34 15 -34 34zM124 -43v19c0 10 6 16 14 16c9 0 15 -6 15 -16v-19h-29zM131 128l39 14v-28z" />
    <glyph glyph-name="J" unicode="J" horiz-adv-x="513" 
d="M197 -10c-70 0 -135 15 -180 43v84c44 -31 103 -47 165 -47c92 0 161 30 161 131v419h-206v80h290v-502c0 -147 -102 -208 -230 -208z" />
    <glyph glyph-name="K" unicode="K" horiz-adv-x="665" 
d="M92 0v700h84v-304h119l251 304h96l-275 -337l296 -363h-96l-269 317h-122v-317h-84z" />
    <glyph glyph-name="uni0136" unicode="&#x136;" 
d="M125 -82v-30h86v-24h-86v-30h-22v84h22zM100 443c0 -33 25 -58 57 -58s57 25 57 58s-25 58 -57 58s-57 -25 -57 -58zM103 -66h108v23h-37v16l37 21v26l-41 -24c-6 12 -17 20 -31 20c-21 0 -36 -16 -36 -38v-44zM103 36v24h108v-24h-108zM103 116l108 -42v25l-20 7v43
l20 8v26l-108 -44v-23zM103 196h108v66h-21v-42h-87v-24zM103 310h108v23h-41v38h-22v-38h-23v42h-22v-65zM103 519h108v23h-68l68 50v19h-108v-23h66l-66 -47v-22zM103 627h22v30h86v24h-86v30h-22v-84zM123 443c0 20 14 34 34 34s35 -14 35 -34c0 -19 -15 -34 -35 -34
s-34 15 -34 34zM124 -43v19c0 10 6 16 14 16c9 0 15 -6 15 -16v-19h-29zM131 128l39 14v-28z" />
    <glyph glyph-name="L" unicode="L" horiz-adv-x="579" 
d="M92 0v700h84v-620h388v-80h-472z" />
    <glyph glyph-name="Lacute" unicode="&#x139;" 
d="M125 -82v-30h86v-24h-86v-30h-22v84h22zM100 443c0 -33 25 -58 57 -58s57 25 57 58s-25 58 -57 58s-57 -25 -57 -58zM103 -66h108v23h-37v16l37 21v26l-41 -24c-6 12 -17 20 -31 20c-21 0 -36 -16 -36 -38v-44zM103 36v24h108v-24h-108zM103 116l108 -42v25l-20 7v43
l20 8v26l-108 -44v-23zM103 196h108v66h-21v-42h-87v-24zM103 310h108v23h-41v38h-22v-38h-23v42h-22v-65zM103 519h108v23h-68l68 50v19h-108v-23h66l-66 -47v-22zM103 627h22v30h86v24h-86v30h-22v-84zM123 443c0 20 14 34 34 34s35 -14 35 -34c0 -19 -15 -34 -35 -34
s-34 15 -34 34zM124 -43v19c0 10 6 16 14 16c9 0 15 -6 15 -16v-19h-29zM131 128l39 14v-28z" />
    <glyph glyph-name="Lcaron" unicode="&#x13d;" 
d="M125 -82v-30h86v-24h-86v-30h-22v84h22zM100 443c0 -33 25 -58 57 -58s57 25 57 58s-25 58 -57 58s-57 -25 -57 -58zM103 -66h108v23h-37v16l37 21v26l-41 -24c-6 12 -17 20 -31 20c-21 0 -36 -16 -36 -38v-44zM103 36v24h108v-24h-108zM103 116l108 -42v25l-20 7v43
l20 8v26l-108 -44v-23zM103 196h108v66h-21v-42h-87v-24zM103 310h108v23h-41v38h-22v-38h-23v42h-22v-65zM103 519h108v23h-68l68 50v19h-108v-23h66l-66 -47v-22zM103 627h22v30h86v24h-86v30h-22v-84zM123 443c0 20 14 34 34 34s35 -14 35 -34c0 -19 -15 -34 -35 -34
s-34 15 -34 34zM124 -43v19c0 10 6 16 14 16c9 0 15 -6 15 -16v-19h-29zM131 128l39 14v-28z" />
    <glyph glyph-name="uni013B" unicode="&#x13b;" 
d="M125 -82v-30h86v-24h-86v-30h-22v84h22zM100 443c0 -33 25 -58 57 -58s57 25 57 58s-25 58 -57 58s-57 -25 -57 -58zM103 -66h108v23h-37v16l37 21v26l-41 -24c-6 12 -17 20 -31 20c-21 0 -36 -16 -36 -38v-44zM103 36v24h108v-24h-108zM103 116l108 -42v25l-20 7v43
l20 8v26l-108 -44v-23zM103 196h108v66h-21v-42h-87v-24zM103 310h108v23h-41v38h-22v-38h-23v42h-22v-65zM103 519h108v23h-68l68 50v19h-108v-23h66l-66 -47v-22zM103 627h22v30h86v24h-86v30h-22v-84zM123 443c0 20 14 34 34 34s35 -14 35 -34c0 -19 -15 -34 -35 -34
s-34 15 -34 34zM124 -43v19c0 10 6 16 14 16c9 0 15 -6 15 -16v-19h-29zM131 128l39 14v-28z" />
    <glyph glyph-name="Ldot" unicode="&#x13f;" 
d="M125 -82v-30h86v-24h-86v-30h-22v84h22zM100 443c0 -33 25 -58 57 -58s57 25 57 58s-25 58 -57 58s-57 -25 -57 -58zM103 -66h108v23h-37v16l37 21v26l-41 -24c-6 12 -17 20 -31 20c-21 0 -36 -16 -36 -38v-44zM103 36v24h108v-24h-108zM103 116l108 -42v25l-20 7v43
l20 8v26l-108 -44v-23zM103 196h108v66h-21v-42h-87v-24zM103 310h108v23h-41v38h-22v-38h-23v42h-22v-65zM103 519h108v23h-68l68 50v19h-108v-23h66l-66 -47v-22zM103 627h22v30h86v24h-86v30h-22v-84zM123 443c0 20 14 34 34 34s35 -14 35 -34c0 -19 -15 -34 -35 -34
s-34 15 -34 34zM124 -43v19c0 10 6 16 14 16c9 0 15 -6 15 -16v-19h-29zM131 128l39 14v-28z" />
    <glyph glyph-name="Lslash" unicode="&#x141;" 
d="M125 -82v-30h86v-24h-86v-30h-22v84h22zM100 443c0 -33 25 -58 57 -58s57 25 57 58s-25 58 -57 58s-57 -25 -57 -58zM103 -66h108v23h-37v16l37 21v26l-41 -24c-6 12 -17 20 -31 20c-21 0 -36 -16 -36 -38v-44zM103 36v24h108v-24h-108zM103 116l108 -42v25l-20 7v43
l20 8v26l-108 -44v-23zM103 196h108v66h-21v-42h-87v-24zM103 310h108v23h-41v38h-22v-38h-23v42h-22v-65zM103 519h108v23h-68l68 50v19h-108v-23h66l-66 -47v-22zM103 627h22v30h86v24h-86v30h-22v-84zM123 443c0 20 14 34 34 34s35 -14 35 -34c0 -19 -15 -34 -35 -34
s-34 15 -34 34zM124 -43v19c0 10 6 16 14 16c9 0 15 -6 15 -16v-19h-29zM131 128l39 14v-28z" />
    <glyph glyph-name="M" unicode="M" horiz-adv-x="906" 
d="M92 0v700h72l289 -432l289 432h72v-700h-84v541l-251 -376h-52l-251 376v-541h-84z" />
    <glyph glyph-name="N" unicode="N" horiz-adv-x="767" 
d="M92 0v700h78l421 -559v60v499h84v-700h-78l-421 560v-60v-500h-84z" />
    <glyph glyph-name="Nacute" unicode="&#x143;" 
d="M125 -82v-30h86v-24h-86v-30h-22v84h22zM100 443c0 -33 25 -58 57 -58s57 25 57 58s-25 58 -57 58s-57 -25 -57 -58zM103 -66h108v23h-37v16l37 21v26l-41 -24c-6 12 -17 20 -31 20c-21 0 -36 -16 -36 -38v-44zM103 36v24h108v-24h-108zM103 116l108 -42v25l-20 7v43
l20 8v26l-108 -44v-23zM103 196h108v66h-21v-42h-87v-24zM103 310h108v23h-41v38h-22v-38h-23v42h-22v-65zM103 519h108v23h-68l68 50v19h-108v-23h66l-66 -47v-22zM103 627h22v30h86v24h-86v30h-22v-84zM123 443c0 20 14 34 34 34s35 -14 35 -34c0 -19 -15 -34 -35 -34
s-34 15 -34 34zM124 -43v19c0 10 6 16 14 16c9 0 15 -6 15 -16v-19h-29zM131 128l39 14v-28z" />
    <glyph glyph-name="Ncaron" unicode="&#x147;" 
d="M125 -82v-30h86v-24h-86v-30h-22v84h22zM100 443c0 -33 25 -58 57 -58s57 25 57 58s-25 58 -57 58s-57 -25 -57 -58zM103 -66h108v23h-37v16l37 21v26l-41 -24c-6 12 -17 20 -31 20c-21 0 -36 -16 -36 -38v-44zM103 36v24h108v-24h-108zM103 116l108 -42v25l-20 7v43
l20 8v26l-108 -44v-23zM103 196h108v66h-21v-42h-87v-24zM103 310h108v23h-41v38h-22v-38h-23v42h-22v-65zM103 519h108v23h-68l68 50v19h-108v-23h66l-66 -47v-22zM103 627h22v30h86v24h-86v30h-22v-84zM123 443c0 20 14 34 34 34s35 -14 35 -34c0 -19 -15 -34 -35 -34
s-34 15 -34 34zM124 -43v19c0 10 6 16 14 16c9 0 15 -6 15 -16v-19h-29zM131 128l39 14v-28z" />
    <glyph glyph-name="uni0145" unicode="&#x145;" 
d="M125 -82v-30h86v-24h-86v-30h-22v84h22zM100 443c0 -33 25 -58 57 -58s57 25 57 58s-25 58 -57 58s-57 -25 -57 -58zM103 -66h108v23h-37v16l37 21v26l-41 -24c-6 12 -17 20 -31 20c-21 0 -36 -16 -36 -38v-44zM103 36v24h108v-24h-108zM103 116l108 -42v25l-20 7v43
l20 8v26l-108 -44v-23zM103 196h108v66h-21v-42h-87v-24zM103 310h108v23h-41v38h-22v-38h-23v42h-22v-65zM103 519h108v23h-68l68 50v19h-108v-23h66l-66 -47v-22zM103 627h22v30h86v24h-86v30h-22v-84zM123 443c0 20 14 34 34 34s35 -14 35 -34c0 -19 -15 -34 -35 -34
s-34 15 -34 34zM124 -43v19c0 10 6 16 14 16c9 0 15 -6 15 -16v-19h-29zM131 128l39 14v-28z" />
    <glyph glyph-name="Ntilde" unicode="&#xd1;" 
d="M125 -82v-30h86v-24h-86v-30h-22v84h22zM100 443c0 -33 25 -58 57 -58s57 25 57 58s-25 58 -57 58s-57 -25 -57 -58zM103 -66h108v23h-37v16l37 21v26l-41 -24c-6 12 -17 20 -31 20c-21 0 -36 -16 -36 -38v-44zM103 36v24h108v-24h-108zM103 116l108 -42v25l-20 7v43
l20 8v26l-108 -44v-23zM103 196h108v66h-21v-42h-87v-24zM103 310h108v23h-41v38h-22v-38h-23v42h-22v-65zM103 519h108v23h-68l68 50v19h-108v-23h66l-66 -47v-22zM103 627h22v30h86v24h-86v30h-22v-84zM123 443c0 20 14 34 34 34s35 -14 35 -34c0 -19 -15 -34 -35 -34
s-34 15 -34 34zM124 -43v19c0 10 6 16 14 16c9 0 15 -6 15 -16v-19h-29zM131 128l39 14v-28z" />
    <glyph glyph-name="Eng" unicode="&#x14a;" 
d="M125 -82v-30h86v-24h-86v-30h-22v84h22zM100 443c0 -33 25 -58 57 -58s57 25 57 58s-25 58 -57 58s-57 -25 -57 -58zM103 -66h108v23h-37v16l37 21v26l-41 -24c-6 12 -17 20 -31 20c-21 0 -36 -16 -36 -38v-44zM103 36v24h108v-24h-108zM103 116l108 -42v25l-20 7v43
l20 8v26l-108 -44v-23zM103 196h108v66h-21v-42h-87v-24zM103 310h108v23h-41v38h-22v-38h-23v42h-22v-65zM103 519h108v23h-68l68 50v19h-108v-23h66l-66 -47v-22zM103 627h22v30h86v24h-86v30h-22v-84zM123 443c0 20 14 34 34 34s35 -14 35 -34c0 -19 -15 -34 -35 -34
s-34 15 -34 34zM124 -43v19c0 10 6 16 14 16c9 0 15 -6 15 -16v-19h-29zM131 128l39 14v-28z" />
    <glyph glyph-name="O" unicode="O" horiz-adv-x="822" 
d="M411 -12c-245 0 -366 181 -366 362s121 362 366 362s366 -181 366 -362s-121 -362 -366 -362zM130 350c0 -144 91 -282 281 -282s281 138 281 282s-91 282 -281 282s-281 -138 -281 -282z" />
    <glyph glyph-name="Oacute" unicode="&#xd3;" 
d="M125 -82v-30h86v-24h-86v-30h-22v84h22zM100 443c0 -33 25 -58 57 -58s57 25 57 58s-25 58 -57 58s-57 -25 -57 -58zM103 -66h108v23h-37v16l37 21v26l-41 -24c-6 12 -17 20 -31 20c-21 0 -36 -16 -36 -38v-44zM103 36v24h108v-24h-108zM103 116l108 -42v25l-20 7v43
l20 8v26l-108 -44v-23zM103 196h108v66h-21v-42h-87v-24zM103 310h108v23h-41v38h-22v-38h-23v42h-22v-65zM103 519h108v23h-68l68 50v19h-108v-23h66l-66 -47v-22zM103 627h22v30h86v24h-86v30h-22v-84zM123 443c0 20 14 34 34 34s35 -14 35 -34c0 -19 -15 -34 -35 -34
s-34 15 -34 34zM124 -43v19c0 10 6 16 14 16c9 0 15 -6 15 -16v-19h-29zM131 128l39 14v-28z" />
    <glyph glyph-name="Ocircumflex" unicode="&#xd4;" 
d="M125 -82v-30h86v-24h-86v-30h-22v84h22zM100 443c0 -33 25 -58 57 -58s57 25 57 58s-25 58 -57 58s-57 -25 -57 -58zM103 -66h108v23h-37v16l37 21v26l-41 -24c-6 12 -17 20 -31 20c-21 0 -36 -16 -36 -38v-44zM103 36v24h108v-24h-108zM103 116l108 -42v25l-20 7v43
l20 8v26l-108 -44v-23zM103 196h108v66h-21v-42h-87v-24zM103 310h108v23h-41v38h-22v-38h-23v42h-22v-65zM103 519h108v23h-68l68 50v19h-108v-23h66l-66 -47v-22zM103 627h22v30h86v24h-86v30h-22v-84zM123 443c0 20 14 34 34 34s35 -14 35 -34c0 -19 -15 -34 -35 -34
s-34 15 -34 34zM124 -43v19c0 10 6 16 14 16c9 0 15 -6 15 -16v-19h-29zM131 128l39 14v-28z" />
    <glyph glyph-name="Odieresis" unicode="&#xd6;" 
d="M125 -82v-30h86v-24h-86v-30h-22v84h22zM100 443c0 -33 25 -58 57 -58s57 25 57 58s-25 58 -57 58s-57 -25 -57 -58zM103 -66h108v23h-37v16l37 21v26l-41 -24c-6 12 -17 20 -31 20c-21 0 -36 -16 -36 -38v-44zM103 36v24h108v-24h-108zM103 116l108 -42v25l-20 7v43
l20 8v26l-108 -44v-23zM103 196h108v66h-21v-42h-87v-24zM103 310h108v23h-41v38h-22v-38h-23v42h-22v-65zM103 519h108v23h-68l68 50v19h-108v-23h66l-66 -47v-22zM103 627h22v30h86v24h-86v30h-22v-84zM123 443c0 20 14 34 34 34s35 -14 35 -34c0 -19 -15 -34 -35 -34
s-34 15 -34 34zM124 -43v19c0 10 6 16 14 16c9 0 15 -6 15 -16v-19h-29zM131 128l39 14v-28z" />
    <glyph glyph-name="Ograve" unicode="&#xd2;" 
d="M125 -82v-30h86v-24h-86v-30h-22v84h22zM100 443c0 -33 25 -58 57 -58s57 25 57 58s-25 58 -57 58s-57 -25 -57 -58zM103 -66h108v23h-37v16l37 21v26l-41 -24c-6 12 -17 20 -31 20c-21 0 -36 -16 -36 -38v-44zM103 36v24h108v-24h-108zM103 116l108 -42v25l-20 7v43
l20 8v26l-108 -44v-23zM103 196h108v66h-21v-42h-87v-24zM103 310h108v23h-41v38h-22v-38h-23v42h-22v-65zM103 519h108v23h-68l68 50v19h-108v-23h66l-66 -47v-22zM103 627h22v30h86v24h-86v30h-22v-84zM123 443c0 20 14 34 34 34s35 -14 35 -34c0 -19 -15 -34 -35 -34
s-34 15 -34 34zM124 -43v19c0 10 6 16 14 16c9 0 15 -6 15 -16v-19h-29zM131 128l39 14v-28z" />
    <glyph glyph-name="Ohungarumlaut" unicode="&#x150;" 
d="M125 -82v-30h86v-24h-86v-30h-22v84h22zM100 443c0 -33 25 -58 57 -58s57 25 57 58s-25 58 -57 58s-57 -25 -57 -58zM103 -66h108v23h-37v16l37 21v26l-41 -24c-6 12 -17 20 -31 20c-21 0 -36 -16 -36 -38v-44zM103 36v24h108v-24h-108zM103 116l108 -42v25l-20 7v43
l20 8v26l-108 -44v-23zM103 196h108v66h-21v-42h-87v-24zM103 310h108v23h-41v38h-22v-38h-23v42h-22v-65zM103 519h108v23h-68l68 50v19h-108v-23h66l-66 -47v-22zM103 627h22v30h86v24h-86v30h-22v-84zM123 443c0 20 14 34 34 34s35 -14 35 -34c0 -19 -15 -34 -35 -34
s-34 15 -34 34zM124 -43v19c0 10 6 16 14 16c9 0 15 -6 15 -16v-19h-29zM131 128l39 14v-28z" />
    <glyph glyph-name="Omacron" unicode="&#x14c;" 
d="M125 -82v-30h86v-24h-86v-30h-22v84h22zM100 443c0 -33 25 -58 57 -58s57 25 57 58s-25 58 -57 58s-57 -25 -57 -58zM103 -66h108v23h-37v16l37 21v26l-41 -24c-6 12 -17 20 -31 20c-21 0 -36 -16 -36 -38v-44zM103 36v24h108v-24h-108zM103 116l108 -42v25l-20 7v43
l20 8v26l-108 -44v-23zM103 196h108v66h-21v-42h-87v-24zM103 310h108v23h-41v38h-22v-38h-23v42h-22v-65zM103 519h108v23h-68l68 50v19h-108v-23h66l-66 -47v-22zM103 627h22v30h86v24h-86v30h-22v-84zM123 443c0 20 14 34 34 34s35 -14 35 -34c0 -19 -15 -34 -35 -34
s-34 15 -34 34zM124 -43v19c0 10 6 16 14 16c9 0 15 -6 15 -16v-19h-29zM131 128l39 14v-28z" />
    <glyph glyph-name="Oslash" unicode="&#xd8;" 
d="M125 -82v-30h86v-24h-86v-30h-22v84h22zM100 443c0 -33 25 -58 57 -58s57 25 57 58s-25 58 -57 58s-57 -25 -57 -58zM103 -66h108v23h-37v16l37 21v26l-41 -24c-6 12 -17 20 -31 20c-21 0 -36 -16 -36 -38v-44zM103 36v24h108v-24h-108zM103 116l108 -42v25l-20 7v43
l20 8v26l-108 -44v-23zM103 196h108v66h-21v-42h-87v-24zM103 310h108v23h-41v38h-22v-38h-23v42h-22v-65zM103 519h108v23h-68l68 50v19h-108v-23h66l-66 -47v-22zM103 627h22v30h86v24h-86v30h-22v-84zM123 443c0 20 14 34 34 34s35 -14 35 -34c0 -19 -15 -34 -35 -34
s-34 15 -34 34zM124 -43v19c0 10 6 16 14 16c9 0 15 -6 15 -16v-19h-29zM131 128l39 14v-28z" />
    <glyph glyph-name="Otilde" unicode="&#xd5;" 
d="M125 -82v-30h86v-24h-86v-30h-22v84h22zM100 443c0 -33 25 -58 57 -58s57 25 57 58s-25 58 -57 58s-57 -25 -57 -58zM103 -66h108v23h-37v16l37 21v26l-41 -24c-6 12 -17 20 -31 20c-21 0 -36 -16 -36 -38v-44zM103 36v24h108v-24h-108zM103 116l108 -42v25l-20 7v43
l20 8v26l-108 -44v-23zM103 196h108v66h-21v-42h-87v-24zM103 310h108v23h-41v38h-22v-38h-23v42h-22v-65zM103 519h108v23h-68l68 50v19h-108v-23h66l-66 -47v-22zM103 627h22v30h86v24h-86v30h-22v-84zM123 443c0 20 14 34 34 34s35 -14 35 -34c0 -19 -15 -34 -35 -34
s-34 15 -34 34zM124 -43v19c0 10 6 16 14 16c9 0 15 -6 15 -16v-19h-29zM131 128l39 14v-28z" />
    <glyph glyph-name="OE" unicode="&#x152;" 
d="M125 -82v-30h86v-24h-86v-30h-22v84h22zM100 443c0 -33 25 -58 57 -58s57 25 57 58s-25 58 -57 58s-57 -25 -57 -58zM103 -66h108v23h-37v16l37 21v26l-41 -24c-6 12 -17 20 -31 20c-21 0 -36 -16 -36 -38v-44zM103 36v24h108v-24h-108zM103 116l108 -42v25l-20 7v43
l20 8v26l-108 -44v-23zM103 196h108v66h-21v-42h-87v-24zM103 310h108v23h-41v38h-22v-38h-23v42h-22v-65zM103 519h108v23h-68l68 50v19h-108v-23h66l-66 -47v-22zM103 627h22v30h86v24h-86v30h-22v-84zM123 443c0 20 14 34 34 34s35 -14 35 -34c0 -19 -15 -34 -35 -34
s-34 15 -34 34zM124 -43v19c0 10 6 16 14 16c9 0 15 -6 15 -16v-19h-29zM131 128l39 14v-28z" />
    <glyph glyph-name="P" unicode="P" horiz-adv-x="661" 
d="M92 0v700h239c162 0 297 -51 297 -226s-135 -226 -297 -226h-155v-248h-84zM176 328h159c114 0 208 28 208 146c0 119 -93 146 -208 146h-159v-292z" />
    <glyph glyph-name="Thorn" unicode="&#xde;" 
d="M125 -82v-30h86v-24h-86v-30h-22v84h22zM100 443c0 -33 25 -58 57 -58s57 25 57 58s-25 58 -57 58s-57 -25 -57 -58zM103 -66h108v23h-37v16l37 21v26l-41 -24c-6 12 -17 20 -31 20c-21 0 -36 -16 -36 -38v-44zM103 36v24h108v-24h-108zM103 116l108 -42v25l-20 7v43
l20 8v26l-108 -44v-23zM103 196h108v66h-21v-42h-87v-24zM103 310h108v23h-41v38h-22v-38h-23v42h-22v-65zM103 519h108v23h-68l68 50v19h-108v-23h66l-66 -47v-22zM103 627h22v30h86v24h-86v30h-22v-84zM123 443c0 20 14 34 34 34s35 -14 35 -34c0 -19 -15 -34 -35 -34
s-34 15 -34 34zM124 -43v19c0 10 6 16 14 16c9 0 15 -6 15 -16v-19h-29zM131 128l39 14v-28z" />
    <glyph glyph-name="Q" unicode="Q" horiz-adv-x="822" 
d="M618 43c-55 -34 -124 -55 -207 -55c-245 0 -366 181 -366 362s121 362 366 362s366 -181 366 -362c0 -95 -33 -190 -100 -259l100 -99l-54 -54zM130 350c0 -144 91 -282 281 -282c58 0 107 13 147 35l-122 122l54 53l128 -128c50 53 74 126 74 200
c0 144 -91 282 -281 282s-281 -138 -281 -282z" />
    <glyph glyph-name="R" unicode="R" horiz-adv-x="695" 
d="M92 0v700h274c126 0 262 -52 262 -212c0 -129 -88 -187 -187 -205l237 -283h-105l-229 276h-168v-276h-84zM176 356h194c84 0 173 28 173 132c0 105 -89 132 -173 132h-194v-264z" />
    <glyph glyph-name="Racute" unicode="&#x154;" 
d="M125 -82v-30h86v-24h-86v-30h-22v84h22zM100 443c0 -33 25 -58 57 -58s57 25 57 58s-25 58 -57 58s-57 -25 -57 -58zM103 -66h108v23h-37v16l37 21v26l-41 -24c-6 12 -17 20 -31 20c-21 0 -36 -16 -36 -38v-44zM103 36v24h108v-24h-108zM103 116l108 -42v25l-20 7v43
l20 8v26l-108 -44v-23zM103 196h108v66h-21v-42h-87v-24zM103 310h108v23h-41v38h-22v-38h-23v42h-22v-65zM103 519h108v23h-68l68 50v19h-108v-23h66l-66 -47v-22zM103 627h22v30h86v24h-86v30h-22v-84zM123 443c0 20 14 34 34 34s35 -14 35 -34c0 -19 -15 -34 -35 -34
s-34 15 -34 34zM124 -43v19c0 10 6 16 14 16c9 0 15 -6 15 -16v-19h-29zM131 128l39 14v-28z" />
    <glyph glyph-name="Rcaron" unicode="&#x158;" 
d="M125 -82v-30h86v-24h-86v-30h-22v84h22zM100 443c0 -33 25 -58 57 -58s57 25 57 58s-25 58 -57 58s-57 -25 -57 -58zM103 -66h108v23h-37v16l37 21v26l-41 -24c-6 12 -17 20 -31 20c-21 0 -36 -16 -36 -38v-44zM103 36v24h108v-24h-108zM103 116l108 -42v25l-20 7v43
l20 8v26l-108 -44v-23zM103 196h108v66h-21v-42h-87v-24zM103 310h108v23h-41v38h-22v-38h-23v42h-22v-65zM103 519h108v23h-68l68 50v19h-108v-23h66l-66 -47v-22zM103 627h22v30h86v24h-86v30h-22v-84zM123 443c0 20 14 34 34 34s35 -14 35 -34c0 -19 -15 -34 -35 -34
s-34 15 -34 34zM124 -43v19c0 10 6 16 14 16c9 0 15 -6 15 -16v-19h-29zM131 128l39 14v-28z" />
    <glyph glyph-name="uni0156" unicode="&#x156;" 
d="M125 -82v-30h86v-24h-86v-30h-22v84h22zM100 443c0 -33 25 -58 57 -58s57 25 57 58s-25 58 -57 58s-57 -25 -57 -58zM103 -66h108v23h-37v16l37 21v26l-41 -24c-6 12 -17 20 -31 20c-21 0 -36 -16 -36 -38v-44zM103 36v24h108v-24h-108zM103 116l108 -42v25l-20 7v43
l20 8v26l-108 -44v-23zM103 196h108v66h-21v-42h-87v-24zM103 310h108v23h-41v38h-22v-38h-23v42h-22v-65zM103 519h108v23h-68l68 50v19h-108v-23h66l-66 -47v-22zM103 627h22v30h86v24h-86v30h-22v-84zM123 443c0 20 14 34 34 34s35 -14 35 -34c0 -19 -15 -34 -35 -34
s-34 15 -34 34zM124 -43v19c0 10 6 16 14 16c9 0 15 -6 15 -16v-19h-29zM131 128l39 14v-28z" />
    <glyph glyph-name="S" unicode="S" horiz-adv-x="585" 
d="M293 -12c-91 0 -172 22 -240 60v84c74 -45 154 -64 234 -64c97 0 180 25 180 104c0 188 -417 109 -417 355c0 125 113 185 240 185c77 0 156 -19 212 -51v-84c-56 36 -134 56 -206 55c-92 0 -161 -27 -161 -102c0 -177 417 -101 417 -352c0 -139 -125 -191 -259 -190z
" />
    <glyph glyph-name="Sacute" unicode="&#x15a;" 
d="M125 -82v-30h86v-24h-86v-30h-22v84h22zM100 443c0 -33 25 -58 57 -58s57 25 57 58s-25 58 -57 58s-57 -25 -57 -58zM103 -66h108v23h-37v16l37 21v26l-41 -24c-6 12 -17 20 -31 20c-21 0 -36 -16 -36 -38v-44zM103 36v24h108v-24h-108zM103 116l108 -42v25l-20 7v43
l20 8v26l-108 -44v-23zM103 196h108v66h-21v-42h-87v-24zM103 310h108v23h-41v38h-22v-38h-23v42h-22v-65zM103 519h108v23h-68l68 50v19h-108v-23h66l-66 -47v-22zM103 627h22v30h86v24h-86v30h-22v-84zM123 443c0 20 14 34 34 34s35 -14 35 -34c0 -19 -15 -34 -35 -34
s-34 15 -34 34zM124 -43v19c0 10 6 16 14 16c9 0 15 -6 15 -16v-19h-29zM131 128l39 14v-28z" />
    <glyph glyph-name="Scaron" unicode="&#x160;" 
d="M125 -82v-30h86v-24h-86v-30h-22v84h22zM100 443c0 -33 25 -58 57 -58s57 25 57 58s-25 58 -57 58s-57 -25 -57 -58zM103 -66h108v23h-37v16l37 21v26l-41 -24c-6 12 -17 20 -31 20c-21 0 -36 -16 -36 -38v-44zM103 36v24h108v-24h-108zM103 116l108 -42v25l-20 7v43
l20 8v26l-108 -44v-23zM103 196h108v66h-21v-42h-87v-24zM103 310h108v23h-41v38h-22v-38h-23v42h-22v-65zM103 519h108v23h-68l68 50v19h-108v-23h66l-66 -47v-22zM103 627h22v30h86v24h-86v30h-22v-84zM123 443c0 20 14 34 34 34s35 -14 35 -34c0 -19 -15 -34 -35 -34
s-34 15 -34 34zM124 -43v19c0 10 6 16 14 16c9 0 15 -6 15 -16v-19h-29zM131 128l39 14v-28z" />
    <glyph glyph-name="Scedilla" unicode="&#x15e;" 
d="M125 -82v-30h86v-24h-86v-30h-22v84h22zM100 443c0 -33 25 -58 57 -58s57 25 57 58s-25 58 -57 58s-57 -25 -57 -58zM103 -66h108v23h-37v16l37 21v26l-41 -24c-6 12 -17 20 -31 20c-21 0 -36 -16 -36 -38v-44zM103 36v24h108v-24h-108zM103 116l108 -42v25l-20 7v43
l20 8v26l-108 -44v-23zM103 196h108v66h-21v-42h-87v-24zM103 310h108v23h-41v38h-22v-38h-23v42h-22v-65zM103 519h108v23h-68l68 50v19h-108v-23h66l-66 -47v-22zM103 627h22v30h86v24h-86v30h-22v-84zM123 443c0 20 14 34 34 34s35 -14 35 -34c0 -19 -15 -34 -35 -34
s-34 15 -34 34zM124 -43v19c0 10 6 16 14 16c9 0 15 -6 15 -16v-19h-29zM131 128l39 14v-28z" />
    <glyph glyph-name="uni0218" unicode="&#x218;" 
d="M125 -82v-30h86v-24h-86v-30h-22v84h22zM100 443c0 -33 25 -58 57 -58s57 25 57 58s-25 58 -57 58s-57 -25 -57 -58zM103 -66h108v23h-37v16l37 21v26l-41 -24c-6 12 -17 20 -31 20c-21 0 -36 -16 -36 -38v-44zM103 36v24h108v-24h-108zM103 116l108 -42v25l-20 7v43
l20 8v26l-108 -44v-23zM103 196h108v66h-21v-42h-87v-24zM103 310h108v23h-41v38h-22v-38h-23v42h-22v-65zM103 519h108v23h-68l68 50v19h-108v-23h66l-66 -47v-22zM103 627h22v30h86v24h-86v30h-22v-84zM123 443c0 20 14 34 34 34s35 -14 35 -34c0 -19 -15 -34 -35 -34
s-34 15 -34 34zM124 -43v19c0 10 6 16 14 16c9 0 15 -6 15 -16v-19h-29zM131 128l39 14v-28z" />
    <glyph glyph-name="T" unicode="T" horiz-adv-x="604" 
d="M260 0v620h-246v80h576v-80h-246v-620h-84z" />
    <glyph glyph-name="Tbar" unicode="&#x166;" 
d="M125 -82v-30h86v-24h-86v-30h-22v84h22zM100 443c0 -33 25 -58 57 -58s57 25 57 58s-25 58 -57 58s-57 -25 -57 -58zM103 -66h108v23h-37v16l37 21v26l-41 -24c-6 12 -17 20 -31 20c-21 0 -36 -16 -36 -38v-44zM103 36v24h108v-24h-108zM103 116l108 -42v25l-20 7v43
l20 8v26l-108 -44v-23zM103 196h108v66h-21v-42h-87v-24zM103 310h108v23h-41v38h-22v-38h-23v42h-22v-65zM103 519h108v23h-68l68 50v19h-108v-23h66l-66 -47v-22zM103 627h22v30h86v24h-86v30h-22v-84zM123 443c0 20 14 34 34 34s35 -14 35 -34c0 -19 -15 -34 -35 -34
s-34 15 -34 34zM124 -43v19c0 10 6 16 14 16c9 0 15 -6 15 -16v-19h-29zM131 128l39 14v-28z" />
    <glyph glyph-name="Tcaron" unicode="&#x164;" 
d="M125 -82v-30h86v-24h-86v-30h-22v84h22zM100 443c0 -33 25 -58 57 -58s57 25 57 58s-25 58 -57 58s-57 -25 -57 -58zM103 -66h108v23h-37v16l37 21v26l-41 -24c-6 12 -17 20 -31 20c-21 0 -36 -16 -36 -38v-44zM103 36v24h108v-24h-108zM103 116l108 -42v25l-20 7v43
l20 8v26l-108 -44v-23zM103 196h108v66h-21v-42h-87v-24zM103 310h108v23h-41v38h-22v-38h-23v42h-22v-65zM103 519h108v23h-68l68 50v19h-108v-23h66l-66 -47v-22zM103 627h22v30h86v24h-86v30h-22v-84zM123 443c0 20 14 34 34 34s35 -14 35 -34c0 -19 -15 -34 -35 -34
s-34 15 -34 34zM124 -43v19c0 10 6 16 14 16c9 0 15 -6 15 -16v-19h-29zM131 128l39 14v-28z" />
    <glyph glyph-name="uni0162" unicode="&#x162;" 
d="M125 -82v-30h86v-24h-86v-30h-22v84h22zM100 443c0 -33 25 -58 57 -58s57 25 57 58s-25 58 -57 58s-57 -25 -57 -58zM103 -66h108v23h-37v16l37 21v26l-41 -24c-6 12 -17 20 -31 20c-21 0 -36 -16 -36 -38v-44zM103 36v24h108v-24h-108zM103 116l108 -42v25l-20 7v43
l20 8v26l-108 -44v-23zM103 196h108v66h-21v-42h-87v-24zM103 310h108v23h-41v38h-22v-38h-23v42h-22v-65zM103 519h108v23h-68l68 50v19h-108v-23h66l-66 -47v-22zM103 627h22v30h86v24h-86v30h-22v-84zM123 443c0 20 14 34 34 34s35 -14 35 -34c0 -19 -15 -34 -35 -34
s-34 15 -34 34zM124 -43v19c0 10 6 16 14 16c9 0 15 -6 15 -16v-19h-29zM131 128l39 14v-28z" />
    <glyph glyph-name="uni021A" unicode="&#x21a;" 
d="M125 -82v-30h86v-24h-86v-30h-22v84h22zM100 443c0 -33 25 -58 57 -58s57 25 57 58s-25 58 -57 58s-57 -25 -57 -58zM103 -66h108v23h-37v16l37 21v26l-41 -24c-6 12 -17 20 -31 20c-21 0 -36 -16 -36 -38v-44zM103 36v24h108v-24h-108zM103 116l108 -42v25l-20 7v43
l20 8v26l-108 -44v-23zM103 196h108v66h-21v-42h-87v-24zM103 310h108v23h-41v38h-22v-38h-23v42h-22v-65zM103 519h108v23h-68l68 50v19h-108v-23h66l-66 -47v-22zM103 627h22v30h86v24h-86v30h-22v-84zM123 443c0 20 14 34 34 34s35 -14 35 -34c0 -19 -15 -34 -35 -34
s-34 15 -34 34zM124 -43v19c0 10 6 16 14 16c9 0 15 -6 15 -16v-19h-29zM131 128l39 14v-28z" />
    <glyph glyph-name="U" unicode="U" horiz-adv-x="753" 
d="M377 -12c-156 0 -293 68 -293 268v444h84v-440c0 -142 88 -192 209 -192c120 0 208 50 208 192v440h84v-444c0 -200 -137 -268 -292 -268z" />
    <glyph glyph-name="Uacute" unicode="&#xda;" 
d="M125 -82v-30h86v-24h-86v-30h-22v84h22zM100 443c0 -33 25 -58 57 -58s57 25 57 58s-25 58 -57 58s-57 -25 -57 -58zM103 -66h108v23h-37v16l37 21v26l-41 -24c-6 12 -17 20 -31 20c-21 0 -36 -16 -36 -38v-44zM103 36v24h108v-24h-108zM103 116l108 -42v25l-20 7v43
l20 8v26l-108 -44v-23zM103 196h108v66h-21v-42h-87v-24zM103 310h108v23h-41v38h-22v-38h-23v42h-22v-65zM103 519h108v23h-68l68 50v19h-108v-23h66l-66 -47v-22zM103 627h22v30h86v24h-86v30h-22v-84zM123 443c0 20 14 34 34 34s35 -14 35 -34c0 -19 -15 -34 -35 -34
s-34 15 -34 34zM124 -43v19c0 10 6 16 14 16c9 0 15 -6 15 -16v-19h-29zM131 128l39 14v-28z" />
    <glyph glyph-name="Ucircumflex" unicode="&#xdb;" 
d="M125 -82v-30h86v-24h-86v-30h-22v84h22zM100 443c0 -33 25 -58 57 -58s57 25 57 58s-25 58 -57 58s-57 -25 -57 -58zM103 -66h108v23h-37v16l37 21v26l-41 -24c-6 12 -17 20 -31 20c-21 0 -36 -16 -36 -38v-44zM103 36v24h108v-24h-108zM103 116l108 -42v25l-20 7v43
l20 8v26l-108 -44v-23zM103 196h108v66h-21v-42h-87v-24zM103 310h108v23h-41v38h-22v-38h-23v42h-22v-65zM103 519h108v23h-68l68 50v19h-108v-23h66l-66 -47v-22zM103 627h22v30h86v24h-86v30h-22v-84zM123 443c0 20 14 34 34 34s35 -14 35 -34c0 -19 -15 -34 -35 -34
s-34 15 -34 34zM124 -43v19c0 10 6 16 14 16c9 0 15 -6 15 -16v-19h-29zM131 128l39 14v-28z" />
    <glyph glyph-name="Udieresis" unicode="&#xdc;" 
d="M125 -82v-30h86v-24h-86v-30h-22v84h22zM100 443c0 -33 25 -58 57 -58s57 25 57 58s-25 58 -57 58s-57 -25 -57 -58zM103 -66h108v23h-37v16l37 21v26l-41 -24c-6 12 -17 20 -31 20c-21 0 -36 -16 -36 -38v-44zM103 36v24h108v-24h-108zM103 116l108 -42v25l-20 7v43
l20 8v26l-108 -44v-23zM103 196h108v66h-21v-42h-87v-24zM103 310h108v23h-41v38h-22v-38h-23v42h-22v-65zM103 519h108v23h-68l68 50v19h-108v-23h66l-66 -47v-22zM103 627h22v30h86v24h-86v30h-22v-84zM123 443c0 20 14 34 34 34s35 -14 35 -34c0 -19 -15 -34 -35 -34
s-34 15 -34 34zM124 -43v19c0 10 6 16 14 16c9 0 15 -6 15 -16v-19h-29zM131 128l39 14v-28z" />
    <glyph glyph-name="Ugrave" unicode="&#xd9;" 
d="M125 -82v-30h86v-24h-86v-30h-22v84h22zM100 443c0 -33 25 -58 57 -58s57 25 57 58s-25 58 -57 58s-57 -25 -57 -58zM103 -66h108v23h-37v16l37 21v26l-41 -24c-6 12 -17 20 -31 20c-21 0 -36 -16 -36 -38v-44zM103 36v24h108v-24h-108zM103 116l108 -42v25l-20 7v43
l20 8v26l-108 -44v-23zM103 196h108v66h-21v-42h-87v-24zM103 310h108v23h-41v38h-22v-38h-23v42h-22v-65zM103 519h108v23h-68l68 50v19h-108v-23h66l-66 -47v-22zM103 627h22v30h86v24h-86v30h-22v-84zM123 443c0 20 14 34 34 34s35 -14 35 -34c0 -19 -15 -34 -35 -34
s-34 15 -34 34zM124 -43v19c0 10 6 16 14 16c9 0 15 -6 15 -16v-19h-29zM131 128l39 14v-28z" />
    <glyph glyph-name="Uhungarumlaut" unicode="&#x170;" 
d="M125 -82v-30h86v-24h-86v-30h-22v84h22zM100 443c0 -33 25 -58 57 -58s57 25 57 58s-25 58 -57 58s-57 -25 -57 -58zM103 -66h108v23h-37v16l37 21v26l-41 -24c-6 12 -17 20 -31 20c-21 0 -36 -16 -36 -38v-44zM103 36v24h108v-24h-108zM103 116l108 -42v25l-20 7v43
l20 8v26l-108 -44v-23zM103 196h108v66h-21v-42h-87v-24zM103 310h108v23h-41v38h-22v-38h-23v42h-22v-65zM103 519h108v23h-68l68 50v19h-108v-23h66l-66 -47v-22zM103 627h22v30h86v24h-86v30h-22v-84zM123 443c0 20 14 34 34 34s35 -14 35 -34c0 -19 -15 -34 -35 -34
s-34 15 -34 34zM124 -43v19c0 10 6 16 14 16c9 0 15 -6 15 -16v-19h-29zM131 128l39 14v-28z" />
    <glyph glyph-name="Umacron" unicode="&#x16a;" 
d="M125 -82v-30h86v-24h-86v-30h-22v84h22zM100 443c0 -33 25 -58 57 -58s57 25 57 58s-25 58 -57 58s-57 -25 -57 -58zM103 -66h108v23h-37v16l37 21v26l-41 -24c-6 12 -17 20 -31 20c-21 0 -36 -16 -36 -38v-44zM103 36v24h108v-24h-108zM103 116l108 -42v25l-20 7v43
l20 8v26l-108 -44v-23zM103 196h108v66h-21v-42h-87v-24zM103 310h108v23h-41v38h-22v-38h-23v42h-22v-65zM103 519h108v23h-68l68 50v19h-108v-23h66l-66 -47v-22zM103 627h22v30h86v24h-86v30h-22v-84zM123 443c0 20 14 34 34 34s35 -14 35 -34c0 -19 -15 -34 -35 -34
s-34 15 -34 34zM124 -43v19c0 10 6 16 14 16c9 0 15 -6 15 -16v-19h-29zM131 128l39 14v-28z" />
    <glyph glyph-name="Uogonek" unicode="&#x172;" 
d="M125 -82v-30h86v-24h-86v-30h-22v84h22zM100 443c0 -33 25 -58 57 -58s57 25 57 58s-25 58 -57 58s-57 -25 -57 -58zM103 -66h108v23h-37v16l37 21v26l-41 -24c-6 12 -17 20 -31 20c-21 0 -36 -16 -36 -38v-44zM103 36v24h108v-24h-108zM103 116l108 -42v25l-20 7v43
l20 8v26l-108 -44v-23zM103 196h108v66h-21v-42h-87v-24zM103 310h108v23h-41v38h-22v-38h-23v42h-22v-65zM103 519h108v23h-68l68 50v19h-108v-23h66l-66 -47v-22zM103 627h22v30h86v24h-86v30h-22v-84zM123 443c0 20 14 34 34 34s35 -14 35 -34c0 -19 -15 -34 -35 -34
s-34 15 -34 34zM124 -43v19c0 10 6 16 14 16c9 0 15 -6 15 -16v-19h-29zM131 128l39 14v-28z" />
    <glyph glyph-name="Uring" unicode="&#x16e;" 
d="M125 -82v-30h86v-24h-86v-30h-22v84h22zM100 443c0 -33 25 -58 57 -58s57 25 57 58s-25 58 -57 58s-57 -25 -57 -58zM103 -66h108v23h-37v16l37 21v26l-41 -24c-6 12 -17 20 -31 20c-21 0 -36 -16 -36 -38v-44zM103 36v24h108v-24h-108zM103 116l108 -42v25l-20 7v43
l20 8v26l-108 -44v-23zM103 196h108v66h-21v-42h-87v-24zM103 310h108v23h-41v38h-22v-38h-23v42h-22v-65zM103 519h108v23h-68l68 50v19h-108v-23h66l-66 -47v-22zM103 627h22v30h86v24h-86v30h-22v-84zM123 443c0 20 14 34 34 34s35 -14 35 -34c0 -19 -15 -34 -35 -34
s-34 15 -34 34zM124 -43v19c0 10 6 16 14 16c9 0 15 -6 15 -16v-19h-29zM131 128l39 14v-28z" />
    <glyph glyph-name="V" unicode="V" horiz-adv-x="689" 
d="M301 0l-290 700h90l243 -606l244 606h90l-290 -700h-87z" />
    <glyph glyph-name="W" unicode="W" horiz-adv-x="999" 
d="M229 0l-220 700h92l175 -598l186 598h75l186 -598l175 598h92l-220 -700h-94l-177 560l-177 -560h-93z" />
    <glyph glyph-name="Wacute" unicode="&#x1e82;" 
d="M125 -82v-30h86v-24h-86v-30h-22v84h22zM100 443c0 -33 25 -58 57 -58s57 25 57 58s-25 58 -57 58s-57 -25 -57 -58zM103 -66h108v23h-37v16l37 21v26l-41 -24c-6 12 -17 20 -31 20c-21 0 -36 -16 -36 -38v-44zM103 36v24h108v-24h-108zM103 116l108 -42v25l-20 7v43
l20 8v26l-108 -44v-23zM103 196h108v66h-21v-42h-87v-24zM103 310h108v23h-41v38h-22v-38h-23v42h-22v-65zM103 519h108v23h-68l68 50v19h-108v-23h66l-66 -47v-22zM103 627h22v30h86v24h-86v30h-22v-84zM123 443c0 20 14 34 34 34s35 -14 35 -34c0 -19 -15 -34 -35 -34
s-34 15 -34 34zM124 -43v19c0 10 6 16 14 16c9 0 15 -6 15 -16v-19h-29zM131 128l39 14v-28z" />
    <glyph glyph-name="Wcircumflex" unicode="&#x174;" 
d="M125 -82v-30h86v-24h-86v-30h-22v84h22zM100 443c0 -33 25 -58 57 -58s57 25 57 58s-25 58 -57 58s-57 -25 -57 -58zM103 -66h108v23h-37v16l37 21v26l-41 -24c-6 12 -17 20 -31 20c-21 0 -36 -16 -36 -38v-44zM103 36v24h108v-24h-108zM103 116l108 -42v25l-20 7v43
l20 8v26l-108 -44v-23zM103 196h108v66h-21v-42h-87v-24zM103 310h108v23h-41v38h-22v-38h-23v42h-22v-65zM103 519h108v23h-68l68 50v19h-108v-23h66l-66 -47v-22zM103 627h22v30h86v24h-86v30h-22v-84zM123 443c0 20 14 34 34 34s35 -14 35 -34c0 -19 -15 -34 -35 -34
s-34 15 -34 34zM124 -43v19c0 10 6 16 14 16c9 0 15 -6 15 -16v-19h-29zM131 128l39 14v-28z" />
    <glyph glyph-name="Wdieresis" unicode="&#x1e84;" 
d="M125 -82v-30h86v-24h-86v-30h-22v84h22zM100 443c0 -33 25 -58 57 -58s57 25 57 58s-25 58 -57 58s-57 -25 -57 -58zM103 -66h108v23h-37v16l37 21v26l-41 -24c-6 12 -17 20 -31 20c-21 0 -36 -16 -36 -38v-44zM103 36v24h108v-24h-108zM103 116l108 -42v25l-20 7v43
l20 8v26l-108 -44v-23zM103 196h108v66h-21v-42h-87v-24zM103 310h108v23h-41v38h-22v-38h-23v42h-22v-65zM103 519h108v23h-68l68 50v19h-108v-23h66l-66 -47v-22zM103 627h22v30h86v24h-86v30h-22v-84zM123 443c0 20 14 34 34 34s35 -14 35 -34c0 -19 -15 -34 -35 -34
s-34 15 -34 34zM124 -43v19c0 10 6 16 14 16c9 0 15 -6 15 -16v-19h-29zM131 128l39 14v-28z" />
    <glyph glyph-name="Wgrave" unicode="&#x1e80;" 
d="M125 -82v-30h86v-24h-86v-30h-22v84h22zM100 443c0 -33 25 -58 57 -58s57 25 57 58s-25 58 -57 58s-57 -25 -57 -58zM103 -66h108v23h-37v16l37 21v26l-41 -24c-6 12 -17 20 -31 20c-21 0 -36 -16 -36 -38v-44zM103 36v24h108v-24h-108zM103 116l108 -42v25l-20 7v43
l20 8v26l-108 -44v-23zM103 196h108v66h-21v-42h-87v-24zM103 310h108v23h-41v38h-22v-38h-23v42h-22v-65zM103 519h108v23h-68l68 50v19h-108v-23h66l-66 -47v-22zM103 627h22v30h86v24h-86v30h-22v-84zM123 443c0 20 14 34 34 34s35 -14 35 -34c0 -19 -15 -34 -35 -34
s-34 15 -34 34zM124 -43v19c0 10 6 16 14 16c9 0 15 -6 15 -16v-19h-29zM131 128l39 14v-28z" />
    <glyph glyph-name="X" unicode="X" horiz-adv-x="645" 
d="M2 0l271 360l-256 340h100l206 -273l205 273h100l-255 -340l270 -360h-100l-220 293l-221 -293h-100z" />
    <glyph glyph-name="Y" unicode="Y" horiz-adv-x="656" 
d="M286 0v265l-275 435h93l224 -360l224 360h93l-275 -435v-265h-84z" />
    <glyph glyph-name="Yacute" unicode="&#xdd;" 
d="M125 -82v-30h86v-24h-86v-30h-22v84h22zM100 443c0 -33 25 -58 57 -58s57 25 57 58s-25 58 -57 58s-57 -25 -57 -58zM103 -66h108v23h-37v16l37 21v26l-41 -24c-6 12 -17 20 -31 20c-21 0 -36 -16 -36 -38v-44zM103 36v24h108v-24h-108zM103 116l108 -42v25l-20 7v43
l20 8v26l-108 -44v-23zM103 196h108v66h-21v-42h-87v-24zM103 310h108v23h-41v38h-22v-38h-23v42h-22v-65zM103 519h108v23h-68l68 50v19h-108v-23h66l-66 -47v-22zM103 627h22v30h86v24h-86v30h-22v-84zM123 443c0 20 14 34 34 34s35 -14 35 -34c0 -19 -15 -34 -35 -34
s-34 15 -34 34zM124 -43v19c0 10 6 16 14 16c9 0 15 -6 15 -16v-19h-29zM131 128l39 14v-28z" />
    <glyph glyph-name="Ycircumflex" unicode="&#x176;" 
d="M125 -82v-30h86v-24h-86v-30h-22v84h22zM100 443c0 -33 25 -58 57 -58s57 25 57 58s-25 58 -57 58s-57 -25 -57 -58zM103 -66h108v23h-37v16l37 21v26l-41 -24c-6 12 -17 20 -31 20c-21 0 -36 -16 -36 -38v-44zM103 36v24h108v-24h-108zM103 116l108 -42v25l-20 7v43
l20 8v26l-108 -44v-23zM103 196h108v66h-21v-42h-87v-24zM103 310h108v23h-41v38h-22v-38h-23v42h-22v-65zM103 519h108v23h-68l68 50v19h-108v-23h66l-66 -47v-22zM103 627h22v30h86v24h-86v30h-22v-84zM123 443c0 20 14 34 34 34s35 -14 35 -34c0 -19 -15 -34 -35 -34
s-34 15 -34 34zM124 -43v19c0 10 6 16 14 16c9 0 15 -6 15 -16v-19h-29zM131 128l39 14v-28z" />
    <glyph glyph-name="Ydieresis" unicode="&#x178;" 
d="M125 -82v-30h86v-24h-86v-30h-22v84h22zM100 443c0 -33 25 -58 57 -58s57 25 57 58s-25 58 -57 58s-57 -25 -57 -58zM103 -66h108v23h-37v16l37 21v26l-41 -24c-6 12 -17 20 -31 20c-21 0 -36 -16 -36 -38v-44zM103 36v24h108v-24h-108zM103 116l108 -42v25l-20 7v43
l20 8v26l-108 -44v-23zM103 196h108v66h-21v-42h-87v-24zM103 310h108v23h-41v38h-22v-38h-23v42h-22v-65zM103 519h108v23h-68l68 50v19h-108v-23h66l-66 -47v-22zM103 627h22v30h86v24h-86v30h-22v-84zM123 443c0 20 14 34 34 34s35 -14 35 -34c0 -19 -15 -34 -35 -34
s-34 15 -34 34zM124 -43v19c0 10 6 16 14 16c9 0 15 -6 15 -16v-19h-29zM131 128l39 14v-28z" />
    <glyph glyph-name="Ygrave" unicode="&#x1ef2;" 
d="M125 -82v-30h86v-24h-86v-30h-22v84h22zM100 443c0 -33 25 -58 57 -58s57 25 57 58s-25 58 -57 58s-57 -25 -57 -58zM103 -66h108v23h-37v16l37 21v26l-41 -24c-6 12 -17 20 -31 20c-21 0 -36 -16 -36 -38v-44zM103 36v24h108v-24h-108zM103 116l108 -42v25l-20 7v43
l20 8v26l-108 -44v-23zM103 196h108v66h-21v-42h-87v-24zM103 310h108v23h-41v38h-22v-38h-23v42h-22v-65zM103 519h108v23h-68l68 50v19h-108v-23h66l-66 -47v-22zM103 627h22v30h86v24h-86v30h-22v-84zM123 443c0 20 14 34 34 34s35 -14 35 -34c0 -19 -15 -34 -35 -34
s-34 15 -34 34zM124 -43v19c0 10 6 16 14 16c9 0 15 -6 15 -16v-19h-29zM131 128l39 14v-28z" />
    <glyph glyph-name="Z" unicode="Z" horiz-adv-x="586" 
d="M35 0v76l402 544h-392v80h493v-76l-403 -544h419v-80h-519z" />
    <glyph glyph-name="Zacute" unicode="&#x179;" 
d="M125 -82v-30h86v-24h-86v-30h-22v84h22zM100 443c0 -33 25 -58 57 -58s57 25 57 58s-25 58 -57 58s-57 -25 -57 -58zM103 -66h108v23h-37v16l37 21v26l-41 -24c-6 12 -17 20 -31 20c-21 0 -36 -16 -36 -38v-44zM103 36v24h108v-24h-108zM103 116l108 -42v25l-20 7v43
l20 8v26l-108 -44v-23zM103 196h108v66h-21v-42h-87v-24zM103 310h108v23h-41v38h-22v-38h-23v42h-22v-65zM103 519h108v23h-68l68 50v19h-108v-23h66l-66 -47v-22zM103 627h22v30h86v24h-86v30h-22v-84zM123 443c0 20 14 34 34 34s35 -14 35 -34c0 -19 -15 -34 -35 -34
s-34 15 -34 34zM124 -43v19c0 10 6 16 14 16c9 0 15 -6 15 -16v-19h-29zM131 128l39 14v-28z" />
    <glyph glyph-name="Zcaron" unicode="&#x17d;" 
d="M125 -82v-30h86v-24h-86v-30h-22v84h22zM100 443c0 -33 25 -58 57 -58s57 25 57 58s-25 58 -57 58s-57 -25 -57 -58zM103 -66h108v23h-37v16l37 21v26l-41 -24c-6 12 -17 20 -31 20c-21 0 -36 -16 -36 -38v-44zM103 36v24h108v-24h-108zM103 116l108 -42v25l-20 7v43
l20 8v26l-108 -44v-23zM103 196h108v66h-21v-42h-87v-24zM103 310h108v23h-41v38h-22v-38h-23v42h-22v-65zM103 519h108v23h-68l68 50v19h-108v-23h66l-66 -47v-22zM103 627h22v30h86v24h-86v30h-22v-84zM123 443c0 20 14 34 34 34s35 -14 35 -34c0 -19 -15 -34 -35 -34
s-34 15 -34 34zM124 -43v19c0 10 6 16 14 16c9 0 15 -6 15 -16v-19h-29zM131 128l39 14v-28z" />
    <glyph glyph-name="Zdotaccent" unicode="&#x17b;" 
d="M125 -82v-30h86v-24h-86v-30h-22v84h22zM100 443c0 -33 25 -58 57 -58s57 25 57 58s-25 58 -57 58s-57 -25 -57 -58zM103 -66h108v23h-37v16l37 21v26l-41 -24c-6 12 -17 20 -31 20c-21 0 -36 -16 -36 -38v-44zM103 36v24h108v-24h-108zM103 116l108 -42v25l-20 7v43
l20 8v26l-108 -44v-23zM103 196h108v66h-21v-42h-87v-24zM103 310h108v23h-41v38h-22v-38h-23v42h-22v-65zM103 519h108v23h-68l68 50v19h-108v-23h66l-66 -47v-22zM103 627h22v30h86v24h-86v30h-22v-84zM123 443c0 20 14 34 34 34s35 -14 35 -34c0 -19 -15 -34 -35 -34
s-34 15 -34 34zM124 -43v19c0 10 6 16 14 16c9 0 15 -6 15 -16v-19h-29zM131 128l39 14v-28z" />
    <glyph glyph-name="a" unicode="a" horiz-adv-x="544" 
d="M203 -12c-85 0 -169 45 -169 146c0 124 114 162 217 162c42 0 93 -6 133 -15v17c0 72 -49 120 -137 120c-74 0 -133 -18 -175 -36v78c38 13 104 32 183 32c128 0 209 -70 209 -204v-188c0 -29 16 -37 37 -37c12 0 25 3 37 7v-65c-19 -7 -40 -11 -60 -11
c-38 0 -72 15 -87 55l-1 3c-48 -40 -109 -64 -187 -64zM116 138c0 -56 51 -81 104 -81c61 0 122 25 164 70v88c-34 7 -83 14 -122 14c-70 0 -146 -21 -146 -91z" />
    <glyph glyph-name="aacute" unicode="&#xe1;" 
d="M125 -82v-30h86v-24h-86v-30h-22v84h22zM100 443c0 -33 25 -58 57 -58s57 25 57 58s-25 58 -57 58s-57 -25 -57 -58zM103 -66h108v23h-37v16l37 21v26l-41 -24c-6 12 -17 20 -31 20c-21 0 -36 -16 -36 -38v-44zM103 36v24h108v-24h-108zM103 116l108 -42v25l-20 7v43
l20 8v26l-108 -44v-23zM103 196h108v66h-21v-42h-87v-24zM103 310h108v23h-41v38h-22v-38h-23v42h-22v-65zM103 519h108v23h-68l68 50v19h-108v-23h66l-66 -47v-22zM103 627h22v30h86v24h-86v30h-22v-84zM123 443c0 20 14 34 34 34s35 -14 35 -34c0 -19 -15 -34 -35 -34
s-34 15 -34 34zM124 -43v19c0 10 6 16 14 16c9 0 15 -6 15 -16v-19h-29zM131 128l39 14v-28z" />
    <glyph glyph-name="abreve" unicode="&#x103;" 
d="M125 -82v-30h86v-24h-86v-30h-22v84h22zM100 443c0 -33 25 -58 57 -58s57 25 57 58s-25 58 -57 58s-57 -25 -57 -58zM103 -66h108v23h-37v16l37 21v26l-41 -24c-6 12 -17 20 -31 20c-21 0 -36 -16 -36 -38v-44zM103 36v24h108v-24h-108zM103 116l108 -42v25l-20 7v43
l20 8v26l-108 -44v-23zM103 196h108v66h-21v-42h-87v-24zM103 310h108v23h-41v38h-22v-38h-23v42h-22v-65zM103 519h108v23h-68l68 50v19h-108v-23h66l-66 -47v-22zM103 627h22v30h86v24h-86v30h-22v-84zM123 443c0 20 14 34 34 34s35 -14 35 -34c0 -19 -15 -34 -35 -34
s-34 15 -34 34zM124 -43v19c0 10 6 16 14 16c9 0 15 -6 15 -16v-19h-29zM131 128l39 14v-28z" />
    <glyph glyph-name="acircumflex" unicode="&#xe2;" 
d="M125 -82v-30h86v-24h-86v-30h-22v84h22zM100 443c0 -33 25 -58 57 -58s57 25 57 58s-25 58 -57 58s-57 -25 -57 -58zM103 -66h108v23h-37v16l37 21v26l-41 -24c-6 12 -17 20 -31 20c-21 0 -36 -16 -36 -38v-44zM103 36v24h108v-24h-108zM103 116l108 -42v25l-20 7v43
l20 8v26l-108 -44v-23zM103 196h108v66h-21v-42h-87v-24zM103 310h108v23h-41v38h-22v-38h-23v42h-22v-65zM103 519h108v23h-68l68 50v19h-108v-23h66l-66 -47v-22zM103 627h22v30h86v24h-86v30h-22v-84zM123 443c0 20 14 34 34 34s35 -14 35 -34c0 -19 -15 -34 -35 -34
s-34 15 -34 34zM124 -43v19c0 10 6 16 14 16c9 0 15 -6 15 -16v-19h-29zM131 128l39 14v-28z" />
    <glyph glyph-name="adieresis" unicode="&#xe4;" 
d="M125 -82v-30h86v-24h-86v-30h-22v84h22zM100 443c0 -33 25 -58 57 -58s57 25 57 58s-25 58 -57 58s-57 -25 -57 -58zM103 -66h108v23h-37v16l37 21v26l-41 -24c-6 12 -17 20 -31 20c-21 0 -36 -16 -36 -38v-44zM103 36v24h108v-24h-108zM103 116l108 -42v25l-20 7v43
l20 8v26l-108 -44v-23zM103 196h108v66h-21v-42h-87v-24zM103 310h108v23h-41v38h-22v-38h-23v42h-22v-65zM103 519h108v23h-68l68 50v19h-108v-23h66l-66 -47v-22zM103 627h22v30h86v24h-86v30h-22v-84zM123 443c0 20 14 34 34 34s35 -14 35 -34c0 -19 -15 -34 -35 -34
s-34 15 -34 34zM124 -43v19c0 10 6 16 14 16c9 0 15 -6 15 -16v-19h-29zM131 128l39 14v-28z" />
    <glyph glyph-name="agrave" unicode="&#xe0;" 
d="M125 -82v-30h86v-24h-86v-30h-22v84h22zM100 443c0 -33 25 -58 57 -58s57 25 57 58s-25 58 -57 58s-57 -25 -57 -58zM103 -66h108v23h-37v16l37 21v26l-41 -24c-6 12 -17 20 -31 20c-21 0 -36 -16 -36 -38v-44zM103 36v24h108v-24h-108zM103 116l108 -42v25l-20 7v43
l20 8v26l-108 -44v-23zM103 196h108v66h-21v-42h-87v-24zM103 310h108v23h-41v38h-22v-38h-23v42h-22v-65zM103 519h108v23h-68l68 50v19h-108v-23h66l-66 -47v-22zM103 627h22v30h86v24h-86v30h-22v-84zM123 443c0 20 14 34 34 34s35 -14 35 -34c0 -19 -15 -34 -35 -34
s-34 15 -34 34zM124 -43v19c0 10 6 16 14 16c9 0 15 -6 15 -16v-19h-29zM131 128l39 14v-28z" />
    <glyph glyph-name="amacron" unicode="&#x101;" 
d="M125 -82v-30h86v-24h-86v-30h-22v84h22zM100 443c0 -33 25 -58 57 -58s57 25 57 58s-25 58 -57 58s-57 -25 -57 -58zM103 -66h108v23h-37v16l37 21v26l-41 -24c-6 12 -17 20 -31 20c-21 0 -36 -16 -36 -38v-44zM103 36v24h108v-24h-108zM103 116l108 -42v25l-20 7v43
l20 8v26l-108 -44v-23zM103 196h108v66h-21v-42h-87v-24zM103 310h108v23h-41v38h-22v-38h-23v42h-22v-65zM103 519h108v23h-68l68 50v19h-108v-23h66l-66 -47v-22zM103 627h22v30h86v24h-86v30h-22v-84zM123 443c0 20 14 34 34 34s35 -14 35 -34c0 -19 -15 -34 -35 -34
s-34 15 -34 34zM124 -43v19c0 10 6 16 14 16c9 0 15 -6 15 -16v-19h-29zM131 128l39 14v-28z" />
    <glyph glyph-name="aogonek" unicode="&#x105;" 
d="M125 -82v-30h86v-24h-86v-30h-22v84h22zM100 443c0 -33 25 -58 57 -58s57 25 57 58s-25 58 -57 58s-57 -25 -57 -58zM103 -66h108v23h-37v16l37 21v26l-41 -24c-6 12 -17 20 -31 20c-21 0 -36 -16 -36 -38v-44zM103 36v24h108v-24h-108zM103 116l108 -42v25l-20 7v43
l20 8v26l-108 -44v-23zM103 196h108v66h-21v-42h-87v-24zM103 310h108v23h-41v38h-22v-38h-23v42h-22v-65zM103 519h108v23h-68l68 50v19h-108v-23h66l-66 -47v-22zM103 627h22v30h86v24h-86v30h-22v-84zM123 443c0 20 14 34 34 34s35 -14 35 -34c0 -19 -15 -34 -35 -34
s-34 15 -34 34zM124 -43v19c0 10 6 16 14 16c9 0 15 -6 15 -16v-19h-29zM131 128l39 14v-28z" />
    <glyph glyph-name="aring" unicode="&#xe5;" 
d="M125 -82v-30h86v-24h-86v-30h-22v84h22zM100 443c0 -33 25 -58 57 -58s57 25 57 58s-25 58 -57 58s-57 -25 -57 -58zM103 -66h108v23h-37v16l37 21v26l-41 -24c-6 12 -17 20 -31 20c-21 0 -36 -16 -36 -38v-44zM103 36v24h108v-24h-108zM103 116l108 -42v25l-20 7v43
l20 8v26l-108 -44v-23zM103 196h108v66h-21v-42h-87v-24zM103 310h108v23h-41v38h-22v-38h-23v42h-22v-65zM103 519h108v23h-68l68 50v19h-108v-23h66l-66 -47v-22zM103 627h22v30h86v24h-86v30h-22v-84zM123 443c0 20 14 34 34 34s35 -14 35 -34c0 -19 -15 -34 -35 -34
s-34 15 -34 34zM124 -43v19c0 10 6 16 14 16c9 0 15 -6 15 -16v-19h-29zM131 128l39 14v-28z" />
    <glyph glyph-name="atilde" unicode="&#xe3;" 
d="M125 -82v-30h86v-24h-86v-30h-22v84h22zM100 443c0 -33 25 -58 57 -58s57 25 57 58s-25 58 -57 58s-57 -25 -57 -58zM103 -66h108v23h-37v16l37 21v26l-41 -24c-6 12 -17 20 -31 20c-21 0 -36 -16 -36 -38v-44zM103 36v24h108v-24h-108zM103 116l108 -42v25l-20 7v43
l20 8v26l-108 -44v-23zM103 196h108v66h-21v-42h-87v-24zM103 310h108v23h-41v38h-22v-38h-23v42h-22v-65zM103 519h108v23h-68l68 50v19h-108v-23h66l-66 -47v-22zM103 627h22v30h86v24h-86v30h-22v-84zM123 443c0 20 14 34 34 34s35 -14 35 -34c0 -19 -15 -34 -35 -34
s-34 15 -34 34zM124 -43v19c0 10 6 16 14 16c9 0 15 -6 15 -16v-19h-29zM131 128l39 14v-28z" />
    <glyph glyph-name="ae" unicode="&#xe6;" 
d="M125 -82v-30h86v-24h-86v-30h-22v84h22zM100 443c0 -33 25 -58 57 -58s57 25 57 58s-25 58 -57 58s-57 -25 -57 -58zM103 -66h108v23h-37v16l37 21v26l-41 -24c-6 12 -17 20 -31 20c-21 0 -36 -16 -36 -38v-44zM103 36v24h108v-24h-108zM103 116l108 -42v25l-20 7v43
l20 8v26l-108 -44v-23zM103 196h108v66h-21v-42h-87v-24zM103 310h108v23h-41v38h-22v-38h-23v42h-22v-65zM103 519h108v23h-68l68 50v19h-108v-23h66l-66 -47v-22zM103 627h22v30h86v24h-86v30h-22v-84zM123 443c0 20 14 34 34 34s35 -14 35 -34c0 -19 -15 -34 -35 -34
s-34 15 -34 34zM124 -43v19c0 10 6 16 14 16c9 0 15 -6 15 -16v-19h-29zM131 128l39 14v-28z" />
    <glyph glyph-name="b" unicode="b" horiz-adv-x="621" 
d="M340 -12c-92 0 -151 43 -194 92v-80h-72v700h80v-292c35 41 94 84 186 84c137 0 240 -108 240 -252s-103 -252 -240 -252zM154 180c27 -62 91 -118 177 -118c93 0 169 68 169 178s-76 178 -169 178c-86 0 -150 -56 -177 -118v-120z" />
    <glyph glyph-name="c" unicode="c" horiz-adv-x="493" 
d="M298 -12c-126 0 -257 79 -257 250c0 175 135 254 260 254c54 0 107 -12 148 -39v-78c-36 28 -87 43 -138 43c-93 0 -190 -52 -190 -178c0 -123 94 -178 188 -178c52 0 105 15 145 39v-80c-45 -22 -96 -33 -156 -33z" />
    <glyph glyph-name="cacute" unicode="&#x107;" 
d="M125 -82v-30h86v-24h-86v-30h-22v84h22zM100 443c0 -33 25 -58 57 -58s57 25 57 58s-25 58 -57 58s-57 -25 -57 -58zM103 -66h108v23h-37v16l37 21v26l-41 -24c-6 12 -17 20 -31 20c-21 0 -36 -16 -36 -38v-44zM103 36v24h108v-24h-108zM103 116l108 -42v25l-20 7v43
l20 8v26l-108 -44v-23zM103 196h108v66h-21v-42h-87v-24zM103 310h108v23h-41v38h-22v-38h-23v42h-22v-65zM103 519h108v23h-68l68 50v19h-108v-23h66l-66 -47v-22zM103 627h22v30h86v24h-86v30h-22v-84zM123 443c0 20 14 34 34 34s35 -14 35 -34c0 -19 -15 -34 -35 -34
s-34 15 -34 34zM124 -43v19c0 10 6 16 14 16c9 0 15 -6 15 -16v-19h-29zM131 128l39 14v-28z" />
    <glyph glyph-name="ccaron" unicode="&#x10d;" 
d="M125 -82v-30h86v-24h-86v-30h-22v84h22zM100 443c0 -33 25 -58 57 -58s57 25 57 58s-25 58 -57 58s-57 -25 -57 -58zM103 -66h108v23h-37v16l37 21v26l-41 -24c-6 12 -17 20 -31 20c-21 0 -36 -16 -36 -38v-44zM103 36v24h108v-24h-108zM103 116l108 -42v25l-20 7v43
l20 8v26l-108 -44v-23zM103 196h108v66h-21v-42h-87v-24zM103 310h108v23h-41v38h-22v-38h-23v42h-22v-65zM103 519h108v23h-68l68 50v19h-108v-23h66l-66 -47v-22zM103 627h22v30h86v24h-86v30h-22v-84zM123 443c0 20 14 34 34 34s35 -14 35 -34c0 -19 -15 -34 -35 -34
s-34 15 -34 34zM124 -43v19c0 10 6 16 14 16c9 0 15 -6 15 -16v-19h-29zM131 128l39 14v-28z" />
    <glyph glyph-name="ccedilla" unicode="&#xe7;" 
d="M125 -82v-30h86v-24h-86v-30h-22v84h22zM100 443c0 -33 25 -58 57 -58s57 25 57 58s-25 58 -57 58s-57 -25 -57 -58zM103 -66h108v23h-37v16l37 21v26l-41 -24c-6 12 -17 20 -31 20c-21 0 -36 -16 -36 -38v-44zM103 36v24h108v-24h-108zM103 116l108 -42v25l-20 7v43
l20 8v26l-108 -44v-23zM103 196h108v66h-21v-42h-87v-24zM103 310h108v23h-41v38h-22v-38h-23v42h-22v-65zM103 519h108v23h-68l68 50v19h-108v-23h66l-66 -47v-22zM103 627h22v30h86v24h-86v30h-22v-84zM123 443c0 20 14 34 34 34s35 -14 35 -34c0 -19 -15 -34 -35 -34
s-34 15 -34 34zM124 -43v19c0 10 6 16 14 16c9 0 15 -6 15 -16v-19h-29zM131 128l39 14v-28z" />
    <glyph glyph-name="cdotaccent" unicode="&#x10b;" 
d="M125 -82v-30h86v-24h-86v-30h-22v84h22zM100 443c0 -33 25 -58 57 -58s57 25 57 58s-25 58 -57 58s-57 -25 -57 -58zM103 -66h108v23h-37v16l37 21v26l-41 -24c-6 12 -17 20 -31 20c-21 0 -36 -16 -36 -38v-44zM103 36v24h108v-24h-108zM103 116l108 -42v25l-20 7v43
l20 8v26l-108 -44v-23zM103 196h108v66h-21v-42h-87v-24zM103 310h108v23h-41v38h-22v-38h-23v42h-22v-65zM103 519h108v23h-68l68 50v19h-108v-23h66l-66 -47v-22zM103 627h22v30h86v24h-86v30h-22v-84zM123 443c0 20 14 34 34 34s35 -14 35 -34c0 -19 -15 -34 -35 -34
s-34 15 -34 34zM124 -43v19c0 10 6 16 14 16c9 0 15 -6 15 -16v-19h-29zM131 128l39 14v-28z" />
    <glyph glyph-name="d" unicode="d" horiz-adv-x="621" 
d="M281 -12c-137 0 -240 108 -240 252s103 252 240 252c92 0 151 -43 186 -84v292h80v-700h-72v80c-43 -49 -102 -92 -194 -92zM121 240c0 -110 76 -178 169 -178c86 0 150 56 177 118v120c-27 62 -91 118 -177 118c-93 0 -169 -68 -169 -178z" />
    <glyph glyph-name="eth" unicode="&#xf0;" 
d="M125 -82v-30h86v-24h-86v-30h-22v84h22zM100 443c0 -33 25 -58 57 -58s57 25 57 58s-25 58 -57 58s-57 -25 -57 -58zM103 -66h108v23h-37v16l37 21v26l-41 -24c-6 12 -17 20 -31 20c-21 0 -36 -16 -36 -38v-44zM103 36v24h108v-24h-108zM103 116l108 -42v25l-20 7v43
l20 8v26l-108 -44v-23zM103 196h108v66h-21v-42h-87v-24zM103 310h108v23h-41v38h-22v-38h-23v42h-22v-65zM103 519h108v23h-68l68 50v19h-108v-23h66l-66 -47v-22zM103 627h22v30h86v24h-86v30h-22v-84zM123 443c0 20 14 34 34 34s35 -14 35 -34c0 -19 -15 -34 -35 -34
s-34 15 -34 34zM124 -43v19c0 10 6 16 14 16c9 0 15 -6 15 -16v-19h-29zM131 128l39 14v-28z" />
    <glyph glyph-name="dcaron" unicode="&#x10f;" 
d="M125 -82v-30h86v-24h-86v-30h-22v84h22zM100 443c0 -33 25 -58 57 -58s57 25 57 58s-25 58 -57 58s-57 -25 -57 -58zM103 -66h108v23h-37v16l37 21v26l-41 -24c-6 12 -17 20 -31 20c-21 0 -36 -16 -36 -38v-44zM103 36v24h108v-24h-108zM103 116l108 -42v25l-20 7v43
l20 8v26l-108 -44v-23zM103 196h108v66h-21v-42h-87v-24zM103 310h108v23h-41v38h-22v-38h-23v42h-22v-65zM103 519h108v23h-68l68 50v19h-108v-23h66l-66 -47v-22zM103 627h22v30h86v24h-86v30h-22v-84zM123 443c0 20 14 34 34 34s35 -14 35 -34c0 -19 -15 -34 -35 -34
s-34 15 -34 34zM124 -43v19c0 10 6 16 14 16c9 0 15 -6 15 -16v-19h-29zM131 128l39 14v-28z" />
    <glyph glyph-name="dcroat" unicode="&#x111;" 
d="M125 -82v-30h86v-24h-86v-30h-22v84h22zM100 443c0 -33 25 -58 57 -58s57 25 57 58s-25 58 -57 58s-57 -25 -57 -58zM103 -66h108v23h-37v16l37 21v26l-41 -24c-6 12 -17 20 -31 20c-21 0 -36 -16 -36 -38v-44zM103 36v24h108v-24h-108zM103 116l108 -42v25l-20 7v43
l20 8v26l-108 -44v-23zM103 196h108v66h-21v-42h-87v-24zM103 310h108v23h-41v38h-22v-38h-23v42h-22v-65zM103 519h108v23h-68l68 50v19h-108v-23h66l-66 -47v-22zM103 627h22v30h86v24h-86v30h-22v-84zM123 443c0 20 14 34 34 34s35 -14 35 -34c0 -19 -15 -34 -35 -34
s-34 15 -34 34zM124 -43v19c0 10 6 16 14 16c9 0 15 -6 15 -16v-19h-29zM131 128l39 14v-28z" />
    <glyph glyph-name="e" unicode="e" horiz-adv-x="548" 
d="M307 -12c-142 0 -266 81 -266 252c0 168 125 252 239 252c185 0 253 -151 223 -287h-382c10 -101 101 -143 198 -143c59 0 117 16 158 39v-78c-44 -23 -107 -35 -170 -35zM121 275h311c7 51 -25 143 -147 143c-82 0 -158 -49 -164 -143z" />
    <glyph glyph-name="eacute" unicode="&#xe9;" 
d="M125 -82v-30h86v-24h-86v-30h-22v84h22zM100 443c0 -33 25 -58 57 -58s57 25 57 58s-25 58 -57 58s-57 -25 -57 -58zM103 -66h108v23h-37v16l37 21v26l-41 -24c-6 12 -17 20 -31 20c-21 0 -36 -16 -36 -38v-44zM103 36v24h108v-24h-108zM103 116l108 -42v25l-20 7v43
l20 8v26l-108 -44v-23zM103 196h108v66h-21v-42h-87v-24zM103 310h108v23h-41v38h-22v-38h-23v42h-22v-65zM103 519h108v23h-68l68 50v19h-108v-23h66l-66 -47v-22zM103 627h22v30h86v24h-86v30h-22v-84zM123 443c0 20 14 34 34 34s35 -14 35 -34c0 -19 -15 -34 -35 -34
s-34 15 -34 34zM124 -43v19c0 10 6 16 14 16c9 0 15 -6 15 -16v-19h-29zM131 128l39 14v-28z" />
    <glyph glyph-name="ecaron" unicode="&#x11b;" 
d="M125 -82v-30h86v-24h-86v-30h-22v84h22zM100 443c0 -33 25 -58 57 -58s57 25 57 58s-25 58 -57 58s-57 -25 -57 -58zM103 -66h108v23h-37v16l37 21v26l-41 -24c-6 12 -17 20 -31 20c-21 0 -36 -16 -36 -38v-44zM103 36v24h108v-24h-108zM103 116l108 -42v25l-20 7v43
l20 8v26l-108 -44v-23zM103 196h108v66h-21v-42h-87v-24zM103 310h108v23h-41v38h-22v-38h-23v42h-22v-65zM103 519h108v23h-68l68 50v19h-108v-23h66l-66 -47v-22zM103 627h22v30h86v24h-86v30h-22v-84zM123 443c0 20 14 34 34 34s35 -14 35 -34c0 -19 -15 -34 -35 -34
s-34 15 -34 34zM124 -43v19c0 10 6 16 14 16c9 0 15 -6 15 -16v-19h-29zM131 128l39 14v-28z" />
    <glyph glyph-name="ecircumflex" unicode="&#xea;" 
d="M125 -82v-30h86v-24h-86v-30h-22v84h22zM100 443c0 -33 25 -58 57 -58s57 25 57 58s-25 58 -57 58s-57 -25 -57 -58zM103 -66h108v23h-37v16l37 21v26l-41 -24c-6 12 -17 20 -31 20c-21 0 -36 -16 -36 -38v-44zM103 36v24h108v-24h-108zM103 116l108 -42v25l-20 7v43
l20 8v26l-108 -44v-23zM103 196h108v66h-21v-42h-87v-24zM103 310h108v23h-41v38h-22v-38h-23v42h-22v-65zM103 519h108v23h-68l68 50v19h-108v-23h66l-66 -47v-22zM103 627h22v30h86v24h-86v30h-22v-84zM123 443c0 20 14 34 34 34s35 -14 35 -34c0 -19 -15 -34 -35 -34
s-34 15 -34 34zM124 -43v19c0 10 6 16 14 16c9 0 15 -6 15 -16v-19h-29zM131 128l39 14v-28z" />
    <glyph glyph-name="edieresis" unicode="&#xeb;" 
d="M125 -82v-30h86v-24h-86v-30h-22v84h22zM100 443c0 -33 25 -58 57 -58s57 25 57 58s-25 58 -57 58s-57 -25 -57 -58zM103 -66h108v23h-37v16l37 21v26l-41 -24c-6 12 -17 20 -31 20c-21 0 -36 -16 -36 -38v-44zM103 36v24h108v-24h-108zM103 116l108 -42v25l-20 7v43
l20 8v26l-108 -44v-23zM103 196h108v66h-21v-42h-87v-24zM103 310h108v23h-41v38h-22v-38h-23v42h-22v-65zM103 519h108v23h-68l68 50v19h-108v-23h66l-66 -47v-22zM103 627h22v30h86v24h-86v30h-22v-84zM123 443c0 20 14 34 34 34s35 -14 35 -34c0 -19 -15 -34 -35 -34
s-34 15 -34 34zM124 -43v19c0 10 6 16 14 16c9 0 15 -6 15 -16v-19h-29zM131 128l39 14v-28z" />
    <glyph glyph-name="edotaccent" unicode="&#x117;" 
d="M125 -82v-30h86v-24h-86v-30h-22v84h22zM100 443c0 -33 25 -58 57 -58s57 25 57 58s-25 58 -57 58s-57 -25 -57 -58zM103 -66h108v23h-37v16l37 21v26l-41 -24c-6 12 -17 20 -31 20c-21 0 -36 -16 -36 -38v-44zM103 36v24h108v-24h-108zM103 116l108 -42v25l-20 7v43
l20 8v26l-108 -44v-23zM103 196h108v66h-21v-42h-87v-24zM103 310h108v23h-41v38h-22v-38h-23v42h-22v-65zM103 519h108v23h-68l68 50v19h-108v-23h66l-66 -47v-22zM103 627h22v30h86v24h-86v30h-22v-84zM123 443c0 20 14 34 34 34s35 -14 35 -34c0 -19 -15 -34 -35 -34
s-34 15 -34 34zM124 -43v19c0 10 6 16 14 16c9 0 15 -6 15 -16v-19h-29zM131 128l39 14v-28z" />
    <glyph glyph-name="egrave" unicode="&#xe8;" 
d="M125 -82v-30h86v-24h-86v-30h-22v84h22zM100 443c0 -33 25 -58 57 -58s57 25 57 58s-25 58 -57 58s-57 -25 -57 -58zM103 -66h108v23h-37v16l37 21v26l-41 -24c-6 12 -17 20 -31 20c-21 0 -36 -16 -36 -38v-44zM103 36v24h108v-24h-108zM103 116l108 -42v25l-20 7v43
l20 8v26l-108 -44v-23zM103 196h108v66h-21v-42h-87v-24zM103 310h108v23h-41v38h-22v-38h-23v42h-22v-65zM103 519h108v23h-68l68 50v19h-108v-23h66l-66 -47v-22zM103 627h22v30h86v24h-86v30h-22v-84zM123 443c0 20 14 34 34 34s35 -14 35 -34c0 -19 -15 -34 -35 -34
s-34 15 -34 34zM124 -43v19c0 10 6 16 14 16c9 0 15 -6 15 -16v-19h-29zM131 128l39 14v-28z" />
    <glyph glyph-name="emacron" unicode="&#x113;" 
d="M125 -82v-30h86v-24h-86v-30h-22v84h22zM100 443c0 -33 25 -58 57 -58s57 25 57 58s-25 58 -57 58s-57 -25 -57 -58zM103 -66h108v23h-37v16l37 21v26l-41 -24c-6 12 -17 20 -31 20c-21 0 -36 -16 -36 -38v-44zM103 36v24h108v-24h-108zM103 116l108 -42v25l-20 7v43
l20 8v26l-108 -44v-23zM103 196h108v66h-21v-42h-87v-24zM103 310h108v23h-41v38h-22v-38h-23v42h-22v-65zM103 519h108v23h-68l68 50v19h-108v-23h66l-66 -47v-22zM103 627h22v30h86v24h-86v30h-22v-84zM123 443c0 20 14 34 34 34s35 -14 35 -34c0 -19 -15 -34 -35 -34
s-34 15 -34 34zM124 -43v19c0 10 6 16 14 16c9 0 15 -6 15 -16v-19h-29zM131 128l39 14v-28z" />
    <glyph glyph-name="eogonek" unicode="&#x119;" 
d="M125 -82v-30h86v-24h-86v-30h-22v84h22zM100 443c0 -33 25 -58 57 -58s57 25 57 58s-25 58 -57 58s-57 -25 -57 -58zM103 -66h108v23h-37v16l37 21v26l-41 -24c-6 12 -17 20 -31 20c-21 0 -36 -16 -36 -38v-44zM103 36v24h108v-24h-108zM103 116l108 -42v25l-20 7v43
l20 8v26l-108 -44v-23zM103 196h108v66h-21v-42h-87v-24zM103 310h108v23h-41v38h-22v-38h-23v42h-22v-65zM103 519h108v23h-68l68 50v19h-108v-23h66l-66 -47v-22zM103 627h22v30h86v24h-86v30h-22v-84zM123 443c0 20 14 34 34 34s35 -14 35 -34c0 -19 -15 -34 -35 -34
s-34 15 -34 34zM124 -43v19c0 10 6 16 14 16c9 0 15 -6 15 -16v-19h-29zM131 128l39 14v-28z" />
    <glyph glyph-name="f" unicode="f" horiz-adv-x="381" 
d="M111 0v406h-90v74h90v58c0 134 86 174 170 174c44 0 87 -9 120 -22v-74c-27 13 -65 22 -101 22c-58 0 -109 -15 -109 -103v-55h180v-74h-180v-406h-80z" />
    <glyph glyph-name="g" unicode="g" horiz-adv-x="621" 
d="M285 -232c-71 0 -138 16 -195 45v78c57 -32 119 -49 185 -49c102 0 193 39 192 158v74c-35 -43 -94 -86 -186 -86c-137 0 -240 108 -240 252s103 252 240 252c92 0 151 -43 194 -92v80h72v-480c0 -165 -129 -232 -262 -232zM121 240c0 -110 76 -178 169 -178
c86 0 150 52 177 108v130c-27 62 -91 118 -177 118c-93 0 -169 -68 -169 -178z" />
    <glyph glyph-name="gbreve" unicode="&#x11f;" 
d="M125 -82v-30h86v-24h-86v-30h-22v84h22zM100 443c0 -33 25 -58 57 -58s57 25 57 58s-25 58 -57 58s-57 -25 -57 -58zM103 -66h108v23h-37v16l37 21v26l-41 -24c-6 12 -17 20 -31 20c-21 0 -36 -16 -36 -38v-44zM103 36v24h108v-24h-108zM103 116l108 -42v25l-20 7v43
l20 8v26l-108 -44v-23zM103 196h108v66h-21v-42h-87v-24zM103 310h108v23h-41v38h-22v-38h-23v42h-22v-65zM103 519h108v23h-68l68 50v19h-108v-23h66l-66 -47v-22zM103 627h22v30h86v24h-86v30h-22v-84zM123 443c0 20 14 34 34 34s35 -14 35 -34c0 -19 -15 -34 -35 -34
s-34 15 -34 34zM124 -43v19c0 10 6 16 14 16c9 0 15 -6 15 -16v-19h-29zM131 128l39 14v-28z" />
    <glyph glyph-name="uni0123" unicode="&#x123;" 
d="M125 -82v-30h86v-24h-86v-30h-22v84h22zM100 443c0 -33 25 -58 57 -58s57 25 57 58s-25 58 -57 58s-57 -25 -57 -58zM103 -66h108v23h-37v16l37 21v26l-41 -24c-6 12 -17 20 -31 20c-21 0 -36 -16 -36 -38v-44zM103 36v24h108v-24h-108zM103 116l108 -42v25l-20 7v43
l20 8v26l-108 -44v-23zM103 196h108v66h-21v-42h-87v-24zM103 310h108v23h-41v38h-22v-38h-23v42h-22v-65zM103 519h108v23h-68l68 50v19h-108v-23h66l-66 -47v-22zM103 627h22v30h86v24h-86v30h-22v-84zM123 443c0 20 14 34 34 34s35 -14 35 -34c0 -19 -15 -34 -35 -34
s-34 15 -34 34zM124 -43v19c0 10 6 16 14 16c9 0 15 -6 15 -16v-19h-29zM131 128l39 14v-28z" />
    <glyph glyph-name="gdotaccent" unicode="&#x121;" 
d="M125 -82v-30h86v-24h-86v-30h-22v84h22zM100 443c0 -33 25 -58 57 -58s57 25 57 58s-25 58 -57 58s-57 -25 -57 -58zM103 -66h108v23h-37v16l37 21v26l-41 -24c-6 12 -17 20 -31 20c-21 0 -36 -16 -36 -38v-44zM103 36v24h108v-24h-108zM103 116l108 -42v25l-20 7v43
l20 8v26l-108 -44v-23zM103 196h108v66h-21v-42h-87v-24zM103 310h108v23h-41v38h-22v-38h-23v42h-22v-65zM103 519h108v23h-68l68 50v19h-108v-23h66l-66 -47v-22zM103 627h22v30h86v24h-86v30h-22v-84zM123 443c0 20 14 34 34 34s35 -14 35 -34c0 -19 -15 -34 -35 -34
s-34 15 -34 34zM124 -43v19c0 10 6 16 14 16c9 0 15 -6 15 -16v-19h-29zM131 128l39 14v-28z" />
    <glyph glyph-name="h" unicode="h" horiz-adv-x="587" 
d="M74 0v700h80v-281c34 38 94 73 165 73c115 0 200 -79 200 -196v-296h-80v286c0 90 -55 132 -129 132c-71 0 -124 -48 -156 -96v-322h-80z" />
    <glyph glyph-name="hbar" unicode="&#x127;" 
d="M125 -82v-30h86v-24h-86v-30h-22v84h22zM100 443c0 -33 25 -58 57 -58s57 25 57 58s-25 58 -57 58s-57 -25 -57 -58zM103 -66h108v23h-37v16l37 21v26l-41 -24c-6 12 -17 20 -31 20c-21 0 -36 -16 -36 -38v-44zM103 36v24h108v-24h-108zM103 116l108 -42v25l-20 7v43
l20 8v26l-108 -44v-23zM103 196h108v66h-21v-42h-87v-24zM103 310h108v23h-41v38h-22v-38h-23v42h-22v-65zM103 519h108v23h-68l68 50v19h-108v-23h66l-66 -47v-22zM103 627h22v30h86v24h-86v30h-22v-84zM123 443c0 20 14 34 34 34s35 -14 35 -34c0 -19 -15 -34 -35 -34
s-34 15 -34 34zM124 -43v19c0 10 6 16 14 16c9 0 15 -6 15 -16v-19h-29zM131 128l39 14v-28z" />
    <glyph glyph-name="i" unicode="i" horiz-adv-x="232" 
d="M76 0v480h80v-480h-80zM64 633c0 33 24 51 52 51s52 -18 52 -51c0 -34 -24 -51 -52 -51s-52 17 -52 51z" />
    <glyph glyph-name="dotlessi" unicode="&#x131;" 
d="M125 -82v-30h86v-24h-86v-30h-22v84h22zM100 443c0 -33 25 -58 57 -58s57 25 57 58s-25 58 -57 58s-57 -25 -57 -58zM103 -66h108v23h-37v16l37 21v26l-41 -24c-6 12 -17 20 -31 20c-21 0 -36 -16 -36 -38v-44zM103 36v24h108v-24h-108zM103 116l108 -42v25l-20 7v43
l20 8v26l-108 -44v-23zM103 196h108v66h-21v-42h-87v-24zM103 310h108v23h-41v38h-22v-38h-23v42h-22v-65zM103 519h108v23h-68l68 50v19h-108v-23h66l-66 -47v-22zM103 627h22v30h86v24h-86v30h-22v-84zM123 443c0 20 14 34 34 34s35 -14 35 -34c0 -19 -15 -34 -35 -34
s-34 15 -34 34zM124 -43v19c0 10 6 16 14 16c9 0 15 -6 15 -16v-19h-29zM131 128l39 14v-28z" />
    <glyph glyph-name="iacute" unicode="&#xed;" 
d="M125 -82v-30h86v-24h-86v-30h-22v84h22zM100 443c0 -33 25 -58 57 -58s57 25 57 58s-25 58 -57 58s-57 -25 -57 -58zM103 -66h108v23h-37v16l37 21v26l-41 -24c-6 12 -17 20 -31 20c-21 0 -36 -16 -36 -38v-44zM103 36v24h108v-24h-108zM103 116l108 -42v25l-20 7v43
l20 8v26l-108 -44v-23zM103 196h108v66h-21v-42h-87v-24zM103 310h108v23h-41v38h-22v-38h-23v42h-22v-65zM103 519h108v23h-68l68 50v19h-108v-23h66l-66 -47v-22zM103 627h22v30h86v24h-86v30h-22v-84zM123 443c0 20 14 34 34 34s35 -14 35 -34c0 -19 -15 -34 -35 -34
s-34 15 -34 34zM124 -43v19c0 10 6 16 14 16c9 0 15 -6 15 -16v-19h-29zM131 128l39 14v-28z" />
    <glyph glyph-name="icircumflex" unicode="&#xee;" 
d="M125 -82v-30h86v-24h-86v-30h-22v84h22zM100 443c0 -33 25 -58 57 -58s57 25 57 58s-25 58 -57 58s-57 -25 -57 -58zM103 -66h108v23h-37v16l37 21v26l-41 -24c-6 12 -17 20 -31 20c-21 0 -36 -16 -36 -38v-44zM103 36v24h108v-24h-108zM103 116l108 -42v25l-20 7v43
l20 8v26l-108 -44v-23zM103 196h108v66h-21v-42h-87v-24zM103 310h108v23h-41v38h-22v-38h-23v42h-22v-65zM103 519h108v23h-68l68 50v19h-108v-23h66l-66 -47v-22zM103 627h22v30h86v24h-86v30h-22v-84zM123 443c0 20 14 34 34 34s35 -14 35 -34c0 -19 -15 -34 -35 -34
s-34 15 -34 34zM124 -43v19c0 10 6 16 14 16c9 0 15 -6 15 -16v-19h-29zM131 128l39 14v-28z" />
    <glyph glyph-name="idieresis" unicode="&#xef;" 
d="M125 -82v-30h86v-24h-86v-30h-22v84h22zM100 443c0 -33 25 -58 57 -58s57 25 57 58s-25 58 -57 58s-57 -25 -57 -58zM103 -66h108v23h-37v16l37 21v26l-41 -24c-6 12 -17 20 -31 20c-21 0 -36 -16 -36 -38v-44zM103 36v24h108v-24h-108zM103 116l108 -42v25l-20 7v43
l20 8v26l-108 -44v-23zM103 196h108v66h-21v-42h-87v-24zM103 310h108v23h-41v38h-22v-38h-23v42h-22v-65zM103 519h108v23h-68l68 50v19h-108v-23h66l-66 -47v-22zM103 627h22v30h86v24h-86v30h-22v-84zM123 443c0 20 14 34 34 34s35 -14 35 -34c0 -19 -15 -34 -35 -34
s-34 15 -34 34zM124 -43v19c0 10 6 16 14 16c9 0 15 -6 15 -16v-19h-29zM131 128l39 14v-28z" />
    <glyph glyph-name="i.loclTRK" 
d="M125 -82v-30h86v-24h-86v-30h-22v84h22zM100 443c0 -33 25 -58 57 -58s57 25 57 58s-25 58 -57 58s-57 -25 -57 -58zM103 -66h108v23h-37v16l37 21v26l-41 -24c-6 12 -17 20 -31 20c-21 0 -36 -16 -36 -38v-44zM103 36v24h108v-24h-108zM103 116l108 -42v25l-20 7v43
l20 8v26l-108 -44v-23zM103 196h108v66h-21v-42h-87v-24zM103 310h108v23h-41v38h-22v-38h-23v42h-22v-65zM103 519h108v23h-68l68 50v19h-108v-23h66l-66 -47v-22zM103 627h22v30h86v24h-86v30h-22v-84zM123 443c0 20 14 34 34 34s35 -14 35 -34c0 -19 -15 -34 -35 -34
s-34 15 -34 34zM124 -43v19c0 10 6 16 14 16c9 0 15 -6 15 -16v-19h-29zM131 128l39 14v-28z" />
    <glyph glyph-name="igrave" unicode="&#xec;" 
d="M125 -82v-30h86v-24h-86v-30h-22v84h22zM100 443c0 -33 25 -58 57 -58s57 25 57 58s-25 58 -57 58s-57 -25 -57 -58zM103 -66h108v23h-37v16l37 21v26l-41 -24c-6 12 -17 20 -31 20c-21 0 -36 -16 -36 -38v-44zM103 36v24h108v-24h-108zM103 116l108 -42v25l-20 7v43
l20 8v26l-108 -44v-23zM103 196h108v66h-21v-42h-87v-24zM103 310h108v23h-41v38h-22v-38h-23v42h-22v-65zM103 519h108v23h-68l68 50v19h-108v-23h66l-66 -47v-22zM103 627h22v30h86v24h-86v30h-22v-84zM123 443c0 20 14 34 34 34s35 -14 35 -34c0 -19 -15 -34 -35 -34
s-34 15 -34 34zM124 -43v19c0 10 6 16 14 16c9 0 15 -6 15 -16v-19h-29zM131 128l39 14v-28z" />
    <glyph glyph-name="ij" unicode="&#x133;" 
d="M125 -82v-30h86v-24h-86v-30h-22v84h22zM100 443c0 -33 25 -58 57 -58s57 25 57 58s-25 58 -57 58s-57 -25 -57 -58zM103 -66h108v23h-37v16l37 21v26l-41 -24c-6 12 -17 20 -31 20c-21 0 -36 -16 -36 -38v-44zM103 36v24h108v-24h-108zM103 116l108 -42v25l-20 7v43
l20 8v26l-108 -44v-23zM103 196h108v66h-21v-42h-87v-24zM103 310h108v23h-41v38h-22v-38h-23v42h-22v-65zM103 519h108v23h-68l68 50v19h-108v-23h66l-66 -47v-22zM103 627h22v30h86v24h-86v30h-22v-84zM123 443c0 20 14 34 34 34s35 -14 35 -34c0 -19 -15 -34 -35 -34
s-34 15 -34 34zM124 -43v19c0 10 6 16 14 16c9 0 15 -6 15 -16v-19h-29zM131 128l39 14v-28z" />
    <glyph glyph-name="imacron" unicode="&#x12b;" 
d="M125 -82v-30h86v-24h-86v-30h-22v84h22zM100 443c0 -33 25 -58 57 -58s57 25 57 58s-25 58 -57 58s-57 -25 -57 -58zM103 -66h108v23h-37v16l37 21v26l-41 -24c-6 12 -17 20 -31 20c-21 0 -36 -16 -36 -38v-44zM103 36v24h108v-24h-108zM103 116l108 -42v25l-20 7v43
l20 8v26l-108 -44v-23zM103 196h108v66h-21v-42h-87v-24zM103 310h108v23h-41v38h-22v-38h-23v42h-22v-65zM103 519h108v23h-68l68 50v19h-108v-23h66l-66 -47v-22zM103 627h22v30h86v24h-86v30h-22v-84zM123 443c0 20 14 34 34 34s35 -14 35 -34c0 -19 -15 -34 -35 -34
s-34 15 -34 34zM124 -43v19c0 10 6 16 14 16c9 0 15 -6 15 -16v-19h-29zM131 128l39 14v-28z" />
    <glyph glyph-name="iogonek" unicode="&#x12f;" 
d="M125 -82v-30h86v-24h-86v-30h-22v84h22zM100 443c0 -33 25 -58 57 -58s57 25 57 58s-25 58 -57 58s-57 -25 -57 -58zM103 -66h108v23h-37v16l37 21v26l-41 -24c-6 12 -17 20 -31 20c-21 0 -36 -16 -36 -38v-44zM103 36v24h108v-24h-108zM103 116l108 -42v25l-20 7v43
l20 8v26l-108 -44v-23zM103 196h108v66h-21v-42h-87v-24zM103 310h108v23h-41v38h-22v-38h-23v42h-22v-65zM103 519h108v23h-68l68 50v19h-108v-23h66l-66 -47v-22zM103 627h22v30h86v24h-86v30h-22v-84zM123 443c0 20 14 34 34 34s35 -14 35 -34c0 -19 -15 -34 -35 -34
s-34 15 -34 34zM124 -43v19c0 10 6 16 14 16c9 0 15 -6 15 -16v-19h-29zM131 128l39 14v-28z" />
    <glyph glyph-name="j" unicode="j" horiz-adv-x="232" 
d="M18 -232c-29 0 -54 5 -74 13v74c16 -8 34 -11 52 -11c42 0 80 16 80 79v557h80v-569c0 -113 -73 -143 -138 -143zM63 633c0 33 25 51 53 51s52 -18 52 -51c0 -34 -24 -51 -52 -51s-53 17 -53 51z" />
    <glyph glyph-name="k" unicode="k" horiz-adv-x="521" 
d="M74 0v700h80v-422h67l182 202h93l-207 -235l229 -245h-94l-206 208h-64v-208h-80z" />
    <glyph glyph-name="uni0137" unicode="&#x137;" 
d="M125 -82v-30h86v-24h-86v-30h-22v84h22zM100 443c0 -33 25 -58 57 -58s57 25 57 58s-25 58 -57 58s-57 -25 -57 -58zM103 -66h108v23h-37v16l37 21v26l-41 -24c-6 12 -17 20 -31 20c-21 0 -36 -16 -36 -38v-44zM103 36v24h108v-24h-108zM103 116l108 -42v25l-20 7v43
l20 8v26l-108 -44v-23zM103 196h108v66h-21v-42h-87v-24zM103 310h108v23h-41v38h-22v-38h-23v42h-22v-65zM103 519h108v23h-68l68 50v19h-108v-23h66l-66 -47v-22zM103 627h22v30h86v24h-86v30h-22v-84zM123 443c0 20 14 34 34 34s35 -14 35 -34c0 -19 -15 -34 -35 -34
s-34 15 -34 34zM124 -43v19c0 10 6 16 14 16c9 0 15 -6 15 -16v-19h-29zM131 128l39 14v-28z" />
    <glyph glyph-name="l" unicode="l" horiz-adv-x="232" 
d="M76 0v730h80v-730h-80z" />
    <glyph glyph-name="lacute" unicode="&#x13a;" 
d="M125 -82v-30h86v-24h-86v-30h-22v84h22zM100 443c0 -33 25 -58 57 -58s57 25 57 58s-25 58 -57 58s-57 -25 -57 -58zM103 -66h108v23h-37v16l37 21v26l-41 -24c-6 12 -17 20 -31 20c-21 0 -36 -16 -36 -38v-44zM103 36v24h108v-24h-108zM103 116l108 -42v25l-20 7v43
l20 8v26l-108 -44v-23zM103 196h108v66h-21v-42h-87v-24zM103 310h108v23h-41v38h-22v-38h-23v42h-22v-65zM103 519h108v23h-68l68 50v19h-108v-23h66l-66 -47v-22zM103 627h22v30h86v24h-86v30h-22v-84zM123 443c0 20 14 34 34 34s35 -14 35 -34c0 -19 -15 -34 -35 -34
s-34 15 -34 34zM124 -43v19c0 10 6 16 14 16c9 0 15 -6 15 -16v-19h-29zM131 128l39 14v-28z" />
    <glyph glyph-name="lcaron" unicode="&#x13e;" 
d="M125 -82v-30h86v-24h-86v-30h-22v84h22zM100 443c0 -33 25 -58 57 -58s57 25 57 58s-25 58 -57 58s-57 -25 -57 -58zM103 -66h108v23h-37v16l37 21v26l-41 -24c-6 12 -17 20 -31 20c-21 0 -36 -16 -36 -38v-44zM103 36v24h108v-24h-108zM103 116l108 -42v25l-20 7v43
l20 8v26l-108 -44v-23zM103 196h108v66h-21v-42h-87v-24zM103 310h108v23h-41v38h-22v-38h-23v42h-22v-65zM103 519h108v23h-68l68 50v19h-108v-23h66l-66 -47v-22zM103 627h22v30h86v24h-86v30h-22v-84zM123 443c0 20 14 34 34 34s35 -14 35 -34c0 -19 -15 -34 -35 -34
s-34 15 -34 34zM124 -43v19c0 10 6 16 14 16c9 0 15 -6 15 -16v-19h-29zM131 128l39 14v-28z" />
    <glyph glyph-name="uni013C" unicode="&#x13c;" 
d="M125 -82v-30h86v-24h-86v-30h-22v84h22zM100 443c0 -33 25 -58 57 -58s57 25 57 58s-25 58 -57 58s-57 -25 -57 -58zM103 -66h108v23h-37v16l37 21v26l-41 -24c-6 12 -17 20 -31 20c-21 0 -36 -16 -36 -38v-44zM103 36v24h108v-24h-108zM103 116l108 -42v25l-20 7v43
l20 8v26l-108 -44v-23zM103 196h108v66h-21v-42h-87v-24zM103 310h108v23h-41v38h-22v-38h-23v42h-22v-65zM103 519h108v23h-68l68 50v19h-108v-23h66l-66 -47v-22zM103 627h22v30h86v24h-86v30h-22v-84zM123 443c0 20 14 34 34 34s35 -14 35 -34c0 -19 -15 -34 -35 -34
s-34 15 -34 34zM124 -43v19c0 10 6 16 14 16c9 0 15 -6 15 -16v-19h-29zM131 128l39 14v-28z" />
    <glyph glyph-name="ldot" unicode="&#x140;" 
d="M125 -82v-30h86v-24h-86v-30h-22v84h22zM100 443c0 -33 25 -58 57 -58s57 25 57 58s-25 58 -57 58s-57 -25 -57 -58zM103 -66h108v23h-37v16l37 21v26l-41 -24c-6 12 -17 20 -31 20c-21 0 -36 -16 -36 -38v-44zM103 36v24h108v-24h-108zM103 116l108 -42v25l-20 7v43
l20 8v26l-108 -44v-23zM103 196h108v66h-21v-42h-87v-24zM103 310h108v23h-41v38h-22v-38h-23v42h-22v-65zM103 519h108v23h-68l68 50v19h-108v-23h66l-66 -47v-22zM103 627h22v30h86v24h-86v30h-22v-84zM123 443c0 20 14 34 34 34s35 -14 35 -34c0 -19 -15 -34 -35 -34
s-34 15 -34 34zM124 -43v19c0 10 6 16 14 16c9 0 15 -6 15 -16v-19h-29zM131 128l39 14v-28z" />
    <glyph glyph-name="lslash" unicode="&#x142;" 
d="M125 -82v-30h86v-24h-86v-30h-22v84h22zM100 443c0 -33 25 -58 57 -58s57 25 57 58s-25 58 -57 58s-57 -25 -57 -58zM103 -66h108v23h-37v16l37 21v26l-41 -24c-6 12 -17 20 -31 20c-21 0 -36 -16 -36 -38v-44zM103 36v24h108v-24h-108zM103 116l108 -42v25l-20 7v43
l20 8v26l-108 -44v-23zM103 196h108v66h-21v-42h-87v-24zM103 310h108v23h-41v38h-22v-38h-23v42h-22v-65zM103 519h108v23h-68l68 50v19h-108v-23h66l-66 -47v-22zM103 627h22v30h86v24h-86v30h-22v-84zM123 443c0 20 14 34 34 34s35 -14 35 -34c0 -19 -15 -34 -35 -34
s-34 15 -34 34zM124 -43v19c0 10 6 16 14 16c9 0 15 -6 15 -16v-19h-29zM131 128l39 14v-28z" />
    <glyph glyph-name="m" unicode="m" horiz-adv-x="890" 
d="M74 0v480h72v-64c26 28 83 76 164 76c72 0 125 -31 154 -81c43 44 102 81 175 81c119 0 183 -84 183 -196v-296h-80v298c0 73 -42 120 -112 120c-65 0 -113 -45 -140 -79c2 -14 3 -28 3 -43v-296h-80v298c0 73 -42 120 -112 120c-71 0 -121 -53 -147 -87v-331h-80z" />
    <glyph glyph-name="n" unicode="n" horiz-adv-x="587" 
d="M74 0v480h72v-71c32 42 96 83 173 83c115 0 200 -79 200 -196v-296h-80v286c0 90 -55 132 -129 132c-71 0 -124 -48 -156 -96v-322h-80z" />
    <glyph glyph-name="nacute" unicode="&#x144;" 
d="M125 -82v-30h86v-24h-86v-30h-22v84h22zM100 443c0 -33 25 -58 57 -58s57 25 57 58s-25 58 -57 58s-57 -25 -57 -58zM103 -66h108v23h-37v16l37 21v26l-41 -24c-6 12 -17 20 -31 20c-21 0 -36 -16 -36 -38v-44zM103 36v24h108v-24h-108zM103 116l108 -42v25l-20 7v43
l20 8v26l-108 -44v-23zM103 196h108v66h-21v-42h-87v-24zM103 310h108v23h-41v38h-22v-38h-23v42h-22v-65zM103 519h108v23h-68l68 50v19h-108v-23h66l-66 -47v-22zM103 627h22v30h86v24h-86v30h-22v-84zM123 443c0 20 14 34 34 34s35 -14 35 -34c0 -19 -15 -34 -35 -34
s-34 15 -34 34zM124 -43v19c0 10 6 16 14 16c9 0 15 -6 15 -16v-19h-29zM131 128l39 14v-28z" />
    <glyph glyph-name="ncaron" unicode="&#x148;" 
d="M125 -82v-30h86v-24h-86v-30h-22v84h22zM100 443c0 -33 25 -58 57 -58s57 25 57 58s-25 58 -57 58s-57 -25 -57 -58zM103 -66h108v23h-37v16l37 21v26l-41 -24c-6 12 -17 20 -31 20c-21 0 -36 -16 -36 -38v-44zM103 36v24h108v-24h-108zM103 116l108 -42v25l-20 7v43
l20 8v26l-108 -44v-23zM103 196h108v66h-21v-42h-87v-24zM103 310h108v23h-41v38h-22v-38h-23v42h-22v-65zM103 519h108v23h-68l68 50v19h-108v-23h66l-66 -47v-22zM103 627h22v30h86v24h-86v30h-22v-84zM123 443c0 20 14 34 34 34s35 -14 35 -34c0 -19 -15 -34 -35 -34
s-34 15 -34 34zM124 -43v19c0 10 6 16 14 16c9 0 15 -6 15 -16v-19h-29zM131 128l39 14v-28z" />
    <glyph glyph-name="uni0146" unicode="&#x146;" 
d="M125 -82v-30h86v-24h-86v-30h-22v84h22zM100 443c0 -33 25 -58 57 -58s57 25 57 58s-25 58 -57 58s-57 -25 -57 -58zM103 -66h108v23h-37v16l37 21v26l-41 -24c-6 12 -17 20 -31 20c-21 0 -36 -16 -36 -38v-44zM103 36v24h108v-24h-108zM103 116l108 -42v25l-20 7v43
l20 8v26l-108 -44v-23zM103 196h108v66h-21v-42h-87v-24zM103 310h108v23h-41v38h-22v-38h-23v42h-22v-65zM103 519h108v23h-68l68 50v19h-108v-23h66l-66 -47v-22zM103 627h22v30h86v24h-86v30h-22v-84zM123 443c0 20 14 34 34 34s35 -14 35 -34c0 -19 -15 -34 -35 -34
s-34 15 -34 34zM124 -43v19c0 10 6 16 14 16c9 0 15 -6 15 -16v-19h-29zM131 128l39 14v-28z" />
    <glyph glyph-name="ntilde" unicode="&#xf1;" 
d="M125 -82v-30h86v-24h-86v-30h-22v84h22zM100 443c0 -33 25 -58 57 -58s57 25 57 58s-25 58 -57 58s-57 -25 -57 -58zM103 -66h108v23h-37v16l37 21v26l-41 -24c-6 12 -17 20 -31 20c-21 0 -36 -16 -36 -38v-44zM103 36v24h108v-24h-108zM103 116l108 -42v25l-20 7v43
l20 8v26l-108 -44v-23zM103 196h108v66h-21v-42h-87v-24zM103 310h108v23h-41v38h-22v-38h-23v42h-22v-65zM103 519h108v23h-68l68 50v19h-108v-23h66l-66 -47v-22zM103 627h22v30h86v24h-86v30h-22v-84zM123 443c0 20 14 34 34 34s35 -14 35 -34c0 -19 -15 -34 -35 -34
s-34 15 -34 34zM124 -43v19c0 10 6 16 14 16c9 0 15 -6 15 -16v-19h-29zM131 128l39 14v-28z" />
    <glyph glyph-name="eng" unicode="&#x14b;" 
d="M125 -82v-30h86v-24h-86v-30h-22v84h22zM100 443c0 -33 25 -58 57 -58s57 25 57 58s-25 58 -57 58s-57 -25 -57 -58zM103 -66h108v23h-37v16l37 21v26l-41 -24c-6 12 -17 20 -31 20c-21 0 -36 -16 -36 -38v-44zM103 36v24h108v-24h-108zM103 116l108 -42v25l-20 7v43
l20 8v26l-108 -44v-23zM103 196h108v66h-21v-42h-87v-24zM103 310h108v23h-41v38h-22v-38h-23v42h-22v-65zM103 519h108v23h-68l68 50v19h-108v-23h66l-66 -47v-22zM103 627h22v30h86v24h-86v30h-22v-84zM123 443c0 20 14 34 34 34s35 -14 35 -34c0 -19 -15 -34 -35 -34
s-34 15 -34 34zM124 -43v19c0 10 6 16 14 16c9 0 15 -6 15 -16v-19h-29zM131 128l39 14v-28z" />
    <glyph glyph-name="o" unicode="o" horiz-adv-x="594" 
d="M297 -12c-130 0 -256 88 -256 252s126 252 256 252c131 0 256 -88 256 -252s-125 -252 -256 -252zM121 240c0 -111 78 -176 176 -176s176 65 176 176s-78 176 -176 176s-176 -65 -176 -176z" />
    <glyph glyph-name="oacute" unicode="&#xf3;" 
d="M125 -82v-30h86v-24h-86v-30h-22v84h22zM100 443c0 -33 25 -58 57 -58s57 25 57 58s-25 58 -57 58s-57 -25 -57 -58zM103 -66h108v23h-37v16l37 21v26l-41 -24c-6 12 -17 20 -31 20c-21 0 -36 -16 -36 -38v-44zM103 36v24h108v-24h-108zM103 116l108 -42v25l-20 7v43
l20 8v26l-108 -44v-23zM103 196h108v66h-21v-42h-87v-24zM103 310h108v23h-41v38h-22v-38h-23v42h-22v-65zM103 519h108v23h-68l68 50v19h-108v-23h66l-66 -47v-22zM103 627h22v30h86v24h-86v30h-22v-84zM123 443c0 20 14 34 34 34s35 -14 35 -34c0 -19 -15 -34 -35 -34
s-34 15 -34 34zM124 -43v19c0 10 6 16 14 16c9 0 15 -6 15 -16v-19h-29zM131 128l39 14v-28z" />
    <glyph glyph-name="ocircumflex" unicode="&#xf4;" 
d="M125 -82v-30h86v-24h-86v-30h-22v84h22zM100 443c0 -33 25 -58 57 -58s57 25 57 58s-25 58 -57 58s-57 -25 -57 -58zM103 -66h108v23h-37v16l37 21v26l-41 -24c-6 12 -17 20 -31 20c-21 0 -36 -16 -36 -38v-44zM103 36v24h108v-24h-108zM103 116l108 -42v25l-20 7v43
l20 8v26l-108 -44v-23zM103 196h108v66h-21v-42h-87v-24zM103 310h108v23h-41v38h-22v-38h-23v42h-22v-65zM103 519h108v23h-68l68 50v19h-108v-23h66l-66 -47v-22zM103 627h22v30h86v24h-86v30h-22v-84zM123 443c0 20 14 34 34 34s35 -14 35 -34c0 -19 -15 -34 -35 -34
s-34 15 -34 34zM124 -43v19c0 10 6 16 14 16c9 0 15 -6 15 -16v-19h-29zM131 128l39 14v-28z" />
    <glyph glyph-name="odieresis" unicode="&#xf6;" 
d="M125 -82v-30h86v-24h-86v-30h-22v84h22zM100 443c0 -33 25 -58 57 -58s57 25 57 58s-25 58 -57 58s-57 -25 -57 -58zM103 -66h108v23h-37v16l37 21v26l-41 -24c-6 12 -17 20 -31 20c-21 0 -36 -16 -36 -38v-44zM103 36v24h108v-24h-108zM103 116l108 -42v25l-20 7v43
l20 8v26l-108 -44v-23zM103 196h108v66h-21v-42h-87v-24zM103 310h108v23h-41v38h-22v-38h-23v42h-22v-65zM103 519h108v23h-68l68 50v19h-108v-23h66l-66 -47v-22zM103 627h22v30h86v24h-86v30h-22v-84zM123 443c0 20 14 34 34 34s35 -14 35 -34c0 -19 -15 -34 -35 -34
s-34 15 -34 34zM124 -43v19c0 10 6 16 14 16c9 0 15 -6 15 -16v-19h-29zM131 128l39 14v-28z" />
    <glyph glyph-name="ograve" unicode="&#xf2;" 
d="M125 -82v-30h86v-24h-86v-30h-22v84h22zM100 443c0 -33 25 -58 57 -58s57 25 57 58s-25 58 -57 58s-57 -25 -57 -58zM103 -66h108v23h-37v16l37 21v26l-41 -24c-6 12 -17 20 -31 20c-21 0 -36 -16 -36 -38v-44zM103 36v24h108v-24h-108zM103 116l108 -42v25l-20 7v43
l20 8v26l-108 -44v-23zM103 196h108v66h-21v-42h-87v-24zM103 310h108v23h-41v38h-22v-38h-23v42h-22v-65zM103 519h108v23h-68l68 50v19h-108v-23h66l-66 -47v-22zM103 627h22v30h86v24h-86v30h-22v-84zM123 443c0 20 14 34 34 34s35 -14 35 -34c0 -19 -15 -34 -35 -34
s-34 15 -34 34zM124 -43v19c0 10 6 16 14 16c9 0 15 -6 15 -16v-19h-29zM131 128l39 14v-28z" />
    <glyph glyph-name="ohungarumlaut" unicode="&#x151;" 
d="M125 -82v-30h86v-24h-86v-30h-22v84h22zM100 443c0 -33 25 -58 57 -58s57 25 57 58s-25 58 -57 58s-57 -25 -57 -58zM103 -66h108v23h-37v16l37 21v26l-41 -24c-6 12 -17 20 -31 20c-21 0 -36 -16 -36 -38v-44zM103 36v24h108v-24h-108zM103 116l108 -42v25l-20 7v43
l20 8v26l-108 -44v-23zM103 196h108v66h-21v-42h-87v-24zM103 310h108v23h-41v38h-22v-38h-23v42h-22v-65zM103 519h108v23h-68l68 50v19h-108v-23h66l-66 -47v-22zM103 627h22v30h86v24h-86v30h-22v-84zM123 443c0 20 14 34 34 34s35 -14 35 -34c0 -19 -15 -34 -35 -34
s-34 15 -34 34zM124 -43v19c0 10 6 16 14 16c9 0 15 -6 15 -16v-19h-29zM131 128l39 14v-28z" />
    <glyph glyph-name="omacron" unicode="&#x14d;" 
d="M125 -82v-30h86v-24h-86v-30h-22v84h22zM100 443c0 -33 25 -58 57 -58s57 25 57 58s-25 58 -57 58s-57 -25 -57 -58zM103 -66h108v23h-37v16l37 21v26l-41 -24c-6 12 -17 20 -31 20c-21 0 -36 -16 -36 -38v-44zM103 36v24h108v-24h-108zM103 116l108 -42v25l-20 7v43
l20 8v26l-108 -44v-23zM103 196h108v66h-21v-42h-87v-24zM103 310h108v23h-41v38h-22v-38h-23v42h-22v-65zM103 519h108v23h-68l68 50v19h-108v-23h66l-66 -47v-22zM103 627h22v30h86v24h-86v30h-22v-84zM123 443c0 20 14 34 34 34s35 -14 35 -34c0 -19 -15 -34 -35 -34
s-34 15 -34 34zM124 -43v19c0 10 6 16 14 16c9 0 15 -6 15 -16v-19h-29zM131 128l39 14v-28z" />
    <glyph glyph-name="oslash" unicode="&#xf8;" 
d="M125 -82v-30h86v-24h-86v-30h-22v84h22zM100 443c0 -33 25 -58 57 -58s57 25 57 58s-25 58 -57 58s-57 -25 -57 -58zM103 -66h108v23h-37v16l37 21v26l-41 -24c-6 12 -17 20 -31 20c-21 0 -36 -16 -36 -38v-44zM103 36v24h108v-24h-108zM103 116l108 -42v25l-20 7v43
l20 8v26l-108 -44v-23zM103 196h108v66h-21v-42h-87v-24zM103 310h108v23h-41v38h-22v-38h-23v42h-22v-65zM103 519h108v23h-68l68 50v19h-108v-23h66l-66 -47v-22zM103 627h22v30h86v24h-86v30h-22v-84zM123 443c0 20 14 34 34 34s35 -14 35 -34c0 -19 -15 -34 -35 -34
s-34 15 -34 34zM124 -43v19c0 10 6 16 14 16c9 0 15 -6 15 -16v-19h-29zM131 128l39 14v-28z" />
    <glyph glyph-name="otilde" unicode="&#xf5;" 
d="M125 -82v-30h86v-24h-86v-30h-22v84h22zM100 443c0 -33 25 -58 57 -58s57 25 57 58s-25 58 -57 58s-57 -25 -57 -58zM103 -66h108v23h-37v16l37 21v26l-41 -24c-6 12 -17 20 -31 20c-21 0 -36 -16 -36 -38v-44zM103 36v24h108v-24h-108zM103 116l108 -42v25l-20 7v43
l20 8v26l-108 -44v-23zM103 196h108v66h-21v-42h-87v-24zM103 310h108v23h-41v38h-22v-38h-23v42h-22v-65zM103 519h108v23h-68l68 50v19h-108v-23h66l-66 -47v-22zM103 627h22v30h86v24h-86v30h-22v-84zM123 443c0 20 14 34 34 34s35 -14 35 -34c0 -19 -15 -34 -35 -34
s-34 15 -34 34zM124 -43v19c0 10 6 16 14 16c9 0 15 -6 15 -16v-19h-29zM131 128l39 14v-28z" />
    <glyph glyph-name="oe" unicode="&#x153;" 
d="M125 -82v-30h86v-24h-86v-30h-22v84h22zM100 443c0 -33 25 -58 57 -58s57 25 57 58s-25 58 -57 58s-57 -25 -57 -58zM103 -66h108v23h-37v16l37 21v26l-41 -24c-6 12 -17 20 -31 20c-21 0 -36 -16 -36 -38v-44zM103 36v24h108v-24h-108zM103 116l108 -42v25l-20 7v43
l20 8v26l-108 -44v-23zM103 196h108v66h-21v-42h-87v-24zM103 310h108v23h-41v38h-22v-38h-23v42h-22v-65zM103 519h108v23h-68l68 50v19h-108v-23h66l-66 -47v-22zM103 627h22v30h86v24h-86v30h-22v-84zM123 443c0 20 14 34 34 34s35 -14 35 -34c0 -19 -15 -34 -35 -34
s-34 15 -34 34zM124 -43v19c0 10 6 16 14 16c9 0 15 -6 15 -16v-19h-29zM131 128l39 14v-28z" />
    <glyph glyph-name="p" unicode="p" horiz-adv-x="621" 
d="M74 -220v700h72v-80c43 49 102 92 194 92c137 0 240 -108 240 -252s-103 -252 -240 -252c-92 0 -151 43 -186 84v-292h-80zM154 180c27 -62 91 -118 177 -118c93 0 169 68 169 178s-76 178 -169 178c-86 0 -150 -56 -177 -118v-120z" />
    <glyph glyph-name="thorn" unicode="&#xfe;" 
d="M125 -82v-30h86v-24h-86v-30h-22v84h22zM100 443c0 -33 25 -58 57 -58s57 25 57 58s-25 58 -57 58s-57 -25 -57 -58zM103 -66h108v23h-37v16l37 21v26l-41 -24c-6 12 -17 20 -31 20c-21 0 -36 -16 -36 -38v-44zM103 36v24h108v-24h-108zM103 116l108 -42v25l-20 7v43
l20 8v26l-108 -44v-23zM103 196h108v66h-21v-42h-87v-24zM103 310h108v23h-41v38h-22v-38h-23v42h-22v-65zM103 519h108v23h-68l68 50v19h-108v-23h66l-66 -47v-22zM103 627h22v30h86v24h-86v30h-22v-84zM123 443c0 20 14 34 34 34s35 -14 35 -34c0 -19 -15 -34 -35 -34
s-34 15 -34 34zM124 -43v19c0 10 6 16 14 16c9 0 15 -6 15 -16v-19h-29zM131 128l39 14v-28z" />
    <glyph glyph-name="q" unicode="q" horiz-adv-x="621" 
d="M467 72c-35 -41 -94 -84 -186 -84c-137 0 -240 108 -240 252s103 252 240 252c92 0 151 -43 194 -92v80h72v-700h-80v292zM121 240c0 -110 76 -178 169 -178c86 0 150 56 177 118v120c-27 62 -91 118 -177 118c-93 0 -169 -68 -169 -178z" />
    <glyph glyph-name="r" unicode="r" horiz-adv-x="366" 
d="M74 0v480h72v-85c38 63 123 102 207 95v-80c-94 11 -170 -34 -199 -111v-299h-80z" />
    <glyph glyph-name="racute" unicode="&#x155;" 
d="M125 -82v-30h86v-24h-86v-30h-22v84h22zM100 443c0 -33 25 -58 57 -58s57 25 57 58s-25 58 -57 58s-57 -25 -57 -58zM103 -66h108v23h-37v16l37 21v26l-41 -24c-6 12 -17 20 -31 20c-21 0 -36 -16 -36 -38v-44zM103 36v24h108v-24h-108zM103 116l108 -42v25l-20 7v43
l20 8v26l-108 -44v-23zM103 196h108v66h-21v-42h-87v-24zM103 310h108v23h-41v38h-22v-38h-23v42h-22v-65zM103 519h108v23h-68l68 50v19h-108v-23h66l-66 -47v-22zM103 627h22v30h86v24h-86v30h-22v-84zM123 443c0 20 14 34 34 34s35 -14 35 -34c0 -19 -15 -34 -35 -34
s-34 15 -34 34zM124 -43v19c0 10 6 16 14 16c9 0 15 -6 15 -16v-19h-29zM131 128l39 14v-28z" />
    <glyph glyph-name="rcaron" unicode="&#x159;" 
d="M125 -82v-30h86v-24h-86v-30h-22v84h22zM100 443c0 -33 25 -58 57 -58s57 25 57 58s-25 58 -57 58s-57 -25 -57 -58zM103 -66h108v23h-37v16l37 21v26l-41 -24c-6 12 -17 20 -31 20c-21 0 -36 -16 -36 -38v-44zM103 36v24h108v-24h-108zM103 116l108 -42v25l-20 7v43
l20 8v26l-108 -44v-23zM103 196h108v66h-21v-42h-87v-24zM103 310h108v23h-41v38h-22v-38h-23v42h-22v-65zM103 519h108v23h-68l68 50v19h-108v-23h66l-66 -47v-22zM103 627h22v30h86v24h-86v30h-22v-84zM123 443c0 20 14 34 34 34s35 -14 35 -34c0 -19 -15 -34 -35 -34
s-34 15 -34 34zM124 -43v19c0 10 6 16 14 16c9 0 15 -6 15 -16v-19h-29zM131 128l39 14v-28z" />
    <glyph glyph-name="uni0157" unicode="&#x157;" 
d="M125 -82v-30h86v-24h-86v-30h-22v84h22zM100 443c0 -33 25 -58 57 -58s57 25 57 58s-25 58 -57 58s-57 -25 -57 -58zM103 -66h108v23h-37v16l37 21v26l-41 -24c-6 12 -17 20 -31 20c-21 0 -36 -16 -36 -38v-44zM103 36v24h108v-24h-108zM103 116l108 -42v25l-20 7v43
l20 8v26l-108 -44v-23zM103 196h108v66h-21v-42h-87v-24zM103 310h108v23h-41v38h-22v-38h-23v42h-22v-65zM103 519h108v23h-68l68 50v19h-108v-23h66l-66 -47v-22zM103 627h22v30h86v24h-86v30h-22v-84zM123 443c0 20 14 34 34 34s35 -14 35 -34c0 -19 -15 -34 -35 -34
s-34 15 -34 34zM124 -43v19c0 10 6 16 14 16c9 0 15 -6 15 -16v-19h-29zM131 128l39 14v-28z" />
    <glyph glyph-name="s" unicode="s" horiz-adv-x="466" 
d="M234 -12c-68 0 -141 18 -186 47v78c49 -33 122 -51 182 -51c68 0 122 11 122 59c0 101 -306 61 -306 233c0 99 93 138 183 138c64 0 125 -17 170 -41v-76c-40 26 -107 45 -165 45c-52 0 -107 -17 -107 -64c0 -104 305 -60 305 -233c0 -100 -94 -135 -198 -135z" />
    <glyph glyph-name="sacute" unicode="&#x15b;" 
d="M125 -82v-30h86v-24h-86v-30h-22v84h22zM100 443c0 -33 25 -58 57 -58s57 25 57 58s-25 58 -57 58s-57 -25 -57 -58zM103 -66h108v23h-37v16l37 21v26l-41 -24c-6 12 -17 20 -31 20c-21 0 -36 -16 -36 -38v-44zM103 36v24h108v-24h-108zM103 116l108 -42v25l-20 7v43
l20 8v26l-108 -44v-23zM103 196h108v66h-21v-42h-87v-24zM103 310h108v23h-41v38h-22v-38h-23v42h-22v-65zM103 519h108v23h-68l68 50v19h-108v-23h66l-66 -47v-22zM103 627h22v30h86v24h-86v30h-22v-84zM123 443c0 20 14 34 34 34s35 -14 35 -34c0 -19 -15 -34 -35 -34
s-34 15 -34 34zM124 -43v19c0 10 6 16 14 16c9 0 15 -6 15 -16v-19h-29zM131 128l39 14v-28z" />
    <glyph glyph-name="scaron" unicode="&#x161;" 
d="M125 -82v-30h86v-24h-86v-30h-22v84h22zM100 443c0 -33 25 -58 57 -58s57 25 57 58s-25 58 -57 58s-57 -25 -57 -58zM103 -66h108v23h-37v16l37 21v26l-41 -24c-6 12 -17 20 -31 20c-21 0 -36 -16 -36 -38v-44zM103 36v24h108v-24h-108zM103 116l108 -42v25l-20 7v43
l20 8v26l-108 -44v-23zM103 196h108v66h-21v-42h-87v-24zM103 310h108v23h-41v38h-22v-38h-23v42h-22v-65zM103 519h108v23h-68l68 50v19h-108v-23h66l-66 -47v-22zM103 627h22v30h86v24h-86v30h-22v-84zM123 443c0 20 14 34 34 34s35 -14 35 -34c0 -19 -15 -34 -35 -34
s-34 15 -34 34zM124 -43v19c0 10 6 16 14 16c9 0 15 -6 15 -16v-19h-29zM131 128l39 14v-28z" />
    <glyph glyph-name="scedilla" unicode="&#x15f;" 
d="M125 -82v-30h86v-24h-86v-30h-22v84h22zM100 443c0 -33 25 -58 57 -58s57 25 57 58s-25 58 -57 58s-57 -25 -57 -58zM103 -66h108v23h-37v16l37 21v26l-41 -24c-6 12 -17 20 -31 20c-21 0 -36 -16 -36 -38v-44zM103 36v24h108v-24h-108zM103 116l108 -42v25l-20 7v43
l20 8v26l-108 -44v-23zM103 196h108v66h-21v-42h-87v-24zM103 310h108v23h-41v38h-22v-38h-23v42h-22v-65zM103 519h108v23h-68l68 50v19h-108v-23h66l-66 -47v-22zM103 627h22v30h86v24h-86v30h-22v-84zM123 443c0 20 14 34 34 34s35 -14 35 -34c0 -19 -15 -34 -35 -34
s-34 15 -34 34zM124 -43v19c0 10 6 16 14 16c9 0 15 -6 15 -16v-19h-29zM131 128l39 14v-28z" />
    <glyph glyph-name="uni0219" unicode="&#x219;" 
d="M125 -82v-30h86v-24h-86v-30h-22v84h22zM100 443c0 -33 25 -58 57 -58s57 25 57 58s-25 58 -57 58s-57 -25 -57 -58zM103 -66h108v23h-37v16l37 21v26l-41 -24c-6 12 -17 20 -31 20c-21 0 -36 -16 -36 -38v-44zM103 36v24h108v-24h-108zM103 116l108 -42v25l-20 7v43
l20 8v26l-108 -44v-23zM103 196h108v66h-21v-42h-87v-24zM103 310h108v23h-41v38h-22v-38h-23v42h-22v-65zM103 519h108v23h-68l68 50v19h-108v-23h66l-66 -47v-22zM103 627h22v30h86v24h-86v30h-22v-84zM123 443c0 20 14 34 34 34s35 -14 35 -34c0 -19 -15 -34 -35 -34
s-34 15 -34 34zM124 -43v19c0 10 6 16 14 16c9 0 15 -6 15 -16v-19h-29zM131 128l39 14v-28z" />
    <glyph glyph-name="germandbls" unicode="&#xdf;" horiz-adv-x="594" 
d="M360 -12c-41 0 -88 9 -125 24v70c37 -16 77 -24 110 -24c69 0 135 24 135 95c0 92 -151 148 -151 220c0 69 72 102 72 183c0 49 -40 86 -112 86c-79 0 -135 -46 -135 -131v-511h-80v497c0 137 84 214 215 215c135 1 192 -80 192 -147c0 -88 -72 -127 -72 -178
c0 -66 151 -115 151 -240c0 -111 -102 -159 -200 -159z" />
    <glyph glyph-name="t" unicode="t" horiz-adv-x="410" 
d="M265 -11c-93 0 -159 50 -159 155v262h-90v74h90v149l79 20v-169h192v-74h-192v-248c0 -73 33 -95 103 -95c38 0 74 9 106 22v-74c-36 -13 -83 -22 -129 -22z" />
    <glyph glyph-name="tbar" unicode="&#x167;" 
d="M125 -82v-30h86v-24h-86v-30h-22v84h22zM100 443c0 -33 25 -58 57 -58s57 25 57 58s-25 58 -57 58s-57 -25 -57 -58zM103 -66h108v23h-37v16l37 21v26l-41 -24c-6 12 -17 20 -31 20c-21 0 -36 -16 -36 -38v-44zM103 36v24h108v-24h-108zM103 116l108 -42v25l-20 7v43
l20 8v26l-108 -44v-23zM103 196h108v66h-21v-42h-87v-24zM103 310h108v23h-41v38h-22v-38h-23v42h-22v-65zM103 519h108v23h-68l68 50v19h-108v-23h66l-66 -47v-22zM103 627h22v30h86v24h-86v30h-22v-84zM123 443c0 20 14 34 34 34s35 -14 35 -34c0 -19 -15 -34 -35 -34
s-34 15 -34 34zM124 -43v19c0 10 6 16 14 16c9 0 15 -6 15 -16v-19h-29zM131 128l39 14v-28z" />
    <glyph glyph-name="tcaron" unicode="&#x165;" 
d="M125 -82v-30h86v-24h-86v-30h-22v84h22zM100 443c0 -33 25 -58 57 -58s57 25 57 58s-25 58 -57 58s-57 -25 -57 -58zM103 -66h108v23h-37v16l37 21v26l-41 -24c-6 12 -17 20 -31 20c-21 0 -36 -16 -36 -38v-44zM103 36v24h108v-24h-108zM103 116l108 -42v25l-20 7v43
l20 8v26l-108 -44v-23zM103 196h108v66h-21v-42h-87v-24zM103 310h108v23h-41v38h-22v-38h-23v42h-22v-65zM103 519h108v23h-68l68 50v19h-108v-23h66l-66 -47v-22zM103 627h22v30h86v24h-86v30h-22v-84zM123 443c0 20 14 34 34 34s35 -14 35 -34c0 -19 -15 -34 -35 -34
s-34 15 -34 34zM124 -43v19c0 10 6 16 14 16c9 0 15 -6 15 -16v-19h-29zM131 128l39 14v-28z" />
    <glyph glyph-name="uni0163" unicode="&#x163;" 
d="M125 -82v-30h86v-24h-86v-30h-22v84h22zM100 443c0 -33 25 -58 57 -58s57 25 57 58s-25 58 -57 58s-57 -25 -57 -58zM103 -66h108v23h-37v16l37 21v26l-41 -24c-6 12 -17 20 -31 20c-21 0 -36 -16 -36 -38v-44zM103 36v24h108v-24h-108zM103 116l108 -42v25l-20 7v43
l20 8v26l-108 -44v-23zM103 196h108v66h-21v-42h-87v-24zM103 310h108v23h-41v38h-22v-38h-23v42h-22v-65zM103 519h108v23h-68l68 50v19h-108v-23h66l-66 -47v-22zM103 627h22v30h86v24h-86v30h-22v-84zM123 443c0 20 14 34 34 34s35 -14 35 -34c0 -19 -15 -34 -35 -34
s-34 15 -34 34zM124 -43v19c0 10 6 16 14 16c9 0 15 -6 15 -16v-19h-29zM131 128l39 14v-28z" />
    <glyph glyph-name="u" unicode="u" horiz-adv-x="587" 
d="M268 -12c-125 0 -200 79 -200 196v296h80v-286c0 -90 45 -132 129 -132c71 0 124 48 156 96v322h80v-480h-72v71c-32 -42 -96 -83 -173 -83z" />
    <glyph glyph-name="uacute" unicode="&#xfa;" 
d="M125 -82v-30h86v-24h-86v-30h-22v84h22zM100 443c0 -33 25 -58 57 -58s57 25 57 58s-25 58 -57 58s-57 -25 -57 -58zM103 -66h108v23h-37v16l37 21v26l-41 -24c-6 12 -17 20 -31 20c-21 0 -36 -16 -36 -38v-44zM103 36v24h108v-24h-108zM103 116l108 -42v25l-20 7v43
l20 8v26l-108 -44v-23zM103 196h108v66h-21v-42h-87v-24zM103 310h108v23h-41v38h-22v-38h-23v42h-22v-65zM103 519h108v23h-68l68 50v19h-108v-23h66l-66 -47v-22zM103 627h22v30h86v24h-86v30h-22v-84zM123 443c0 20 14 34 34 34s35 -14 35 -34c0 -19 -15 -34 -35 -34
s-34 15 -34 34zM124 -43v19c0 10 6 16 14 16c9 0 15 -6 15 -16v-19h-29zM131 128l39 14v-28z" />
    <glyph glyph-name="ucircumflex" unicode="&#xfb;" 
d="M125 -82v-30h86v-24h-86v-30h-22v84h22zM100 443c0 -33 25 -58 57 -58s57 25 57 58s-25 58 -57 58s-57 -25 -57 -58zM103 -66h108v23h-37v16l37 21v26l-41 -24c-6 12 -17 20 -31 20c-21 0 -36 -16 -36 -38v-44zM103 36v24h108v-24h-108zM103 116l108 -42v25l-20 7v43
l20 8v26l-108 -44v-23zM103 196h108v66h-21v-42h-87v-24zM103 310h108v23h-41v38h-22v-38h-23v42h-22v-65zM103 519h108v23h-68l68 50v19h-108v-23h66l-66 -47v-22zM103 627h22v30h86v24h-86v30h-22v-84zM123 443c0 20 14 34 34 34s35 -14 35 -34c0 -19 -15 -34 -35 -34
s-34 15 -34 34zM124 -43v19c0 10 6 16 14 16c9 0 15 -6 15 -16v-19h-29zM131 128l39 14v-28z" />
    <glyph glyph-name="udieresis" unicode="&#xfc;" 
d="M125 -82v-30h86v-24h-86v-30h-22v84h22zM100 443c0 -33 25 -58 57 -58s57 25 57 58s-25 58 -57 58s-57 -25 -57 -58zM103 -66h108v23h-37v16l37 21v26l-41 -24c-6 12 -17 20 -31 20c-21 0 -36 -16 -36 -38v-44zM103 36v24h108v-24h-108zM103 116l108 -42v25l-20 7v43
l20 8v26l-108 -44v-23zM103 196h108v66h-21v-42h-87v-24zM103 310h108v23h-41v38h-22v-38h-23v42h-22v-65zM103 519h108v23h-68l68 50v19h-108v-23h66l-66 -47v-22zM103 627h22v30h86v24h-86v30h-22v-84zM123 443c0 20 14 34 34 34s35 -14 35 -34c0 -19 -15 -34 -35 -34
s-34 15 -34 34zM124 -43v19c0 10 6 16 14 16c9 0 15 -6 15 -16v-19h-29zM131 128l39 14v-28z" />
    <glyph glyph-name="ugrave" unicode="&#xf9;" 
d="M125 -82v-30h86v-24h-86v-30h-22v84h22zM100 443c0 -33 25 -58 57 -58s57 25 57 58s-25 58 -57 58s-57 -25 -57 -58zM103 -66h108v23h-37v16l37 21v26l-41 -24c-6 12 -17 20 -31 20c-21 0 -36 -16 -36 -38v-44zM103 36v24h108v-24h-108zM103 116l108 -42v25l-20 7v43
l20 8v26l-108 -44v-23zM103 196h108v66h-21v-42h-87v-24zM103 310h108v23h-41v38h-22v-38h-23v42h-22v-65zM103 519h108v23h-68l68 50v19h-108v-23h66l-66 -47v-22zM103 627h22v30h86v24h-86v30h-22v-84zM123 443c0 20 14 34 34 34s35 -14 35 -34c0 -19 -15 -34 -35 -34
s-34 15 -34 34zM124 -43v19c0 10 6 16 14 16c9 0 15 -6 15 -16v-19h-29zM131 128l39 14v-28z" />
    <glyph glyph-name="uhungarumlaut" unicode="&#x171;" 
d="M125 -82v-30h86v-24h-86v-30h-22v84h22zM100 443c0 -33 25 -58 57 -58s57 25 57 58s-25 58 -57 58s-57 -25 -57 -58zM103 -66h108v23h-37v16l37 21v26l-41 -24c-6 12 -17 20 -31 20c-21 0 -36 -16 -36 -38v-44zM103 36v24h108v-24h-108zM103 116l108 -42v25l-20 7v43
l20 8v26l-108 -44v-23zM103 196h108v66h-21v-42h-87v-24zM103 310h108v23h-41v38h-22v-38h-23v42h-22v-65zM103 519h108v23h-68l68 50v19h-108v-23h66l-66 -47v-22zM103 627h22v30h86v24h-86v30h-22v-84zM123 443c0 20 14 34 34 34s35 -14 35 -34c0 -19 -15 -34 -35 -34
s-34 15 -34 34zM124 -43v19c0 10 6 16 14 16c9 0 15 -6 15 -16v-19h-29zM131 128l39 14v-28z" />
    <glyph glyph-name="umacron" unicode="&#x16b;" 
d="M125 -82v-30h86v-24h-86v-30h-22v84h22zM100 443c0 -33 25 -58 57 -58s57 25 57 58s-25 58 -57 58s-57 -25 -57 -58zM103 -66h108v23h-37v16l37 21v26l-41 -24c-6 12 -17 20 -31 20c-21 0 -36 -16 -36 -38v-44zM103 36v24h108v-24h-108zM103 116l108 -42v25l-20 7v43
l20 8v26l-108 -44v-23zM103 196h108v66h-21v-42h-87v-24zM103 310h108v23h-41v38h-22v-38h-23v42h-22v-65zM103 519h108v23h-68l68 50v19h-108v-23h66l-66 -47v-22zM103 627h22v30h86v24h-86v30h-22v-84zM123 443c0 20 14 34 34 34s35 -14 35 -34c0 -19 -15 -34 -35 -34
s-34 15 -34 34zM124 -43v19c0 10 6 16 14 16c9 0 15 -6 15 -16v-19h-29zM131 128l39 14v-28z" />
    <glyph glyph-name="uni021B" unicode="&#x21b;" 
d="M125 -82v-30h86v-24h-86v-30h-22v84h22zM100 443c0 -33 25 -58 57 -58s57 25 57 58s-25 58 -57 58s-57 -25 -57 -58zM103 -66h108v23h-37v16l37 21v26l-41 -24c-6 12 -17 20 -31 20c-21 0 -36 -16 -36 -38v-44zM103 36v24h108v-24h-108zM103 116l108 -42v25l-20 7v43
l20 8v26l-108 -44v-23zM103 196h108v66h-21v-42h-87v-24zM103 310h108v23h-41v38h-22v-38h-23v42h-22v-65zM103 519h108v23h-68l68 50v19h-108v-23h66l-66 -47v-22zM103 627h22v30h86v24h-86v30h-22v-84zM123 443c0 20 14 34 34 34s35 -14 35 -34c0 -19 -15 -34 -35 -34
s-34 15 -34 34zM124 -43v19c0 10 6 16 14 16c9 0 15 -6 15 -16v-19h-29zM131 128l39 14v-28z" />
    <glyph glyph-name="uogonek" unicode="&#x173;" 
d="M125 -82v-30h86v-24h-86v-30h-22v84h22zM100 443c0 -33 25 -58 57 -58s57 25 57 58s-25 58 -57 58s-57 -25 -57 -58zM103 -66h108v23h-37v16l37 21v26l-41 -24c-6 12 -17 20 -31 20c-21 0 -36 -16 -36 -38v-44zM103 36v24h108v-24h-108zM103 116l108 -42v25l-20 7v43
l20 8v26l-108 -44v-23zM103 196h108v66h-21v-42h-87v-24zM103 310h108v23h-41v38h-22v-38h-23v42h-22v-65zM103 519h108v23h-68l68 50v19h-108v-23h66l-66 -47v-22zM103 627h22v30h86v24h-86v30h-22v-84zM123 443c0 20 14 34 34 34s35 -14 35 -34c0 -19 -15 -34 -35 -34
s-34 15 -34 34zM124 -43v19c0 10 6 16 14 16c9 0 15 -6 15 -16v-19h-29zM131 128l39 14v-28z" />
    <glyph glyph-name="uring" unicode="&#x16f;" 
d="M125 -82v-30h86v-24h-86v-30h-22v84h22zM100 443c0 -33 25 -58 57 -58s57 25 57 58s-25 58 -57 58s-57 -25 -57 -58zM103 -66h108v23h-37v16l37 21v26l-41 -24c-6 12 -17 20 -31 20c-21 0 -36 -16 -36 -38v-44zM103 36v24h108v-24h-108zM103 116l108 -42v25l-20 7v43
l20 8v26l-108 -44v-23zM103 196h108v66h-21v-42h-87v-24zM103 310h108v23h-41v38h-22v-38h-23v42h-22v-65zM103 519h108v23h-68l68 50v19h-108v-23h66l-66 -47v-22zM103 627h22v30h86v24h-86v30h-22v-84zM123 443c0 20 14 34 34 34s35 -14 35 -34c0 -19 -15 -34 -35 -34
s-34 15 -34 34zM124 -43v19c0 10 6 16 14 16c9 0 15 -6 15 -16v-19h-29zM131 128l39 14v-28z" />
    <glyph glyph-name="v" unicode="v" horiz-adv-x="536" 
d="M226 0l-212 480h89l165 -390l165 390h89l-212 -480h-84z" />
    <glyph glyph-name="w" unicode="w" horiz-adv-x="798" 
d="M182 0l-164 480h84l124 -392l137 392h72l137 -392l124 392h84l-164 -480h-87l-130 371l-130 -371h-87z" />
    <glyph glyph-name="wacute" unicode="&#x1e83;" 
d="M125 -82v-30h86v-24h-86v-30h-22v84h22zM100 443c0 -33 25 -58 57 -58s57 25 57 58s-25 58 -57 58s-57 -25 -57 -58zM103 -66h108v23h-37v16l37 21v26l-41 -24c-6 12 -17 20 -31 20c-21 0 -36 -16 -36 -38v-44zM103 36v24h108v-24h-108zM103 116l108 -42v25l-20 7v43
l20 8v26l-108 -44v-23zM103 196h108v66h-21v-42h-87v-24zM103 310h108v23h-41v38h-22v-38h-23v42h-22v-65zM103 519h108v23h-68l68 50v19h-108v-23h66l-66 -47v-22zM103 627h22v30h86v24h-86v30h-22v-84zM123 443c0 20 14 34 34 34s35 -14 35 -34c0 -19 -15 -34 -35 -34
s-34 15 -34 34zM124 -43v19c0 10 6 16 14 16c9 0 15 -6 15 -16v-19h-29zM131 128l39 14v-28z" />
    <glyph glyph-name="wcircumflex" unicode="&#x175;" 
d="M125 -82v-30h86v-24h-86v-30h-22v84h22zM100 443c0 -33 25 -58 57 -58s57 25 57 58s-25 58 -57 58s-57 -25 -57 -58zM103 -66h108v23h-37v16l37 21v26l-41 -24c-6 12 -17 20 -31 20c-21 0 -36 -16 -36 -38v-44zM103 36v24h108v-24h-108zM103 116l108 -42v25l-20 7v43
l20 8v26l-108 -44v-23zM103 196h108v66h-21v-42h-87v-24zM103 310h108v23h-41v38h-22v-38h-23v42h-22v-65zM103 519h108v23h-68l68 50v19h-108v-23h66l-66 -47v-22zM103 627h22v30h86v24h-86v30h-22v-84zM123 443c0 20 14 34 34 34s35 -14 35 -34c0 -19 -15 -34 -35 -34
s-34 15 -34 34zM124 -43v19c0 10 6 16 14 16c9 0 15 -6 15 -16v-19h-29zM131 128l39 14v-28z" />
    <glyph glyph-name="wdieresis" unicode="&#x1e85;" 
d="M125 -82v-30h86v-24h-86v-30h-22v84h22zM100 443c0 -33 25 -58 57 -58s57 25 57 58s-25 58 -57 58s-57 -25 -57 -58zM103 -66h108v23h-37v16l37 21v26l-41 -24c-6 12 -17 20 -31 20c-21 0 -36 -16 -36 -38v-44zM103 36v24h108v-24h-108zM103 116l108 -42v25l-20 7v43
l20 8v26l-108 -44v-23zM103 196h108v66h-21v-42h-87v-24zM103 310h108v23h-41v38h-22v-38h-23v42h-22v-65zM103 519h108v23h-68l68 50v19h-108v-23h66l-66 -47v-22zM103 627h22v30h86v24h-86v30h-22v-84zM123 443c0 20 14 34 34 34s35 -14 35 -34c0 -19 -15 -34 -35 -34
s-34 15 -34 34zM124 -43v19c0 10 6 16 14 16c9 0 15 -6 15 -16v-19h-29zM131 128l39 14v-28z" />
    <glyph glyph-name="wgrave" unicode="&#x1e81;" 
d="M125 -82v-30h86v-24h-86v-30h-22v84h22zM100 443c0 -33 25 -58 57 -58s57 25 57 58s-25 58 -57 58s-57 -25 -57 -58zM103 -66h108v23h-37v16l37 21v26l-41 -24c-6 12 -17 20 -31 20c-21 0 -36 -16 -36 -38v-44zM103 36v24h108v-24h-108zM103 116l108 -42v25l-20 7v43
l20 8v26l-108 -44v-23zM103 196h108v66h-21v-42h-87v-24zM103 310h108v23h-41v38h-22v-38h-23v42h-22v-65zM103 519h108v23h-68l68 50v19h-108v-23h66l-66 -47v-22zM103 627h22v30h86v24h-86v30h-22v-84zM123 443c0 20 14 34 34 34s35 -14 35 -34c0 -19 -15 -34 -35 -34
s-34 15 -34 34zM124 -43v19c0 10 6 16 14 16c9 0 15 -6 15 -16v-19h-29zM131 128l39 14v-28z" />
    <glyph glyph-name="x" unicode="x" horiz-adv-x="489" 
d="M12 0l187 247l-177 233h92l131 -177l130 177h92l-176 -233l186 -247h-92l-140 190l-141 -190h-92z" />
    <glyph glyph-name="y" unicode="y" horiz-adv-x="538" 
d="M106 -232c-17 0 -34 2 -52 7v69c14 -4 28 -6 42 -6c54 0 93 39 124 117l18 44l-228 481h85l181 -389l162 389h85l-236 -552c-50 -116 -111 -160 -181 -160z" />
    <glyph glyph-name="yacute" unicode="&#xfd;" 
d="M125 -82v-30h86v-24h-86v-30h-22v84h22zM100 443c0 -33 25 -58 57 -58s57 25 57 58s-25 58 -57 58s-57 -25 -57 -58zM103 -66h108v23h-37v16l37 21v26l-41 -24c-6 12 -17 20 -31 20c-21 0 -36 -16 -36 -38v-44zM103 36v24h108v-24h-108zM103 116l108 -42v25l-20 7v43
l20 8v26l-108 -44v-23zM103 196h108v66h-21v-42h-87v-24zM103 310h108v23h-41v38h-22v-38h-23v42h-22v-65zM103 519h108v23h-68l68 50v19h-108v-23h66l-66 -47v-22zM103 627h22v30h86v24h-86v30h-22v-84zM123 443c0 20 14 34 34 34s35 -14 35 -34c0 -19 -15 -34 -35 -34
s-34 15 -34 34zM124 -43v19c0 10 6 16 14 16c9 0 15 -6 15 -16v-19h-29zM131 128l39 14v-28z" />
    <glyph glyph-name="ycircumflex" unicode="&#x177;" 
d="M125 -82v-30h86v-24h-86v-30h-22v84h22zM100 443c0 -33 25 -58 57 -58s57 25 57 58s-25 58 -57 58s-57 -25 -57 -58zM103 -66h108v23h-37v16l37 21v26l-41 -24c-6 12 -17 20 -31 20c-21 0 -36 -16 -36 -38v-44zM103 36v24h108v-24h-108zM103 116l108 -42v25l-20 7v43
l20 8v26l-108 -44v-23zM103 196h108v66h-21v-42h-87v-24zM103 310h108v23h-41v38h-22v-38h-23v42h-22v-65zM103 519h108v23h-68l68 50v19h-108v-23h66l-66 -47v-22zM103 627h22v30h86v24h-86v30h-22v-84zM123 443c0 20 14 34 34 34s35 -14 35 -34c0 -19 -15 -34 -35 -34
s-34 15 -34 34zM124 -43v19c0 10 6 16 14 16c9 0 15 -6 15 -16v-19h-29zM131 128l39 14v-28z" />
    <glyph glyph-name="ydieresis" unicode="&#xff;" 
d="M125 -82v-30h86v-24h-86v-30h-22v84h22zM100 443c0 -33 25 -58 57 -58s57 25 57 58s-25 58 -57 58s-57 -25 -57 -58zM103 -66h108v23h-37v16l37 21v26l-41 -24c-6 12 -17 20 -31 20c-21 0 -36 -16 -36 -38v-44zM103 36v24h108v-24h-108zM103 116l108 -42v25l-20 7v43
l20 8v26l-108 -44v-23zM103 196h108v66h-21v-42h-87v-24zM103 310h108v23h-41v38h-22v-38h-23v42h-22v-65zM103 519h108v23h-68l68 50v19h-108v-23h66l-66 -47v-22zM103 627h22v30h86v24h-86v30h-22v-84zM123 443c0 20 14 34 34 34s35 -14 35 -34c0 -19 -15 -34 -35 -34
s-34 15 -34 34zM124 -43v19c0 10 6 16 14 16c9 0 15 -6 15 -16v-19h-29zM131 128l39 14v-28z" />
    <glyph glyph-name="ygrave" unicode="&#x1ef3;" 
d="M125 -82v-30h86v-24h-86v-30h-22v84h22zM100 443c0 -33 25 -58 57 -58s57 25 57 58s-25 58 -57 58s-57 -25 -57 -58zM103 -66h108v23h-37v16l37 21v26l-41 -24c-6 12 -17 20 -31 20c-21 0 -36 -16 -36 -38v-44zM103 36v24h108v-24h-108zM103 116l108 -42v25l-20 7v43
l20 8v26l-108 -44v-23zM103 196h108v66h-21v-42h-87v-24zM103 310h108v23h-41v38h-22v-38h-23v42h-22v-65zM103 519h108v23h-68l68 50v19h-108v-23h66l-66 -47v-22zM103 627h22v30h86v24h-86v30h-22v-84zM123 443c0 20 14 34 34 34s35 -14 35 -34c0 -19 -15 -34 -35 -34
s-34 15 -34 34zM124 -43v19c0 10 6 16 14 16c9 0 15 -6 15 -16v-19h-29zM131 128l39 14v-28z" />
    <glyph glyph-name="z" unicode="z" horiz-adv-x="464" 
d="M36 0v71l282 339h-270v70h364v-71l-282 -339h301v-70h-395z" />
    <glyph glyph-name="zacute" unicode="&#x17a;" 
d="M125 -82v-30h86v-24h-86v-30h-22v84h22zM100 443c0 -33 25 -58 57 -58s57 25 57 58s-25 58 -57 58s-57 -25 -57 -58zM103 -66h108v23h-37v16l37 21v26l-41 -24c-6 12 -17 20 -31 20c-21 0 -36 -16 -36 -38v-44zM103 36v24h108v-24h-108zM103 116l108 -42v25l-20 7v43
l20 8v26l-108 -44v-23zM103 196h108v66h-21v-42h-87v-24zM103 310h108v23h-41v38h-22v-38h-23v42h-22v-65zM103 519h108v23h-68l68 50v19h-108v-23h66l-66 -47v-22zM103 627h22v30h86v24h-86v30h-22v-84zM123 443c0 20 14 34 34 34s35 -14 35 -34c0 -19 -15 -34 -35 -34
s-34 15 -34 34zM124 -43v19c0 10 6 16 14 16c9 0 15 -6 15 -16v-19h-29zM131 128l39 14v-28z" />
    <glyph glyph-name="zcaron" unicode="&#x17e;" 
d="M125 -82v-30h86v-24h-86v-30h-22v84h22zM100 443c0 -33 25 -58 57 -58s57 25 57 58s-25 58 -57 58s-57 -25 -57 -58zM103 -66h108v23h-37v16l37 21v26l-41 -24c-6 12 -17 20 -31 20c-21 0 -36 -16 -36 -38v-44zM103 36v24h108v-24h-108zM103 116l108 -42v25l-20 7v43
l20 8v26l-108 -44v-23zM103 196h108v66h-21v-42h-87v-24zM103 310h108v23h-41v38h-22v-38h-23v42h-22v-65zM103 519h108v23h-68l68 50v19h-108v-23h66l-66 -47v-22zM103 627h22v30h86v24h-86v30h-22v-84zM123 443c0 20 14 34 34 34s35 -14 35 -34c0 -19 -15 -34 -35 -34
s-34 15 -34 34zM124 -43v19c0 10 6 16 14 16c9 0 15 -6 15 -16v-19h-29zM131 128l39 14v-28z" />
    <glyph glyph-name="zdotaccent" unicode="&#x17c;" 
d="M125 -82v-30h86v-24h-86v-30h-22v84h22zM100 443c0 -33 25 -58 57 -58s57 25 57 58s-25 58 -57 58s-57 -25 -57 -58zM103 -66h108v23h-37v16l37 21v26l-41 -24c-6 12 -17 20 -31 20c-21 0 -36 -16 -36 -38v-44zM103 36v24h108v-24h-108zM103 116l108 -42v25l-20 7v43
l20 8v26l-108 -44v-23zM103 196h108v66h-21v-42h-87v-24zM103 310h108v23h-41v38h-22v-38h-23v42h-22v-65zM103 519h108v23h-68l68 50v19h-108v-23h66l-66 -47v-22zM103 627h22v30h86v24h-86v30h-22v-84zM123 443c0 20 14 34 34 34s35 -14 35 -34c0 -19 -15 -34 -35 -34
s-34 15 -34 34zM124 -43v19c0 10 6 16 14 16c9 0 15 -6 15 -16v-19h-29zM131 128l39 14v-28z" />
    <glyph glyph-name="a.ss01" 
d="M125 -82v-30h86v-24h-86v-30h-22v84h22zM100 443c0 -33 25 -58 57 -58s57 25 57 58s-25 58 -57 58s-57 -25 -57 -58zM103 -66h108v23h-37v16l37 21v26l-41 -24c-6 12 -17 20 -31 20c-21 0 -36 -16 -36 -38v-44zM103 36v24h108v-24h-108zM103 116l108 -42v25l-20 7v43
l20 8v26l-108 -44v-23zM103 196h108v66h-21v-42h-87v-24zM103 310h108v23h-41v38h-22v-38h-23v42h-22v-65zM103 519h108v23h-68l68 50v19h-108v-23h66l-66 -47v-22zM103 627h22v30h86v24h-86v30h-22v-84zM123 443c0 20 14 34 34 34s35 -14 35 -34c0 -19 -15 -34 -35 -34
s-34 15 -34 34zM124 -43v19c0 10 6 16 14 16c9 0 15 -6 15 -16v-19h-29zM131 128l39 14v-28z" />
    <glyph glyph-name="aacute.ss01" 
d="M125 -82v-30h86v-24h-86v-30h-22v84h22zM100 443c0 -33 25 -58 57 -58s57 25 57 58s-25 58 -57 58s-57 -25 -57 -58zM103 -66h108v23h-37v16l37 21v26l-41 -24c-6 12 -17 20 -31 20c-21 0 -36 -16 -36 -38v-44zM103 36v24h108v-24h-108zM103 116l108 -42v25l-20 7v43
l20 8v26l-108 -44v-23zM103 196h108v66h-21v-42h-87v-24zM103 310h108v23h-41v38h-22v-38h-23v42h-22v-65zM103 519h108v23h-68l68 50v19h-108v-23h66l-66 -47v-22zM103 627h22v30h86v24h-86v30h-22v-84zM123 443c0 20 14 34 34 34s35 -14 35 -34c0 -19 -15 -34 -35 -34
s-34 15 -34 34zM124 -43v19c0 10 6 16 14 16c9 0 15 -6 15 -16v-19h-29zM131 128l39 14v-28z" />
    <glyph glyph-name="abreve.ss01" 
d="M125 -82v-30h86v-24h-86v-30h-22v84h22zM100 443c0 -33 25 -58 57 -58s57 25 57 58s-25 58 -57 58s-57 -25 -57 -58zM103 -66h108v23h-37v16l37 21v26l-41 -24c-6 12 -17 20 -31 20c-21 0 -36 -16 -36 -38v-44zM103 36v24h108v-24h-108zM103 116l108 -42v25l-20 7v43
l20 8v26l-108 -44v-23zM103 196h108v66h-21v-42h-87v-24zM103 310h108v23h-41v38h-22v-38h-23v42h-22v-65zM103 519h108v23h-68l68 50v19h-108v-23h66l-66 -47v-22zM103 627h22v30h86v24h-86v30h-22v-84zM123 443c0 20 14 34 34 34s35 -14 35 -34c0 -19 -15 -34 -35 -34
s-34 15 -34 34zM124 -43v19c0 10 6 16 14 16c9 0 15 -6 15 -16v-19h-29zM131 128l39 14v-28z" />
    <glyph glyph-name="acircumflex.ss01" 
d="M125 -82v-30h86v-24h-86v-30h-22v84h22zM100 443c0 -33 25 -58 57 -58s57 25 57 58s-25 58 -57 58s-57 -25 -57 -58zM103 -66h108v23h-37v16l37 21v26l-41 -24c-6 12 -17 20 -31 20c-21 0 -36 -16 -36 -38v-44zM103 36v24h108v-24h-108zM103 116l108 -42v25l-20 7v43
l20 8v26l-108 -44v-23zM103 196h108v66h-21v-42h-87v-24zM103 310h108v23h-41v38h-22v-38h-23v42h-22v-65zM103 519h108v23h-68l68 50v19h-108v-23h66l-66 -47v-22zM103 627h22v30h86v24h-86v30h-22v-84zM123 443c0 20 14 34 34 34s35 -14 35 -34c0 -19 -15 -34 -35 -34
s-34 15 -34 34zM124 -43v19c0 10 6 16 14 16c9 0 15 -6 15 -16v-19h-29zM131 128l39 14v-28z" />
    <glyph glyph-name="adieresis.ss01" 
d="M125 -82v-30h86v-24h-86v-30h-22v84h22zM100 443c0 -33 25 -58 57 -58s57 25 57 58s-25 58 -57 58s-57 -25 -57 -58zM103 -66h108v23h-37v16l37 21v26l-41 -24c-6 12 -17 20 -31 20c-21 0 -36 -16 -36 -38v-44zM103 36v24h108v-24h-108zM103 116l108 -42v25l-20 7v43
l20 8v26l-108 -44v-23zM103 196h108v66h-21v-42h-87v-24zM103 310h108v23h-41v38h-22v-38h-23v42h-22v-65zM103 519h108v23h-68l68 50v19h-108v-23h66l-66 -47v-22zM103 627h22v30h86v24h-86v30h-22v-84zM123 443c0 20 14 34 34 34s35 -14 35 -34c0 -19 -15 -34 -35 -34
s-34 15 -34 34zM124 -43v19c0 10 6 16 14 16c9 0 15 -6 15 -16v-19h-29zM131 128l39 14v-28z" />
    <glyph glyph-name="agrave.ss01" 
d="M125 -82v-30h86v-24h-86v-30h-22v84h22zM100 443c0 -33 25 -58 57 -58s57 25 57 58s-25 58 -57 58s-57 -25 -57 -58zM103 -66h108v23h-37v16l37 21v26l-41 -24c-6 12 -17 20 -31 20c-21 0 -36 -16 -36 -38v-44zM103 36v24h108v-24h-108zM103 116l108 -42v25l-20 7v43
l20 8v26l-108 -44v-23zM103 196h108v66h-21v-42h-87v-24zM103 310h108v23h-41v38h-22v-38h-23v42h-22v-65zM103 519h108v23h-68l68 50v19h-108v-23h66l-66 -47v-22zM103 627h22v30h86v24h-86v30h-22v-84zM123 443c0 20 14 34 34 34s35 -14 35 -34c0 -19 -15 -34 -35 -34
s-34 15 -34 34zM124 -43v19c0 10 6 16 14 16c9 0 15 -6 15 -16v-19h-29zM131 128l39 14v-28z" />
    <glyph glyph-name="amacron.ss01" 
d="M125 -82v-30h86v-24h-86v-30h-22v84h22zM100 443c0 -33 25 -58 57 -58s57 25 57 58s-25 58 -57 58s-57 -25 -57 -58zM103 -66h108v23h-37v16l37 21v26l-41 -24c-6 12 -17 20 -31 20c-21 0 -36 -16 -36 -38v-44zM103 36v24h108v-24h-108zM103 116l108 -42v25l-20 7v43
l20 8v26l-108 -44v-23zM103 196h108v66h-21v-42h-87v-24zM103 310h108v23h-41v38h-22v-38h-23v42h-22v-65zM103 519h108v23h-68l68 50v19h-108v-23h66l-66 -47v-22zM103 627h22v30h86v24h-86v30h-22v-84zM123 443c0 20 14 34 34 34s35 -14 35 -34c0 -19 -15 -34 -35 -34
s-34 15 -34 34zM124 -43v19c0 10 6 16 14 16c9 0 15 -6 15 -16v-19h-29zM131 128l39 14v-28z" />
    <glyph glyph-name="aogonek.ss01" 
d="M125 -82v-30h86v-24h-86v-30h-22v84h22zM100 443c0 -33 25 -58 57 -58s57 25 57 58s-25 58 -57 58s-57 -25 -57 -58zM103 -66h108v23h-37v16l37 21v26l-41 -24c-6 12 -17 20 -31 20c-21 0 -36 -16 -36 -38v-44zM103 36v24h108v-24h-108zM103 116l108 -42v25l-20 7v43
l20 8v26l-108 -44v-23zM103 196h108v66h-21v-42h-87v-24zM103 310h108v23h-41v38h-22v-38h-23v42h-22v-65zM103 519h108v23h-68l68 50v19h-108v-23h66l-66 -47v-22zM103 627h22v30h86v24h-86v30h-22v-84zM123 443c0 20 14 34 34 34s35 -14 35 -34c0 -19 -15 -34 -35 -34
s-34 15 -34 34zM124 -43v19c0 10 6 16 14 16c9 0 15 -6 15 -16v-19h-29zM131 128l39 14v-28z" />
    <glyph glyph-name="aring.ss01" 
d="M125 -82v-30h86v-24h-86v-30h-22v84h22zM100 443c0 -33 25 -58 57 -58s57 25 57 58s-25 58 -57 58s-57 -25 -57 -58zM103 -66h108v23h-37v16l37 21v26l-41 -24c-6 12 -17 20 -31 20c-21 0 -36 -16 -36 -38v-44zM103 36v24h108v-24h-108zM103 116l108 -42v25l-20 7v43
l20 8v26l-108 -44v-23zM103 196h108v66h-21v-42h-87v-24zM103 310h108v23h-41v38h-22v-38h-23v42h-22v-65zM103 519h108v23h-68l68 50v19h-108v-23h66l-66 -47v-22zM103 627h22v30h86v24h-86v30h-22v-84zM123 443c0 20 14 34 34 34s35 -14 35 -34c0 -19 -15 -34 -35 -34
s-34 15 -34 34zM124 -43v19c0 10 6 16 14 16c9 0 15 -6 15 -16v-19h-29zM131 128l39 14v-28z" />
    <glyph glyph-name="atilde.ss01" 
d="M125 -82v-30h86v-24h-86v-30h-22v84h22zM100 443c0 -33 25 -58 57 -58s57 25 57 58s-25 58 -57 58s-57 -25 -57 -58zM103 -66h108v23h-37v16l37 21v26l-41 -24c-6 12 -17 20 -31 20c-21 0 -36 -16 -36 -38v-44zM103 36v24h108v-24h-108zM103 116l108 -42v25l-20 7v43
l20 8v26l-108 -44v-23zM103 196h108v66h-21v-42h-87v-24zM103 310h108v23h-41v38h-22v-38h-23v42h-22v-65zM103 519h108v23h-68l68 50v19h-108v-23h66l-66 -47v-22zM103 627h22v30h86v24h-86v30h-22v-84zM123 443c0 20 14 34 34 34s35 -14 35 -34c0 -19 -15 -34 -35 -34
s-34 15 -34 34zM124 -43v19c0 10 6 16 14 16c9 0 15 -6 15 -16v-19h-29zM131 128l39 14v-28z" />
    <glyph glyph-name="ae.ss01" 
d="M125 -82v-30h86v-24h-86v-30h-22v84h22zM100 443c0 -33 25 -58 57 -58s57 25 57 58s-25 58 -57 58s-57 -25 -57 -58zM103 -66h108v23h-37v16l37 21v26l-41 -24c-6 12 -17 20 -31 20c-21 0 -36 -16 -36 -38v-44zM103 36v24h108v-24h-108zM103 116l108 -42v25l-20 7v43
l20 8v26l-108 -44v-23zM103 196h108v66h-21v-42h-87v-24zM103 310h108v23h-41v38h-22v-38h-23v42h-22v-65zM103 519h108v23h-68l68 50v19h-108v-23h66l-66 -47v-22zM103 627h22v30h86v24h-86v30h-22v-84zM123 443c0 20 14 34 34 34s35 -14 35 -34c0 -19 -15 -34 -35 -34
s-34 15 -34 34zM124 -43v19c0 10 6 16 14 16c9 0 15 -6 15 -16v-19h-29zM131 128l39 14v-28z" />
    <glyph glyph-name="y.ss01" 
d="M125 -82v-30h86v-24h-86v-30h-22v84h22zM100 443c0 -33 25 -58 57 -58s57 25 57 58s-25 58 -57 58s-57 -25 -57 -58zM103 -66h108v23h-37v16l37 21v26l-41 -24c-6 12 -17 20 -31 20c-21 0 -36 -16 -36 -38v-44zM103 36v24h108v-24h-108zM103 116l108 -42v25l-20 7v43
l20 8v26l-108 -44v-23zM103 196h108v66h-21v-42h-87v-24zM103 310h108v23h-41v38h-22v-38h-23v42h-22v-65zM103 519h108v23h-68l68 50v19h-108v-23h66l-66 -47v-22zM103 627h22v30h86v24h-86v30h-22v-84zM123 443c0 20 14 34 34 34s35 -14 35 -34c0 -19 -15 -34 -35 -34
s-34 15 -34 34zM124 -43v19c0 10 6 16 14 16c9 0 15 -6 15 -16v-19h-29zM131 128l39 14v-28z" />
    <glyph glyph-name="yacute.ss01" 
d="M125 -82v-30h86v-24h-86v-30h-22v84h22zM100 443c0 -33 25 -58 57 -58s57 25 57 58s-25 58 -57 58s-57 -25 -57 -58zM103 -66h108v23h-37v16l37 21v26l-41 -24c-6 12 -17 20 -31 20c-21 0 -36 -16 -36 -38v-44zM103 36v24h108v-24h-108zM103 116l108 -42v25l-20 7v43
l20 8v26l-108 -44v-23zM103 196h108v66h-21v-42h-87v-24zM103 310h108v23h-41v38h-22v-38h-23v42h-22v-65zM103 519h108v23h-68l68 50v19h-108v-23h66l-66 -47v-22zM103 627h22v30h86v24h-86v30h-22v-84zM123 443c0 20 14 34 34 34s35 -14 35 -34c0 -19 -15 -34 -35 -34
s-34 15 -34 34zM124 -43v19c0 10 6 16 14 16c9 0 15 -6 15 -16v-19h-29zM131 128l39 14v-28z" />
    <glyph glyph-name="ycircumflex.ss01" 
d="M125 -82v-30h86v-24h-86v-30h-22v84h22zM100 443c0 -33 25 -58 57 -58s57 25 57 58s-25 58 -57 58s-57 -25 -57 -58zM103 -66h108v23h-37v16l37 21v26l-41 -24c-6 12 -17 20 -31 20c-21 0 -36 -16 -36 -38v-44zM103 36v24h108v-24h-108zM103 116l108 -42v25l-20 7v43
l20 8v26l-108 -44v-23zM103 196h108v66h-21v-42h-87v-24zM103 310h108v23h-41v38h-22v-38h-23v42h-22v-65zM103 519h108v23h-68l68 50v19h-108v-23h66l-66 -47v-22zM103 627h22v30h86v24h-86v30h-22v-84zM123 443c0 20 14 34 34 34s35 -14 35 -34c0 -19 -15 -34 -35 -34
s-34 15 -34 34zM124 -43v19c0 10 6 16 14 16c9 0 15 -6 15 -16v-19h-29zM131 128l39 14v-28z" />
    <glyph glyph-name="ydieresis.ss01" 
d="M125 -82v-30h86v-24h-86v-30h-22v84h22zM100 443c0 -33 25 -58 57 -58s57 25 57 58s-25 58 -57 58s-57 -25 -57 -58zM103 -66h108v23h-37v16l37 21v26l-41 -24c-6 12 -17 20 -31 20c-21 0 -36 -16 -36 -38v-44zM103 36v24h108v-24h-108zM103 116l108 -42v25l-20 7v43
l20 8v26l-108 -44v-23zM103 196h108v66h-21v-42h-87v-24zM103 310h108v23h-41v38h-22v-38h-23v42h-22v-65zM103 519h108v23h-68l68 50v19h-108v-23h66l-66 -47v-22zM103 627h22v30h86v24h-86v30h-22v-84zM123 443c0 20 14 34 34 34s35 -14 35 -34c0 -19 -15 -34 -35 -34
s-34 15 -34 34zM124 -43v19c0 10 6 16 14 16c9 0 15 -6 15 -16v-19h-29zM131 128l39 14v-28z" />
    <glyph glyph-name="ygrave.ss01" 
d="M125 -82v-30h86v-24h-86v-30h-22v84h22zM100 443c0 -33 25 -58 57 -58s57 25 57 58s-25 58 -57 58s-57 -25 -57 -58zM103 -66h108v23h-37v16l37 21v26l-41 -24c-6 12 -17 20 -31 20c-21 0 -36 -16 -36 -38v-44zM103 36v24h108v-24h-108zM103 116l108 -42v25l-20 7v43
l20 8v26l-108 -44v-23zM103 196h108v66h-21v-42h-87v-24zM103 310h108v23h-41v38h-22v-38h-23v42h-22v-65zM103 519h108v23h-68l68 50v19h-108v-23h66l-66 -47v-22zM103 627h22v30h86v24h-86v30h-22v-84zM123 443c0 20 14 34 34 34s35 -14 35 -34c0 -19 -15 -34 -35 -34
s-34 15 -34 34zM124 -43v19c0 10 6 16 14 16c9 0 15 -6 15 -16v-19h-29zM131 128l39 14v-28z" />
    <glyph glyph-name="f_b" 
d="M125 -82v-30h86v-24h-86v-30h-22v84h22zM100 443c0 -33 25 -58 57 -58s57 25 57 58s-25 58 -57 58s-57 -25 -57 -58zM103 -66h108v23h-37v16l37 21v26l-41 -24c-6 12 -17 20 -31 20c-21 0 -36 -16 -36 -38v-44zM103 36v24h108v-24h-108zM103 116l108 -42v25l-20 7v43
l20 8v26l-108 -44v-23zM103 196h108v66h-21v-42h-87v-24zM103 310h108v23h-41v38h-22v-38h-23v42h-22v-65zM103 519h108v23h-68l68 50v19h-108v-23h66l-66 -47v-22zM103 627h22v30h86v24h-86v30h-22v-84zM123 443c0 20 14 34 34 34s35 -14 35 -34c0 -19 -15 -34 -35 -34
s-34 15 -34 34zM124 -43v19c0 10 6 16 14 16c9 0 15 -6 15 -16v-19h-29zM131 128l39 14v-28z" />
    <glyph glyph-name="f_f_b" 
d="M125 -82v-30h86v-24h-86v-30h-22v84h22zM100 443c0 -33 25 -58 57 -58s57 25 57 58s-25 58 -57 58s-57 -25 -57 -58zM103 -66h108v23h-37v16l37 21v26l-41 -24c-6 12 -17 20 -31 20c-21 0 -36 -16 -36 -38v-44zM103 36v24h108v-24h-108zM103 116l108 -42v25l-20 7v43
l20 8v26l-108 -44v-23zM103 196h108v66h-21v-42h-87v-24zM103 310h108v23h-41v38h-22v-38h-23v42h-22v-65zM103 519h108v23h-68l68 50v19h-108v-23h66l-66 -47v-22zM103 627h22v30h86v24h-86v30h-22v-84zM123 443c0 20 14 34 34 34s35 -14 35 -34c0 -19 -15 -34 -35 -34
s-34 15 -34 34zM124 -43v19c0 10 6 16 14 16c9 0 15 -6 15 -16v-19h-29zM131 128l39 14v-28z" />
    <glyph glyph-name="f_f_h" 
d="M125 -82v-30h86v-24h-86v-30h-22v84h22zM100 443c0 -33 25 -58 57 -58s57 25 57 58s-25 58 -57 58s-57 -25 -57 -58zM103 -66h108v23h-37v16l37 21v26l-41 -24c-6 12 -17 20 -31 20c-21 0 -36 -16 -36 -38v-44zM103 36v24h108v-24h-108zM103 116l108 -42v25l-20 7v43
l20 8v26l-108 -44v-23zM103 196h108v66h-21v-42h-87v-24zM103 310h108v23h-41v38h-22v-38h-23v42h-22v-65zM103 519h108v23h-68l68 50v19h-108v-23h66l-66 -47v-22zM103 627h22v30h86v24h-86v30h-22v-84zM123 443c0 20 14 34 34 34s35 -14 35 -34c0 -19 -15 -34 -35 -34
s-34 15 -34 34zM124 -43v19c0 10 6 16 14 16c9 0 15 -6 15 -16v-19h-29zM131 128l39 14v-28z" />
    <glyph glyph-name="f_f_j" 
d="M125 -82v-30h86v-24h-86v-30h-22v84h22zM100 443c0 -33 25 -58 57 -58s57 25 57 58s-25 58 -57 58s-57 -25 -57 -58zM103 -66h108v23h-37v16l37 21v26l-41 -24c-6 12 -17 20 -31 20c-21 0 -36 -16 -36 -38v-44zM103 36v24h108v-24h-108zM103 116l108 -42v25l-20 7v43
l20 8v26l-108 -44v-23zM103 196h108v66h-21v-42h-87v-24zM103 310h108v23h-41v38h-22v-38h-23v42h-22v-65zM103 519h108v23h-68l68 50v19h-108v-23h66l-66 -47v-22zM103 627h22v30h86v24h-86v30h-22v-84zM123 443c0 20 14 34 34 34s35 -14 35 -34c0 -19 -15 -34 -35 -34
s-34 15 -34 34zM124 -43v19c0 10 6 16 14 16c9 0 15 -6 15 -16v-19h-29zM131 128l39 14v-28z" />
    <glyph glyph-name="f_f_k" 
d="M125 -82v-30h86v-24h-86v-30h-22v84h22zM100 443c0 -33 25 -58 57 -58s57 25 57 58s-25 58 -57 58s-57 -25 -57 -58zM103 -66h108v23h-37v16l37 21v26l-41 -24c-6 12 -17 20 -31 20c-21 0 -36 -16 -36 -38v-44zM103 36v24h108v-24h-108zM103 116l108 -42v25l-20 7v43
l20 8v26l-108 -44v-23zM103 196h108v66h-21v-42h-87v-24zM103 310h108v23h-41v38h-22v-38h-23v42h-22v-65zM103 519h108v23h-68l68 50v19h-108v-23h66l-66 -47v-22zM103 627h22v30h86v24h-86v30h-22v-84zM123 443c0 20 14 34 34 34s35 -14 35 -34c0 -19 -15 -34 -35 -34
s-34 15 -34 34zM124 -43v19c0 10 6 16 14 16c9 0 15 -6 15 -16v-19h-29zM131 128l39 14v-28z" />
    <glyph glyph-name="f_h" 
d="M125 -82v-30h86v-24h-86v-30h-22v84h22zM100 443c0 -33 25 -58 57 -58s57 25 57 58s-25 58 -57 58s-57 -25 -57 -58zM103 -66h108v23h-37v16l37 21v26l-41 -24c-6 12 -17 20 -31 20c-21 0 -36 -16 -36 -38v-44zM103 36v24h108v-24h-108zM103 116l108 -42v25l-20 7v43
l20 8v26l-108 -44v-23zM103 196h108v66h-21v-42h-87v-24zM103 310h108v23h-41v38h-22v-38h-23v42h-22v-65zM103 519h108v23h-68l68 50v19h-108v-23h66l-66 -47v-22zM103 627h22v30h86v24h-86v30h-22v-84zM123 443c0 20 14 34 34 34s35 -14 35 -34c0 -19 -15 -34 -35 -34
s-34 15 -34 34zM124 -43v19c0 10 6 16 14 16c9 0 15 -6 15 -16v-19h-29zM131 128l39 14v-28z" />
    <glyph glyph-name="f_j" 
d="M125 -82v-30h86v-24h-86v-30h-22v84h22zM100 443c0 -33 25 -58 57 -58s57 25 57 58s-25 58 -57 58s-57 -25 -57 -58zM103 -66h108v23h-37v16l37 21v26l-41 -24c-6 12 -17 20 -31 20c-21 0 -36 -16 -36 -38v-44zM103 36v24h108v-24h-108zM103 116l108 -42v25l-20 7v43
l20 8v26l-108 -44v-23zM103 196h108v66h-21v-42h-87v-24zM103 310h108v23h-41v38h-22v-38h-23v42h-22v-65zM103 519h108v23h-68l68 50v19h-108v-23h66l-66 -47v-22zM103 627h22v30h86v24h-86v30h-22v-84zM123 443c0 20 14 34 34 34s35 -14 35 -34c0 -19 -15 -34 -35 -34
s-34 15 -34 34zM124 -43v19c0 10 6 16 14 16c9 0 15 -6 15 -16v-19h-29zM131 128l39 14v-28z" />
    <glyph glyph-name="f_k" 
d="M125 -82v-30h86v-24h-86v-30h-22v84h22zM100 443c0 -33 25 -58 57 -58s57 25 57 58s-25 58 -57 58s-57 -25 -57 -58zM103 -66h108v23h-37v16l37 21v26l-41 -24c-6 12 -17 20 -31 20c-21 0 -36 -16 -36 -38v-44zM103 36v24h108v-24h-108zM103 116l108 -42v25l-20 7v43
l20 8v26l-108 -44v-23zM103 196h108v66h-21v-42h-87v-24zM103 310h108v23h-41v38h-22v-38h-23v42h-22v-65zM103 519h108v23h-68l68 50v19h-108v-23h66l-66 -47v-22zM103 627h22v30h86v24h-86v30h-22v-84zM123 443c0 20 14 34 34 34s35 -14 35 -34c0 -19 -15 -34 -35 -34
s-34 15 -34 34zM124 -43v19c0 10 6 16 14 16c9 0 15 -6 15 -16v-19h-29zM131 128l39 14v-28z" />
    <glyph glyph-name="uni0410" unicode="&#x410;" horiz-adv-x="717" 
d="M7 0l305 700h93l304 -700h-90l-72 169h-377l-72 -169h-91zM203 247h311l-145 340l-11 28c-4 -10 -7 -19 -11 -28z" />
    <glyph glyph-name="uni0411" unicode="&#x411;" horiz-adv-x="666" 
d="M92 0v700h485v-80h-401v-203h186c129 0 269 -38 269 -209s-140 -208 -269 -208h-270zM176 80h190c89 0 180 14 180 128c0 115 -92 129 -180 129h-190v-257z" />
    <glyph glyph-name="uni0412" unicode="&#x412;" horiz-adv-x="691" 
d="M92 0v700h287c143 0 238 -59 238 -177c0 -89 -57 -139 -112 -155c58 -16 140 -62 140 -176c0 -159 -156 -192 -258 -192h-295zM176 80h194c88 0 190 6 190 121c0 109 -100 121 -167 121h-217v-242zM176 402h219c73 0 137 29 137 109c0 83 -61 109 -160 109h-196v-218z
" />
    <glyph glyph-name="uni0413" unicode="&#x413;" horiz-adv-x="567" 
d="M92 0v700h460v-80h-376v-620h-84z" />
    <glyph glyph-name="uni0403" unicode="&#x403;" 
d="M125 -82v-30h86v-24h-86v-30h-22v84h22zM100 443c0 -33 25 -58 57 -58s57 25 57 58s-25 58 -57 58s-57 -25 -57 -58zM103 -66h108v23h-37v16l37 21v26l-41 -24c-6 12 -17 20 -31 20c-21 0 -36 -16 -36 -38v-44zM103 36v24h108v-24h-108zM103 116l108 -42v25l-20 7v43
l20 8v26l-108 -44v-23zM103 196h108v66h-21v-42h-87v-24zM103 310h108v23h-41v38h-22v-38h-23v42h-22v-65zM103 519h108v23h-68l68 50v19h-108v-23h66l-66 -47v-22zM103 627h22v30h86v24h-86v30h-22v-84zM123 443c0 20 14 34 34 34s35 -14 35 -34c0 -19 -15 -34 -35 -34
s-34 15 -34 34zM124 -43v19c0 10 6 16 14 16c9 0 15 -6 15 -16v-19h-29zM131 128l39 14v-28z" />
    <glyph glyph-name="uni0490" unicode="&#x490;" 
d="M125 -82v-30h86v-24h-86v-30h-22v84h22zM100 443c0 -33 25 -58 57 -58s57 25 57 58s-25 58 -57 58s-57 -25 -57 -58zM103 -66h108v23h-37v16l37 21v26l-41 -24c-6 12 -17 20 -31 20c-21 0 -36 -16 -36 -38v-44zM103 36v24h108v-24h-108zM103 116l108 -42v25l-20 7v43
l20 8v26l-108 -44v-23zM103 196h108v66h-21v-42h-87v-24zM103 310h108v23h-41v38h-22v-38h-23v42h-22v-65zM103 519h108v23h-68l68 50v19h-108v-23h66l-66 -47v-22zM103 627h22v30h86v24h-86v30h-22v-84zM123 443c0 20 14 34 34 34s35 -14 35 -34c0 -19 -15 -34 -35 -34
s-34 15 -34 34zM124 -43v19c0 10 6 16 14 16c9 0 15 -6 15 -16v-19h-29zM131 128l39 14v-28z" />
    <glyph glyph-name="uni0414" unicode="&#x414;" horiz-adv-x="768" 
d="M19 -165v245h85c90 163 114 405 114 620h430v-620h88v-245h-80v165h-557v-165h-80zM198 80h366v540h-260c-11 -189 -36 -402 -106 -540z" />
    <glyph glyph-name="uni0415" unicode="&#x415;" horiz-adv-x="620" 
d="M92 0v700h472v-80h-388v-227h358v-80h-358v-233h394v-80h-478z" />
    <glyph glyph-name="uni0401" unicode="&#x401;" horiz-adv-x="618" 
d="M468 782c-30 0 -55 25 -55 55c0 29 25 55 55 55s55 -26 55 -55c0 -30 -25 -55 -55 -55zM92 0v700h472v-80h-388v-227h358v-80h-358v-233h394v-80h-478zM211 837c0 29 25 55 55 55s55 -26 55 -55c0 -30 -25 -55 -55 -55s-55 25 -55 55z" />
    <glyph glyph-name="uni0416" unicode="&#x416;" horiz-adv-x="939" 
d="M7 0l227 359l-206 341h96l177 -303h127v303h84v-303h126l177 303h96l-206 -341l227 -359h-96l-199 317h-125v-317h-84v317h-126l-199 -317h-96z" />
    <glyph glyph-name="uni0417" unicode="&#x417;" horiz-adv-x="610" 
d="M287 -12c-94 0 -171 14 -249 44v84c77 -36 154 -49 243 -48c95 0 197 25 197 129c0 101 -97 126 -188 126h-143v80h134c100 0 169 39 169 114c0 86 -76 115 -182 115c-78 1 -143 -14 -218 -49v84c71 31 141 45 225 45c148 0 260 -60 260 -185c0 -85 -51 -140 -115 -161
c64 -13 144 -64 144 -177c0 -151 -147 -201 -277 -201z" />
    <glyph glyph-name="uni0418" unicode="&#x418;" horiz-adv-x="767" 
d="M675 0h-84v500v60l-421 -560h-78v700h84v-499v-60l421 559h78v-700z" />
    <glyph glyph-name="uni0419" unicode="&#x419;" horiz-adv-x="767" 
d="M675 0h-84v500v60l-421 -560h-78v700h84v-499v-60l421 559h78v-700zM243 810v78c50 -33 91 -44 140 -44s90 11 140 44v-78c-45 -32 -92 -42 -140 -42s-95 10 -140 42z" />
    <glyph glyph-name="uni040D" unicode="&#x40d;" 
d="M125 -82v-30h86v-24h-86v-30h-22v84h22zM100 443c0 -33 25 -58 57 -58s57 25 57 58s-25 58 -57 58s-57 -25 -57 -58zM103 -66h108v23h-37v16l37 21v26l-41 -24c-6 12 -17 20 -31 20c-21 0 -36 -16 -36 -38v-44zM103 36v24h108v-24h-108zM103 116l108 -42v25l-20 7v43
l20 8v26l-108 -44v-23zM103 196h108v66h-21v-42h-87v-24zM103 310h108v23h-41v38h-22v-38h-23v42h-22v-65zM103 519h108v23h-68l68 50v19h-108v-23h66l-66 -47v-22zM103 627h22v30h86v24h-86v30h-22v-84zM123 443c0 20 14 34 34 34s35 -14 35 -34c0 -19 -15 -34 -35 -34
s-34 15 -34 34zM124 -43v19c0 10 6 16 14 16c9 0 15 -6 15 -16v-19h-29zM131 128l39 14v-28z" />
    <glyph glyph-name="uni041A" unicode="&#x41a;" horiz-adv-x="665" 
d="M92 0v700h84v-304h119l251 304h96l-275 -337l296 -363h-96l-269 317h-122v-317h-84z" />
    <glyph glyph-name="uni040C" unicode="&#x40c;" 
d="M125 -82v-30h86v-24h-86v-30h-22v84h22zM100 443c0 -33 25 -58 57 -58s57 25 57 58s-25 58 -57 58s-57 -25 -57 -58zM103 -66h108v23h-37v16l37 21v26l-41 -24c-6 12 -17 20 -31 20c-21 0 -36 -16 -36 -38v-44zM103 36v24h108v-24h-108zM103 116l108 -42v25l-20 7v43
l20 8v26l-108 -44v-23zM103 196h108v66h-21v-42h-87v-24zM103 310h108v23h-41v38h-22v-38h-23v42h-22v-65zM103 519h108v23h-68l68 50v19h-108v-23h66l-66 -47v-22zM103 627h22v30h86v24h-86v30h-22v-84zM123 443c0 20 14 34 34 34s35 -14 35 -34c0 -19 -15 -34 -35 -34
s-34 15 -34 34zM124 -43v19c0 10 6 16 14 16c9 0 15 -6 15 -16v-19h-29zM131 128l39 14v-28z" />
    <glyph glyph-name="uni041B" unicode="&#x41b;" horiz-adv-x="746" 
d="M66 -10c-19 0 -40 3 -62 11v80c14 -5 26 -7 48 -7c127 0 147 317 171 626h431v-700h-84v620h-267c-28 -319 -54 -629 -237 -630z" />
    <glyph glyph-name="uni041C" unicode="&#x41c;" horiz-adv-x="906" 
d="M92 0v700h72l289 -432l289 432h72v-700h-84v541l-251 -376h-52l-251 376v-541h-84z" />
    <glyph glyph-name="uni041D" unicode="&#x41d;" horiz-adv-x="767" 
d="M92 0v700h84v-309h415v309h84v-700h-84v311h-415v-311h-84z" />
    <glyph glyph-name="uni041E" unicode="&#x41e;" horiz-adv-x="822" 
d="M411 -12c-245 0 -366 181 -366 362s121 362 366 362s366 -181 366 -362s-121 -362 -366 -362zM130 350c0 -144 91 -282 281 -282s281 138 281 282s-91 282 -281 282s-281 -138 -281 -282z" />
    <glyph glyph-name="uni041F" unicode="&#x41f;" horiz-adv-x="756" 
d="M92 0v700h571v-700h-84v620h-403v-620h-84z" />
    <glyph glyph-name="uni0420" unicode="&#x420;" horiz-adv-x="661" 
d="M92 0v700h239c162 0 297 -51 297 -226s-135 -226 -297 -226h-155v-248h-84zM176 328h159c114 0 208 28 208 146c0 119 -93 146 -208 146h-159v-292z" />
    <glyph glyph-name="uni0421" unicode="&#x421;" horiz-adv-x="653" 
d="M412 -12c-176 0 -368 124 -367 357c1 243 186 367 368 367c70 0 138 -16 197 -47v-84c-51 34 -117 51 -183 51c-145 0 -296 -87 -297 -287c-1 -187 155 -277 300 -277c72 0 137 17 185 51v-84c-58 -30 -128 -47 -203 -47z" />
    <glyph glyph-name="uni0422" unicode="&#x422;" horiz-adv-x="604" 
d="M260 0v620h-246v80h576v-80h-246v-620h-84z" />
    <glyph glyph-name="uni0423" unicode="&#x423;" horiz-adv-x="632" 
d="M159 -12c-31 0 -65 5 -95 14v79c23 -7 52 -13 80 -13c51 0 98 10 141 92l12 26l-289 514h93l241 -435l202 435h90l-255 -541c-65 -137 -143 -171 -220 -171z" />
    <glyph glyph-name="uni040E" unicode="&#x40e;" 
d="M125 -82v-30h86v-24h-86v-30h-22v84h22zM100 443c0 -33 25 -58 57 -58s57 25 57 58s-25 58 -57 58s-57 -25 -57 -58zM103 -66h108v23h-37v16l37 21v26l-41 -24c-6 12 -17 20 -31 20c-21 0 -36 -16 -36 -38v-44zM103 36v24h108v-24h-108zM103 116l108 -42v25l-20 7v43
l20 8v26l-108 -44v-23zM103 196h108v66h-21v-42h-87v-24zM103 310h108v23h-41v38h-22v-38h-23v42h-22v-65zM103 519h108v23h-68l68 50v19h-108v-23h66l-66 -47v-22zM103 627h22v30h86v24h-86v30h-22v-84zM123 443c0 20 14 34 34 34s35 -14 35 -34c0 -19 -15 -34 -35 -34
s-34 15 -34 34zM124 -43v19c0 10 6 16 14 16c9 0 15 -6 15 -16v-19h-29zM131 128l39 14v-28z" />
    <glyph glyph-name="uni0424" unicode="&#x424;" horiz-adv-x="864" 
d="M390 54c-218 6 -361 111 -361 296s143 290 361 296v91h84v-91c218 -6 361 -111 361 -296s-143 -290 -361 -296v-91h-84v91zM114 350c0 -131 92 -213 276 -220v440c-184 -7 -276 -89 -276 -220zM474 130c184 7 276 89 276 220s-92 213 -276 220v-440z" />
    <glyph glyph-name="uni0425" unicode="&#x425;" horiz-adv-x="645" 
d="M2 0l271 360l-256 340h100l206 -273l205 273h100l-255 -340l270 -360h-100l-220 293l-221 -293h-100z" />
    <glyph glyph-name="uni0427" unicode="&#x427;" horiz-adv-x="685" 
d="M509 274c-71 -24 -140 -35 -205 -35c-160 2 -258 80 -258 238v223h84v-227c0 -112 77 -153 194 -154c60 0 123 11 185 35v346h84v-700h-84v274z" />
    <glyph glyph-name="uni0426" unicode="&#x426;" horiz-adv-x="784" 
d="M672 -165l1 165h-581v700h84v-620h405v620h84v-620h87v-245h-80z" />
    <glyph glyph-name="uni0428" unicode="&#x428;" horiz-adv-x="1060" 
d="M92 0v700h84v-620h312v620h84v-620h312v620h84v-700h-876z" />
    <glyph glyph-name="uni0429" unicode="&#x429;" horiz-adv-x="1087" 
d="M975 -165l1 165h-884v700h84v-620h312v620h84v-620h312v620h84v-620h87v-245h-80z" />
    <glyph glyph-name="uni040F" unicode="&#x40f;" 
d="M125 -82v-30h86v-24h-86v-30h-22v84h22zM100 443c0 -33 25 -58 57 -58s57 25 57 58s-25 58 -57 58s-57 -25 -57 -58zM103 -66h108v23h-37v16l37 21v26l-41 -24c-6 12 -17 20 -31 20c-21 0 -36 -16 -36 -38v-44zM103 36v24h108v-24h-108zM103 116l108 -42v25l-20 7v43
l20 8v26l-108 -44v-23zM103 196h108v66h-21v-42h-87v-24zM103 310h108v23h-41v38h-22v-38h-23v42h-22v-65zM103 519h108v23h-68l68 50v19h-108v-23h66l-66 -47v-22zM103 627h22v30h86v24h-86v30h-22v-84zM123 443c0 20 14 34 34 34s35 -14 35 -34c0 -19 -15 -34 -35 -34
s-34 15 -34 34zM124 -43v19c0 10 6 16 14 16c9 0 15 -6 15 -16v-19h-29zM131 128l39 14v-28z" />
    <glyph glyph-name="uni042C" unicode="&#x42c;" horiz-adv-x="661" 
d="M92 0v700h84v-249h155c162 0 297 -50 297 -225s-135 -226 -297 -226h-239zM176 80h159c115 0 208 27 208 146c0 118 -94 145 -208 145h-159v-291z" />
    <glyph glyph-name="uni042B" unicode="&#x42b;" horiz-adv-x="881" 
d="M92 0v700h84v-249h155c162 0 297 -50 297 -225s-135 -226 -297 -226h-239zM176 80h159c115 0 208 27 208 146c0 118 -94 145 -208 145h-159v-291zM705 0v700h84v-700h-84z" />
    <glyph glyph-name="uni042A" unicode="&#x42a;" horiz-adv-x="762" 
d="M193 0v620h-178v80h262v-249h155c162 0 297 -50 297 -225s-135 -226 -297 -226h-239zM277 80h159c115 0 208 27 208 146c0 118 -94 145 -208 145h-159v-291z" />
    <glyph glyph-name="uni0409" unicode="&#x409;" 
d="M125 -82v-30h86v-24h-86v-30h-22v84h22zM100 443c0 -33 25 -58 57 -58s57 25 57 58s-25 58 -57 58s-57 -25 -57 -58zM103 -66h108v23h-37v16l37 21v26l-41 -24c-6 12 -17 20 -31 20c-21 0 -36 -16 -36 -38v-44zM103 36v24h108v-24h-108zM103 116l108 -42v25l-20 7v43
l20 8v26l-108 -44v-23zM103 196h108v66h-21v-42h-87v-24zM103 310h108v23h-41v38h-22v-38h-23v42h-22v-65zM103 519h108v23h-68l68 50v19h-108v-23h66l-66 -47v-22zM103 627h22v30h86v24h-86v30h-22v-84zM123 443c0 20 14 34 34 34s35 -14 35 -34c0 -19 -15 -34 -35 -34
s-34 15 -34 34zM124 -43v19c0 10 6 16 14 16c9 0 15 -6 15 -16v-19h-29zM131 128l39 14v-28z" />
    <glyph glyph-name="uni040A" unicode="&#x40a;" 
d="M125 -82v-30h86v-24h-86v-30h-22v84h22zM100 443c0 -33 25 -58 57 -58s57 25 57 58s-25 58 -57 58s-57 -25 -57 -58zM103 -66h108v23h-37v16l37 21v26l-41 -24c-6 12 -17 20 -31 20c-21 0 -36 -16 -36 -38v-44zM103 36v24h108v-24h-108zM103 116l108 -42v25l-20 7v43
l20 8v26l-108 -44v-23zM103 196h108v66h-21v-42h-87v-24zM103 310h108v23h-41v38h-22v-38h-23v42h-22v-65zM103 519h108v23h-68l68 50v19h-108v-23h66l-66 -47v-22zM103 627h22v30h86v24h-86v30h-22v-84zM123 443c0 20 14 34 34 34s35 -14 35 -34c0 -19 -15 -34 -35 -34
s-34 15 -34 34zM124 -43v19c0 10 6 16 14 16c9 0 15 -6 15 -16v-19h-29zM131 128l39 14v-28z" />
    <glyph glyph-name="uni0405" unicode="&#x405;" 
d="M125 -82v-30h86v-24h-86v-30h-22v84h22zM100 443c0 -33 25 -58 57 -58s57 25 57 58s-25 58 -57 58s-57 -25 -57 -58zM103 -66h108v23h-37v16l37 21v26l-41 -24c-6 12 -17 20 -31 20c-21 0 -36 -16 -36 -38v-44zM103 36v24h108v-24h-108zM103 116l108 -42v25l-20 7v43
l20 8v26l-108 -44v-23zM103 196h108v66h-21v-42h-87v-24zM103 310h108v23h-41v38h-22v-38h-23v42h-22v-65zM103 519h108v23h-68l68 50v19h-108v-23h66l-66 -47v-22zM103 627h22v30h86v24h-86v30h-22v-84zM123 443c0 20 14 34 34 34s35 -14 35 -34c0 -19 -15 -34 -35 -34
s-34 15 -34 34zM124 -43v19c0 10 6 16 14 16c9 0 15 -6 15 -16v-19h-29zM131 128l39 14v-28z" />
    <glyph glyph-name="uni0404" unicode="&#x404;" 
d="M125 -82v-30h86v-24h-86v-30h-22v84h22zM100 443c0 -33 25 -58 57 -58s57 25 57 58s-25 58 -57 58s-57 -25 -57 -58zM103 -66h108v23h-37v16l37 21v26l-41 -24c-6 12 -17 20 -31 20c-21 0 -36 -16 -36 -38v-44zM103 36v24h108v-24h-108zM103 116l108 -42v25l-20 7v43
l20 8v26l-108 -44v-23zM103 196h108v66h-21v-42h-87v-24zM103 310h108v23h-41v38h-22v-38h-23v42h-22v-65zM103 519h108v23h-68l68 50v19h-108v-23h66l-66 -47v-22zM103 627h22v30h86v24h-86v30h-22v-84zM123 443c0 20 14 34 34 34s35 -14 35 -34c0 -19 -15 -34 -35 -34
s-34 15 -34 34zM124 -43v19c0 10 6 16 14 16c9 0 15 -6 15 -16v-19h-29zM131 128l39 14v-28z" />
    <glyph glyph-name="uni042D" unicode="&#x42d;" horiz-adv-x="655" 
d="M242 -12c-70 0 -140 17 -197 47v87c52 -37 118 -54 185 -54c140 0 283 67 295 242h-365v80h364c-16 169 -154 242 -292 242c-66 0 -137 -17 -187 -51v84c58 31 128 47 199 47c180 0 366 -118 366 -369c0 -247 -187 -355 -368 -355z" />
    <glyph glyph-name="uni0406" unicode="&#x406;" 
d="M125 -82v-30h86v-24h-86v-30h-22v84h22zM100 443c0 -33 25 -58 57 -58s57 25 57 58s-25 58 -57 58s-57 -25 -57 -58zM103 -66h108v23h-37v16l37 21v26l-41 -24c-6 12 -17 20 -31 20c-21 0 -36 -16 -36 -38v-44zM103 36v24h108v-24h-108zM103 116l108 -42v25l-20 7v43
l20 8v26l-108 -44v-23zM103 196h108v66h-21v-42h-87v-24zM103 310h108v23h-41v38h-22v-38h-23v42h-22v-65zM103 519h108v23h-68l68 50v19h-108v-23h66l-66 -47v-22zM103 627h22v30h86v24h-86v30h-22v-84zM123 443c0 20 14 34 34 34s35 -14 35 -34c0 -19 -15 -34 -35 -34
s-34 15 -34 34zM124 -43v19c0 10 6 16 14 16c9 0 15 -6 15 -16v-19h-29zM131 128l39 14v-28z" />
    <glyph glyph-name="uni0407" unicode="&#x407;" 
d="M125 -82v-30h86v-24h-86v-30h-22v84h22zM100 443c0 -33 25 -58 57 -58s57 25 57 58s-25 58 -57 58s-57 -25 -57 -58zM103 -66h108v23h-37v16l37 21v26l-41 -24c-6 12 -17 20 -31 20c-21 0 -36 -16 -36 -38v-44zM103 36v24h108v-24h-108zM103 116l108 -42v25l-20 7v43
l20 8v26l-108 -44v-23zM103 196h108v66h-21v-42h-87v-24zM103 310h108v23h-41v38h-22v-38h-23v42h-22v-65zM103 519h108v23h-68l68 50v19h-108v-23h66l-66 -47v-22zM103 627h22v30h86v24h-86v30h-22v-84zM123 443c0 20 14 34 34 34s35 -14 35 -34c0 -19 -15 -34 -35 -34
s-34 15 -34 34zM124 -43v19c0 10 6 16 14 16c9 0 15 -6 15 -16v-19h-29zM131 128l39 14v-28z" />
    <glyph glyph-name="uni0408" unicode="&#x408;" 
d="M125 -82v-30h86v-24h-86v-30h-22v84h22zM100 443c0 -33 25 -58 57 -58s57 25 57 58s-25 58 -57 58s-57 -25 -57 -58zM103 -66h108v23h-37v16l37 21v26l-41 -24c-6 12 -17 20 -31 20c-21 0 -36 -16 -36 -38v-44zM103 36v24h108v-24h-108zM103 116l108 -42v25l-20 7v43
l20 8v26l-108 -44v-23zM103 196h108v66h-21v-42h-87v-24zM103 310h108v23h-41v38h-22v-38h-23v42h-22v-65zM103 519h108v23h-68l68 50v19h-108v-23h66l-66 -47v-22zM103 627h22v30h86v24h-86v30h-22v-84zM123 443c0 20 14 34 34 34s35 -14 35 -34c0 -19 -15 -34 -35 -34
s-34 15 -34 34zM124 -43v19c0 10 6 16 14 16c9 0 15 -6 15 -16v-19h-29zM131 128l39 14v-28z" />
    <glyph glyph-name="uni040B" unicode="&#x40b;" 
d="M125 -82v-30h86v-24h-86v-30h-22v84h22zM100 443c0 -33 25 -58 57 -58s57 25 57 58s-25 58 -57 58s-57 -25 -57 -58zM103 -66h108v23h-37v16l37 21v26l-41 -24c-6 12 -17 20 -31 20c-21 0 -36 -16 -36 -38v-44zM103 36v24h108v-24h-108zM103 116l108 -42v25l-20 7v43
l20 8v26l-108 -44v-23zM103 196h108v66h-21v-42h-87v-24zM103 310h108v23h-41v38h-22v-38h-23v42h-22v-65zM103 519h108v23h-68l68 50v19h-108v-23h66l-66 -47v-22zM103 627h22v30h86v24h-86v30h-22v-84zM123 443c0 20 14 34 34 34s35 -14 35 -34c0 -19 -15 -34 -35 -34
s-34 15 -34 34zM124 -43v19c0 10 6 16 14 16c9 0 15 -6 15 -16v-19h-29zM131 128l39 14v-28z" />
    <glyph glyph-name="uni042E" unicode="&#x42e;" horiz-adv-x="1091" 
d="M680 -12c-227 0 -347 155 -364 322h-140v-310h-84v700h84v-310h140c17 167 137 322 364 322c245 0 366 -181 366 -362s-121 -362 -366 -362zM399 350c0 -144 91 -282 281 -282s281 138 281 282s-91 282 -281 282s-281 -138 -281 -282z" />
    <glyph glyph-name="uni042F" unicode="&#x42f;" horiz-adv-x="685" 
d="M509 0v256h-181l-198 -256h-102l206 265c-103 26 -176 103 -176 213c0 155 130 222 271 222h264v-700h-84zM145 478c0 -100 81 -142 181 -142h183v284h-183c-100 0 -181 -42 -181 -142z" />
    <glyph glyph-name="uni0402" unicode="&#x402;" 
d="M125 -82v-30h86v-24h-86v-30h-22v84h22zM100 443c0 -33 25 -58 57 -58s57 25 57 58s-25 58 -57 58s-57 -25 -57 -58zM103 -66h108v23h-37v16l37 21v26l-41 -24c-6 12 -17 20 -31 20c-21 0 -36 -16 -36 -38v-44zM103 36v24h108v-24h-108zM103 116l108 -42v25l-20 7v43
l20 8v26l-108 -44v-23zM103 196h108v66h-21v-42h-87v-24zM103 310h108v23h-41v38h-22v-38h-23v42h-22v-65zM103 519h108v23h-68l68 50v19h-108v-23h66l-66 -47v-22zM103 627h22v30h86v24h-86v30h-22v-84zM123 443c0 20 14 34 34 34s35 -14 35 -34c0 -19 -15 -34 -35 -34
s-34 15 -34 34zM124 -43v19c0 10 6 16 14 16c9 0 15 -6 15 -16v-19h-29zM131 128l39 14v-28z" />
    <glyph glyph-name="uni0414.loclBGR" horiz-adv-x="787" 
d="M26 -165v245h76l245 620h93l246 -620h75v-245h-80v165h-575v-165h-80zM191 80h405l-202 525z" />
    <glyph glyph-name="uni041B.loclBGR" horiz-adv-x="689" 
d="M301 700h87l290 -700h-90l-244 606l-243 -606h-90z" />
    <glyph glyph-name="uni0424.loclBGR" horiz-adv-x="906" 
d="M411 -5c-228 10 -366 160 -366 355s138 345 366 355v95h84v-95c228 -10 366 -160 366 -355s-138 -345 -366 -355v-95h-84v95zM130 350c0 -142 91 -264 281 -275v550c-190 -11 -281 -133 -281 -275zM495 75c190 11 281 133 281 275s-91 264 -281 275v-550z" />
    <glyph glyph-name="uni0414.ss02" 
d="M125 -82v-30h86v-24h-86v-30h-22v84h22zM100 443c0 -33 25 -58 57 -58s57 25 57 58s-25 58 -57 58s-57 -25 -57 -58zM103 -66h108v23h-37v16l37 21v26l-41 -24c-6 12 -17 20 -31 20c-21 0 -36 -16 -36 -38v-44zM103 36v24h108v-24h-108zM103 116l108 -42v25l-20 7v43
l20 8v26l-108 -44v-23zM103 196h108v66h-21v-42h-87v-24zM103 310h108v23h-41v38h-22v-38h-23v42h-22v-65zM103 519h108v23h-68l68 50v19h-108v-23h66l-66 -47v-22zM103 627h22v30h86v24h-86v30h-22v-84zM123 443c0 20 14 34 34 34s35 -14 35 -34c0 -19 -15 -34 -35 -34
s-34 15 -34 34zM124 -43v19c0 10 6 16 14 16c9 0 15 -6 15 -16v-19h-29zM131 128l39 14v-28z" />
    <glyph glyph-name="uni041B.ss02" 
d="M125 -82v-30h86v-24h-86v-30h-22v84h22zM100 443c0 -33 25 -58 57 -58s57 25 57 58s-25 58 -57 58s-57 -25 -57 -58zM103 -66h108v23h-37v16l37 21v26l-41 -24c-6 12 -17 20 -31 20c-21 0 -36 -16 -36 -38v-44zM103 36v24h108v-24h-108zM103 116l108 -42v25l-20 7v43
l20 8v26l-108 -44v-23zM103 196h108v66h-21v-42h-87v-24zM103 310h108v23h-41v38h-22v-38h-23v42h-22v-65zM103 519h108v23h-68l68 50v19h-108v-23h66l-66 -47v-22zM103 627h22v30h86v24h-86v30h-22v-84zM123 443c0 20 14 34 34 34s35 -14 35 -34c0 -19 -15 -34 -35 -34
s-34 15 -34 34zM124 -43v19c0 10 6 16 14 16c9 0 15 -6 15 -16v-19h-29zM131 128l39 14v-28z" />
    <glyph glyph-name="uni0424.ss02" 
d="M125 -82v-30h86v-24h-86v-30h-22v84h22zM100 443c0 -33 25 -58 57 -58s57 25 57 58s-25 58 -57 58s-57 -25 -57 -58zM103 -66h108v23h-37v16l37 21v26l-41 -24c-6 12 -17 20 -31 20c-21 0 -36 -16 -36 -38v-44zM103 36v24h108v-24h-108zM103 116l108 -42v25l-20 7v43
l20 8v26l-108 -44v-23zM103 196h108v66h-21v-42h-87v-24zM103 310h108v23h-41v38h-22v-38h-23v42h-22v-65zM103 519h108v23h-68l68 50v19h-108v-23h66l-66 -47v-22zM103 627h22v30h86v24h-86v30h-22v-84zM123 443c0 20 14 34 34 34s35 -14 35 -34c0 -19 -15 -34 -35 -34
s-34 15 -34 34zM124 -43v19c0 10 6 16 14 16c9 0 15 -6 15 -16v-19h-29zM131 128l39 14v-28z" />
    <glyph glyph-name="uni0430" unicode="&#x430;" horiz-adv-x="544" 
d="M203 -12c-85 0 -169 45 -169 146c0 124 114 162 217 162c42 0 93 -6 133 -15v17c0 72 -49 120 -137 120c-74 0 -133 -18 -175 -36v78c38 13 104 32 183 32c128 0 209 -70 209 -204v-188c0 -29 16 -37 37 -37c12 0 25 3 37 7v-65c-19 -7 -40 -11 -60 -11
c-38 0 -72 15 -87 55l-1 3c-48 -40 -109 -64 -187 -64zM116 138c0 -56 51 -81 104 -81c61 0 122 25 164 70v88c-34 7 -83 14 -122 14c-70 0 -146 -21 -146 -91z" />
    <glyph glyph-name="uni0431" unicode="&#x431;" horiz-adv-x="585" 
d="M298 -12c-145 0 -249 99 -249 281c0 161 62 272 148 326c138 85 233 49 303 117v-84c-69 -49 -146 -28 -256 -92c-67 -40 -94 -105 -114 -166c34 53 102 90 177 90c125 0 236 -91 236 -234c0 -150 -100 -238 -245 -238zM129 224c0 -91 66 -160 167 -160
c105 0 167 69 167 160s-62 160 -167 160c-100 0 -167 -79 -167 -160z" />
    <glyph glyph-name="uni0432" unicode="&#x432;" horiz-adv-x="548" 
d="M74 0v480h263c84 0 148 -45 148 -130c0 -50 -28 -90 -64 -106c39 -13 79 -51 79 -111c0 -79 -51 -133 -155 -133h-271zM154 70h180c50 0 86 15 86 68c0 57 -43 70 -83 70h-183v-138zM154 277h175c42 0 75 16 75 65c0 54 -41 68 -75 68h-175v-133z" />
    <glyph glyph-name="uni0433" unicode="&#x433;" horiz-adv-x="442" 
d="M74 0v480h351v-74h-271v-406h-80z" />
    <glyph glyph-name="uni0453" unicode="&#x453;" 
d="M125 -82v-30h86v-24h-86v-30h-22v84h22zM100 443c0 -33 25 -58 57 -58s57 25 57 58s-25 58 -57 58s-57 -25 -57 -58zM103 -66h108v23h-37v16l37 21v26l-41 -24c-6 12 -17 20 -31 20c-21 0 -36 -16 -36 -38v-44zM103 36v24h108v-24h-108zM103 116l108 -42v25l-20 7v43
l20 8v26l-108 -44v-23zM103 196h108v66h-21v-42h-87v-24zM103 310h108v23h-41v38h-22v-38h-23v42h-22v-65zM103 519h108v23h-68l68 50v19h-108v-23h66l-66 -47v-22zM103 627h22v30h86v24h-86v30h-22v-84zM123 443c0 20 14 34 34 34s35 -14 35 -34c0 -19 -15 -34 -35 -34
s-34 15 -34 34zM124 -43v19c0 10 6 16 14 16c9 0 15 -6 15 -16v-19h-29zM131 128l39 14v-28z" />
    <glyph glyph-name="uni0491" unicode="&#x491;" 
d="M125 -82v-30h86v-24h-86v-30h-22v84h22zM100 443c0 -33 25 -58 57 -58s57 25 57 58s-25 58 -57 58s-57 -25 -57 -58zM103 -66h108v23h-37v16l37 21v26l-41 -24c-6 12 -17 20 -31 20c-21 0 -36 -16 -36 -38v-44zM103 36v24h108v-24h-108zM103 116l108 -42v25l-20 7v43
l20 8v26l-108 -44v-23zM103 196h108v66h-21v-42h-87v-24zM103 310h108v23h-41v38h-22v-38h-23v42h-22v-65zM103 519h108v23h-68l68 50v19h-108v-23h66l-66 -47v-22zM103 627h22v30h86v24h-86v30h-22v-84zM123 443c0 20 14 34 34 34s35 -14 35 -34c0 -19 -15 -34 -35 -34
s-34 15 -34 34zM124 -43v19c0 10 6 16 14 16c9 0 15 -6 15 -16v-19h-29zM131 128l39 14v-28z" />
    <glyph glyph-name="uni0434" unicode="&#x434;" horiz-adv-x="633" 
d="M26 -130v202h64c60 106 84 229 82 408h358v-408h70v-202h-78v130h-418v-130h-78zM177 72h273v336h-201c-4 -144 -28 -244 -72 -336z" />
    <glyph glyph-name="uni0435" unicode="&#x435;" horiz-adv-x="548" 
d="M307 -12c-142 0 -266 81 -266 252c0 168 125 252 239 252c185 0 253 -151 223 -287h-382c10 -101 101 -143 198 -143c59 0 117 16 158 39v-78c-44 -23 -107 -35 -170 -35zM121 275h311c7 51 -25 143 -147 143c-82 0 -158 -49 -164 -143z" />
    <glyph glyph-name="uni0451" unicode="&#x451;" horiz-adv-x="546" 
d="M415 562c-30 0 -55 25 -55 55c0 29 25 55 55 55s55 -26 55 -55c0 -30 -25 -55 -55 -55zM41 240c0 168 125 252 239 252c185 0 253 -151 223 -287h-382c10 -101 101 -143 198 -143c59 0 117 16 158 39v-78c-44 -23 -107 -35 -170 -35c-142 0 -266 81 -266 252zM121 275
h311c7 51 -25 143 -147 143c-82 0 -158 -49 -164 -143zM158 617c0 29 25 55 55 55s55 -26 55 -55c0 -30 -25 -55 -55 -55s-55 25 -55 55z" />
    <glyph glyph-name="uni0436" unicode="&#x436;" horiz-adv-x="754" 
d="M7 0l191 241l-169 239h89l146 -205h73v205h80v-205h73l146 205h89l-169 -239l191 -241h-90l-163 201h-77v-201h-80v201h-77l-163 -201h-90z" />
    <glyph glyph-name="uni0437" unicode="&#x437;" horiz-adv-x="477" 
d="M217 -12c-68 0 -132 15 -177 37v76c41 -22 109 -39 167 -39c76 0 146 14 146 76c0 59 -58 69 -106 69h-105v74h105c54 0 96 16 96 62c0 53 -57 76 -132 76c-57 0 -119 -16 -163 -38v75c48 22 108 37 172 37c134 0 203 -55 203 -139c0 -58 -35 -96 -89 -108
c54 -14 99 -55 99 -117c0 -91 -83 -141 -216 -141z" />
    <glyph glyph-name="uni0438" unicode="&#x438;" horiz-adv-x="590" 
d="M74 0v480h80v-351l294 351h68v-480h-80v351l-294 -351h-68z" />
    <glyph glyph-name="uni0439" unicode="&#x439;" horiz-adv-x="592" 
d="M74 0v480h80v-351l294 351h68v-480h-80v351l-294 -351h-68zM155 596v72c50 -33 91 -44 140 -44s90 11 140 44v-72c-45 -32 -92 -42 -140 -42s-95 10 -140 42z" />
    <glyph glyph-name="uni045D" unicode="&#x45d;" 
d="M125 -82v-30h86v-24h-86v-30h-22v84h22zM100 443c0 -33 25 -58 57 -58s57 25 57 58s-25 58 -57 58s-57 -25 -57 -58zM103 -66h108v23h-37v16l37 21v26l-41 -24c-6 12 -17 20 -31 20c-21 0 -36 -16 -36 -38v-44zM103 36v24h108v-24h-108zM103 116l108 -42v25l-20 7v43
l20 8v26l-108 -44v-23zM103 196h108v66h-21v-42h-87v-24zM103 310h108v23h-41v38h-22v-38h-23v42h-22v-65zM103 519h108v23h-68l68 50v19h-108v-23h66l-66 -47v-22zM103 627h22v30h86v24h-86v30h-22v-84zM123 443c0 20 14 34 34 34s35 -14 35 -34c0 -19 -15 -34 -35 -34
s-34 15 -34 34zM124 -43v19c0 10 6 16 14 16c9 0 15 -6 15 -16v-19h-29zM131 128l39 14v-28z" />
    <glyph glyph-name="uni043A" unicode="&#x43a;" horiz-adv-x="526" 
d="M74 0v480h80v-200h97l152 200h93l-182 -239l204 -241h-94l-176 206h-94v-206h-80z" />
    <glyph glyph-name="uni045C" unicode="&#x45c;" 
d="M125 -82v-30h86v-24h-86v-30h-22v84h22zM100 443c0 -33 25 -58 57 -58s57 25 57 58s-25 58 -57 58s-57 -25 -57 -58zM103 -66h108v23h-37v16l37 21v26l-41 -24c-6 12 -17 20 -31 20c-21 0 -36 -16 -36 -38v-44zM103 36v24h108v-24h-108zM103 116l108 -42v25l-20 7v43
l20 8v26l-108 -44v-23zM103 196h108v66h-21v-42h-87v-24zM103 310h108v23h-41v38h-22v-38h-23v42h-22v-65zM103 519h108v23h-68l68 50v19h-108v-23h66l-66 -47v-22zM103 627h22v30h86v24h-86v30h-22v-84zM123 443c0 20 14 34 34 34s35 -14 35 -34c0 -19 -15 -34 -35 -34
s-34 15 -34 34zM124 -43v19c0 10 6 16 14 16c9 0 15 -6 15 -16v-19h-29zM131 128l39 14v-28z" />
    <glyph glyph-name="uni043B" unicode="&#x43b;" horiz-adv-x="593" 
d="M70 -8c-18 0 -37 3 -58 11v63c11 -4 22 -6 32 -6c85 0 113 162 122 420h353v-480h-80v406h-195c-16 -246 -50 -414 -174 -414z" />
    <glyph glyph-name="uni043C" unicode="&#x43c;" horiz-adv-x="672" 
d="M74 0v480h87l175 -266l175 266h87v-480h-76v362l-156 -237h-60l-156 237v-362h-76z" />
    <glyph glyph-name="uni043D" unicode="&#x43d;" horiz-adv-x="586" 
d="M74 0v480h80v-203h278v203h80v-480h-80v203h-278v-203h-80z" />
    <glyph glyph-name="uni043E" unicode="&#x43e;" horiz-adv-x="594" 
d="M297 -12c-130 0 -256 88 -256 252s126 252 256 252c131 0 256 -88 256 -252s-125 -252 -256 -252zM121 240c0 -111 78 -176 176 -176s176 65 176 176s-78 176 -176 176s-176 -65 -176 -176z" />
    <glyph glyph-name="uni043F" unicode="&#x43f;" horiz-adv-x="586" 
d="M74 0v480h438v-480h-80v406h-278v-406h-80z" />
    <glyph glyph-name="uni0440" unicode="&#x440;" horiz-adv-x="621" 
d="M74 -220v700h72v-80c43 49 102 92 194 92c137 0 240 -108 240 -252s-103 -252 -240 -252c-92 0 -151 43 -186 84v-292h-80zM154 180c27 -62 91 -118 177 -118c93 0 169 68 169 178s-76 178 -169 178c-86 0 -150 -56 -177 -118v-120z" />
    <glyph glyph-name="uni0441" unicode="&#x441;" horiz-adv-x="493" 
d="M298 -12c-126 0 -257 79 -257 250c0 175 135 254 260 254c54 0 107 -12 148 -39v-78c-36 28 -87 43 -138 43c-93 0 -190 -52 -190 -178c0 -123 94 -178 188 -178c52 0 105 15 145 39v-80c-45 -22 -96 -33 -156 -33z" />
    <glyph glyph-name="uni0442" unicode="&#x442;" horiz-adv-x="467" 
d="M194 0v406h-177v74h433v-74h-176v-406h-80z" />
    <glyph glyph-name="uni0443" unicode="&#x443;" horiz-adv-x="538" 
d="M106 -232c-17 0 -34 2 -52 7v69c14 -4 28 -6 42 -6c54 0 93 39 124 117l18 44l-228 481h85l181 -389l162 389h85l-236 -552c-50 -116 -111 -160 -181 -160z" />
    <glyph glyph-name="uni045E" unicode="&#x45e;" 
d="M125 -82v-30h86v-24h-86v-30h-22v84h22zM100 443c0 -33 25 -58 57 -58s57 25 57 58s-25 58 -57 58s-57 -25 -57 -58zM103 -66h108v23h-37v16l37 21v26l-41 -24c-6 12 -17 20 -31 20c-21 0 -36 -16 -36 -38v-44zM103 36v24h108v-24h-108zM103 116l108 -42v25l-20 7v43
l20 8v26l-108 -44v-23zM103 196h108v66h-21v-42h-87v-24zM103 310h108v23h-41v38h-22v-38h-23v42h-22v-65zM103 519h108v23h-68l68 50v19h-108v-23h66l-66 -47v-22zM103 627h22v30h86v24h-86v30h-22v-84zM123 443c0 20 14 34 34 34s35 -14 35 -34c0 -19 -15 -34 -35 -34
s-34 15 -34 34zM124 -43v19c0 10 6 16 14 16c9 0 15 -6 15 -16v-19h-29zM131 128l39 14v-28z" />
    <glyph glyph-name="uni0444" unicode="&#x444;" horiz-adv-x="722" 
d="M321 -12c-159 4 -281 100 -281 252s122 248 281 252v208h80v-208c159 -4 281 -100 281 -252s-122 -248 -281 -252v-208h-80v208zM120 240c0 -110 80 -178 201 -182v364c-121 -4 -201 -72 -201 -182zM401 58c121 4 201 72 201 182s-80 178 -201 182v-364z" />
    <glyph glyph-name="uni0445" unicode="&#x445;" horiz-adv-x="489" 
d="M12 0l187 247l-177 233h92l131 -177l130 177h92l-176 -233l186 -247h-92l-140 190l-141 -190h-92z" />
    <glyph glyph-name="uni0447" unicode="&#x447;" horiz-adv-x="523" 
d="M369 167c-44 -17 -83 -25 -143 -25c-110 0 -185 54 -185 172v166h80v-160c0 -81 49 -104 129 -104c48 0 82 6 119 21v243h80v-480h-80v167z" />
    <glyph glyph-name="uni0446" unicode="&#x446;" horiz-adv-x="601" 
d="M490 -130v130h-416v480h80v-406h263v406h80v-406h71v-204h-78z" />
    <glyph glyph-name="uni0448" unicode="&#x448;" horiz-adv-x="818" 
d="M74 0v480h80v-406h215v406h80v-406h215v406h80v-480h-670z" />
    <glyph glyph-name="uni0449" unicode="&#x449;" horiz-adv-x="847" 
d="M736 -130v130h-662v480h80v-406h215v406h80v-406h215v406h80v-406h70v-204h-78z" />
    <glyph glyph-name="uni045F" unicode="&#x45f;" 
d="M125 -82v-30h86v-24h-86v-30h-22v84h22zM100 443c0 -33 25 -58 57 -58s57 25 57 58s-25 58 -57 58s-57 -25 -57 -58zM103 -66h108v23h-37v16l37 21v26l-41 -24c-6 12 -17 20 -31 20c-21 0 -36 -16 -36 -38v-44zM103 36v24h108v-24h-108zM103 116l108 -42v25l-20 7v43
l20 8v26l-108 -44v-23zM103 196h108v66h-21v-42h-87v-24zM103 310h108v23h-41v38h-22v-38h-23v42h-22v-65zM103 519h108v23h-68l68 50v19h-108v-23h66l-66 -47v-22zM103 627h22v30h86v24h-86v30h-22v-84zM123 443c0 20 14 34 34 34s35 -14 35 -34c0 -19 -15 -34 -35 -34
s-34 15 -34 34zM124 -43v19c0 10 6 16 14 16c9 0 15 -6 15 -16v-19h-29zM131 128l39 14v-28z" />
    <glyph glyph-name="uni044C" unicode="&#x44c;" horiz-adv-x="517" 
d="M74 0v480h80v-168h148c117 0 186 -67 186 -156s-69 -156 -186 -156h-228zM154 72h138c70 0 115 27 115 84s-45 84 -115 84h-138v-168z" />
    <glyph glyph-name="uni044B" unicode="&#x44b;" horiz-adv-x="735" 
d="M74 0v480h80v-168h148c117 0 186 -67 186 -156s-69 -156 -186 -156h-228zM154 72h138c70 0 115 27 115 84s-45 84 -115 84h-138v-168zM581 0v480h80v-480h-80z" />
    <glyph glyph-name="uni044A" unicode="&#x44a;" horiz-adv-x="592" 
d="M149 0v410h-131v70h211v-168h148c117 0 186 -67 186 -156s-69 -156 -186 -156h-228zM229 72h138c70 0 115 27 115 84s-45 84 -115 84h-138v-168z" />
    <glyph glyph-name="uni0459" unicode="&#x459;" 
d="M125 -82v-30h86v-24h-86v-30h-22v84h22zM100 443c0 -33 25 -58 57 -58s57 25 57 58s-25 58 -57 58s-57 -25 -57 -58zM103 -66h108v23h-37v16l37 21v26l-41 -24c-6 12 -17 20 -31 20c-21 0 -36 -16 -36 -38v-44zM103 36v24h108v-24h-108zM103 116l108 -42v25l-20 7v43
l20 8v26l-108 -44v-23zM103 196h108v66h-21v-42h-87v-24zM103 310h108v23h-41v38h-22v-38h-23v42h-22v-65zM103 519h108v23h-68l68 50v19h-108v-23h66l-66 -47v-22zM103 627h22v30h86v24h-86v30h-22v-84zM123 443c0 20 14 34 34 34s35 -14 35 -34c0 -19 -15 -34 -35 -34
s-34 15 -34 34zM124 -43v19c0 10 6 16 14 16c9 0 15 -6 15 -16v-19h-29zM131 128l39 14v-28z" />
    <glyph glyph-name="uni045A" unicode="&#x45a;" 
d="M125 -82v-30h86v-24h-86v-30h-22v84h22zM100 443c0 -33 25 -58 57 -58s57 25 57 58s-25 58 -57 58s-57 -25 -57 -58zM103 -66h108v23h-37v16l37 21v26l-41 -24c-6 12 -17 20 -31 20c-21 0 -36 -16 -36 -38v-44zM103 36v24h108v-24h-108zM103 116l108 -42v25l-20 7v43
l20 8v26l-108 -44v-23zM103 196h108v66h-21v-42h-87v-24zM103 310h108v23h-41v38h-22v-38h-23v42h-22v-65zM103 519h108v23h-68l68 50v19h-108v-23h66l-66 -47v-22zM103 627h22v30h86v24h-86v30h-22v-84zM123 443c0 20 14 34 34 34s35 -14 35 -34c0 -19 -15 -34 -35 -34
s-34 15 -34 34zM124 -43v19c0 10 6 16 14 16c9 0 15 -6 15 -16v-19h-29zM131 128l39 14v-28z" />
    <glyph glyph-name="uni0455" unicode="&#x455;" 
d="M125 -82v-30h86v-24h-86v-30h-22v84h22zM100 443c0 -33 25 -58 57 -58s57 25 57 58s-25 58 -57 58s-57 -25 -57 -58zM103 -66h108v23h-37v16l37 21v26l-41 -24c-6 12 -17 20 -31 20c-21 0 -36 -16 -36 -38v-44zM103 36v24h108v-24h-108zM103 116l108 -42v25l-20 7v43
l20 8v26l-108 -44v-23zM103 196h108v66h-21v-42h-87v-24zM103 310h108v23h-41v38h-22v-38h-23v42h-22v-65zM103 519h108v23h-68l68 50v19h-108v-23h66l-66 -47v-22zM103 627h22v30h86v24h-86v30h-22v-84zM123 443c0 20 14 34 34 34s35 -14 35 -34c0 -19 -15 -34 -35 -34
s-34 15 -34 34zM124 -43v19c0 10 6 16 14 16c9 0 15 -6 15 -16v-19h-29zM131 128l39 14v-28z" />
    <glyph glyph-name="uni0454" unicode="&#x454;" 
d="M125 -82v-30h86v-24h-86v-30h-22v84h22zM100 443c0 -33 25 -58 57 -58s57 25 57 58s-25 58 -57 58s-57 -25 -57 -58zM103 -66h108v23h-37v16l37 21v26l-41 -24c-6 12 -17 20 -31 20c-21 0 -36 -16 -36 -38v-44zM103 36v24h108v-24h-108zM103 116l108 -42v25l-20 7v43
l20 8v26l-108 -44v-23zM103 196h108v66h-21v-42h-87v-24zM103 310h108v23h-41v38h-22v-38h-23v42h-22v-65zM103 519h108v23h-68l68 50v19h-108v-23h66l-66 -47v-22zM103 627h22v30h86v24h-86v30h-22v-84zM123 443c0 20 14 34 34 34s35 -14 35 -34c0 -19 -15 -34 -35 -34
s-34 15 -34 34zM124 -43v19c0 10 6 16 14 16c9 0 15 -6 15 -16v-19h-29zM131 128l39 14v-28z" />
    <glyph glyph-name="uni044D" unicode="&#x44d;" horiz-adv-x="504" 
d="M212 -12c-69 0 -119 14 -171 42v75c44 -27 100 -43 155 -43c93 0 177 32 185 141h-248v74h248c-12 105 -101 141 -193 141c-48 0 -102 -16 -142 -43v74c44 28 96 43 151 43c130 0 266 -77 266 -259c0 -175 -132 -245 -251 -245z" />
    <glyph glyph-name="uni0456" unicode="&#x456;" 
d="M125 -82v-30h86v-24h-86v-30h-22v84h22zM100 443c0 -33 25 -58 57 -58s57 25 57 58s-25 58 -57 58s-57 -25 -57 -58zM103 -66h108v23h-37v16l37 21v26l-41 -24c-6 12 -17 20 -31 20c-21 0 -36 -16 -36 -38v-44zM103 36v24h108v-24h-108zM103 116l108 -42v25l-20 7v43
l20 8v26l-108 -44v-23zM103 196h108v66h-21v-42h-87v-24zM103 310h108v23h-41v38h-22v-38h-23v42h-22v-65zM103 519h108v23h-68l68 50v19h-108v-23h66l-66 -47v-22zM103 627h22v30h86v24h-86v30h-22v-84zM123 443c0 20 14 34 34 34s35 -14 35 -34c0 -19 -15 -34 -35 -34
s-34 15 -34 34zM124 -43v19c0 10 6 16 14 16c9 0 15 -6 15 -16v-19h-29zM131 128l39 14v-28z" />
    <glyph glyph-name="uni0457" unicode="&#x457;" 
d="M125 -82v-30h86v-24h-86v-30h-22v84h22zM100 443c0 -33 25 -58 57 -58s57 25 57 58s-25 58 -57 58s-57 -25 -57 -58zM103 -66h108v23h-37v16l37 21v26l-41 -24c-6 12 -17 20 -31 20c-21 0 -36 -16 -36 -38v-44zM103 36v24h108v-24h-108zM103 116l108 -42v25l-20 7v43
l20 8v26l-108 -44v-23zM103 196h108v66h-21v-42h-87v-24zM103 310h108v23h-41v38h-22v-38h-23v42h-22v-65zM103 519h108v23h-68l68 50v19h-108v-23h66l-66 -47v-22zM103 627h22v30h86v24h-86v30h-22v-84zM123 443c0 20 14 34 34 34s35 -14 35 -34c0 -19 -15 -34 -35 -34
s-34 15 -34 34zM124 -43v19c0 10 6 16 14 16c9 0 15 -6 15 -16v-19h-29zM131 128l39 14v-28z" />
    <glyph glyph-name="uni0458" unicode="&#x458;" 
d="M125 -82v-30h86v-24h-86v-30h-22v84h22zM100 443c0 -33 25 -58 57 -58s57 25 57 58s-25 58 -57 58s-57 -25 -57 -58zM103 -66h108v23h-37v16l37 21v26l-41 -24c-6 12 -17 20 -31 20c-21 0 -36 -16 -36 -38v-44zM103 36v24h108v-24h-108zM103 116l108 -42v25l-20 7v43
l20 8v26l-108 -44v-23zM103 196h108v66h-21v-42h-87v-24zM103 310h108v23h-41v38h-22v-38h-23v42h-22v-65zM103 519h108v23h-68l68 50v19h-108v-23h66l-66 -47v-22zM103 627h22v30h86v24h-86v30h-22v-84zM123 443c0 20 14 34 34 34s35 -14 35 -34c0 -19 -15 -34 -35 -34
s-34 15 -34 34zM124 -43v19c0 10 6 16 14 16c9 0 15 -6 15 -16v-19h-29zM131 128l39 14v-28z" />
    <glyph glyph-name="uni045B" unicode="&#x45b;" 
d="M125 -82v-30h86v-24h-86v-30h-22v84h22zM100 443c0 -33 25 -58 57 -58s57 25 57 58s-25 58 -57 58s-57 -25 -57 -58zM103 -66h108v23h-37v16l37 21v26l-41 -24c-6 12 -17 20 -31 20c-21 0 -36 -16 -36 -38v-44zM103 36v24h108v-24h-108zM103 116l108 -42v25l-20 7v43
l20 8v26l-108 -44v-23zM103 196h108v66h-21v-42h-87v-24zM103 310h108v23h-41v38h-22v-38h-23v42h-22v-65zM103 519h108v23h-68l68 50v19h-108v-23h66l-66 -47v-22zM103 627h22v30h86v24h-86v30h-22v-84zM123 443c0 20 14 34 34 34s35 -14 35 -34c0 -19 -15 -34 -35 -34
s-34 15 -34 34zM124 -43v19c0 10 6 16 14 16c9 0 15 -6 15 -16v-19h-29zM131 128l39 14v-28z" />
    <glyph glyph-name="uni044E" unicode="&#x44e;" horiz-adv-x="823" 
d="M526 -12c-120 0 -237 76 -254 215h-118v-203h-80v480h80v-203h118c17 139 134 215 254 215c131 0 256 -88 256 -252s-125 -252 -256 -252zM350 240c0 -111 78 -176 176 -176s176 65 176 176s-78 176 -176 176s-176 -65 -176 -176z" />
    <glyph glyph-name="uni044F" unicode="&#x44f;" horiz-adv-x="542" 
d="M388 0v168h-135l-131 -168h-94l139 176c-80 22 -115 89 -115 148c0 84 63 156 180 156h236v-480h-80zM132 324c0 -53 40 -84 107 -84h149v168h-149c-67 0 -107 -31 -107 -84z" />
    <glyph glyph-name="uni0452" unicode="&#x452;" 
d="M125 -82v-30h86v-24h-86v-30h-22v84h22zM100 443c0 -33 25 -58 57 -58s57 25 57 58s-25 58 -57 58s-57 -25 -57 -58zM103 -66h108v23h-37v16l37 21v26l-41 -24c-6 12 -17 20 -31 20c-21 0 -36 -16 -36 -38v-44zM103 36v24h108v-24h-108zM103 116l108 -42v25l-20 7v43
l20 8v26l-108 -44v-23zM103 196h108v66h-21v-42h-87v-24zM103 310h108v23h-41v38h-22v-38h-23v42h-22v-65zM103 519h108v23h-68l68 50v19h-108v-23h66l-66 -47v-22zM103 627h22v30h86v24h-86v30h-22v-84zM123 443c0 20 14 34 34 34s35 -14 35 -34c0 -19 -15 -34 -35 -34
s-34 15 -34 34zM124 -43v19c0 10 6 16 14 16c9 0 15 -6 15 -16v-19h-29zM131 128l39 14v-28z" />
    <glyph glyph-name="uni0432.loclBGR" horiz-adv-x="580" 
d="M306 -12c-137 0 -243 87 -243 266v143c0 195 84 315 242 315c116 0 187 -77 187 -167c0 -56 -21 -110 -99 -149c89 -20 147 -93 147 -191c0 -119 -93 -217 -234 -217zM143 390l145 26c97 17 124 76 124 124c0 45 -36 98 -107 98c-96 0 -162 -69 -162 -241v-7zM144 317
v-63c1 -135 65 -192 162 -192s154 59 154 143c0 92 -60 157 -169 138z" />
    <glyph glyph-name="uni0433.loclBGR" horiz-adv-x="478" 
d="M244 -12c-114 0 -208 35 -208 141c0 187 315 103 315 225c0 49 -55 64 -112 64c-61 0 -125 -17 -175 -43v76c50 24 111 41 180 41c95 0 188 -39 188 -140c0 -190 -316 -110 -316 -225c0 -54 54 -65 132 -65c60 0 133 18 182 51v-78c-45 -29 -118 -47 -186 -47z" />
    <glyph glyph-name="uni0434.loclBGR" horiz-adv-x="621" 
d="M285 -232c-71 0 -138 16 -195 45v78c57 -32 119 -49 185 -49c102 0 193 39 192 158v74c-35 -43 -94 -86 -186 -86c-137 0 -240 108 -240 252s103 252 240 252c92 0 151 -43 194 -92v80h72v-480c0 -165 -129 -232 -262 -232zM121 240c0 -110 76 -178 169 -178
c86 0 150 52 177 108v130c-27 62 -91 118 -177 118c-93 0 -169 -68 -169 -178z" />
    <glyph glyph-name="uni0436.loclBGR" horiz-adv-x="754" 
d="M7 0l191 241l-169 239h89l146 -205h73v425h80v-425h73l146 205h89l-169 -239l191 -241h-90l-163 201h-77v-201h-80v201h-77l-163 -201h-90z" />
    <glyph glyph-name="uni0438.loclBGR" horiz-adv-x="587" 
d="M268 -12c-125 0 -200 79 -200 196v296h80v-286c0 -90 45 -132 129 -132c71 0 124 48 156 96v322h80v-480h-72v71c-32 -42 -96 -83 -173 -83z" />
    <glyph glyph-name="uni0439.loclBGR" horiz-adv-x="587" 
d="M268 -12c-125 0 -200 79 -200 196v296h80v-286c0 -90 45 -132 129 -132c71 0 124 48 156 96v322h80v-480h-72v71c-32 -42 -96 -83 -173 -83zM153 596v72c50 -33 91 -44 140 -44s90 11 140 44v-72c-45 -32 -92 -42 -140 -42s-95 10 -140 42z" />
    <glyph glyph-name="uni045D.loclBGR" horiz-adv-x="587" 
d="M268 -12c-125 0 -200 79 -200 196v296h80v-286c0 -90 45 -132 129 -132c71 0 124 48 156 96v322h80v-480h-72v71c-32 -42 -96 -83 -173 -83zM167 697h100l91 -147h-87z" />
    <glyph glyph-name="uni043A.loclBGR" horiz-adv-x="521" 
d="M74 0v700h80v-422h67l182 202h93l-207 -235l229 -245h-94l-206 208h-64v-208h-80z" />
    <glyph glyph-name="uni043B.loclBGR" horiz-adv-x="536" 
d="M226 480h84l212 -480h-89l-165 390l-165 -390h-89z" />
    <glyph glyph-name="uni043F.loclBGR" horiz-adv-x="587" 
d="M74 0v480h72v-71c32 42 96 83 173 83c115 0 200 -79 200 -196v-296h-80v286c0 90 -55 132 -129 132c-71 0 -124 -48 -156 -96v-322h-80z" />
    <glyph glyph-name="uni0442.loclBGR" horiz-adv-x="890" 
d="M74 0v480h72v-64c26 28 83 76 164 76c72 0 125 -31 154 -81c43 44 102 81 175 81c119 0 183 -84 183 -196v-296h-80v298c0 73 -42 120 -112 120c-65 0 -113 -45 -140 -79c2 -14 3 -28 3 -43v-296h-80v298c0 73 -42 120 -112 120c-71 0 -121 -53 -147 -87v-331h-80z" />
    <glyph glyph-name="uni0446.loclBGR" horiz-adv-x="615" 
d="M509 -5c-35 5 -64 25 -73 70c-33 -40 -95 -77 -168 -77c-125 0 -200 79 -200 196v296h80v-286c0 -90 45 -132 129 -132c71 0 124 48 156 96v322h80v-380c0 -29 16 -37 37 -37h33v-193h-74v125z" />
    <glyph glyph-name="uni0448.loclBGR" horiz-adv-x="890" 
d="M816 480v-480h-72v64c-26 -28 -83 -76 -164 -76c-72 0 -125 31 -154 81c-43 -44 -102 -81 -175 -81c-119 0 -183 84 -183 196v296h80v-298c0 -73 42 -120 112 -120c65 0 113 45 140 79c-2 14 -3 28 -3 43v296h80v-298c0 -73 42 -120 112 -120c71 0 121 53 147 87v331h80z
" />
    <glyph glyph-name="uni0449.loclBGR" horiz-adv-x="918" 
d="M812 -5c-34 5 -62 24 -72 65c-29 -29 -83 -72 -160 -72c-72 0 -125 31 -154 81c-43 -44 -102 -81 -175 -81c-119 0 -183 84 -183 196v296h80v-298c0 -73 42 -120 112 -120c65 0 113 45 140 79c-2 14 -3 28 -3 43v296h80v-298c0 -73 42 -120 112 -120c71 0 121 53 147 87
v331h80v-380c0 -29 16 -37 37 -37h33v-193h-74v125z" />
    <glyph glyph-name="uni044E.loclBGR" 
d="M125 -82v-30h86v-24h-86v-30h-22v84h22zM100 443c0 -33 25 -58 57 -58s57 25 57 58s-25 58 -57 58s-57 -25 -57 -58zM103 -66h108v23h-37v16l37 21v26l-41 -24c-6 12 -17 20 -31 20c-21 0 -36 -16 -36 -38v-44zM103 36v24h108v-24h-108zM103 116l108 -42v25l-20 7v43
l20 8v26l-108 -44v-23zM103 196h108v66h-21v-42h-87v-24zM103 310h108v23h-41v38h-22v-38h-23v42h-22v-65zM103 519h108v23h-68l68 50v19h-108v-23h66l-66 -47v-22zM103 627h22v30h86v24h-86v30h-22v-84zM123 443c0 20 14 34 34 34s35 -14 35 -34c0 -19 -15 -34 -35 -34
s-34 15 -34 34zM124 -43v19c0 10 6 16 14 16c9 0 15 -6 15 -16v-19h-29zM131 128l39 14v-28z" />
    <glyph glyph-name="uni0430.ss01" 
d="M125 -82v-30h86v-24h-86v-30h-22v84h22zM100 443c0 -33 25 -58 57 -58s57 25 57 58s-25 58 -57 58s-57 -25 -57 -58zM103 -66h108v23h-37v16l37 21v26l-41 -24c-6 12 -17 20 -31 20c-21 0 -36 -16 -36 -38v-44zM103 36v24h108v-24h-108zM103 116l108 -42v25l-20 7v43
l20 8v26l-108 -44v-23zM103 196h108v66h-21v-42h-87v-24zM103 310h108v23h-41v38h-22v-38h-23v42h-22v-65zM103 519h108v23h-68l68 50v19h-108v-23h66l-66 -47v-22zM103 627h22v30h86v24h-86v30h-22v-84zM123 443c0 20 14 34 34 34s35 -14 35 -34c0 -19 -15 -34 -35 -34
s-34 15 -34 34zM124 -43v19c0 10 6 16 14 16c9 0 15 -6 15 -16v-19h-29zM131 128l39 14v-28z" />
    <glyph glyph-name="uni0437.ss01" 
d="M125 -82v-30h86v-24h-86v-30h-22v84h22zM100 443c0 -33 25 -58 57 -58s57 25 57 58s-25 58 -57 58s-57 -25 -57 -58zM103 -66h108v23h-37v16l37 21v26l-41 -24c-6 12 -17 20 -31 20c-21 0 -36 -16 -36 -38v-44zM103 36v24h108v-24h-108zM103 116l108 -42v25l-20 7v43
l20 8v26l-108 -44v-23zM103 196h108v66h-21v-42h-87v-24zM103 310h108v23h-41v38h-22v-38h-23v42h-22v-65zM103 519h108v23h-68l68 50v19h-108v-23h66l-66 -47v-22zM103 627h22v30h86v24h-86v30h-22v-84zM123 443c0 20 14 34 34 34s35 -14 35 -34c0 -19 -15 -34 -35 -34
s-34 15 -34 34zM124 -43v19c0 10 6 16 14 16c9 0 15 -6 15 -16v-19h-29zM131 128l39 14v-28z" />
    <glyph glyph-name="uni0443.ss01" 
d="M125 -82v-30h86v-24h-86v-30h-22v84h22zM100 443c0 -33 25 -58 57 -58s57 25 57 58s-25 58 -57 58s-57 -25 -57 -58zM103 -66h108v23h-37v16l37 21v26l-41 -24c-6 12 -17 20 -31 20c-21 0 -36 -16 -36 -38v-44zM103 36v24h108v-24h-108zM103 116l108 -42v25l-20 7v43
l20 8v26l-108 -44v-23zM103 196h108v66h-21v-42h-87v-24zM103 310h108v23h-41v38h-22v-38h-23v42h-22v-65zM103 519h108v23h-68l68 50v19h-108v-23h66l-66 -47v-22zM103 627h22v30h86v24h-86v30h-22v-84zM123 443c0 20 14 34 34 34s35 -14 35 -34c0 -19 -15 -34 -35 -34
s-34 15 -34 34zM124 -43v19c0 10 6 16 14 16c9 0 15 -6 15 -16v-19h-29zM131 128l39 14v-28z" />
    <glyph glyph-name="uni0432.ss02" 
d="M125 -82v-30h86v-24h-86v-30h-22v84h22zM100 443c0 -33 25 -58 57 -58s57 25 57 58s-25 58 -57 58s-57 -25 -57 -58zM103 -66h108v23h-37v16l37 21v26l-41 -24c-6 12 -17 20 -31 20c-21 0 -36 -16 -36 -38v-44zM103 36v24h108v-24h-108zM103 116l108 -42v25l-20 7v43
l20 8v26l-108 -44v-23zM103 196h108v66h-21v-42h-87v-24zM103 310h108v23h-41v38h-22v-38h-23v42h-22v-65zM103 519h108v23h-68l68 50v19h-108v-23h66l-66 -47v-22zM103 627h22v30h86v24h-86v30h-22v-84zM123 443c0 20 14 34 34 34s35 -14 35 -34c0 -19 -15 -34 -35 -34
s-34 15 -34 34zM124 -43v19c0 10 6 16 14 16c9 0 15 -6 15 -16v-19h-29zM131 128l39 14v-28z" />
    <glyph glyph-name="uni0433.ss02" 
d="M125 -82v-30h86v-24h-86v-30h-22v84h22zM100 443c0 -33 25 -58 57 -58s57 25 57 58s-25 58 -57 58s-57 -25 -57 -58zM103 -66h108v23h-37v16l37 21v26l-41 -24c-6 12 -17 20 -31 20c-21 0 -36 -16 -36 -38v-44zM103 36v24h108v-24h-108zM103 116l108 -42v25l-20 7v43
l20 8v26l-108 -44v-23zM103 196h108v66h-21v-42h-87v-24zM103 310h108v23h-41v38h-22v-38h-23v42h-22v-65zM103 519h108v23h-68l68 50v19h-108v-23h66l-66 -47v-22zM103 627h22v30h86v24h-86v30h-22v-84zM123 443c0 20 14 34 34 34s35 -14 35 -34c0 -19 -15 -34 -35 -34
s-34 15 -34 34zM124 -43v19c0 10 6 16 14 16c9 0 15 -6 15 -16v-19h-29zM131 128l39 14v-28z" />
    <glyph glyph-name="uni0434.ss02" 
d="M125 -82v-30h86v-24h-86v-30h-22v84h22zM100 443c0 -33 25 -58 57 -58s57 25 57 58s-25 58 -57 58s-57 -25 -57 -58zM103 -66h108v23h-37v16l37 21v26l-41 -24c-6 12 -17 20 -31 20c-21 0 -36 -16 -36 -38v-44zM103 36v24h108v-24h-108zM103 116l108 -42v25l-20 7v43
l20 8v26l-108 -44v-23zM103 196h108v66h-21v-42h-87v-24zM103 310h108v23h-41v38h-22v-38h-23v42h-22v-65zM103 519h108v23h-68l68 50v19h-108v-23h66l-66 -47v-22zM103 627h22v30h86v24h-86v30h-22v-84zM123 443c0 20 14 34 34 34s35 -14 35 -34c0 -19 -15 -34 -35 -34
s-34 15 -34 34zM124 -43v19c0 10 6 16 14 16c9 0 15 -6 15 -16v-19h-29zM131 128l39 14v-28z" />
    <glyph glyph-name="uni0436.ss02" 
d="M125 -82v-30h86v-24h-86v-30h-22v84h22zM100 443c0 -33 25 -58 57 -58s57 25 57 58s-25 58 -57 58s-57 -25 -57 -58zM103 -66h108v23h-37v16l37 21v26l-41 -24c-6 12 -17 20 -31 20c-21 0 -36 -16 -36 -38v-44zM103 36v24h108v-24h-108zM103 116l108 -42v25l-20 7v43
l20 8v26l-108 -44v-23zM103 196h108v66h-21v-42h-87v-24zM103 310h108v23h-41v38h-22v-38h-23v42h-22v-65zM103 519h108v23h-68l68 50v19h-108v-23h66l-66 -47v-22zM103 627h22v30h86v24h-86v30h-22v-84zM123 443c0 20 14 34 34 34s35 -14 35 -34c0 -19 -15 -34 -35 -34
s-34 15 -34 34zM124 -43v19c0 10 6 16 14 16c9 0 15 -6 15 -16v-19h-29zM131 128l39 14v-28z" />
    <glyph glyph-name="uni0438.ss02" 
d="M125 -82v-30h86v-24h-86v-30h-22v84h22zM100 443c0 -33 25 -58 57 -58s57 25 57 58s-25 58 -57 58s-57 -25 -57 -58zM103 -66h108v23h-37v16l37 21v26l-41 -24c-6 12 -17 20 -31 20c-21 0 -36 -16 -36 -38v-44zM103 36v24h108v-24h-108zM103 116l108 -42v25l-20 7v43
l20 8v26l-108 -44v-23zM103 196h108v66h-21v-42h-87v-24zM103 310h108v23h-41v38h-22v-38h-23v42h-22v-65zM103 519h108v23h-68l68 50v19h-108v-23h66l-66 -47v-22zM103 627h22v30h86v24h-86v30h-22v-84zM123 443c0 20 14 34 34 34s35 -14 35 -34c0 -19 -15 -34 -35 -34
s-34 15 -34 34zM124 -43v19c0 10 6 16 14 16c9 0 15 -6 15 -16v-19h-29zM131 128l39 14v-28z" />
    <glyph glyph-name="uni0439.ss02" 
d="M125 -82v-30h86v-24h-86v-30h-22v84h22zM100 443c0 -33 25 -58 57 -58s57 25 57 58s-25 58 -57 58s-57 -25 -57 -58zM103 -66h108v23h-37v16l37 21v26l-41 -24c-6 12 -17 20 -31 20c-21 0 -36 -16 -36 -38v-44zM103 36v24h108v-24h-108zM103 116l108 -42v25l-20 7v43
l20 8v26l-108 -44v-23zM103 196h108v66h-21v-42h-87v-24zM103 310h108v23h-41v38h-22v-38h-23v42h-22v-65zM103 519h108v23h-68l68 50v19h-108v-23h66l-66 -47v-22zM103 627h22v30h86v24h-86v30h-22v-84zM123 443c0 20 14 34 34 34s35 -14 35 -34c0 -19 -15 -34 -35 -34
s-34 15 -34 34zM124 -43v19c0 10 6 16 14 16c9 0 15 -6 15 -16v-19h-29zM131 128l39 14v-28z" />
    <glyph glyph-name="uni045D.ss02" 
d="M125 -82v-30h86v-24h-86v-30h-22v84h22zM100 443c0 -33 25 -58 57 -58s57 25 57 58s-25 58 -57 58s-57 -25 -57 -58zM103 -66h108v23h-37v16l37 21v26l-41 -24c-6 12 -17 20 -31 20c-21 0 -36 -16 -36 -38v-44zM103 36v24h108v-24h-108zM103 116l108 -42v25l-20 7v43
l20 8v26l-108 -44v-23zM103 196h108v66h-21v-42h-87v-24zM103 310h108v23h-41v38h-22v-38h-23v42h-22v-65zM103 519h108v23h-68l68 50v19h-108v-23h66l-66 -47v-22zM103 627h22v30h86v24h-86v30h-22v-84zM123 443c0 20 14 34 34 34s35 -14 35 -34c0 -19 -15 -34 -35 -34
s-34 15 -34 34zM124 -43v19c0 10 6 16 14 16c9 0 15 -6 15 -16v-19h-29zM131 128l39 14v-28z" />
    <glyph glyph-name="uni043A.ss02" 
d="M125 -82v-30h86v-24h-86v-30h-22v84h22zM100 443c0 -33 25 -58 57 -58s57 25 57 58s-25 58 -57 58s-57 -25 -57 -58zM103 -66h108v23h-37v16l37 21v26l-41 -24c-6 12 -17 20 -31 20c-21 0 -36 -16 -36 -38v-44zM103 36v24h108v-24h-108zM103 116l108 -42v25l-20 7v43
l20 8v26l-108 -44v-23zM103 196h108v66h-21v-42h-87v-24zM103 310h108v23h-41v38h-22v-38h-23v42h-22v-65zM103 519h108v23h-68l68 50v19h-108v-23h66l-66 -47v-22zM103 627h22v30h86v24h-86v30h-22v-84zM123 443c0 20 14 34 34 34s35 -14 35 -34c0 -19 -15 -34 -35 -34
s-34 15 -34 34zM124 -43v19c0 10 6 16 14 16c9 0 15 -6 15 -16v-19h-29zM131 128l39 14v-28z" />
    <glyph glyph-name="uni043B.ss02" 
d="M125 -82v-30h86v-24h-86v-30h-22v84h22zM100 443c0 -33 25 -58 57 -58s57 25 57 58s-25 58 -57 58s-57 -25 -57 -58zM103 -66h108v23h-37v16l37 21v26l-41 -24c-6 12 -17 20 -31 20c-21 0 -36 -16 -36 -38v-44zM103 36v24h108v-24h-108zM103 116l108 -42v25l-20 7v43
l20 8v26l-108 -44v-23zM103 196h108v66h-21v-42h-87v-24zM103 310h108v23h-41v38h-22v-38h-23v42h-22v-65zM103 519h108v23h-68l68 50v19h-108v-23h66l-66 -47v-22zM103 627h22v30h86v24h-86v30h-22v-84zM123 443c0 20 14 34 34 34s35 -14 35 -34c0 -19 -15 -34 -35 -34
s-34 15 -34 34zM124 -43v19c0 10 6 16 14 16c9 0 15 -6 15 -16v-19h-29zM131 128l39 14v-28z" />
    <glyph glyph-name="uni043F.ss02" 
d="M125 -82v-30h86v-24h-86v-30h-22v84h22zM100 443c0 -33 25 -58 57 -58s57 25 57 58s-25 58 -57 58s-57 -25 -57 -58zM103 -66h108v23h-37v16l37 21v26l-41 -24c-6 12 -17 20 -31 20c-21 0 -36 -16 -36 -38v-44zM103 36v24h108v-24h-108zM103 116l108 -42v25l-20 7v43
l20 8v26l-108 -44v-23zM103 196h108v66h-21v-42h-87v-24zM103 310h108v23h-41v38h-22v-38h-23v42h-22v-65zM103 519h108v23h-68l68 50v19h-108v-23h66l-66 -47v-22zM103 627h22v30h86v24h-86v30h-22v-84zM123 443c0 20 14 34 34 34s35 -14 35 -34c0 -19 -15 -34 -35 -34
s-34 15 -34 34zM124 -43v19c0 10 6 16 14 16c9 0 15 -6 15 -16v-19h-29zM131 128l39 14v-28z" />
    <glyph glyph-name="uni0442.ss02" 
d="M125 -82v-30h86v-24h-86v-30h-22v84h22zM100 443c0 -33 25 -58 57 -58s57 25 57 58s-25 58 -57 58s-57 -25 -57 -58zM103 -66h108v23h-37v16l37 21v26l-41 -24c-6 12 -17 20 -31 20c-21 0 -36 -16 -36 -38v-44zM103 36v24h108v-24h-108zM103 116l108 -42v25l-20 7v43
l20 8v26l-108 -44v-23zM103 196h108v66h-21v-42h-87v-24zM103 310h108v23h-41v38h-22v-38h-23v42h-22v-65zM103 519h108v23h-68l68 50v19h-108v-23h66l-66 -47v-22zM103 627h22v30h86v24h-86v30h-22v-84zM123 443c0 20 14 34 34 34s35 -14 35 -34c0 -19 -15 -34 -35 -34
s-34 15 -34 34zM124 -43v19c0 10 6 16 14 16c9 0 15 -6 15 -16v-19h-29zM131 128l39 14v-28z" />
    <glyph glyph-name="uni0446.ss02" 
d="M125 -82v-30h86v-24h-86v-30h-22v84h22zM100 443c0 -33 25 -58 57 -58s57 25 57 58s-25 58 -57 58s-57 -25 -57 -58zM103 -66h108v23h-37v16l37 21v26l-41 -24c-6 12 -17 20 -31 20c-21 0 -36 -16 -36 -38v-44zM103 36v24h108v-24h-108zM103 116l108 -42v25l-20 7v43
l20 8v26l-108 -44v-23zM103 196h108v66h-21v-42h-87v-24zM103 310h108v23h-41v38h-22v-38h-23v42h-22v-65zM103 519h108v23h-68l68 50v19h-108v-23h66l-66 -47v-22zM103 627h22v30h86v24h-86v30h-22v-84zM123 443c0 20 14 34 34 34s35 -14 35 -34c0 -19 -15 -34 -35 -34
s-34 15 -34 34zM124 -43v19c0 10 6 16 14 16c9 0 15 -6 15 -16v-19h-29zM131 128l39 14v-28z" />
    <glyph glyph-name="uni0448.ss02" 
d="M125 -82v-30h86v-24h-86v-30h-22v84h22zM100 443c0 -33 25 -58 57 -58s57 25 57 58s-25 58 -57 58s-57 -25 -57 -58zM103 -66h108v23h-37v16l37 21v26l-41 -24c-6 12 -17 20 -31 20c-21 0 -36 -16 -36 -38v-44zM103 36v24h108v-24h-108zM103 116l108 -42v25l-20 7v43
l20 8v26l-108 -44v-23zM103 196h108v66h-21v-42h-87v-24zM103 310h108v23h-41v38h-22v-38h-23v42h-22v-65zM103 519h108v23h-68l68 50v19h-108v-23h66l-66 -47v-22zM103 627h22v30h86v24h-86v30h-22v-84zM123 443c0 20 14 34 34 34s35 -14 35 -34c0 -19 -15 -34 -35 -34
s-34 15 -34 34zM124 -43v19c0 10 6 16 14 16c9 0 15 -6 15 -16v-19h-29zM131 128l39 14v-28z" />
    <glyph glyph-name="uni0449.ss02" 
d="M125 -82v-30h86v-24h-86v-30h-22v84h22zM100 443c0 -33 25 -58 57 -58s57 25 57 58s-25 58 -57 58s-57 -25 -57 -58zM103 -66h108v23h-37v16l37 21v26l-41 -24c-6 12 -17 20 -31 20c-21 0 -36 -16 -36 -38v-44zM103 36v24h108v-24h-108zM103 116l108 -42v25l-20 7v43
l20 8v26l-108 -44v-23zM103 196h108v66h-21v-42h-87v-24zM103 310h108v23h-41v38h-22v-38h-23v42h-22v-65zM103 519h108v23h-68l68 50v19h-108v-23h66l-66 -47v-22zM103 627h22v30h86v24h-86v30h-22v-84zM123 443c0 20 14 34 34 34s35 -14 35 -34c0 -19 -15 -34 -35 -34
s-34 15 -34 34zM124 -43v19c0 10 6 16 14 16c9 0 15 -6 15 -16v-19h-29zM131 128l39 14v-28z" />
    <glyph glyph-name="uni044E.ss02" 
d="M125 -82v-30h86v-24h-86v-30h-22v84h22zM100 443c0 -33 25 -58 57 -58s57 25 57 58s-25 58 -57 58s-57 -25 -57 -58zM103 -66h108v23h-37v16l37 21v26l-41 -24c-6 12 -17 20 -31 20c-21 0 -36 -16 -36 -38v-44zM103 36v24h108v-24h-108zM103 116l108 -42v25l-20 7v43
l20 8v26l-108 -44v-23zM103 196h108v66h-21v-42h-87v-24zM103 310h108v23h-41v38h-22v-38h-23v42h-22v-65zM103 519h108v23h-68l68 50v19h-108v-23h66l-66 -47v-22zM103 627h22v30h86v24h-86v30h-22v-84zM123 443c0 20 14 34 34 34s35 -14 35 -34c0 -19 -15 -34 -35 -34
s-34 15 -34 34zM124 -43v19c0 10 6 16 14 16c9 0 15 -6 15 -16v-19h-29zM131 128l39 14v-28z" />
    <glyph glyph-name="zero" unicode="0" horiz-adv-x="703" 
d="M351 -12c-206 0 -300 151 -300 352s94 352 300 352c207 0 301 -151 301 -352s-94 -352 -301 -352zM136 340c0 -170 67 -272 215 -272c149 0 216 102 216 272s-67 272 -216 272c-148 0 -215 -102 -215 -272z" />
    <glyph glyph-name="one" unicode="1" horiz-adv-x="430" 
d="M53 0v80h143v511l-143 -54v80l165 63h62v-600h127v-80h-354z" />
    <glyph glyph-name="two" unicode="2" horiz-adv-x="574" 
d="M44 40c0 166 122 229 228 291c85 50 162 92 162 180c0 67 -57 103 -155 103c-69 0 -141 -23 -211 -72v84c68 47 143 66 218 66c139 0 232 -66 232 -182s-97 -183 -192 -239s-188 -102 -190 -192l387 1v-80h-479v40z" />
    <glyph glyph-name="three" unicode="3" horiz-adv-x="587" 
d="M289 -12c-97 0 -170 15 -237 45v83c69 -36 140 -50 230 -49c100 0 175 33 175 122c0 93 -74 122 -166 122h-104v80l95 -1c99 0 147 47 147 110c0 70 -57 114 -161 114c-72 0 -138 -17 -204 -52v82c61 31 130 48 215 48c139 0 231 -75 231 -185c0 -70 -41 -130 -99 -150
c58 -18 127 -68 127 -172c0 -132 -113 -197 -249 -197z" />
    <glyph glyph-name="four" unicode="4" horiz-adv-x="645" 
d="M404 0v151h-379v75l371 454h91v-451h128v-78h-128v-151h-83zM128 229h276v338z" />
    <glyph glyph-name="five" unicode="5" horiz-adv-x="579" 
d="M271 -12c-79 0 -159 17 -218 46v80c58 -31 135 -48 208 -48c111 0 189 47 189 139c0 111 -96 142 -202 142c-60 0 -124 -13 -176 -32l22 365h408v-80h-329l-12 -192c36 10 76 15 116 15c128 0 258 -55 258 -218c0 -138 -116 -217 -264 -217z" />
    </font>
</defs>
</svg>
